<?xml version="1.0" encoding="utf-8"?>
<!-- Generator: Adobe Illustrator 16.0.1, SVG Export Plug-In . SVG Version: 6.00 Build 0)  -->
<!DOCTYPE svg PUBLIC "-//W3C//DTD SVG 1.1//EN" "http://www.w3.org/Graphics/SVG/1.1/DTD/svg11.dtd">
<svg version="1.1" id="Layer_1" xmlns="http://www.w3.org/2000/svg" xmlns:xlink="http://www.w3.org/1999/xlink" x="0px" y="0px"
	 width="150px" height="100px" viewBox="0 0 150 100" enable-background="new 0 0 150 100" xml:space="preserve">
<g>
	<path fill="#999999" d="M75.207,2.501c-10.934,0-19.829,8.896-19.829,19.834c0,10.928,8.896,19.824,19.829,19.824
		c10.938,0,19.836-8.896,19.836-19.824C95.043,11.397,86.145,2.501,75.207,2.501z M93.178,22.335c0,3.213-0.85,6.23-2.334,8.844
		L78.051,20.69L75.363,4.367C85.203,4.444,93.178,12.472,93.178,22.335z M75.051,4.367L72.366,20.69L59.577,31.179
		c-1.484-2.613-2.338-5.631-2.338-8.844C57.238,12.472,65.217,4.444,75.051,4.367z M75.207,40.299c-6.581,0-12.35-3.56-15.477-8.852
		l15.477-5.835l15.48,5.835C87.562,36.74,81.791,40.299,75.207,40.299z"/>
	<g>
		<path fill="#999999" d="M24.661,68.352l4.632-10.521h3.903v0.43H32.73c-0.625,0-1.035,0.055-1.231,0.156
			c-0.195,0.104-0.321,0.293-0.39,0.576c-0.062,0.275-0.098,0.949-0.098,2.006v6.234c0,1,0.026,1.654,0.075,1.969
			c0.053,0.307,0.179,0.543,0.381,0.688c0.199,0.15,0.589,0.227,1.165,0.227h0.563v0.43h-6.074v-0.43h0.449
			c0.538,0,0.912-0.068,1.117-0.205c0.215-0.139,0.348-0.354,0.407-0.646c0.058-0.289,0.088-0.967,0.088-2.031v-8.098l-5.036,11.408
			h-0.443l-5.068-11.408v7.453c0,1.02,0.029,1.713,0.091,2.084c0.065,0.367,0.25,0.689,0.583,0.971
			c0.326,0.275,0.781,0.438,1.367,0.473v0.43h-4.551v-0.43c0.547-0.031,0.99-0.178,1.328-0.439c0.342-0.271,0.547-0.596,0.625-0.984
			c0.072-0.387,0.111-1.105,0.111-2.158V61c0-1.016-0.03-1.664-0.092-1.963c-0.059-0.293-0.182-0.492-0.372-0.609
			c-0.191-0.107-0.611-0.166-1.255-0.166h-0.346v-0.43h3.877L24.661,68.352z"/>
		<path fill="#999999" d="M41.233,65.466h-5.352c-0.03,0.365-0.039,0.64-0.039,0.82c0,1.353,0.215,2.366,0.634,3.047
			c0.424,0.678,1.049,1.017,1.889,1.017c1.139,0,1.943-0.509,2.422-1.529h0.446c-0.202,0.642-0.596,1.14-1.188,1.496
			c-0.59,0.365-1.244,0.541-1.944,0.541c-0.648,0-1.263-0.168-1.839-0.493c-0.583-0.326-1.056-0.796-1.426-1.392
			c-0.371-0.603-0.553-1.328-0.553-2.188c0-1.211,0.357-2.218,1.071-3.022c0.712-0.808,1.601-1.205,2.676-1.205
			c1.005,0,1.786,0.303,2.333,0.918C40.911,64.089,41.204,64.753,41.233,65.466z M39.597,65.089
			c0.016-0.141,0.025-0.276,0.025-0.385c0-0.554-0.162-0.978-0.485-1.279c-0.322-0.309-0.712-0.459-1.185-0.459
			c-1.14,0-1.816,0.707-2.039,2.123H39.597z"/>
		<path fill="#999999" d="M45.167,64.516c0.216-0.56,0.558-1.022,1.036-1.397c0.479-0.371,0.941-0.562,1.4-0.562
			c0.416,0,0.739,0.131,0.973,0.385c0.244,0.261,0.355,0.519,0.355,0.787c0,0.187-0.053,0.338-0.176,0.47
			c-0.121,0.137-0.274,0.194-0.449,0.194c-0.312,0-0.547-0.229-0.714-0.692c-0.11-0.312-0.283-0.466-0.507-0.466
			c-0.267,0-0.589,0.177-0.966,0.543c-0.371,0.371-0.609,0.752-0.717,1.144c-0.107,0.396-0.162,0.938-0.162,1.621v1.373
			c0,0.813,0.016,1.332,0.036,1.547c0.019,0.215,0.11,0.371,0.263,0.488c0.156,0.106,0.44,0.166,0.834,0.166h0.263v0.43h-4.083
			v-0.43h0.195c0.382,0,0.645-0.05,0.808-0.156c0.16-0.104,0.254-0.244,0.286-0.437c0.03-0.187,0.046-0.728,0.046-1.608v-2.17
			c0-0.824-0.01-1.343-0.03-1.554c-0.025-0.209-0.113-0.371-0.27-0.487c-0.159-0.111-0.433-0.17-0.84-0.17h-0.195v-0.427
			c0.593-0.062,1.358-0.254,2.312-0.551C45.045,63.048,45.143,63.702,45.167,64.516z"/>
		<path fill="#999999" d="M55.954,68.673h0.405c-0.426,1.449-1.48,2.185-3.183,2.185c-1.094,0-2.018-0.371-2.76-1.112
			c-0.746-0.752-1.127-1.734-1.127-2.959c0-1.261,0.41-2.277,1.211-3.058c0.812-0.78,1.761-1.172,2.862-1.172
			c0.664,0,1.273,0.144,1.836,0.435c0.547,0.293,0.83,0.645,0.83,1.063c0,0.155-0.049,0.31-0.156,0.444
			c-0.104,0.137-0.254,0.205-0.449,0.205c-0.406,0-0.66-0.24-0.759-0.724c-0.071-0.36-0.188-0.614-0.345-0.762
			c-0.166-0.144-0.475-0.212-0.947-0.212c-0.84,0-1.465,0.289-1.891,0.863c-0.42,0.588-0.635,1.467-0.635,2.633
			c0,1.207,0.23,2.147,0.689,2.832c0.443,0.681,1.132,1.021,2.054,1.021C54.827,70.357,55.618,69.796,55.954,68.673z"/>
		<path fill="#999999" d="M64.484,65.466h-5.352c-0.029,0.365-0.039,0.64-0.039,0.82c0,1.353,0.209,2.366,0.629,3.047
			c0.426,0.678,1.055,1.017,1.895,1.017c1.139,0,1.943-0.509,2.418-1.529h0.449c-0.201,0.642-0.596,1.14-1.191,1.496
			c-0.592,0.365-1.24,0.541-1.943,0.541c-0.645,0-1.26-0.168-1.836-0.493c-0.582-0.326-1.055-0.796-1.422-1.392
			c-0.375-0.603-0.557-1.328-0.557-2.188c0-1.211,0.357-2.218,1.07-3.022c0.713-0.807,1.602-1.205,2.67-1.205
			c1.006,0,1.793,0.303,2.34,0.918C64.164,64.089,64.456,64.753,64.484,65.466z M62.848,65.089c0.016-0.141,0.026-0.276,0.026-0.385
			c0-0.554-0.156-0.978-0.479-1.279c-0.32-0.309-0.722-0.459-1.19-0.459c-1.14,0-1.815,0.707-2.037,2.123H62.848z"/>
		<path fill="#999999" d="M72.436,63.68v-2.998c0-0.822-0.017-1.334-0.041-1.55c-0.016-0.209-0.105-0.381-0.263-0.487
			c-0.155-0.11-0.437-0.164-0.83-0.164h-0.204v-0.44c0.762-0.017,1.584-0.146,2.489-0.392h0.195v10.328
			c0,0.896,0.02,1.437,0.049,1.631c0.032,0.194,0.13,0.343,0.297,0.435c0.162,0.094,0.474,0.144,0.918,0.144v0.424
			c-0.909,0.024-1.713,0.106-2.416,0.25c-0.078-0.293-0.114-0.758-0.114-1.387c-0.461,0.459-0.94,0.805-1.429,1.038
			c-0.487,0.23-1.002,0.349-1.524,0.349c-0.996,0-1.852-0.399-2.578-1.2c-0.721-0.802-1.08-1.773-1.08-2.91
			c0-1.246,0.369-2.263,1.104-3.026c0.738-0.777,1.618-1.162,2.633-1.162c0.526,0,1.017,0.099,1.479,0.276
			C71.579,63.021,72.018,63.309,72.436,63.68z M72.436,64.227c-0.418-0.356-0.83-0.625-1.248-0.802
			c-0.42-0.182-0.832-0.271-1.252-0.271c-0.703,0-1.291,0.273-1.765,0.816c-0.472,0.543-0.714,1.437-0.714,2.663
			c0,1.246,0.242,2.175,0.73,2.767c0.487,0.591,1.082,0.894,1.797,0.894c0.478,0,0.91-0.11,1.32-0.342
			c0.407-0.224,0.782-0.562,1.131-1.011V64.227z"/>
		<path fill="#999999" d="M82.902,65.466h-5.359c-0.02,0.365-0.035,0.64-0.035,0.82c0,1.353,0.211,2.366,0.633,3.047
			c0.42,0.678,1.051,1.017,1.885,1.017c1.142,0,1.951-0.509,2.425-1.529h0.452c-0.202,0.642-0.602,1.14-1.194,1.496
			c-0.59,0.365-1.244,0.541-1.938,0.541c-0.651,0-1.266-0.168-1.846-0.493c-0.576-0.326-1.055-0.796-1.424-1.392
			c-0.363-0.603-0.549-1.328-0.549-2.188c0-1.211,0.354-2.218,1.066-3.022c0.713-0.807,1.608-1.205,2.676-1.205
			c1.006,0,1.783,0.303,2.334,0.918C82.582,64.089,82.867,64.753,82.902,65.466z M81.258,65.089
			c0.016-0.141,0.027-0.276,0.027-0.385c0-0.554-0.158-0.978-0.48-1.279c-0.322-0.309-0.719-0.459-1.182-0.459
			c-1.143,0-1.822,0.707-2.041,2.123H81.258z"/>
		<path fill="#999999" d="M84.408,70.792v-2.524h0.371c0.424,1.457,1.182,2.188,2.275,2.188c0.479,0,0.832-0.146,1.063-0.437
			c0.229-0.287,0.354-0.601,0.354-0.946c0-0.4-0.125-0.728-0.382-0.982c-0.254-0.258-0.754-0.569-1.485-0.932
			c-0.777-0.38-1.336-0.752-1.67-1.127c-0.338-0.361-0.506-0.808-0.506-1.339c0-0.508,0.184-0.991,0.545-1.45
			c0.358-0.459,0.866-0.688,1.522-0.688c0.672,0,1.229,0.269,1.66,0.813c0.096-0.093,0.215-0.322,0.362-0.685h0.353v2.373H88.52
			c-0.121-0.57-0.365-1.06-0.723-1.464c-0.355-0.416-0.783-0.616-1.27-0.616c-0.375,0-0.68,0.11-0.91,0.349
			c-0.236,0.229-0.352,0.498-0.352,0.801c0,0.343,0.133,0.636,0.389,0.873c0.254,0.25,0.725,0.537,1.436,0.854
			c1.064,0.478,1.711,0.951,1.945,1.405c0.246,0.47,0.359,0.908,0.359,1.334c0,0.668-0.215,1.216-0.66,1.636
			c-0.443,0.41-0.996,0.625-1.664,0.625c-0.703,0-1.34-0.293-1.885-0.875c-0.174,0.19-0.312,0.459-0.41,0.812L84.408,70.792
			L84.408,70.792z"/>
		<path fill="#999999" d="M90.707,65.958h4.602v1.422h-4.602V65.958z"/>
		<path fill="#999999" d="M102.727,63.698c1.447,0.106,2.521,0.465,3.217,1.077c0.705,0.608,1.054,1.384,1.054,2.302
			c0,0.801-0.242,1.487-0.713,2.063c-0.476,0.582-1.084,0.963-1.826,1.139c-0.742,0.181-1.729,0.265-2.979,0.265h-4.987v-0.43h0.487
			c0.547,0,0.922-0.068,1.133-0.205c0.203-0.138,0.343-0.353,0.4-0.646c0.051-0.289,0.078-0.968,0.078-2.031v-6.188
			c0-1.035-0.027-1.697-0.09-1.996c-0.059-0.303-0.188-0.508-0.371-0.625c-0.191-0.105-0.611-0.166-1.258-0.166h-0.234v-0.43
			l2.09-0.061l2.383-0.07c3.478,0,5.216,1,5.216,2.994c0,0.83-0.304,1.49-0.898,1.992S103.93,63.525,102.727,63.698z
			 M100.434,63.521c0.156,0.004,0.285,0.011,0.392,0.011c1.352,0,2.271-0.216,2.764-0.642c0.498-0.425,0.742-1.111,0.742-2.063
			c0-0.66-0.099-1.173-0.291-1.533c-0.192-0.367-0.488-0.646-0.871-0.84c-0.381-0.201-1.051-0.3-1.985-0.3
			c-0.238,0-0.492,0.011-0.746,0.029L100.434,63.521L100.434,63.521z M100.434,63.98v2.832c0,1.209,0.021,1.974,0.062,2.299
			c0.045,0.322,0.162,0.572,0.352,0.738c0.191,0.17,0.566,0.254,1.133,0.254c1.002,0,1.744-0.254,2.246-0.769
			c0.504-0.512,0.75-1.278,0.75-2.31c0-1.045-0.274-1.825-0.848-2.319c-0.562-0.498-1.562-0.746-2.984-0.746
			C100.914,63.962,100.678,63.966,100.434,63.98z"/>
		<path fill="#999999" d="M115.523,65.466h-5.355c-0.025,0.365-0.043,0.64-0.043,0.82c0,1.353,0.215,2.366,0.641,3.047
			c0.42,0.678,1.045,1.017,1.883,1.017c1.138,0,1.945-0.509,2.425-1.529h0.45c-0.196,0.642-0.598,1.14-1.192,1.496
			c-0.597,0.365-1.24,0.541-1.938,0.541c-0.656,0-1.266-0.168-1.85-0.493c-0.578-0.326-1.047-0.796-1.418-1.392
			c-0.367-0.603-0.555-1.328-0.555-2.188c0-1.211,0.359-2.218,1.072-3.022c0.713-0.807,1.604-1.205,2.674-1.205
			c1.008,0,1.781,0.303,2.336,0.918C115.199,64.089,115.492,64.753,115.523,65.466z M113.881,65.089
			c0.018-0.141,0.029-0.276,0.029-0.385c0-0.554-0.164-0.978-0.484-1.279c-0.324-0.309-0.719-0.459-1.193-0.459
			c-1.135,0-1.813,0.707-2.032,2.123H113.881z"/>
		<path fill="#999999" d="M118.898,62.557h0.254c0.141,0.392,0.227,0.911,0.238,1.586c0.457-0.537,0.928-0.933,1.422-1.19
			c0.487-0.265,1.008-0.396,1.547-0.396c0.613,0,1.113,0.131,1.5,0.385c0.393,0.261,0.645,0.565,0.764,0.942
			c0.107,0.371,0.166,0.912,0.166,1.625v2.404c0,0.883,0.012,1.424,0.043,1.619c0.035,0.196,0.133,0.342,0.299,0.438
			c0.166,0.096,0.471,0.144,0.918,0.144v0.43h-3.936v-0.43h0.18c0.453,0,0.748-0.064,0.885-0.195
			c0.131-0.133,0.215-0.287,0.229-0.459c0.024-0.181,0.026-0.688,0.026-1.547v-2.478c0-0.604-0.026-1.045-0.086-1.302
			c-0.062-0.264-0.219-0.485-0.473-0.69c-0.266-0.2-0.596-0.297-0.992-0.297c-0.461,0-0.893,0.136-1.309,0.408
			c-0.414,0.271-0.814,0.68-1.184,1.221v3.138c0,0.883,0.02,1.424,0.057,1.619c0.033,0.196,0.137,0.342,0.295,0.438
			c0.168,0.098,0.48,0.144,0.93,0.144v0.43h-3.881v-0.43c0.43,0,0.732-0.046,0.898-0.134c0.168-0.088,0.271-0.219,0.311-0.396
			c0.039-0.183,0.062-0.737,0.062-1.674V65.62c0-0.894-0.021-1.437-0.054-1.627c-0.026-0.195-0.137-0.336-0.305-0.435
			c-0.16-0.095-0.468-0.146-0.916-0.146V62.98C117.475,62.913,118.18,62.766,118.898,62.557z"/>
		<path fill="#999999" d="M126.957,70.544v-0.293l5.09-6.953h-2.793c-0.355,0-0.598,0.021-0.73,0.068
			c-0.129,0.043-0.276,0.194-0.461,0.452c-0.178,0.255-0.354,0.646-0.528,1.173h-0.353l0.117-2.13h6.439v0.343l-5.062,6.91h2.098
			c0.677,0,1.138-0.033,1.369-0.113c0.229-0.078,0.459-0.258,0.685-0.562c0.228-0.291,0.45-0.739,0.678-1.342h0.371l-0.219,2.446
			H126.957z"/>
		<path fill="#999999" d="M32.25,84.471l0.101,3.172h-0.44c-0.087-0.69-0.283-1.271-0.589-1.724
			c-0.302-0.453-0.622-0.735-0.954-0.844c-0.325-0.117-0.892-0.173-1.68-0.173h-2.484v5.392h1.191c0.772,0,1.284-0.127,1.538-0.387
			c0.25-0.259,0.377-0.781,0.377-1.562h0.469v4.481H29.31c0-0.548-0.056-0.979-0.166-1.295c-0.108-0.31-0.27-0.527-0.485-0.64
			c-0.218-0.119-0.635-0.179-1.264-0.179h-1.191v3.164c0,1.002,0.023,1.651,0.078,1.959c0.049,0.312,0.175,0.541,0.381,0.692
			c0.199,0.148,0.595,0.226,1.175,0.226h0.429v0.431H22.36v-0.431h0.397c0.54,0,0.918-0.071,1.126-0.209
			c0.212-0.133,0.349-0.353,0.401-0.635c0.064-0.293,0.094-0.978,0.094-2.033v-6.239c0-1.017-0.03-1.662-0.094-1.957
			c-0.053-0.293-0.179-0.502-0.371-0.608c-0.189-0.117-0.609-0.173-1.253-0.173h-0.225v-0.435h9.815V84.471z"/>
		<path fill="#999999" d="M39.816,95.786h0.343c-0.05,1.069-0.577,1.603-1.573,1.603c-0.43,0-0.762-0.117-1.006-0.337
			c-0.25-0.225-0.41-0.561-0.484-1.006c-0.628,0.445-1.195,0.781-1.713,1.006c-0.514,0.22-0.977,0.337-1.384,0.337
			c-0.52,0-0.969-0.146-1.34-0.453c-0.378-0.3-0.566-0.692-0.566-1.19c0-0.642,0.316-1.207,0.947-1.688
			c0.628-0.479,1.498-0.947,2.601-1.402l1.456-0.59v-0.375c0-0.537-0.035-0.92-0.101-1.155c-0.069-0.236-0.25-0.447-0.539-0.638
			c-0.289-0.187-0.663-0.282-1.132-0.282c-0.938,0-1.461,0.317-1.572,0.938c-0.098,0.64-0.362,0.962-0.789,0.962
			c-0.374,0-0.566-0.187-0.566-0.546c0-0.356,0.25-0.737,0.758-1.153c0.508-0.403,1.292-0.608,2.363-0.608
			c0.792,0,1.407,0.123,1.846,0.375c0.439,0.244,0.732,0.533,0.869,0.851c0.14,0.321,0.215,0.812,0.215,1.467V95
			c0,0.729,0.03,1.188,0.108,1.396c0.071,0.211,0.238,0.312,0.488,0.312C39.459,96.704,39.72,96.393,39.816,95.786z M37.097,92.501
			l-1.026,0.414c-1.615,0.655-2.416,1.481-2.416,2.471c0,0.4,0.098,0.714,0.306,0.96c0.211,0.237,0.479,0.358,0.808,0.358
			c0.296,0,0.634-0.097,1.025-0.291c0.391-0.195,0.82-0.483,1.303-0.875V92.501z"/>
		<path fill="#999999" d="M41.136,97.438v-2.522h0.371c0.423,1.451,1.182,2.185,2.275,2.185c0.479,0,0.831-0.144,1.065-0.433
			c0.234-0.287,0.352-0.604,0.352-0.946c0-0.4-0.124-0.728-0.378-0.984c-0.259-0.26-0.752-0.562-1.488-0.935
			c-0.778-0.377-1.334-0.752-1.669-1.116c-0.339-0.362-0.508-0.812-0.508-1.351c0-0.502,0.186-0.983,0.547-1.444
			c0.359-0.457,0.872-0.688,1.527-0.688c0.669,0,1.22,0.271,1.666,0.812c0.089-0.094,0.209-0.318,0.362-0.686H45.6v2.377h-0.342
			c-0.127-0.57-0.371-1.059-0.729-1.471c-0.361-0.416-0.781-0.613-1.27-0.613c-0.375,0-0.677,0.117-0.911,0.346
			C42.117,90.203,42,90.467,42,90.777c0,0.332,0.126,0.625,0.387,0.871c0.247,0.254,0.732,0.531,1.435,0.854
			c1.065,0.481,1.709,0.953,1.953,1.399c0.235,0.47,0.352,0.914,0.352,1.339c0,0.663-0.215,1.211-0.661,1.631
			c-0.442,0.422-0.989,0.627-1.663,0.627c-0.709,0-1.338-0.283-1.884-0.865c-0.172,0.183-0.31,0.455-0.411,0.806h-0.372
			L41.136,97.438L41.136,97.438z"/>
		<path fill="#999999" d="M49.898,90.775c0.378-0.526,0.797-0.916,1.26-1.187c0.465-0.264,0.977-0.391,1.533-0.391
			c0.635,0,1.158,0.127,1.572,0.391c0.42,0.271,0.685,0.593,0.811,0.974c0.124,0.386,0.191,1.004,0.191,1.869v2.123
			c0,0.897,0.014,1.446,0.049,1.637c0.033,0.195,0.138,0.343,0.303,0.435c0.17,0.084,0.479,0.133,0.938,0.133v0.431H52.59v-0.431
			h0.176c0.459,0,0.756-0.062,0.889-0.198c0.131-0.127,0.216-0.283,0.236-0.463c0.022-0.179,0.031-0.688,0.031-1.541v-2.31
			c0-0.636-0.039-1.106-0.109-1.416c-0.078-0.31-0.254-0.562-0.535-0.763c-0.276-0.198-0.625-0.299-1.045-0.299
			c-0.487,0-0.92,0.144-1.312,0.429c-0.39,0.286-0.729,0.711-1.022,1.282v3.074c0,0.858,0.01,1.396,0.039,1.594
			c0.03,0.199,0.124,0.354,0.289,0.453c0.16,0.103,0.46,0.155,0.889,0.155v0.431h-3.902v-0.431h0.195
			c0.455,0,0.742-0.062,0.879-0.19c0.133-0.127,0.215-0.28,0.24-0.459c0.014-0.18,0.03-0.694,0.03-1.553V86.9
			c0-0.776-0.075-1.267-0.222-1.469c-0.149-0.211-0.501-0.313-1.058-0.313v-0.431c0.971,0,1.777-0.131,2.425-0.396h0.195V90.775
			L49.898,90.775z"/>
		<path fill="#999999" d="M60.064,89.2v5.354c0,0.819,0.009,1.334,0.039,1.543c0.025,0.217,0.113,0.377,0.27,0.487
			c0.156,0.117,0.438,0.172,0.833,0.172h0.196v0.431h-4.135v-0.431h0.316c0.449,0,0.739-0.062,0.869-0.19
			c0.136-0.127,0.215-0.28,0.234-0.459c0.025-0.18,0.035-0.694,0.035-1.553v-2.326c0-0.897-0.039-1.453-0.125-1.651
			c-0.086-0.201-0.203-0.322-0.34-0.375c-0.137-0.052-0.384-0.074-0.734-0.074H57.27v-0.43c1.117-0.117,1.982-0.279,2.588-0.498
			H60.064L60.064,89.2z M58.254,85.279c0-0.271,0.098-0.497,0.287-0.692c0.191-0.194,0.419-0.293,0.689-0.293
			c0.272,0,0.492,0.099,0.684,0.293c0.189,0.195,0.284,0.424,0.284,0.692c0,0.277-0.095,0.509-0.284,0.701
			c-0.191,0.194-0.41,0.289-0.684,0.289c-0.271,0-0.498-0.095-0.689-0.289C58.352,85.788,58.254,85.559,58.254,85.279z"/>
		<path fill="#999999" d="M62.482,93.335c0-1.176,0.4-2.162,1.182-2.949c0.791-0.795,1.758-1.186,2.91-1.186
			c1.162,0,2.129,0.399,2.92,1.19c0.785,0.795,1.175,1.776,1.175,2.942c0,1.297-0.394,2.312-1.202,3.054
			c-0.794,0.743-1.762,1.108-2.894,1.108c-1.134,0-2.097-0.373-2.892-1.125C62.883,95.622,62.482,94.604,62.482,93.335z
			 M64.045,93.382c0,1.359,0.215,2.316,0.665,2.865c0.442,0.551,1.063,0.817,1.865,0.817c0.819,0,1.444-0.269,1.878-0.817
			c0.438-0.549,0.654-1.506,0.654-2.865c0-1.35-0.219-2.312-0.647-2.889c-0.431-0.574-1.062-0.869-1.885-0.869
			c-0.82,0-1.445,0.289-1.882,0.865C64.262,91.061,64.045,92.027,64.045,93.382z"/>
		<path fill="#999999" d="M74.025,89.2h0.254c0.141,0.387,0.225,0.918,0.238,1.582c0.449-0.527,0.918-0.923,1.416-1.191
			c0.496-0.264,1.014-0.391,1.551-0.391c0.606,0,1.113,0.127,1.504,0.381c0.391,0.258,0.645,0.576,0.754,0.94
			c0.115,0.377,0.174,0.914,0.174,1.627v2.406c0,0.885,0.014,1.432,0.041,1.62c0.037,0.195,0.135,0.339,0.301,0.437
			c0.16,0.099,0.469,0.146,0.91,0.146v0.432H77.24v-0.432h0.176c0.449,0,0.752-0.062,0.889-0.197
			c0.129-0.127,0.207-0.279,0.228-0.461c0.026-0.17,0.028-0.688,0.028-1.543v-2.48c0-0.605-0.028-1.035-0.088-1.299
			c-0.061-0.258-0.217-0.488-0.479-0.688c-0.263-0.194-0.586-0.297-0.986-0.297c-0.459,0-0.896,0.138-1.309,0.406
			c-0.421,0.268-0.812,0.684-1.179,1.225v3.134c0,0.885,0.017,1.432,0.056,1.62c0.032,0.195,0.13,0.339,0.296,0.437
			c0.166,0.099,0.475,0.146,0.924,0.146v0.432h-3.887V96.76c0.439,0,0.736-0.043,0.902-0.127c0.172-0.092,0.279-0.225,0.318-0.404
			c0.039-0.178,0.059-0.732,0.059-1.67V92.27c0-0.898-0.02-1.438-0.055-1.627c-0.033-0.189-0.131-0.332-0.296-0.436
			c-0.167-0.1-0.469-0.143-0.928-0.143v-0.439C72.602,89.557,73.296,89.411,74.025,89.2z"/>
		<path fill="#999999" d="M99.643,97.497h-0.43l-3.867-10.481l-3.389,10.481H91.5l-3.059-9.904
			c-0.281-0.896-0.479-1.493-0.604-1.795c-0.121-0.299-0.274-0.519-0.473-0.653c-0.195-0.137-0.527-0.222-0.984-0.24v-0.434h4.772
			v0.434c-0.573,0.039-0.938,0.117-1.104,0.25c-0.166,0.128-0.244,0.308-0.244,0.535c0,0.207,0.129,0.737,0.396,1.588l2.266,7.412
			l3.326-10.219h0.521l3.73,10.219l1.941-6.756c0.262-0.914,0.389-1.507,0.389-1.789c0-0.828-0.447-1.24-1.326-1.24v-0.434h3.473
			v0.434c-0.506,0.039-0.896,0.229-1.141,0.566c-0.254,0.342-0.566,1.155-0.947,2.456L99.643,97.497z"/>
		<path fill="#999999" d="M110.648,92.105h-5.359c-0.021,0.365-0.031,0.644-0.031,0.828c0,1.349,0.207,2.362,0.629,3.037
			c0.426,0.68,1.055,1.021,1.896,1.021c1.137,0,1.94-0.514,2.418-1.527h0.448c-0.203,0.635-0.596,1.139-1.19,1.494
			c-0.594,0.357-1.24,0.537-1.94,0.537c-0.646,0-1.263-0.158-1.849-0.49c-0.571-0.33-1.045-0.789-1.416-1.396
			c-0.371-0.598-0.553-1.328-0.553-2.184c0-1.215,0.356-2.221,1.069-3.021c0.713-0.808,1.603-1.207,2.668-1.207
			c1.006,0,1.785,0.307,2.336,0.918C110.326,90.732,110.613,91.393,110.648,92.105z M109.008,91.732
			c0.02-0.146,0.029-0.272,0.029-0.385c0-0.552-0.166-0.981-0.488-1.283c-0.322-0.299-0.713-0.455-1.182-0.455
			c-1.141,0-1.816,0.707-2.039,2.123H109.008z"/>
		<path fill="#999999" d="M119.057,92.105h-5.361c-0.02,0.365-0.034,0.644-0.034,0.828c0,1.349,0.211,2.362,0.633,3.037
			c0.422,0.68,1.056,1.021,1.89,1.021c1.137,0,1.946-0.514,2.422-1.527h0.455c-0.205,0.635-0.605,1.139-1.199,1.494
			c-0.588,0.357-1.232,0.537-1.938,0.537c-0.649,0-1.266-0.158-1.846-0.49c-0.576-0.33-1.058-0.789-1.425-1.396
			c-0.362-0.598-0.551-1.328-0.551-2.184c0-1.215,0.355-2.221,1.07-3.021c0.711-0.808,1.607-1.207,2.676-1.207
			c1.004,0,1.783,0.307,2.332,0.918C118.734,90.732,119.02,91.393,119.057,92.105z M117.41,91.732
			c0.025-0.146,0.027-0.272,0.027-0.385c0-0.552-0.158-0.981-0.48-1.283c-0.322-0.299-0.719-0.455-1.184-0.455
			c-1.144,0-1.82,0.707-2.039,2.123H117.41z"/>
		<path fill="#999999" d="M124.859,89.507h3.094v0.433c-0.566,0.019-1.336,0.438-2.285,1.278c-0.312,0.265-0.781,0.644-1.426,1.152
			l2.734,3.207c0.414,0.481,0.731,0.795,0.977,0.94c0.238,0.146,0.488,0.226,0.732,0.239v0.431h-3.826v-0.431
			c0.633-0.016,0.953-0.149,0.953-0.409c0-0.123-0.211-0.427-0.623-0.914l-1.976-2.287l-0.397,0.297v1.111
			c0,0.819,0.01,1.334,0.031,1.541c0.018,0.213,0.106,0.372,0.266,0.485c0.154,0.117,0.426,0.176,0.816,0.176v0.431h-3.896v-0.431
			h0.293c0.449,0,0.742-0.062,0.877-0.19c0.137-0.127,0.213-0.28,0.23-0.459c0.02-0.181,0.024-0.694,0.024-1.553v-7.699
			c0-0.748-0.065-1.222-0.207-1.424c-0.146-0.211-0.479-0.313-1.021-0.313v-0.431c0.369,0,0.811-0.045,1.328-0.131
			c0.52-0.089,0.871-0.173,1.061-0.265h0.195v8.642l0.805-0.563c1.305-0.922,1.959-1.595,1.959-2.004c0-0.269-0.24-0.41-0.721-0.429
			v-0.432L124.859,89.507L124.859,89.507z"/>
	</g>
	<rect x="17.79" y="77.229" fill="#999999" width="115.046" height="0.308"/>
</g>
</svg>
