<?xml version="1.0" encoding="utf-8"?>
<!-- Generator: Adobe Illustrator 16.0.1, SVG Export Plug-In . SVG Version: 6.00 Build 0)  -->
<!DOCTYPE svg PUBLIC "-//W3C//DTD SVG 1.1//EN" "http://www.w3.org/Graphics/SVG/1.1/DTD/svg11.dtd">
<svg version="1.1" id="Layer_1" xmlns="http://www.w3.org/2000/svg" xmlns:xlink="http://www.w3.org/1999/xlink" x="0px" y="0px"
	 width="294.408px" height="319.935px" viewBox="129.062 27.472 294.408 319.935"
	 enable-background="new 129.062 27.472 294.408 319.935" xml:space="preserve">
<g id="Layer_1_1_" display="none" opacity="0.5">
</g>
<g id="Layer_2">
</g>
<g>
	<path fill="#5C6468" d="M383.845,80.551c0,0.678-0.094,1.351-0.276,1.998c-0.889,3.128-3.781,5.313-7.036,5.313
		c-4.031,0-7.312-3.28-7.312-7.312h0.001v-2.796c0.984,0.834,2.255,1.34,3.644,1.34c3.112,0,5.646-2.533,5.646-5.646
		c0-1.823-0.89-3.544-2.379-4.603l-1.158,1.63c0.962,0.685,1.537,1.796,1.537,2.973c0,2.01-1.636,3.646-3.646,3.646
		c-2.003,0-3.632-1.625-3.644-3.626V59.927c0-14.436-11.745-26.18-26.182-26.18c-5.045,0-9.758,1.438-13.759,3.92l-0.01-0.015
		c-0.672,0.389-1.439,0.595-2.222,0.595c-2.455,0-4.453-1.998-4.453-4.453c0-2.106,1.495-3.94,3.556-4.363l-0.402-1.959
		c-2.985,0.612-5.152,3.271-5.152,6.322c0,3.173,2.306,5.812,5.327,6.348c-5.546,4.804-9.063,11.889-9.063,19.785v17.442
		c0,2.389-1.943,4.333-4.333,4.333c-2.391,0-4.333-1.944-4.333-4.333c0-0.818,0.229-1.615,0.661-2.304l-1.692-1.064
		c-0.634,1.007-0.969,2.172-0.969,3.368c0,3.492,2.841,6.333,6.333,6.333c3.491,0,6.333-2.841,6.333-6.333V59.927
		c0-13.333,10.847-24.18,24.18-24.18c13.334,0,24.182,10.847,24.182,24.18v13.521h-0.002c0,0.013,0.002,0.025,0.002,0.039v7.063
		h-0.001c0,5.135,4.178,9.312,9.312,9.312c4.145,0,7.829-2.783,8.96-6.767c0.233-0.825,0.354-1.681,0.354-2.544H383.845z"/>
	<path fill="none" d="M327.409,129.123c-0.657,0.619-1.681,1.674-2.222,2.484c-1.195,1.787-1.576,3.365-1.701,4.229
		c0.646,0.225,1.274,0.507,1.869,0.859c0.563,0.337,1.098,0.728,1.588,1.164c0.495,0.442,0.946,0.93,1.344,1.451
		c0.202,0.262,0.394,0.54,0.568,0.827c0.078,0.127,0.145,0.264,0.218,0.395C331.531,134.981,328.666,130.639,327.409,129.123z"/>
	<path fill="none" d="M317.788,131.319l0.381-0.525l8.166-11.446c-0.424-0.262-0.846-0.395-1.294-0.377
		c-1.105,0.053-2.143,0.998-2.818,1.782c-0.688,0.797-3.492,5.174-6.001,9.369c-0.773,1.294-1.479,2.554-2.146,3.793
		c0.403,0.465,0.738,0.914,1.009,1.326C315.764,134.104,316.661,132.87,317.788,131.319z"/>
	<path fill="none" d="M310.068,135.972c0.14-0.4,0.368-1.444,0.545-2.538c-0.056-0.041-0.108-0.08-0.171-0.122
		c-0.779,0.371-2.539,1.576-3.062,2.07c-0.021,0.158-0.038,0.329-0.053,0.505C308.439,135.985,309.562,136.03,310.068,135.972z"/>
	<path fill="none" d="M378.069,171.684c1.152,1.354,2.282,2.739,3.351,4.084l1.022-0.772L378.069,171.684z"/>
	<path fill="none" d="M367.333,176.694c0.183,1.849,0.508,4.676,0.845,7.492l1.246-0.506L367.333,176.694z"/>
	<path fill="none" d="M372.178,182.561l1.089-0.653c-0.792-3.432-1.704-7.462-2.141-9.656c-0.78,0.593-1.621,1.231-2.473,1.878
		l2.632,8.793L372.178,182.561z"/>
	<path fill="none" d="M379.805,176.988c-2.062-2.573-4.058-4.913-5.856-6.883c-0.299,0.228-0.652,0.497-1.042,0.794
		c0.221,1.354,1.179,5.635,2.112,9.704L379.805,176.988z"/>
	<path fill="none" d="M386.259,172.114c-2.364-2.404-4.646-4.589-6.702-6.429c-0.978,0.787-1.973,1.58-2.971,2.367l7.516,5.691
		L386.259,172.114z"/>
	<path fill="none" d="M365.322,176.657c-2.097,1.589-3.749,2.842-3.93,2.978l-0.228,0.173l-0.285,0.026
		c-0.121,0.011-0.277,0.021-0.457,0.031c1.413,1.977,2.69,3.828,3.721,5.958l2.111-0.857
		C365.896,181.965,365.52,178.715,365.322,176.657z"/>
	<path fill="none" d="M387.882,170.888l1.274-0.961l-5.23-2.975C385.294,168.265,386.633,169.604,387.882,170.888z"/>
	<polygon fill="none" points="396.168,168.161 412.83,193.811 420.577,188.27 400.654,163.749 393.253,169.338 395.434,168.602 	"/>
	<path fill="none" d="M374.938,166.805c1.035-0.814,2.072-1.639,3.092-2.458c-2.147-1.841-3.961-3.208-5.253-3.942l-2.849,2.605
		L374.938,166.805z"/>
	<polygon fill="#5C6468" points="373.381,181.839 373.267,181.908 373.27,181.923 	"/>
	<path fill="none" d="M305.373,161.759c2.794,0.376,6.168,0.365,7.101-0.239c0.326-2.14,0.682-4.225,1.048-6.15
		c-0.599-1.085-1.58-2.995-2.391-4.845c-0.6-1.072-0.998-2.223-1.184-3.421c-0.053-0.334-0.087-0.673-0.105-1.013
		c-0.297-0.265-0.577-0.531-0.838-0.799c-1.071,3.005-1.913,6.095-2.763,10.399C306.01,156.861,305.582,160.123,305.373,161.759z"/>
	<path fill="none" d="M312.883,181.932c3.884,1.13,8.562,1.255,10.429,1.255c1.95,0,3.31-0.116,3.995-0.225
		c0.246-1.176,0.623-4.742,0.674-8.75c0.05-4.083-0.288-8.123-0.347-8.773c-0.696-2.394-1.4-4.772-2.028-6.824
		c-0.018,0.011-0.032,0.024-0.051,0.035l-0.189,0.119c-0.174,0.104-0.35,0.2-0.525,0.291l-0.139,0.071
		c-0.212,0.104-0.442,0.202-0.676,0.29l-0.113,0.04c-0.248,0.088-0.436,0.146-0.624,0.2l-0.198,0.053
		c-0.264,0.066-0.514,0.121-0.771,0.16c-0.258,0.04-0.513,0.063-0.768,0.08l-0.225,0.01c-0.104,0.003-0.208,0.005-0.312,0.005
		l-0.457-0.01c-0.246-0.013-0.493-0.038-0.737-0.072l-0.138-0.023c-0.205-0.034-0.401-0.073-0.598-0.12l-0.18-0.045
		c-0.233-0.062-0.433-0.121-0.627-0.19c-0.05-0.014-0.104-0.032-0.154-0.054c-0.184-0.064-0.407-0.158-0.627-0.259l-0.105-0.052
		c-0.229-0.111-0.393-0.198-0.556-0.292l-0.188-0.111c-0.197-0.121-0.398-0.251-0.593-0.393c-0.214-0.16-0.39-0.305-0.562-0.455
		l-0.132-0.118c-0.099-0.09-0.173-0.167-0.253-0.247C313.371,167.315,312.282,179.704,312.883,181.932z"/>
	<path fill="#5C6468" d="M327.275,157.194l0.011-0.011"/>
	<path fill="#5C6468" d="M313.96,137.304c0.021,0.041,0.038,0.079,0.055,0.116c0.028-0.076,0.067-0.151,0.099-0.227
		C314.062,137.23,314.01,137.267,313.96,137.304z"/>
	<g>
		<ellipse opacity="0.4" fill="#FFC928" enable-background="new    " cx="353.122" cy="87.932" rx="4.125" ry="2.24"/>
		<ellipse opacity="0.4" fill="#FFC928" enable-background="new    " cx="332.26" cy="87.646" rx="4.125" ry="2.24"/>
		<circle fill="#5C6468" cx="318.546" cy="85.227" r="1.5"/>
		<circle fill="#5C6468" cx="366.823" cy="89.706" r="1.5"/>
		<polygon fill="#5C6468" points="344.622,86.789 342.539,86.789 342.539,72.914 340.539,72.914 340.539,88.789 344.622,88.789 		
			"/>
		<path fill="#5C6468" d="M316.665,148.227c-0.384,0-0.732,0.139-1.011,0.361c-0.372,0.298-0.615,0.751-0.615,1.265
			c0,0.795,0.572,1.455,1.326,1.596c0.098,0.018,0.197,0.03,0.3,0.03c0.496,0,0.935-0.227,1.233-0.577
			c0.24-0.284,0.393-0.647,0.393-1.049c0-0.373-0.13-0.711-0.341-0.985C317.653,148.481,317.191,148.227,316.665,148.227z"/>
		<path fill="#5C6468" d="M324.442,150.211c0.083,0.014,0.167,0.026,0.255,0.026c0.443,0,0.847-0.179,1.141-0.468
			c0.299-0.295,0.485-0.704,0.485-1.158c0-0.669-0.404-1.243-0.981-1.492c-0.198-0.085-0.415-0.134-0.645-0.134
			c-0.897,0-1.626,0.728-1.626,1.626c0,0.087,0.013,0.171,0.024,0.255C323.207,149.559,323.75,150.102,324.442,150.211z"/>
		<path fill="#5C6468" d="M423.47,188.658L400.99,160.99l-0.685,0.516l-2.168,0.998l1.158-1.638l-1.83-1.121l-7.141,8.545
			l-8.218-4.673c4.714-3.845,8.441-7.021,8.497-7.068l0.592-0.504l-0.343-0.698c-0.057-0.112-1.386-2.801-4.452-8.023
			c-2.517-4.286-8.908-13.269-11.409-16.533c-0.116-0.153-0.238-0.31-0.373-0.481c0.496-1.134,0.679-1.98,0.574-2.635l-0.042-0.267
			l-0.172-0.209c-0.886-1.081-8.742-10.596-12.021-11.843c-1.821-0.692-5.235-1.124-9.259-1.182v-10.988
			c0.559-0.356,1.105-0.73,1.63-1.139c1.511,2.438,3.921,4.323,6.912,5.086c0.953,0.244,1.916,0.363,2.869,0.363
			c2.938,0,5.78-1.132,7.964-3.245c0.784-0.759,1.454-1.622,1.989-2.564l-1.738-0.988c-0.441,0.777-0.994,1.489-1.643,2.115
			c-2.389,2.312-5.732,3.202-8.947,2.382c-2.58-0.658-4.639-2.325-5.87-4.47c4.294-4.063,7.006-9.98,7.006-16.562v-17
			c0-12.223-9.346-22.167-20.833-22.167s-20.833,9.944-20.833,22.167v17c0,6.503,2.646,12.36,6.852,16.419
			c-1.084,0.959-2.503,1.546-4.061,1.546c-3.385,0-6.138-2.754-6.138-6.139h-2c0,4.488,3.649,8.139,8.138,8.139
			c2.155,0,4.112-0.848,5.57-2.22c2.547,2.032,5.547,3.452,8.804,4.071v8.198h-6.385c-0.468-1.101-1.511-2.34-3.39-2.033
			c-2.053,0.337-2.55,1.507-3.302,3.277c-0.188,0.444-0.425,0.982-0.701,1.573c-0.214-0.024-0.43-0.033-0.647-0.022
			c-1.438,0.068-2.902,0.923-4.237,2.472c-0.868,1.004-3.896,5.791-6.204,9.649c-0.684,1.144-1.312,2.261-1.917,3.364
			c-0.093-0.078-0.181-0.156-0.277-0.233l-0.153-0.124c-0.297-0.24-0.512-0.413-1.025-0.717c-0.558-0.334-1.183-0.044-1.48,0.096
			c-0.04,0.019-4.021,2.138-4.209,3.345c-0.312,1.938-0.319,5.287,2.081,8.694c-1.299,3.449-2.267,6.833-3.243,11.783
			c-0.326,1.65-0.983,6.948-1.012,7.172l-0.117,0.942l0.937,0.166c0.042,0.007,2.554,0.432,5.093,0.432
			c1.044,0,2.088-0.076,2.972-0.278c-1.219,8.652-1.892,17.498-0.982,19.293c0.231,0.458,0.562,0.642,0.798,0.714
			c4.205,1.302,9.336,1.442,11.348,1.442c0,0,0,0,0.001,0c1.829,0,3.448-0.104,4.421-0.273
			c-3.441,12.247-10.123,27.57-12.424,31.693c-0.231,0.41-0.265,0.855-0.094,1.252c0.262,0.604,0.856,0.793,1.032,0.838l0.293,0.014
			l-9.628,22.729l31.296,71.476l0.262-0.115l-3.401,2.834l8.647,14.164l-1.1,4.742l-5.844,2.375v3.136h1.19l-5.603,3.27v4.088h22.25
			l2.21-20.52l0.955,14.336l1.996-0.134l-0.951-14.272l1.057-0.715l-1.225-1.812l-0.593-8.905l0.097-0.898l-3.028-0.348
			c0.79-7.646,2.447-23.757,3.75-36.813c0.304-3.041,0.628-5.835,0.915-8.302c0.517-4.438,0.924-7.942,0.916-10.362
			c-0.021-8.485-2.602-18.799-3.104-20.726c2.158-6.147,3.657-11.797,4.665-16.981l2.415,5.89l10.316-5.836l0.902,1.67
			l14.562-10.416l25.118-14.205l-1.668-2.566L423.47,188.658z M389.156,169.927l-1.274,0.961c-1.249-1.285-2.588-2.624-3.956-3.936
			L389.156,169.927z M386.259,172.114l-2.157,1.629l-7.516-5.691c0.998-0.787,1.993-1.58,2.971-2.367
			C381.612,167.525,383.895,169.71,386.259,172.114z M360.422,177.863c-0.229,0.014-0.521,0.028-0.859,0.044
			c-0.521,0.025-1.14,0.057-1.79,0.097c-0.716,0.044-1.478,0.104-2.272,0.187c-2.224,0.231-4.605,0.649-6.301,1.49
			c-0.931-1.609-2.957-6.062-3.446-7.47c1.11-0.608,5.256-1.371,7.607-1.33c2.273,0.03,4.605,0.467,5.804,1.087l0.619,0.322
			l8.413-7.695c1.12,0.809,2.626,2.203,4.381,4.039C369.556,170.94,361.869,176.766,360.422,177.863z M366.256,184.966l-2.111,0.857
			c-1.029-2.13-2.308-3.981-3.721-5.958c0.18-0.01,0.336-0.021,0.457-0.031l0.285-0.026l0.228-0.173
			c0.181-0.136,1.833-1.389,3.93-2.978C365.52,178.715,365.896,181.965,366.256,184.966z M372.289,158.141
			c-0.898-0.309-1.661-0.374-2.229-0.106c-0.987,0.467-1.385,1.562-1.196,3.24l-0.557,0.508l-0.489,0.448
			c-0.122-0.054-0.243-0.104-0.36-0.147c-0.663-0.242-1.25-0.307-1.732-0.14c-1.091,0.38-1.613,1.746-1.541,3.611l-4.75,4.344
			c-1.097-0.436-2.559-0.755-4.143-0.912c-1.767-5.65-3.75-14.074-3.57-15.185c0.049-0.153,0.41-1.011,3.043-5.639
			c2.273-3.999,5.237-9.055,6.917-11.908l4.049,4.629l0.14,0.132c0.687,0.533,1.405,0.356,1.764-0.1
			c0.079-0.101,0.188-0.24,0.319-0.411l10.239,12.238L372.289,158.141z M372.776,160.405c1.292,0.733,3.104,2.101,5.253,3.942
			c-1.02,0.818-2.057,1.644-3.092,2.458l-5.01-3.794L372.776,160.405z M368.653,174.13c0.852-0.646,1.691-1.285,2.473-1.878
			c0.438,2.194,1.349,6.224,2.141,9.656l0.114-0.069l-0.111,0.084c-0.001-0.005-0.002-0.01-0.003-0.015l-1.089,0.653l-0.893,0.362
			L368.653,174.13z M369.424,183.68l-1.246,0.506c-0.337-2.816-0.662-5.643-0.845-7.492L369.424,183.68z M372.905,170.898
			c0.39-0.297,0.743-0.566,1.042-0.794c1.8,1.97,3.795,4.31,5.856,6.883l-4.786,3.614
			C374.084,176.533,373.126,172.253,372.905,170.898z M378.069,171.684l4.373,3.312l-1.022,0.772
			C380.353,174.423,379.223,173.038,378.069,171.684z M384.678,148.337c2.149,3.66,3.451,6.092,4.028,7.202
			c-1.307,1.106-4.603,3.878-8.462,7.018l-4.403-2.504l-0.014,0.023c-0.55-0.38-1.079-0.717-1.586-1.011l6.711-6.138l-11.795-14.097
			l4.366-6.667C376.075,135.512,382.237,144.178,384.678,148.337z M331.856,100.354c-0.528-0.42-1.035-0.868-1.521-1.344
			c-3.758-3.689-6.131-8.97-6.131-14.846v-17c0-11.12,8.448-20.167,18.833-20.167s18.833,9.047,18.833,20.167v17
			c0,5.734-2.258,10.905-5.858,14.581c-0.508,0.519-1.046,1.003-1.604,1.459c-3.164,2.578-7.097,4.127-11.369,4.127
			c-0.562,0-1.117-0.039-1.668-0.09c-0.677-0.064-1.345-0.161-2-0.3C336.596,103.352,334.05,102.095,331.856,100.354z
			 M336.634,116.178h4.737v-9.924c0.551,0.046,1.104,0.077,1.668,0.077c3.092,0,6.021-0.736,8.661-2.028v11.866l1.001-0.001
			c0.024,0,0.049,0,0.074,0c1.937,0,3.604,0.089,5.004,0.225l-21.673,15.643L336.634,116.178z M328.137,116.205
			c0.728-1.709,0.854-1.934,1.785-2.086c0.204-0.034,0.373-0.001,0.523,0.059h-0.422l-2.523,3.537
			c-0.009-0.006-0.018-0.009-0.026-0.015C327.732,117.139,327.96,116.623,328.137,116.205z M316.222,130.122
			c2.509-4.195,5.312-8.572,6.001-9.369c0.677-0.784,1.713-1.729,2.818-1.782c0.448-0.018,0.87,0.115,1.294,0.377l-8.166,11.446
			l-0.381,0.525c-1.127,1.551-2.024,2.785-2.705,3.921c-0.271-0.412-0.604-0.86-1.009-1.326
			C314.742,132.676,315.447,131.416,316.222,130.122z M324.332,138.413c0.455,0.271,0.887,0.587,1.281,0.938
			c0.397,0.356,0.764,0.75,1.086,1.174c0.161,0.209,0.312,0.427,0.452,0.658c0.286,0.462,0.526,0.954,0.716,1.461
			c0.193,0.524,0.336,1.071,0.421,1.622c0.148,0.978,0.12,1.972-0.087,2.954l-0.017,0.102c-0.235,2.237-0.66,4.618-0.876,5.611
			c-0.018,0.087-0.035,0.173-0.054,0.244l-0.041,0.162c-0.023,0.084-0.072,0.223-0.11,0.334c-0.063,0.174-0.181,0.456-0.268,0.643
			c-0.023,0.052-0.082,0.161-0.107,0.213c-0.038,0.073-0.074,0.146-0.114,0.222l-0.08,0.111l-0.017,0.022
			c-0.091,0.15-0.186,0.297-0.288,0.439l-0.015,0.02c-0.106,0.146-0.222,0.286-0.34,0.42l-0.077,0.084l-0.041,0.044
			c-0.094,0.104-0.243,0.253-0.344,0.349c-0.123,0.112-0.301,0.267-0.432,0.371c-0.017,0.012-0.028,0.025-0.044,0.037l-0.081,0.058
			c-0.124,0.092-0.255,0.181-0.39,0.267l-0.13,0.082c-0.135,0.081-0.32,0.181-0.46,0.252c-0.168,0.083-0.454,0.204-0.629,0.27
			c-0.142,0.05-0.354,0.12-0.491,0.158l-0.167,0.045c-0.189,0.047-0.382,0.09-0.58,0.121c-0.197,0.031-0.395,0.047-0.596,0.061
			l-0.403,0.011l-0.276-0.005c-0.188-0.01-0.5-0.04-0.688-0.066c-0.153-0.025-0.354-0.064-0.504-0.1l-0.164-0.042
			c-0.146-0.039-0.344-0.098-0.486-0.149c-0.172-0.062-0.459-0.183-0.626-0.26c-0.129-0.062-0.317-0.161-0.439-0.231l-0.134-0.079
			c-0.157-0.096-0.312-0.196-0.4-0.257l-0.079-0.062c-0.142-0.106-0.278-0.219-0.419-0.341l-0.107-0.098
			c-0.107-0.099-0.212-0.201-0.313-0.307l-0.088-0.093c-0.125-0.137-0.344-0.414-0.457-0.562c-0.047-0.063-0.095-0.126-0.156-0.218
			l-0.076-0.125c-0.003-0.004-0.006-0.01-0.009-0.015c-0.032-0.051-0.062-0.106-0.125-0.215c-0.299-0.52-0.786-1.438-1.307-2.485
			c-0.409-0.823-0.837-1.722-1.212-2.582l-0.047-0.093c-0.495-0.874-0.822-1.811-0.975-2.788c-0.086-0.55-0.116-1.115-0.089-1.675
			c0.026-0.542,0.107-1.083,0.238-1.606c0.065-0.261,0.145-0.518,0.233-0.769c0.18-0.5,0.407-0.985,0.679-1.439
			c0.14-0.234,0.291-0.461,0.449-0.678c0.156-0.211,0.319-0.415,0.491-0.607c0.536-0.603,1.16-1.114,1.841-1.533
			c0.935-0.575,1.978-0.97,3.074-1.14C320.737,137.057,322.689,137.437,324.332,138.413z M323.486,135.835
			c0.125-0.863,0.506-2.442,1.7-4.229c0.542-0.81,1.564-1.865,2.223-2.484c1.257,1.516,4.122,5.858,1.664,11.407
			c-0.073-0.131-0.14-0.267-0.218-0.395c-0.176-0.287-0.366-0.564-0.568-0.827c-0.396-0.521-0.85-1.008-1.344-1.451
			c-0.49-0.436-1.023-0.827-1.588-1.164C324.762,136.342,324.134,136.06,323.486,135.835z M307.38,135.383
			c0.523-0.495,2.283-1.7,3.062-2.07c0.062,0.042,0.115,0.082,0.171,0.122c-0.176,1.093-0.405,2.137-0.545,2.538
			c-0.507,0.058-1.629,0.013-2.741-0.084C307.342,135.711,307.358,135.541,307.38,135.383z M307.379,137.904
			c0.771,0.067,1.399,0.099,1.897,0.099c0.201,0,0.381-0.005,0.546-0.014c1.226-0.063,1.483-0.337,1.65-0.516
			c0.33-0.353,0.627-1.184,0.89-2.459c0.264,0.288,0.501,0.568,0.698,0.835c0.433,0.58,0.719,1.082,0.898,1.456
			c0.05-0.038,0.102-0.074,0.152-0.11c-0.03,0.076-0.069,0.151-0.099,0.227c-0.017-0.037-0.034-0.076-0.055-0.116
			c-0.551,0.411-1.066,0.871-1.526,1.388c-0.432,0.483-0.822,1.018-1.166,1.591c-0.337,0.566-0.619,1.168-0.843,1.789
			c-0.11,0.311-0.207,0.628-0.29,0.953c-0.038,0.151-0.061,0.306-0.092,0.458c-0.088-0.098-0.167-0.197-0.249-0.295
			c-0.562-0.669-1.007-1.338-1.354-1.995C307.828,140.031,307.512,138.91,307.379,137.904z M305.373,161.759
			c0.209-1.637,0.637-4.898,0.868-6.068c0.85-4.304,1.69-7.394,2.763-10.399c0.261,0.268,0.541,0.534,0.838,0.799
			c0.02,0.34,0.055,0.679,0.105,1.013c0.186,1.198,0.584,2.349,1.184,3.421c0.811,1.85,1.792,3.76,2.391,4.845
			c-0.366,1.925-0.722,4.01-1.048,6.15C311.541,162.124,308.167,162.135,305.373,161.759z M327.307,182.962
			c-0.687,0.109-2.045,0.225-3.994,0.225c-1.867,0-6.546-0.125-10.43-1.255c-0.601-2.228,0.488-14.616,2.224-24.405
			c0.081,0.08,0.154,0.156,0.253,0.247l0.132,0.118c0.173,0.15,0.349,0.295,0.562,0.455c0.193,0.142,0.396,0.272,0.594,0.393
			l0.188,0.111c0.163,0.094,0.327,0.181,0.556,0.292l0.105,0.052c0.22,0.102,0.444,0.195,0.627,0.259
			c0.052,0.021,0.104,0.04,0.154,0.054c0.194,0.069,0.394,0.128,0.627,0.19l0.18,0.045c0.195,0.046,0.393,0.085,0.598,0.12
			l0.138,0.023c0.244,0.035,0.491,0.06,0.737,0.072l0.457,0.01c0.104,0,0.21-0.002,0.312-0.005l0.225-0.01
			c0.255-0.017,0.51-0.04,0.768-0.08c0.259-0.04,0.509-0.094,0.771-0.16l0.198-0.053c0.188-0.053,0.376-0.112,0.624-0.2l0.113-0.04
			c0.232-0.088,0.464-0.186,0.676-0.29l0.139-0.071c0.177-0.091,0.353-0.187,0.525-0.291l0.189-0.119
			c0.019-0.011,0.033-0.024,0.052-0.035c0.627,2.052,1.332,4.431,2.027,6.824c0.059,0.65,0.396,4.69,0.347,8.773
			C327.93,178.22,327.553,181.786,327.307,182.962z M309.092,241.426l9.581-22.617l15.95,0.729
			c-3.06,5.027-7.624,11.359-13.886,19.273l-0.449,0.566l0.399,0.604c0.057,0.086,5.737,8.727,8.371,16.631
			c0.803,2.406,2.105,8.132,3.614,14.76c2.926,12.852,6.906,30.331,10.421,37.577l-3.252,2.708L309.092,241.426z M336.903,219.643
			l6.545,0.299l0.562,18.834l3.449,66.539l-2.778,2.313c-3.356-7.276-7.211-24.196-10.058-36.698
			c-1.583-6.955-2.834-12.449-3.667-14.949c-2.337-7.015-6.842-14.349-8.207-16.49C329.272,231.218,333.885,224.762,336.903,219.643
			z M339.833,319.596l3.041-1.423l-0.848-1.812l-3.095,1.447l0.628,1.342l-1.884-3.086l9.45-7.871l0.252,5.062l-4.188-0.479
			l0.712,8.451l-2.241,1.366L339.833,319.596z M342.703,324.298l1.387-0.846l0.305,3.616L342.703,324.298z M344.333,336.002
			l0.598-2.578l0.391,4.626h-3.577l-0.245-0.062l-0.105,0.062h-2.101L344.333,336.002z M355.958,316.248l-0.377,3.497l-0.332,3.079
			l-0.621,5.765l-0.127,1.181l-0.111,1.037l-0.257,2.387l-1.315,12.214h-18.453v-0.938l7.438-4.341l5.823,1.46v-0.002l2.159,0.541
			l0.485-1.939l-0.546-0.137l-2.276-0.57l-0.036-0.43l-0.084-1l-0.816-9.675l3.197-0.015l-0.006-1.162l-0.004-0.838l-1.033,0.005
			l-2.322,0.01l-0.956-11.337l2.092,0.238l0.499,0.059l0.51,0.059l1.007,0.114l3.442,0.396l1.988,0.228L355.958,316.248z
			 M355.62,237.561l-0.104,0.293l0.081,0.301c0.031,0.115,3.094,11.572,3.115,20.514c0.007,2.303-0.395,5.755-0.902,10.127
			c-0.288,2.473-0.613,5.275-0.919,8.332c-1.302,13.043-2.957,29.133-3.747,36.787l-3.254-0.373l-3.88-74.848l-0.558-18.66
			l14.81,0.678C359.27,225.852,357.778,231.46,355.62,237.561z M360.617,218.727l-15.226-0.69l-2.004-0.091l-5.378-0.244
			l-2.247-0.102l-16.267-0.738l-2.009-0.092c1.235-2.396,3.42-7.181,5.715-12.854c4.197-10.373,8.771-23.725,8.631-30.938
			l-0.037-0.25c-2.084-7.437-3.505-12.327-4.511-15.544l0.085-0.094c0.139-0.157,0.27-0.316,0.42-0.518l0.056-0.073
			c0.124-0.171,0.24-0.347,0.352-0.527c0.068-0.092,0.118-0.176,0.147-0.231c0.098-0.167,0.188-0.336,0.277-0.524
			c0.026-0.051,0.052-0.103,0.064-0.133c0.103-0.219,0.193-0.442,0.276-0.669l0.054-0.162c0.041-0.117,0.082-0.234,0.121-0.372
			l0.038-0.15c0.029-0.117,0.069-0.288,0.09-0.39c0.22-1.009,0.655-3.457,0.901-5.758c0.247-1.202,0.279-2.419,0.096-3.62
			c-0.051-0.331-0.12-0.659-0.202-0.983c2.68-4.513,2.163-8.484,1.228-11.05c-1.032-2.827-2.927-4.946-3.484-5.123
			c-1.314-0.409-4.251,3.646-4.278,3.688c-1.314,1.964-1.809,3.747-1.993,4.869c-0.989-0.139-1.998-0.144-2.997,0.011
			c-0.47,0.073-0.93,0.187-1.381,0.322c0.581-0.901,1.321-1.923,2.252-3.202l11.646-16.316h3.581l-0.662,19.864l26.662-19.244
			c0.69,0.139,1.243,0.285,1.614,0.426c2.047,0.779,7.711,7.029,10.966,10.974c-0.032,0.26-0.17,0.791-0.631,1.75l-5.48,8.369
			c-0.16,0.214-0.312,0.413-0.445,0.589l-5.292-6.051l-0.703,1.191c-1.414,2.396-4.989,8.474-7.636,13.128
			c-2.989,5.255-3.154,5.825-3.226,6.065c-0.492,1.682,2.056,11.236,3.371,15.642c-1.903,0.026-7.589,0.632-9.029,2.048
			c-0.396,0.388-0.479,0.792-0.479,1.062c-0.003,0.624,1.069,3.074,1.969,5.019c2.052,4.436,2.505,4.677,2.807,4.836l0.599,0.289
			l0.499-0.344c1.499-1.031,4.559-1.481,7.105-1.699c0.495-0.042,0.973-0.076,1.413-0.104l0.271,0.376
			c0.717,1,1.398,1.954,2.036,2.92c0.697,1.061,1.342,2.135,1.904,3.3c0.115,0.238,0.229,0.479,0.336,0.726l-0.809,0.232
			l-0.784,0.225l-1.219,0.351l-6.388,1.833l0.551,1.922l5.189-1.489l-7.55,4.531l9.243,22.533
			C360.77,217.869,360.69,218.3,360.617,218.727z M365.679,223.984l-1.321-3.225l-1.43-3.48l-0.004-0.01l-1.553-3.785l-7.276-17.737
			l5.48-3.289l1.754,3.246l2.536,4.69l0.827,1.53l1.807,3.343l7.556,13.979L365.679,223.984z M405.812,201.287l-16.414,9.283
			l-13.604,7.693l-9.073-16.789l-2.009-3.716l-1.33-2.461c-0.142-1.056-0.299-2.079-0.479-3.042l1.058-0.799l1.771-1.336
			l1.058-0.799l1.843-1.392l5.133-3.876l0.736-0.556l1.043-0.626l6.043-3.627l1.735-1.041l5.577-3.348l1.761-1.056l4.884-2.932
			l15.658,24.106l1.09,1.678l0.461,0.709L405.812,201.287z M396.168,168.161l-0.734,0.441l-2.181,0.736l7.401-5.589l19.923,24.521
			l-7.747,5.541L396.168,168.161z"/>
		<polygon fill="#5C6468" points="348.746,320.6 347.745,320.604 346.024,320.615 346.036,322.615 347.845,322.604 348.846,322.598 
			348.988,322.598 348.977,320.598 		"/>
	</g>
	<g>
		<path fill="#5C6468" d="M168.73,46.46c1.134,0,2.249-0.298,3.3-0.911l0.723-0.512c4.978-3.727,10.855-5.696,16.998-5.696
			c8.213,0,16.098,3.647,21.631,10.005l1.509-1.312c-5.914-6.795-14.348-10.693-23.14-10.693c-6.578,0-12.87,2.108-18.175,6.08
			l-0.624,0.447c-0.671,0.388-1.439,0.593-2.222,0.593c-2.455,0-4.452-1.997-4.452-4.451c0-1.507,0.752-2.899,2.013-3.726
			l-1.097-1.673c-1.826,1.197-2.917,3.215-2.917,5.398C162.278,43.566,165.172,46.46,168.73,46.46z"/>
		<polygon fill="#5C6468" points="191.656,86.483 188.947,86.483 188.947,77.127 186.947,77.127 186.947,88.483 191.656,88.483 		
			"/>
		<path fill="#5C6468" d="M191.235,89.925h-4.069c-6.004,0-7.17,2.641-7.729,6.144h19.528
			C198.405,92.566,197.239,89.925,191.235,89.925z"/>
		<path fill="#5C6468" d="M170.958,183.528l1.24,1.568c4.46-3.527,12.176-5.633,20.638-5.633c9.466,0,18.118,2.715,22.042,6.917
			l1.462-1.365c-4.351-4.658-13.357-7.551-23.504-7.551C183.938,177.463,175.759,179.73,170.958,183.528z"/>
		<path fill="#5C6468" d="M247.994,242.909l-0.75,0.17l-0.751-9.354c1.418-0.762,2.366-1.875,2.427-1.949l0.152-0.183l0.054-0.229
			c2.378-10.178,1.967-27.027-1.221-50.084c-2.034-14.708-4.608-27.357-5.313-30.724c0.65-0.215,1.065-0.359,1.16-0.392l0.9-0.312
			l-0.269-0.914c-0.282-0.959-6.941-23.546-10.822-28.812c-2.267-3.075-15.663-4.758-20.289-5.253l0.278-0.656l-9.617-1.688
			l-0.411,0.454v-6.065c7.465-4.827,12.451-13.45,12.451-23.268V71.197c0-15.083-11.762-27.355-26.22-27.355
			s-26.22,12.271-26.22,27.355v12.452c0,9.817,4.984,18.439,12.449,23.267v6.149l-0.188-0.237l-9.874,1.413l0.279,0.634
			c-4.658,0.5-17.994,2.182-20.256,5.25c-3.88,5.266-10.54,27.853-10.821,28.812l-0.269,0.914l0.9,0.312
			c0.103,0.036,0.587,0.203,1.339,0.451c-1.241,5.942-7.919,39.034-8.03,63.534c-0.027,6.041,3.456,35.604,6.143,40.521
			c0.503,0.922,1.309,1.455,2.268,1.501c0.046,0.002,0.093,0.004,0.139,0.004c1.464-0.001,2.87-1.104,3.631-2.226
			c3.581-5.28-2.157-21.949-3.142-24.699c0.256-3.282,1.001-9.905,2.246-14.953c-0.007,0.798-0.017,1.729-0.038,2.541
			c-0.01,0.349,0.121,0.681,0.369,0.935c0.354,0.362,0.89,0.5,1.346,0.549c0.283,3.133,0.779,6.373,0.782,6.393
			c3.67,27.075,12.628,94.529,13.68,108.221c-3.984,3.149-6.553,8.012-6.553,13.474v1h38.666v-1c0-4.767-1.954-9.083-5.1-12.198
			c1.491-4.395,2.6-16.562,4.554-45.991c0.967-14.567,2.142-32.267,3.303-37.569c3.051,11.168,8.467,79.388,8.035,83.357
			c-0.055,0.396,0.054,0.787,0.291,1.126c-2.638,3.021-4.25,6.959-4.25,11.275v1h38.666v-1c0-5.253-2.375-9.955-6.101-13.108
			c0.771-5.545,1.804-18.641,4.032-49.621c1.42-19.744,2.888-40.164,3.805-47.072c0.062-0.66,1.453-15.838,1.156-22.017
			c0.854-0.567,1.676-1.514,1.923-2.935c1.388,3.363,2.024,7.561,2.229,9.185c-0.27,0.304-0.474,0.634-0.613,0.882
			c-1.888,2.18-3.687,6.041-1.017,9.979c0.583,0.859,1.225,1.519,1.919,1.974l-0.54,9.376l-0.743-0.203l-2.394,37.631l7.082-0.59
			l7.325,0.592L247.994,242.909z M204.674,114.689l6.051,1.062L203.5,132.78l-9.809-5.941L204.674,114.689z M190.31,127.469
			l-0.009-0.001v0.003l-0.001,0.011l-1.093,6.996l-1.831-7.008l-9.394-11.876v-7.511c3.542,1.866,7.54,2.923,11.771,2.923
			s8.227-1.057,11.769-2.922v7.11L190.31,127.469z M165.532,83.649V71.197c0-13.981,10.865-25.355,24.22-25.355
			s24.22,11.374,24.22,25.355v12.452c0,13.982-10.865,25.357-24.22,25.357S165.532,97.631,165.532,83.649z M174.938,114.971
			l9.543,12.064l-8.25,5.688l-7.419-16.875L174.938,114.971z M141.512,204.664c-0.227,0.902-0.409,1.816-0.571,2.734
			c-3.472,4.737-4.716,20.108-4.851,21.914l-0.016,0.215l0.073,0.201c1.851,5.104,6.078,19.207,3.439,23.098
			c-0.532,0.783-1.415,1.385-2.019,1.347c-0.17-0.008-0.394-0.067-0.609-0.462c-2.29-4.191-5.927-33.062-5.897-39.553
			c0.109-24.047,6.609-56.509,7.944-62.926c4.321,1.363,11.872,3.537,16.094,3.537c0.113,0,0.214-0.007,0.322-0.01
			c-4.19,16.519-10.591,38.542-10.66,38.789C144.683,193.756,142.8,198.734,141.512,204.664z M186.565,345.406h-34.601
			c0.253-3.875,1.973-7.352,4.601-9.896c0.608-0.589,1.268-1.121,1.966-1.603c2.444-1.683,5.394-2.681,8.579-2.681h4.31
			c3.544,0,6.807,1.225,9.393,3.269c0.597,0.472,1.151,0.994,1.671,1.55C184.814,338.533,186.329,341.795,186.565,345.406z
			 M232.065,345.406h-34.601c0.232-3.547,1.694-6.76,3.954-9.229c0.515-0.562,1.071-1.087,1.665-1.567
			c2.608-2.109,5.919-3.383,9.527-3.383h4.31c3.354,0,6.448,1.104,8.963,2.955c0.606,0.445,1.178,0.935,1.712,1.463
			C230.147,338.177,231.816,341.598,232.065,345.406z M234.108,233.335c-2.263-1.678-6.779-5.867-8.177-13.382l-1.966,0.365
			c1.773,9.537,8.001,14.101,9.947,15.316c-0.041,0.463-0.065,0.729-0.066,0.745c-0.92,6.929-2.325,26.468-3.812,47.153
			c-1.298,18.045-2.851,39.645-3.864,48.42c-2.674-1.719-5.844-2.727-9.25-2.727h-4.31c-4.29,0-8.207,1.59-11.221,4.199
			c-0.061-4.367-1.377-23.383-3.007-41.752c-3.645-41.091-5.493-43.117-6.1-43.783c-0.389-0.426-0.821-0.478-1.039-0.463
			c-2.023,0.09-2.744,3.85-5.188,40.654c-1.096,16.516-2.55,38.395-4.149,44.747c-2.905-2.25-6.537-3.604-10.487-3.604h-4.31
			c-3.197,0-6.182,0.895-8.748,2.422c-1.354-15.541-8.844-71.982-12.093-96.203c1.555-1.603,6.961-7.526,6.448-11.933l-1.986,0.232
			c0.306,2.626-2.654,6.659-4.808,9.118c-0.631-4.697-1.046-7.76-1.138-8.438c-0.005-0.034-0.476-3.112-0.755-6.129l90.984-3.039
			C235.146,219.844,234.492,228.677,234.108,233.335z M235.187,213.251l-92.72,3.099c-0.045,0-0.096-0.004-0.146-0.008
			c0.015-0.74,0.021-1.529,0.028-2.203c0.006-0.723,0.011-1.307,0.024-1.543c0.105-2.508,0.469-5.012,1.087-7.476
			c1.262-5.81,3.153-10.812,3.198-10.938c0.491-1.686,12.04-41.419,14.027-53.655l-1.975-0.32
			c-0.465,2.866-1.486,7.343-2.774,12.511c-3.761,0.479-13.945-2.568-18.621-4.135c1.309-4.354,6.988-22.859,10.238-27.271
			c1.401-1.9,12.092-3.757,19.492-4.512l8.33,18.944l10.414-7.181l2.115,9.167h0.824l-1.086,7.086l1.977,0.303l2.583-16.846
			l12.24,7.413l8.014-18.888c7.4,0.754,18.095,2.611,19.497,4.513c3.25,4.411,8.93,22.917,10.239,27.271
			c-4.676,1.567-14.857,4.612-18.622,4.135c-1.288-5.169-2.309-9.646-2.774-12.511l-1.975,0.32
			c1.987,12.235,13.537,51.971,14.053,53.732c0.019,0.051,1.911,5.055,3.181,10.895c0.462,1.836,0.763,3.551,0.922,5.244
			C237.173,212.514,235.592,213.129,235.187,213.251z M241.167,230.574c-2.388-3.521,0.081-6.725,1.206-7.899
			c0.112,0.461,0.208,1.071,0.243,1.644l1.996-0.12c-0.092-1.544-0.444-3.396-1.522-3.914c-0.354-2.688-1.546-9.755-4.565-13.175
			c-0.147-0.791-0.318-1.592-0.525-2.412c-1.296-5.961-3.179-10.939-3.233-11.072c-0.087-0.302-6.494-22.342-10.685-38.866
			c0.107,0.003,0.209,0.01,0.322,0.01c4.282,0,11.986-2.235,16.274-3.594c1.65,7.931,11.549,57.419,6.559,79.481
			c-0.176,0.185-0.504,0.5-0.924,0.814l-0.385-4.795l-1.993,0.16l0.446,5.553c-0.191,0.033-0.384,0.049-0.579,0.041
			C242.855,232.383,241.969,231.759,241.167,230.574z M245.273,243.525l-1.442,0.326l-0.968-0.266l0.53-9.195
			c0.103,0.012,0.204,0.03,0.308,0.035c0.073,0.004,0.146,0.006,0.219,0.006c0.21,0,0.416-0.02,0.619-0.047L245.273,243.525z
			 M244.833,277.879l-4.937,0.41l2.091-32.869l1.798,0.492l2.467-0.559l3.653,32.935L244.833,277.879z"/>
	</g>
</g>
</svg>
