<?xml version="1.0" encoding="utf-8"?>
<!-- Generator: Adobe Illustrator 16.0.1, SVG Export Plug-In . SVG Version: 6.00 Build 0)  -->
<!DOCTYPE svg PUBLIC "-//W3C//DTD SVG 1.1//EN" "http://www.w3.org/Graphics/SVG/1.1/DTD/svg11.dtd">
<svg version="1.1" id="Layer_1" xmlns="http://www.w3.org/2000/svg" xmlns:xlink="http://www.w3.org/1999/xlink" x="0px" y="0px"
	 width="100px" height="100px" viewBox="-21 -15.119 100 100" enable-background="new -21 -15.119 100 100" xml:space="preserve">
<ellipse fill="#FFCA2A" cx="49.409" cy="24.23" rx="1.832" ry="1.813"/>
<circle fill="#FFCA2A" cx="49.408" cy="40.279" r="1.832"/>
<circle fill="#FFCA2A" cx="49.408" cy="56.328" r="1.832"/>
<path fill="#5D6569" d="M58,10.808L58,10.808C57.998,3.788,43.059,0,29,0C14.941,0,0.001,3.788,0,10.808l0,0l0,0l0,0v48.146
	c0,7.02,14.941,10.807,29,10.807c14.059,0,29-3.787,29-10.807V10.808L58,10.808L58,10.808z M29,3c16.105,0,25.999,4.547,26,7.808
	c-0.001,3.261-9.895,7.81-26,7.81c-16.108,0-25.999-4.549-26-7.81C3.001,7.548,12.892,3,29,3z M29,66.762
	c-16.109,0-26-4.547-26-7.807V47.902c5.063,3.804,15.762,5.813,26,5.813c10.236,0,20.938-2.011,26-5.813v11.055
	C55,62.215,45.107,66.762,29,66.762z M29,50.715c-16.109,0-26-4.548-26-7.809V31.85c5.063,3.804,15.762,5.814,26,5.814
	c10.236,0,20.938-2.012,26-5.814v11.058C55,46.167,45.107,50.715,29,50.715z M29,34.664c-16.109,0-26-4.548-26-7.811V15.803
	c5.063,3.804,15.762,5.814,26,5.814c10.236,0,20.938-2.012,26-5.814v11.052C55,30.116,45.107,34.664,29,34.664z"/>
</svg>
