<?xml version="1.0" encoding="utf-8"?>
<!-- Generator: Adobe Illustrator 16.0.1, SVG Export Plug-In . SVG Version: 6.00 Build 0)  -->
<!DOCTYPE svg PUBLIC "-//W3C//DTD SVG 1.1//EN" "http://www.w3.org/Graphics/SVG/1.1/DTD/svg11.dtd">
<svg version="1.1" id="Layer_1" xmlns="http://www.w3.org/2000/svg" xmlns:xlink="http://www.w3.org/1999/xlink" x="0px" y="0px"
	 width="100px" height="100px" viewBox="-18.501 -16.677 100 100" enable-background="new -18.501 -16.677 100 100"
	 xml:space="preserve">
<polygon fill="#FFFFFF" points="18.55,3 18.55,57.975 59.998,57.975 59.998,12.745 50.375,3 "/>
<path fill="#5D6569" d="M51.627,0H15.549v60.975h47.449V11.513L51.627,0z M52.5,5.154l5.406,5.475H52.5V5.154z M18.549,57.975V3
	H49.5v10.627h10.498v44.348H18.549z"/>
<rect x="23.52" y="9.057" fill="#FFCA2A" width="12.406" height="3"/>
<rect x="23.52" y="18.115" fill="#5D6569" width="31.506" height="3"/>
<rect x="23.52" y="27.174" fill="#5D6569" width="31.506" height="3"/>
<rect x="23.52" y="36.232" fill="#5D6569" width="31.506" height="3"/>
<rect x="23.52" y="45.291" fill="#5D6569" width="19.327" height="3"/>
<polygon fill="#FFFFFF" points="3,8.67 3,63.645 44.449,63.645 44.449,18.415 34.824,8.67 "/>
<path fill="#5D6569" d="M36.078,5.67H0v60.975h47.449V17.183L36.078,5.67z M36.951,10.823l5.405,5.474h-5.405V10.823z M3,63.645
	V8.67h30.951v10.627h10.498v44.348H3z"/>
<rect x="7.97" y="14.727" fill="#FFCA2A" width="12.405" height="3"/>
<rect x="7.97" y="23.785" fill="#5D6569" width="31.505" height="3"/>
<rect x="7.97" y="32.844" fill="#5D6569" width="31.505" height="3"/>
<rect x="7.97" y="41.902" fill="#5D6569" width="31.505" height="3"/>
<rect x="7.97" y="50.961" fill="#5D6569" width="19.324" height="3"/>
</svg>
