<?xml version="1.0" encoding="utf-8"?>
<!-- Generator: Adobe Illustrator 16.0.1, SVG Export Plug-In . SVG Version: 6.00 Build 0)  -->
<!DOCTYPE svg PUBLIC "-//W3C//DTD SVG 1.1//EN" "http://www.w3.org/Graphics/SVG/1.1/DTD/svg11.dtd">
<svg version="1.1" id="Layer_1" xmlns="http://www.w3.org/2000/svg" xmlns:xlink="http://www.w3.org/1999/xlink" x="0px" y="0px"
	 width="332.891px" height="117.871px" viewBox="0 0 332.891 117.871" enable-background="new 0 0 332.891 117.871"
	 xml:space="preserve">
<g id="Layer_1_1_" display="none" opacity="0.5">
</g>
<g id="Layer_2">
</g>
<g>
	<path fill="#5C6468" d="M171.467,23.551l-0.311-0.296l0.965-0.615l2.635-5.693l-0.047-1.775l-1.438-2.717l-1.77-1.065h-9.933
		l-1.768,1.065l-1.437,2.717l-0.048,1.775l2.636,5.693l0.965,0.615l-0.312,0.296l-3.89,74.676l0.544,1.478l6.821,7.227h2.91
		l6.819-7.227l0.543-1.478L171.467,23.551z M162.769,21.8l-2.636-5.693l1.438-2.718h9.934l1.437,2.718l-2.636,5.693h-0.684
		l-0.151-0.145h-5.865l-0.153,0.145H162.769z M166.537,105.557l-6.82-7.228l3.881-74.529h5.88l3.881,74.529L166.537,105.557z"/>
	<g>
		<path fill="#5C6468" d="M86.887,13.5c-0.555-2.004-0.982-2.877-1.833-3.73c-1.115-1.121-4.812-1.838-9.526-2.658l-0.889-0.156
			c-1.594-0.281-2.984-0.486-4.452-0.703c-1.897-0.279-3.856-0.567-6.545-1.062L63.5,4.708l-0.39-0.539l-5.75-3.99L56.791,0H37.442
			l-0.475,0.121l-6.9,3.721l-0.494,0.634l-0.13,0.509C19.417,6.779,14.102,7.811,11.754,8.421c-3.533,0.92-4.44,3.994-5.588,7.889
			c-0.151,0.512-0.309,1.045-0.479,1.602C1.055,33.023,0.042,76.828,0.002,78.746l1.263,32.16l0.999,0.961h9.92l1-0.972l0.9-32.106
			l3.404-25.901l0.189,23.567l-3.779,38.801l0.937,1.096l25.658,1.52l0.958-0.56l4.526-9.267l4.22,9.242l0.964,0.584l27.062-1.463
			l0.941-1.082L75.963,76.83l0.445-22.766l2.695,24.676l0.975,32.157l1,0.97h9.336l0.998-0.957l1.381-32.24
			C92.711,76.58,90.705,27.292,86.887,13.5z M64.668,15.751l-4.991,0.217L58.93,17.58l4.324,5.571L47.853,57.712
			c3.952-16.129,9.789-41.789,10.116-43.229l0.025-0.237L57.82,2.934l3.86,2.679L64.668,15.751z M38.408,2.001h17.396l0.187,12.156
			c-0.426,1.871-5.726,25.133-9.583,41.031c-2.54-9.673-6.541-28.238-9.129-40.977C37.438,12.687,38.232,5.005,38.408,2.001z
			 M36.356,2.721c-0.198,2.688-0.707,7.837-1.084,11.437l0.016,0.303c0.707,3.479,5.595,27.418,8.954,40.275L28.867,23.078
			l4.907-5.635l-0.604-1.646l-4.25-0.639l2.48-9.765L36.356,2.721z M39.947,115.833l-23.956-1.418l3.683-37.818l0.005-0.104
			l-0.307-38.013l-1.992-0.122L12.094,78.58l-0.882,31.289H3.224L1.999,78.73c0.01-0.451,1.047-45.383,5.599-60.232
			c0.173-0.563,0.332-1.104,0.485-1.621c1.203-4.08,1.833-5.909,4.173-6.519c2.745-0.714,9.773-2.012,16.646-3.245l-2.19,8.623
			l0.82,1.235l3.541,0.532l-4.146,4.76l-0.146,1.094l18.226,37.529c-0.931,3.724-1.693,6.613-2.152,8.062l0.017,0.004l-0.064,0.317
			l0.67,33.095l0.09,0.395l1.338,2.93L39.947,115.833z M89.457,109.869h-7.408l-0.95-31.268L76.707,38.38l-1.994,0.09l-0.75,38.373
			l3.125,37.623l-25.354,1.371l-4.618-10.118l0.035-0.073l-0.089-0.044l-1.591-3.483L44.81,69.455l3.523-7.905l0.097-0.073
			c-0.011-0.016-0.024-0.044-0.037-0.062l16.932-37.994l-0.125-1.021l-3.504-4.515l4.336-0.188l0.916-1.283l-2.677-9.076
			c2.226,0.394,3.947,0.646,5.622,0.894c1.449,0.214,2.822,0.415,4.396,0.693l0.894,0.155c2.303,0.401,7.696,1.34,8.452,2.101
			c0.447,0.448,0.779,0.89,1.322,2.853c3.758,13.571,5.817,64.207,5.838,64.635L89.457,109.869z"/>
		<circle fill="#5C6468" cx="49.094" cy="74.561" r="2.069"/>
		<circle fill="#5C6468" cx="49.703" cy="89.354" r="2.07"/>
	</g>
	<polygon fill="#5C6468" points="127.257,52.625 124.257,52.625 124.257,57.436 119.445,57.436 119.445,60.436 124.257,60.436 
		124.257,65.248 127.257,65.248 127.257,60.436 132.068,60.436 132.068,57.436 127.257,57.436 	"/>
	<polygon fill="#5C6468" points="213.63,57.436 208.818,57.436 208.818,52.625 205.818,52.625 205.818,57.436 201.007,57.436 
		201.007,60.436 205.818,60.436 205.818,65.248 208.818,65.248 208.818,60.436 213.63,60.436 	"/>
	<path fill="#5C6468" d="M332.68,70.88l-1.511-1.942l-0.538-0.354l-5.85-1.517l-8.255-1.929l-7.645-2.652l-9.633-5.133l-3.421-5.13
		l-1.106-0.989l-0.448-1.359l-1.261-0.637l-0.384,0.127l-1.355-1.211l-0.389-1.302l-1.321-0.646l-0.326,0.127l-0.829-0.741
		l-0.257-1.118l-1.201-0.75l-0.73,0.17l-1.148-0.788l-0.352-0.972l-1.142-0.641l-0.659,0.137l-1.704-1.168l-0.564-0.176h-4.422
		l-0.447,0.105l-7.178,3.591l-3.554,2.079l-2.847-0.761l-6.418-2.173l-6.58-1.834l-0.479-0.014l-1.938,0.416l-0.202-0.182
		l-1.629,0.46l-4.64,15.749l-0.039,0.352l0.429,6.198l-0.43,8.722l0.723,1.01l6.363,1.834l7.99,1.32l0.526-0.391l9.074-1.501
		l1.591,0.524l13.16,5.826l14.399,2.018l0.17,0.009l16.063-0.548l12.282-1.635l8.898-2.049l0.771-1.076l-0.243-2.368l0.756-1.698
		l0.086-0.406v-2.373L332.68,70.88z M308.012,64.289l7.909,2.758l8.383,1.964l5.496,1.426l1.091,1.401v1.818l-0.295,0.664
		l-13.024,2.475l-13.005,1.145L294.16,78.27l-13.323-1.841l-12.505-5.451l-10.629-3.67l-0.699-0.148v-1.998l2.458-4.523l3.388-1.374
		l4.226,0.786l8.056,3.783l3.884,1.968l1.076-0.111l10.925-8.729l0.376-0.781v-1.416l6.633,4.201l0.009-0.012l0.058,0.051
		L308.012,64.289z M294.237,53.44l0.873,1.31l-4.257-2.696l1.33-0.437L294.237,53.44z M289.269,50.468l-1.01-1.604l0.574-0.225
		l1.619,1.439L289.269,50.468z M248.906,43.291l6.289,1.752l6.429,2.175l0.688,0.185l-4.882,1.045l-5.481-2.093l-3.33-3.003
		L248.906,43.291z M246.427,44.068l4.321,3.898l0.312,0.191l5.933,2.264l0.565,0.045l6.041-1.295l0.296-0.114l5.659-3.313
		l6.909-3.455h3.257l-0.081,0.018l-0.495,0.262l-1.78,1.727l1.394,1.436l1.569-1.523l2.165-0.444l0.334,0.229l0.383,0.605
		l-0.844,0.195l-0.55,0.345l-1.442,1.78l1.553,1.26l1.228-1.514l1.184-0.274l0.939,1.493l-1.312,0.514l-0.535,0.493l-0.764,1.565
		l1.797,0.877l0.593-1.215l1.307-0.51l0.985,1.564l-0.156,0.098l-2.128,2.158l1.424,1.404l1.932-1.959l0.973,1.545v1.279
		l-10.047,8.029l-3.337-1.689l-8.198-3.851l-4.881-0.94l-0.56,0.057l-3.99,1.617l-0.503,0.449l-2.75,5.062l-0.121,0.479v1.822
		l-12.311-2.629l-0.405-5.98L246.427,44.068z M256.735,74.604l0.261-1.954l3.863,1.271L256.735,74.604z M322.266,79.5l-12.092,1.609
		l-15.88,0.537l-13.907-1.91l-13.122-5.805l-10.787-3.559l-1.305,0.816l-0.501,3.756l-0.235,0.038l-6.574-1.081l-5.547-1.598
		l0.304-6.176l14.489,3.087l10.497,3.622l12.559,5.478l13.808,1.944l0.169,0.009l10.547-0.337l13.11-1.15l12.291-2.332l0.124,1.215
		L322.266,79.5z"/>
	<g>
		<polygon fill="none" points="163.604,23.794 163.481,26.16 166.402,23.794 		"/>
		<polygon fill="none" points="159.789,97.042 172.738,86.57 172.442,80.891 160.111,90.871 		"/>
		<polygon fill="none" points="161.174,70.46 171.466,62.135 171.17,56.458 161.496,64.287 		"/>
		<polygon fill="none" points="162.097,52.742 170.619,45.847 170.322,40.171 162.418,46.566 		"/>
		<polygon fill="none" points="162.879,37.705 162.558,43.88 170.193,37.703 169.897,32.027 		"/>
		<polygon fill="none" points="161.636,61.601 171.041,53.992 170.746,48.315 161.957,55.427 		"/>
		<polygon fill="none" points="160.711,79.324 171.89,70.281 171.595,64.604 161.035,73.147 		"/>
		<polygon fill="none" points="160.25,88.184 172.313,78.423 172.019,72.748 160.574,82.008 		"/>
		<polygon fill="none" points="163.526,102.508 173.162,94.71 172.867,89.037 160.36,99.156 		"/>
		<polygon fill="none" points="169.474,23.883 163.341,28.844 163.02,35.02 169.77,29.559 		"/>
		<polygon fill="none" points="166.537,105.699 173.358,98.471 173.289,97.18 164.904,103.964 		"/>
		<polygon fill="#FFC928" points="169.47,23.794 166.402,23.794 163.481,26.16 163.341,28.844 169.474,23.883 		"/>
		<polygon fill="#FFC928" points="169.77,29.559 163.02,35.02 162.879,37.705 169.897,32.027 		"/>
		<polygon fill="#FFC928" points="162.418,46.566 170.322,40.171 170.193,37.703 162.558,43.88 		"/>
		<polygon fill="#FFC928" points="161.957,55.427 170.746,48.315 170.619,45.847 162.097,52.742 		"/>
		<polygon fill="#FFC928" points="161.496,64.287 171.17,56.458 171.041,53.992 161.636,61.601 		"/>
		<polygon fill="#FFC928" points="161.035,73.147 171.595,64.604 171.466,62.135 161.174,70.46 		"/>
		<polygon fill="#FFC928" points="160.574,82.008 172.019,72.748 171.89,70.281 160.711,79.324 		"/>
		<polygon fill="#FFC928" points="160.111,90.871 172.442,80.891 172.313,78.423 160.25,88.184 		"/>
		<polygon fill="#FFC928" points="159.716,98.471 160.36,99.156 172.867,89.037 172.738,86.57 159.789,97.042 		"/>
		<polygon fill="#FFC928" points="164.904,103.964 173.289,97.18 173.162,94.71 163.526,102.508 		"/>
	</g>
</g>
</svg>
