<?xml version="1.0" encoding="utf-8"?>
<!-- Generator: Adobe Illustrator 16.0.1, SVG Export Plug-In . SVG Version: 6.00 Build 0)  -->
<!DOCTYPE svg PUBLIC "-//W3C//DTD SVG 1.1//EN" "http://www.w3.org/Graphics/SVG/1.1/DTD/svg11.dtd">
<svg version="1.1" id="Layer_1" xmlns="http://www.w3.org/2000/svg" xmlns:xlink="http://www.w3.org/1999/xlink" x="0px" y="0px"
	 width="281.837px" height="195.104px" viewBox="0 -3.93 281.837 195.104" enable-background="new 0 -3.93 281.837 195.104"
	 xml:space="preserve">
<g id="Layer_1_1_" display="none" opacity="0.5">
</g>
<g id="Layer_2">
</g>
<g>
	<polygon fill="none" points="126.574,62.446 126.574,82.317 126.574,84.321 126.574,94.534 185.846,94.534 185.846,62.446 
		150.346,62.446 148.338,62.446 	"/>
	<path fill="none" d="M125.574,60.446h22.633l-0.529-7.721L146.473,26.2l1.74-0.717l5.07,5.615l11.996-7.161
		c-2.735-6.341-9.168-20.758-11.138-23.026c-0.262-0.3-2.469-1.818-20.614-2.794c-0.789,5.773-6.104,10.164-12.547,10.164
		c-6.441,0-11.756-4.391-12.545-10.164c-18.15,0.976-20.357,2.494-20.616,2.794C85.851,3.183,79.421,17.6,76.683,23.938
		l11.996,7.161l5.07-5.615l1.739,0.717l-1.204,26.504l-1.938,28.369l28.633,1.547l3.595-0.193V61.447L125.574,60.446z
		 M122.703,26.89l0.987-1.159h16.361l0.985,1.159l-2.039,12.568l-0.604,0.765l-6.144,2.532h-0.765l-6.142-2.532l-0.604-0.765
		L122.703,26.89z"/>
	<polygon fill="none" points="131.874,40.752 137.118,38.588 138.877,27.73 124.865,27.73 126.628,38.588 	"/>
	<path fill="#5C6468" d="M125.35,40.224l6.142,2.532h0.766l6.143-2.532l0.605-0.765l2.039-12.568l-0.986-1.159h-16.362l-0.985,1.159
		l2.041,12.568L125.35,40.224z M138.877,27.73l-1.763,10.857l-5.242,2.163l-5.244-2.163l-1.765-10.856L138.877,27.73L138.877,27.73z
		"/>
	<path fill="#5C6468" d="M186.846,60.446h-36.637l-0.535-7.833l-1.077-23.72l3.754,4.155l1.255,0.188l13.455-8.03l0.404-1.253
		c-0.371-0.867-9.127-21.262-11.812-24.354c-0.584-0.676-2.137-2.468-22.981-3.53l-1.05,0.954c-0.229,5.188-4.898,9.257-10.64,9.257
		s-10.41-4.065-10.639-9.257l-1.049-0.954c-20.853,1.062-22.401,2.854-22.985,3.53C83.626,2.695,74.87,23.086,74.5,23.954
		l0.404,1.252l13.452,8.03l1.255-0.188l3.755-4.155L92.29,52.587l-2.009,29.358l0.943,1.065l29.698,1.604h0.106l3.541-0.191v11.105
		l1,1h61.271l1-1V61.445L186.846,60.446z M120.98,82.62l-28.633-1.547l1.938-28.369L95.489,26.2l-1.738-0.717l-5.071,5.615
		l-11.996-7.161c2.736-6.34,9.168-20.757,11.137-23.026c0.259-0.3,2.466-1.818,20.616-2.794c0.789,5.773,6.104,10.164,12.545,10.164
		c6.443,0,11.758-4.391,12.547-10.164c18.146,0.976,20.354,2.494,20.614,2.794c1.971,2.271,8.398,16.688,11.139,23.026
		l-11.998,7.161l-5.069-5.615l-1.74,0.717l1.205,26.525l0.528,7.721h-22.63l-1,1v20.979L120.98,82.62z M185.846,94.534h-59.272
		V84.321v-2.004V62.446h21.767h2.007h35.5L185.846,94.534L185.846,94.534z"/>
	<g enable-background="new    ">
		<path fill="#F4442F" d="M134.811,81.665v-2.094h6.646v2.094H134.811z"/>
	</g>
	<g enable-background="new    ">
		<path fill="#F4442F" d="M150.33,79.26c0,1.938-0.315,3.371-0.951,4.303c-0.635,0.932-1.611,1.396-2.934,1.396
			c-1.277,0-2.243-0.479-2.896-1.438c-0.646-0.963-0.976-2.381-0.976-4.257c0-1.957,0.315-3.397,0.948-4.326
			c0.631-0.931,1.604-1.394,2.92-1.394c1.279,0,2.246,0.484,2.899,1.455C150.002,75.968,150.33,77.389,150.33,79.26z M144.904,79.26
			c0,1.359,0.118,2.334,0.354,2.927c0.235,0.589,0.632,0.884,1.188,0.884c0.547,0,0.938-0.299,1.186-0.896
			c0.242-0.596,0.363-1.564,0.363-2.911c0-1.358-0.123-2.339-0.367-2.933c-0.246-0.596-0.641-0.893-1.182-0.893
			c-0.552,0-0.943,0.297-1.185,0.893C145.023,76.922,144.904,77.9,144.904,79.26z"/>
		<path fill="#F4442F" d="M151.77,83.718c0-0.424,0.111-0.742,0.342-0.963c0.229-0.217,0.562-0.324,0.992-0.324
			c0.42,0,0.745,0.109,0.977,0.334c0.229,0.225,0.347,0.542,0.347,0.956c0,0.397-0.115,0.716-0.349,0.942
			c-0.233,0.229-0.56,0.346-0.975,0.346c-0.424,0-0.753-0.111-0.982-0.338C151.883,84.448,151.77,84.13,151.77,83.718z"/>
		<path fill="#F4442F" d="M159.754,73.573c1.062,0,1.92,0.24,2.566,0.725c0.646,0.483,0.979,1.135,0.979,1.953
			c0,0.564-0.158,1.07-0.475,1.515c-0.312,0.44-0.816,0.839-1.519,1.188c0.829,0.444,1.427,0.909,1.786,1.394
			c0.357,0.481,0.543,1.014,0.543,1.59c0,0.907-0.355,1.644-1.068,2.194c-0.714,0.554-1.65,0.83-2.812,0.83
			c-1.213,0-2.166-0.258-2.857-0.771c-0.688-0.518-1.039-1.246-1.039-2.189c0-0.634,0.168-1.192,0.504-1.687
			c0.338-0.489,0.877-0.923,1.621-1.298c-0.633-0.397-1.088-0.825-1.365-1.28c-0.275-0.454-0.418-0.952-0.418-1.493
			c0-0.794,0.328-1.438,0.986-1.928C157.84,73.817,158.699,73.573,159.754,73.573z M158.027,81.854c0,0.436,0.15,0.771,0.455,1.018
			c0.305,0.242,0.717,0.363,1.243,0.363c0.581,0,1.019-0.125,1.306-0.375s0.436-0.58,0.436-0.99c0-0.339-0.146-0.656-0.432-0.951
			c-0.283-0.295-0.748-0.608-1.393-0.941C158.566,80.468,158.027,81.096,158.027,81.854z M159.74,75.286
			c-0.396,0-0.721,0.104-0.967,0.307c-0.244,0.205-0.367,0.479-0.367,0.824c0,0.304,0.101,0.574,0.291,0.813
			c0.194,0.237,0.551,0.483,1.062,0.737c0.496-0.229,0.843-0.471,1.039-0.713c0.194-0.241,0.297-0.521,0.297-0.842
			c0-0.351-0.127-0.625-0.379-0.826C160.461,75.386,160.133,75.286,159.74,75.286z"/>
		<path fill="#F4442F" d="M169.926,77.022c0,1.163-0.229,2.037-0.674,2.621c-0.451,0.584-1.109,0.876-1.979,0.876
			c-0.837,0-1.479-0.302-1.937-0.897c-0.457-0.601-0.687-1.466-0.687-2.6c0-2.312,0.871-3.467,2.617-3.467
			c0.854,0,1.51,0.301,1.967,0.896C169.697,75.055,169.926,75.911,169.926,77.022z M166.566,77.038c0,0.645,0.059,1.121,0.172,1.438
			c0.113,0.313,0.297,0.476,0.551,0.476c0.484,0,0.729-0.639,0.729-1.912c0-1.265-0.24-1.896-0.729-1.896
			c-0.254,0-0.438,0.153-0.551,0.468C166.623,75.921,166.566,76.396,166.566,77.038z M175.145,73.715l-6.15,11.091h-1.816
			l6.146-11.091H175.145z M177.693,81.452c0,1.158-0.225,2.029-0.674,2.613c-0.451,0.584-1.111,0.875-1.979,0.875
			c-0.834,0-1.479-0.299-1.936-0.898c-0.455-0.598-0.684-1.461-0.684-2.59c0-2.312,0.873-3.466,2.615-3.466
			c0.854,0,1.512,0.3,1.971,0.896C177.465,79.485,177.693,80.34,177.693,81.452z M174.334,81.467c0,0.646,0.061,1.121,0.172,1.438
			c0.113,0.313,0.297,0.476,0.552,0.476c0.481,0,0.728-0.639,0.728-1.912c0-1.264-0.24-1.896-0.728-1.896
			c-0.255,0-0.438,0.154-0.552,0.468C174.391,80.348,174.334,80.825,174.334,81.467z"/>
	</g>
</g>
<g>
	<g enable-background="new    ">
		<path fill="#4DD64D" d="M150.172,171.463h-2.82v-2.031h2.82v-2.784h2.04v2.784h2.819v2.031h-2.819v2.737h-2.04V171.463z"/>
	</g>
	<g>
		<path fill="#5C6468" d="M199.912,151.562h-10.941c0.055-1.688,0.227-7.021,0.384-10.228c0.188-3.746,0.29-5.812,1.003-8.993
			c0.477-2.115,1.443-4.562,2.152-6.347c0.354-0.883,0.631-1.582,0.79-2.088c0.646-2.021,0.163-5.097-0.058-6.013
			c-0.791-3.282-4.076-6.825-4.108-6.858c-0.535-0.553-1.104-0.67-1.491-0.67c-0.852,0-1.438,0.55-1.604,0.718
			c-0.023,0.028-2.558,2.985-6.106,6.489c-3.799,3.744-6.264,6.687-11.701,15.205c-1.427,2.229-3.146,4.271-3.733,4.604
			c-0.17,0.098-0.729,0.235-1.57,0.235c-0.829,0-1.623-0.142-2.021-0.358c-0.934-0.51-1.668-0.908-3.146-0.957l-0.12-0.002
			c-1.358,0-5.177,0.688-5.81,0.809c-0.926,0.082-4.896,0.576-5.562,3.045c-0.564,2.102-0.229,3.812,1.164,5.9
			c1.291,1.938,3.057,3.35,5.896,4.715c0.668,0.32,1.5,0.578,2.398,0.793h-17.079l-1,1v34.088l1,1h61.271l1-1v-34.087
			L199.912,151.562z M149.088,144.947c-1.078-1.614-1.312-2.733-0.896-4.271c0.227-0.836,2.381-1.453,3.945-1.592
			c1.18-0.218,4.459-0.781,5.55-0.781c0.002,0,0.002,0,0.005,0c0.997,0.033,1.391,0.246,2.244,0.716
			c0.999,0.55,2.421,0.604,2.982,0.604c0.628,0,1.793-0.063,2.558-0.498c1.229-0.695,3.326-3.53,4.438-5.267
			c5.334-8.357,7.733-11.227,11.42-14.857c3.593-3.541,6.169-6.549,6.174-6.559c0.005-0.004,0.1-0.066,0.113-0.076
			c0,0,0.026,0.012,0.08,0.065c0.476,0.489,3.012,3.491,3.6,5.937c0.252,1.041,0.538,3.559,0.1,4.936
			c-0.142,0.439-0.418,1.146-0.742,1.957c-0.731,1.851-1.737,4.373-2.248,6.646c-0.75,3.348-0.859,5.601-1.049,9.33
			c-0.146,2.979-0.309,7.787-0.371,9.832h-0.367l-0.002-20.002c-0.051-1.414-0.631-3.064-2.101-3.064l-0.127,0.004
			c-1.604,0.113-3.723,1.945-4.721,3.012l-0.187,0.195c-1.396,1.479-4.654,4.938-6.338,9.218l-0.095,0.238
			c-1.524,3.892-3.261,8.301-5.562,9.131c-0.9,0.326-2.582,0.513-4.608,0.513c-3.526,0-7.022-0.536-8.697-1.347
			C151.691,147.767,150.164,146.566,149.088,144.947z M174.914,141.4l0.095-0.235c1.541-3.925,4.616-7.187,5.935-8.577l0.188-0.201
			c1.182-1.258,2.598-2.199,3.253-2.356c0.11,0.224,0.22,0.709,0.231,1.075v20.46h-16.168
			C171.428,150.258,173.201,145.762,174.914,141.4z M198.912,185.65h-59.271v-32.088h59.271V185.65z"/>
		<g enable-background="new    ">
			<path fill="#4DD64D" d="M163.969,175.922h-7.751v-1.631l2.78-2.812c0.824-0.846,1.363-1.432,1.617-1.758
				c0.252-0.323,0.437-0.629,0.545-0.901c0.11-0.276,0.168-0.565,0.168-0.864c0-0.441-0.123-0.772-0.366-0.992
				c-0.245-0.219-0.572-0.324-0.98-0.324c-0.432,0-0.849,0.1-1.252,0.297c-0.401,0.193-0.823,0.479-1.269,0.842l-1.272-1.51
				c0.55-0.467,0.998-0.794,1.356-0.984c0.357-0.193,0.751-0.342,1.176-0.445c0.427-0.103,0.898-0.152,1.427-0.152
				c0.692,0,1.308,0.127,1.839,0.379c0.527,0.252,0.938,0.605,1.232,1.062c0.293,0.455,0.438,0.976,0.438,1.562
				c0,0.51-0.09,0.985-0.271,1.437c-0.181,0.449-0.456,0.907-0.834,1.377c-0.377,0.471-1.041,1.141-1.99,2.01l-1.427,1.345v0.104
				h4.831L163.969,175.922L163.969,175.922z"/>
			<path fill="#4DD64D" d="M165.35,174.838c0-0.424,0.112-0.744,0.344-0.963c0.229-0.218,0.561-0.326,0.99-0.326
				c0.42,0,0.744,0.11,0.977,0.334c0.229,0.225,0.348,0.541,0.348,0.955c0,0.399-0.115,0.715-0.35,0.944
				c-0.232,0.229-0.56,0.347-0.975,0.347c-0.425,0-0.754-0.112-0.982-0.338C165.465,175.566,165.35,175.249,165.35,174.838z"/>
			<path fill="#4DD64D" d="M176.83,167.314c0,0.692-0.209,1.28-0.629,1.769c-0.42,0.487-1.01,0.817-1.77,1.002v0.045
				c0.896,0.11,1.571,0.383,2.032,0.813c0.46,0.435,0.688,1.017,0.688,1.748c0,1.067-0.39,1.897-1.16,2.492
				c-0.772,0.594-1.877,0.891-3.312,0.891c-1.202,0-2.271-0.198-3.2-0.598v-1.996c0.431,0.219,0.901,0.396,1.418,0.53
				c0.519,0.138,1.025,0.205,1.532,0.205c0.771,0,1.348-0.133,1.716-0.396c0.367-0.268,0.554-0.688,0.554-1.27
				c0-0.521-0.213-0.892-0.638-1.104c-0.426-0.221-1.104-0.326-2.032-0.326h-0.843v-1.799h0.854c0.859,0,1.488-0.109,1.886-0.338
				c0.396-0.229,0.599-0.609,0.599-1.156c0-0.838-0.525-1.258-1.578-1.258c-0.363,0-0.732,0.062-1.109,0.184
				c-0.379,0.119-0.797,0.328-1.258,0.629l-1.084-1.613c1.014-0.729,2.219-1.094,3.617-1.094c1.146,0,2.056,0.23,2.722,0.695
				C176.498,165.838,176.83,166.486,176.83,167.314z"/>
			<path fill="#4DD64D" d="M183.507,168.139c0,1.164-0.228,2.037-0.677,2.621c-0.448,0.584-1.106,0.877-1.979,0.877
				c-0.835,0-1.479-0.301-1.937-0.897c-0.455-0.601-0.683-1.465-0.683-2.601c0-2.311,0.871-3.465,2.614-3.465
				c0.854,0,1.514,0.301,1.971,0.896C183.279,166.172,183.507,167.029,183.507,168.139z M180.146,168.156
				c0,0.644,0.059,1.121,0.174,1.438c0.111,0.315,0.297,0.479,0.549,0.479c0.484,0,0.729-0.641,0.729-1.912
				c0-1.267-0.242-1.896-0.729-1.896c-0.252,0-0.438,0.154-0.549,0.469C180.201,167.04,180.146,167.512,180.146,168.156z
				 M188.725,164.834l-6.148,11.09h-1.818l6.146-11.09H188.725L188.725,164.834z M191.273,172.57c0,1.158-0.226,2.028-0.675,2.613
				c-0.45,0.584-1.11,0.877-1.979,0.877c-0.834,0-1.479-0.302-1.936-0.899c-0.455-0.599-0.686-1.462-0.686-2.591
				c0-2.312,0.873-3.465,2.617-3.465c0.854,0,1.51,0.299,1.969,0.897C191.044,170.602,191.273,171.459,191.273,172.57z
				 M187.914,172.586c0,0.644,0.058,1.121,0.17,1.438c0.111,0.314,0.297,0.477,0.551,0.477c0.484,0,0.729-0.641,0.729-1.91
				c0-1.268-0.242-1.896-0.729-1.896c-0.254,0-0.438,0.156-0.551,0.467C187.971,171.465,187.914,171.943,187.914,172.586z"/>
		</g>
	</g>
</g>
<g>
	<path fill="none" d="M203.571,118.772h51.588l-1.485-16.205h-48.612L203.571,118.772z M226.076,106.364h6.579v2h-6.579V106.364z"/>
	<polygon fill="none" points="205.243,100.567 253.487,100.567 252.343,88.086 206.388,88.086 	"/>
	<path fill="none" d="M218.569,67.589V33.502l1-1h23.842c0.267-6.229-0.562-12.604-5.424-17.051
		c-3.56-3.25-8.863-4.845-14.202-4.253c-6.228,0.687-11.896,4.27-15.972,10.089c-13.601,19.424-5.545,39.866-1.447,47.754
		c2.688,5.182,4.115,14.193,4.519,17.044h36.255c-0.113-0.934-0.396-2.637-0.714-4.539c-0.504-3.022-1.226-7.354-1.979-12.958
		h-24.873L218.569,67.589z"/>
	<rect x="226.076" y="106.364" fill="#5C6468" width="6.579" height="2"/>
	<path fill="#5C6468" d="M280.838,32.503h-35.438c0.256-6.567-0.666-13.591-6.062-18.525c-3.979-3.635-9.873-5.419-15.771-4.766
		c-6.808,0.75-12.979,4.632-17.392,10.929c-14.228,20.32-5.849,41.612-1.586,49.823c2.435,4.688,3.83,13.098,4.271,16.124h-3.385
		l-0.994,0.908l-3,32.688l0.994,1.093h53.779l0.995-1.093l-3-32.688l-0.995-0.908h-4.121c-0.084-0.902-0.318-2.354-0.736-4.867
		c-0.494-2.963-1.193-7.186-1.936-12.628h34.375l1-1V33.504L280.838,32.503z M255.159,118.772h-51.588l1.486-16.205h48.61
		L255.159,118.772z M252.343,88.086l1.146,12.48h-48.245l1.146-12.48H252.343z M246.425,81.547c0.314,1.902,0.6,3.605,0.711,4.539
		h-36.252c-0.398-2.852-1.828-11.863-4.52-17.044c-4.098-7.888-12.148-28.33,1.445-47.754c4.074-5.819,9.746-9.402,15.973-10.089
		c5.339-0.592,10.646,1.002,14.203,4.254c4.861,4.446,5.688,10.819,5.424,17.05h-23.844l-1,1V67.59l1,1h24.873
		C245.198,74.195,245.921,78.521,246.425,81.547z M279.838,66.589h-33.644h-2.02h-23.609V34.502h22.726h2h34.547V66.589
		L279.838,66.589z"/>
	<g enable-background="new    ">
		<path fill="#F4442F" d="M228.802,53.722v-2.093h6.646v2.094L228.802,53.722L228.802,53.722z"/>
	</g>
	<g enable-background="new    ">
		<path fill="#F4442F" d="M244.321,51.319c0,1.938-0.315,3.369-0.951,4.3c-0.637,0.932-1.61,1.396-2.934,1.396
			c-1.277,0-2.244-0.479-2.896-1.438c-0.646-0.961-0.979-2.379-0.979-4.255c0-1.957,0.315-3.398,0.948-4.327
			c0.632-0.928,1.604-1.394,2.921-1.394c1.278,0,2.245,0.485,2.899,1.456C243.994,48.027,244.321,49.447,244.321,51.319z
			 M238.899,51.319c0,1.357,0.117,2.334,0.354,2.924c0.234,0.59,0.632,0.884,1.188,0.884c0.547,0,0.939-0.299,1.188-0.896
			c0.241-0.599,0.361-1.566,0.361-2.912c0-1.359-0.122-2.338-0.365-2.934c-0.246-0.595-0.643-0.893-1.184-0.893
			c-0.551,0-0.941,0.298-1.184,0.893C239.015,48.982,238.899,49.958,238.899,51.319z"/>
		<path fill="#F4442F" d="M245.763,55.778c0-0.427,0.113-0.745,0.342-0.963c0.229-0.22,0.562-0.326,0.992-0.326
			c0.42,0,0.746,0.109,0.979,0.334c0.229,0.224,0.348,0.541,0.348,0.955c0,0.397-0.117,0.715-0.352,0.942
			c-0.23,0.229-0.559,0.348-0.975,0.348c-0.424,0-0.752-0.112-0.982-0.339C245.878,56.505,245.763,56.188,245.763,55.778z"/>
		<path fill="#F4442F" d="M257.679,56.862h-7.752v-1.631l2.783-2.812c0.822-0.846,1.361-1.431,1.613-1.756
			c0.255-0.326,0.438-0.63,0.548-0.906c0.108-0.277,0.166-0.564,0.166-0.865c0-0.442-0.122-0.773-0.366-0.991
			c-0.246-0.22-0.572-0.326-0.982-0.326c-0.43,0-0.846,0.1-1.252,0.296c-0.4,0.197-0.824,0.479-1.266,0.843l-1.273-1.511
			c0.547-0.465,0.998-0.794,1.356-0.984c0.354-0.19,0.751-0.341,1.177-0.442c0.424-0.104,0.897-0.155,1.426-0.155
			c0.691,0,1.308,0.127,1.834,0.38c0.531,0.253,0.943,0.606,1.236,1.062c0.293,0.456,0.439,0.978,0.439,1.562
			c0,0.512-0.094,0.989-0.271,1.438c-0.181,0.448-0.459,0.907-0.834,1.379c-0.377,0.471-1.041,1.141-1.992,2.01l-1.426,1.344v0.105
			h4.832L257.679,56.862L257.679,56.862z"/>
		<path fill="#F4442F" d="M263.921,49.082c0,1.162-0.229,2.036-0.677,2.62s-1.108,0.877-1.979,0.877
			c-0.836,0-1.479-0.301-1.937-0.899c-0.454-0.599-0.685-1.465-0.685-2.598c0-2.312,0.871-3.467,2.615-3.467
			c0.854,0,1.512,0.301,1.969,0.896C263.691,47.112,263.921,47.967,263.921,49.082z M260.56,49.095c0,0.645,0.06,1.121,0.17,1.438
			c0.115,0.313,0.302,0.475,0.554,0.475c0.483,0,0.729-0.637,0.729-1.911c0-1.264-0.242-1.896-0.729-1.896
			c-0.253,0-0.438,0.156-0.554,0.468C260.617,47.979,260.56,48.455,260.56,49.095z M269.139,45.775l-6.147,11.089h-1.819
			l6.147-11.089H269.139z M271.687,53.509c0,1.158-0.226,2.029-0.676,2.613c-0.449,0.584-1.108,0.876-1.979,0.876
			c-0.834,0-1.479-0.301-1.938-0.899c-0.454-0.599-0.685-1.462-0.685-2.59c0-2.312,0.873-3.466,2.617-3.466
			c0.854,0,1.51,0.3,1.969,0.897C271.458,51.542,271.687,52.399,271.687,53.509z M268.327,53.526c0,0.643,0.058,1.12,0.171,1.438
			c0.113,0.315,0.297,0.477,0.551,0.477c0.483,0,0.729-0.64,0.729-1.911c0-1.267-0.241-1.896-0.729-1.896
			c-0.254,0-0.438,0.155-0.551,0.467C268.384,52.406,268.327,52.882,268.327,53.526z"/>
	</g>
</g>
<g>
	<g>
		<polygon fill="none" points="64.003,179.519 64.411,181.486 64.456,181.662 66.327,189.041 95.653,183.787 94.495,175.103 
			94.278,175.134 92.294,175.421 65.987,179.232 		"/>
		<polygon fill="none" points="5.981,175.421 3.998,175.134 3.781,175.103 2.624,183.787 31.951,189.041 33.82,181.664 
			33.87,181.47 34.273,179.519 32.291,179.232 		"/>
		<polygon fill="none" points="66.898,147.728 66.898,113.639 67.898,112.639 79.145,112.639 72.859,82.632 72.837,82.427 
			72.837,71.778 64.54,71.778 64.54,78.542 62.54,78.542 62.54,71.778 35.739,71.778 35.739,78.542 33.739,78.542 33.739,71.778 
			25.438,71.778 25.417,82.632 6.391,173.46 32.697,177.271 48.159,102.612 50.117,102.612 65.581,177.271 91.884,173.46 
			86.704,148.728 67.898,148.728 		"/>
		<path fill="#5C6468" d="M129.169,112.639H81.189l-6.353-30.316V70.778l-1-1H24.438l-1,1v11.545L4.409,173.173l-1.341-0.195
			l-1.136,0.857L0.515,184.47l0.815,1.117l31.184,5.586l1.146-0.738l2.913-11.481l-0.825-1.235l-1.067-0.151l14.458-69.813
			l14.459,69.809l-1.066,0.152l-0.825,1.235l2.912,11.483l1.146,0.738l31.186-5.586l0.814-1.117l-1.42-10.636l-1.135-0.856
			l-1.34,0.195l-5.121-24.445h40.422l1-1v-34.087L129.169,112.639z M33.87,181.47l-0.05,0.193l-1.87,7.377l-29.326-5.254
			l1.157-8.686l0.217,0.031l1.983,0.285l26.31,3.812l1.982,0.285L33.87,181.47z M94.278,175.134l0.217-0.029l1.158,8.688
			l-29.326,5.254l-1.871-7.379l-0.045-0.177l-0.406-1.97l1.982-0.286l26.309-3.812L94.278,175.134z M91.884,173.46l-26.303,3.812
			l-15.465-74.66h-1.957l-15.462,74.658l-26.307-3.812l19.025-90.826l0.021-10.854h8.301v6.767h2v-6.767h26.801v6.767h2v-6.767
			h8.299v10.647l0.021,0.205l6.285,30.008H67.896l-1,1v34.089l1,1h18.806L91.884,173.46z M128.169,146.728h-39.84h-2.045H68.897
			v-32.089h10.665h2.044h46.562L128.169,146.728L128.169,146.728z"/>
	</g>
	<g enable-background="new    ">
		<path fill="#4DD64D" d="M79.427,132.541h-2.819v-2.033h2.819v-2.783h2.041v2.783h2.822v2.033h-2.822v2.738h-2.041V132.541z"/>
	</g>
	<g enable-background="new    ">
		<path fill="#4DD64D" d="M93.18,130.643c0,2.186-0.462,3.812-1.382,4.895c-0.92,1.076-2.312,1.615-4.178,1.615
			c-0.658,0-1.156-0.035-1.494-0.104v-1.884c0.424,0.105,0.869,0.16,1.334,0.16c0.783,0,1.429-0.115,1.936-0.348
			c0.506-0.229,0.894-0.592,1.159-1.084c0.27-0.49,0.424-1.172,0.464-2.037h-0.092c-0.295,0.479-0.633,0.812-1.018,1.004
			c-0.384,0.189-0.863,0.287-1.441,0.287c-0.965,0-1.727-0.312-2.28-0.93c-0.558-0.619-0.835-1.479-0.835-2.582
			c0-1.188,0.338-2.129,1.013-2.816c0.676-0.689,1.594-1.035,2.758-1.035c0.818,0,1.535,0.189,2.149,0.576
			c0.613,0.385,1.086,0.939,1.415,1.672C93.014,128.761,93.18,129.632,93.18,130.643z M89.167,127.664
			c-0.484,0-0.863,0.166-1.138,0.5c-0.275,0.334-0.409,0.812-0.409,1.439c0,0.535,0.123,0.963,0.371,1.271
			c0.248,0.312,0.625,0.473,1.131,0.473c0.476,0,0.883-0.152,1.221-0.467c0.34-0.312,0.51-0.67,0.51-1.072
			c0-0.604-0.158-1.107-0.475-1.523C90.061,127.871,89.657,127.664,89.167,127.664z"/>
		<path fill="#4DD64D" d="M94.604,135.916c0-0.426,0.112-0.746,0.342-0.963c0.229-0.219,0.559-0.326,0.993-0.326
			c0.42,0,0.745,0.111,0.976,0.334c0.229,0.223,0.346,0.541,0.346,0.955c0,0.396-0.115,0.715-0.35,0.943
			c-0.232,0.229-0.557,0.346-0.972,0.346c-0.426,0-0.753-0.113-0.985-0.338C94.721,136.642,94.604,136.326,94.604,135.916z"/>
		<path fill="#4DD64D" d="M102.804,129.916c1.072,0,1.927,0.301,2.562,0.902s0.951,1.426,0.951,2.473
			c0,1.24-0.383,2.193-1.146,2.859c-0.765,0.668-1.855,1.002-3.276,1.002c-1.232,0-2.229-0.199-2.988-0.602v-2.023
			c0.398,0.213,0.865,0.387,1.396,0.52c0.531,0.135,1.033,0.201,1.511,0.201c1.432,0,2.146-0.586,2.146-1.76
			c0-1.117-0.742-1.678-2.224-1.678c-0.27,0-0.563,0.025-0.888,0.08c-0.323,0.055-0.587,0.107-0.789,0.17l-0.933-0.5l0.416-5.648
			h6.016v1.984h-3.959l-0.204,2.18l0.266-0.055C101.966,129.951,102.348,129.916,102.804,129.916z"/>
		<path fill="#4DD64D" d="M112.763,129.218c0,1.162-0.227,2.037-0.676,2.621s-1.108,0.875-1.979,0.875
			c-0.835,0-1.479-0.299-1.937-0.896c-0.455-0.601-0.683-1.47-0.683-2.603c0-2.311,0.872-3.467,2.617-3.467
			c0.854,0,1.511,0.301,1.968,0.896C112.534,127.25,112.763,128.104,112.763,129.218z M109.402,129.234
			c0,0.643,0.058,1.119,0.171,1.438c0.113,0.314,0.297,0.473,0.551,0.473c0.484,0,0.729-0.637,0.729-1.905s-0.243-1.896-0.729-1.896
			c-0.254,0-0.438,0.153-0.551,0.467C109.46,128.115,109.402,128.591,109.402,129.234z M117.98,125.912L111.831,137h-1.82
			l6.15-11.088H117.98z M120.529,133.647c0,1.158-0.227,2.029-0.675,2.614c-0.45,0.584-1.109,0.875-1.979,0.875
			c-0.836,0-1.479-0.302-1.936-0.897c-0.456-0.602-0.685-1.463-0.685-2.592c0-2.312,0.873-3.467,2.617-3.467
			c0.854,0,1.51,0.301,1.969,0.896C120.3,131.679,120.529,132.535,120.529,133.647z M117.169,133.664
			c0,0.641,0.059,1.121,0.17,1.436c0.115,0.316,0.297,0.479,0.551,0.479c0.484,0,0.729-0.641,0.729-1.909s-0.242-1.896-0.729-1.896
			c-0.254,0-0.436,0.154-0.551,0.469C117.227,132.544,117.169,133.02,117.169,133.664z"/>
	</g>
</g>
</svg>
