<?xml version="1.0" encoding="utf-8"?>
<!-- Generator: Adobe Illustrator 16.0.1, SVG Export Plug-In . SVG Version: 6.00 Build 0)  -->
<!DOCTYPE svg PUBLIC "-//W3C//DTD SVG 1.1//EN" "http://www.w3.org/Graphics/SVG/1.1/DTD/svg11.dtd">
<svg version="1.1" id="Layer_1" xmlns="http://www.w3.org/2000/svg" xmlns:xlink="http://www.w3.org/1999/xlink" x="0px" y="0px"
	 width="150px" height="100px" viewBox="25 0 150 100" enable-background="new 25 0 150 100" xml:space="preserve">
<g>
	<polygon fill="#CCCCCC" points="43.865,52.144 35.293,58.74 35.293,31.746 43.87,39.202 	"/>
	<polygon fill="#CCCCCC" points="53.67,59.614 60.324,64.729 60.324,24.984 53.67,30.759 	"/>
	<polygon fill="#CCCCCC" points="34.154,59.614 27.5,64.729 27.5,24.984 34.154,30.76 	"/>
	<polygon fill="#CCCCCC" points="52.907,30 60.118,23.746 27.689,23.751 34.916,29.996 	"/>
	<g>
		<g>
			<path fill="#CCCCCC" d="M78.468,51.971c-2.664,0-4.961-1.149-6.501-2.95l1.958-1.904c1.228,1.33,3.029,2.165,4.752,2.165
				c2.559,0,3.787-0.888,3.787-2.661c0-1.413-1.071-2.117-4.125-3.031c-3.865-1.147-5.718-2.113-5.718-5.379
				c0-3.159,2.664-5.091,6.031-5.091c2.479,0,4.36,0.915,5.979,2.48l-1.932,1.959c-1.149-1.176-2.454-1.749-4.256-1.749
				c-2.141,0-3.055,1.043-3.055,2.271c0,1.278,0.835,1.906,3.994,2.845c3.604,1.097,5.849,2.247,5.849,5.511
				C85.23,49.726,83.141,51.971,78.468,51.971z"/>
			<path fill="#CCCCCC" d="M100.661,51.685L99.12,47.35h-7.31l-1.515,4.335H87.45l6.58-18.277h2.899l6.657,18.277H100.661z
				 M96.823,40.691c-0.443-1.306-1.175-3.42-1.384-4.203c-0.209,0.783-0.861,2.872-1.331,4.229l-1.462,4.177h5.639L96.823,40.691z"
				/>
			<path fill="#CCCCCC" d="M113.011,51.971c-4.518,0-6.868-2.926-6.868-7.962V33.407h2.742v10.523c0,3.447,1.437,5.299,4.178,5.299
				c2.872,0,4.229-1.773,4.229-5.117V33.407h2.741v10.653C120.034,49.179,117.552,51.971,113.011,51.971z"/>
			<path fill="#CCCCCC" d="M129.119,51.685h-4.987V33.407h4.987c4.908,0,8.903,2.688,8.903,9.139
				C138.022,48.995,133.897,51.685,129.119,51.685z M129.119,36.071h-2.245v12.95h2.245c4.334,0,6.109-2.635,6.109-6.476
				C135.229,38.707,133.453,36.071,129.119,36.071z"/>
			<path fill="#CCCCCC" d="M141.86,51.685V33.407h11.775v2.664h-9.034v4.517h5.248v2.664h-5.248v5.77h9.426v2.663H141.86
				L141.86,51.685z"/>
			<path fill="#CCCCCC" d="M167.786,44.217l3.734,7.468h-3.16l-3.629-7.233h-4.126v7.233h-2.688V33.407h8.018
				c3.183,0,5.873,1.698,5.873,5.458C171.807,41.788,170.267,43.59,167.786,44.217z M165.935,35.992h-5.328v5.875h5.328
				c1.826,0,3.105-0.94,3.105-2.924C169.04,37.036,167.786,35.992,165.935,35.992z"/>
		</g>
		<g>
			<path fill="#CCCCCC" d="M75.011,64.456c-1.201,0-2.237-0.516-2.93-1.329l0.883-0.859c0.553,0.603,1.366,0.978,2.142,0.978
				c1.153,0,1.708-0.4,1.708-1.201c0-0.635-0.483-0.954-1.861-1.364c-1.743-0.521-2.578-0.954-2.578-2.427
				c0-1.425,1.202-2.295,2.72-2.295c1.119,0,1.965,0.412,2.696,1.117l-0.872,0.884c-0.517-0.529-1.107-0.788-1.919-0.788
				c-0.965,0-1.377,0.469-1.377,1.023c0,0.576,0.377,0.858,1.802,1.282c1.624,0.495,2.638,1.014,2.638,2.482
				C78.062,63.446,77.12,64.456,75.011,64.456z"/>
			<path fill="#CCCCCC" d="M83.465,59.926c-0.506-0.52-0.953-0.754-1.508-0.754c-0.882,0-1.446,0.789-1.446,2.049
				c0,1.213,0.517,2.083,1.482,2.083c0.578,0,0.918-0.259,1.402-0.765l0.777,0.765c-0.483,0.613-1.095,1.152-2.215,1.152
				c-1.506,0-2.672-1.27-2.672-3.2c0-2.051,1.201-3.238,2.708-3.238c0.907,0,1.613,0.364,2.19,1.048L83.465,59.926z"/>
			<path fill="#CCCCCC" d="M89.329,64.328v-3.497c0-1.246-0.472-1.695-1.271-1.695c-0.812,0-1.271,0.578-1.271,1.578v3.614h-1.214
				v-7.946l1.214-0.637v2.991c0.306-0.448,0.918-0.72,1.554-0.72c1.436,0,2.201,0.941,2.201,2.766v3.545L89.329,64.328
				L89.329,64.328z"/>
			<path fill="#CCCCCC" d="M94.697,64.456c-1.554,0-2.719-1.281-2.719-3.212c0-2.025,1.201-3.227,2.754-3.227
				c1.578,0,2.755,1.26,2.755,3.191C97.486,63.257,96.286,64.456,94.697,64.456z M94.685,59.172c-0.918,0-1.482,0.812-1.482,2.037
				c0,1.353,0.623,2.095,1.542,2.095s1.52-0.931,1.52-2.059C96.264,59.984,95.662,59.172,94.685,59.172z"/>
			<path fill="#CCCCCC" d="M101.49,64.456c-1.555,0-2.72-1.281-2.72-3.212c0-2.025,1.2-3.227,2.756-3.227
				c1.577,0,2.754,1.26,2.754,3.191C104.28,63.257,103.08,64.456,101.49,64.456z M101.478,59.172c-0.917,0-1.482,0.812-1.482,2.037
				c0,1.353,0.624,2.095,1.542,2.095s1.518-0.931,1.518-2.059C103.057,59.984,102.456,59.172,101.478,59.172z"/>
			<path fill="#CCCCCC" d="M105.683,64.328v-7.946l1.212-0.637v8.582L105.683,64.328L105.683,64.328z"/>
			<path fill="#CCCCCC" d="M114.513,64.456c-1.554,0-2.721-1.281-2.721-3.212c0-2.025,1.201-3.227,2.756-3.227
				c1.578,0,2.755,1.26,2.755,3.191C117.303,63.257,116.1,64.456,114.513,64.456z M114.501,59.172c-0.92,0-1.483,0.812-1.483,2.037
				c0,1.353,0.625,2.095,1.542,2.095c0.919,0,1.518-0.931,1.518-2.059C116.077,59.984,115.477,59.172,114.501,59.172z"/>
			<path fill="#CCCCCC" d="M120.833,56.84c-0.398,0-0.562,0.153-0.562,0.602v0.705h1.141v1.131h-1.141v5.051h-1.214v-5.051h-0.802
				v-1.131h0.802v-0.812c0-1.129,0.693-1.554,1.565-1.554c0.317,0,0.658,0.047,0.917,0.117v1.062
				C121.259,56.875,121.045,56.84,120.833,56.84z"/>
			<path fill="#CCCCCC" d="M129.7,64.328h-3.271v-8.242h3.39c1.435,0,2.365,0.754,2.365,2.143c0,0.836-0.446,1.355-1.047,1.649
				c0.645,0.176,1.389,0.774,1.389,1.918C132.525,63.468,131.502,64.328,129.7,64.328z M129.807,57.218h-2.216v2.13h2.216
				c0.811,0,1.141-0.505,1.141-1.048C130.947,57.688,130.632,57.218,129.807,57.218z M129.83,60.467h-2.237v2.731h2.202
				c1.094,0,1.495-0.555,1.495-1.366C131.29,60.983,130.759,60.467,129.83,60.467z"/>
			<path fill="#CCCCCC" d="M137.458,64.328V63.74c-0.306,0.447-0.919,0.716-1.556,0.716c-1.434,0-2.2-0.94-2.2-2.765v-3.545h1.213
				v3.496c0,1.248,0.472,1.696,1.271,1.696c0.812,0,1.271-0.576,1.271-1.577v-3.615h1.213v6.182H137.458z"/>
			<path fill="#CCCCCC" d="M142.308,64.456c-0.835,0-1.742-0.329-2.365-0.786l0.553-0.919c0.577,0.401,1.225,0.611,1.803,0.611
				c0.766,0,1.132-0.245,1.132-0.685c0-0.469-0.543-0.694-1.438-1.035c-1.33-0.519-1.812-0.964-1.812-1.94
				c0-1.108,0.873-1.685,2.107-1.685c0.776,0,1.543,0.282,2.097,0.684l-0.53,0.932c-0.506-0.354-1.012-0.531-1.6-0.531
				c-0.589,0-0.85,0.235-0.85,0.566c0,0.306,0.212,0.528,1.142,0.893c1.38,0.529,2.085,0.907,2.085,2.071
				C144.629,63.999,143.522,64.456,142.308,64.456z"/>
			<path fill="#CCCCCC" d="M146.819,57.346c-0.437,0-0.79-0.353-0.79-0.776c0-0.437,0.354-0.789,0.79-0.789
				c0.425,0,0.776,0.353,0.776,0.789C147.596,56.993,147.244,57.346,146.819,57.346z M146.206,64.328v-6.182h1.213v6.182H146.206z"
				/>
			<path fill="#CCCCCC" d="M152.929,64.328v-3.497c0-1.246-0.471-1.695-1.271-1.695c-0.811,0-1.27,0.578-1.27,1.578v3.614h-1.214
				v-6.182h1.214v0.59c0.306-0.448,0.917-0.719,1.554-0.719c1.438,0,2.202,0.942,2.202,2.767v3.544H152.929z"/>
			<path fill="#CCCCCC" d="M160.877,61.668h-4.085c0.128,1.189,0.8,1.694,1.554,1.694c0.518,0,0.93-0.188,1.341-0.493l0.719,0.777
				c-0.542,0.518-1.188,0.809-2.13,0.809c-1.449,0-2.675-1.164-2.675-3.213c0-2.098,1.106-3.226,2.709-3.226
				c1.755,0,2.602,1.425,2.602,3.095C160.911,61.339,160.888,61.538,160.877,61.668z M158.227,59.112
				c-0.812,0-1.307,0.565-1.411,1.556h2.871C159.629,59.818,159.229,59.112,158.227,59.112z"/>
			<path fill="#CCCCCC" d="M164.326,64.456c-0.837,0-1.742-0.329-2.367-0.786l0.554-0.919c0.576,0.401,1.224,0.611,1.802,0.611
				c0.767,0,1.13-0.245,1.13-0.685c0-0.469-0.539-0.694-1.437-1.035c-1.329-0.519-1.812-0.964-1.812-1.94
				c0-1.108,0.87-1.685,2.106-1.685c0.778,0,1.544,0.282,2.098,0.684l-0.531,0.932c-0.507-0.354-1.013-0.531-1.599-0.531
				c-0.591,0-0.849,0.235-0.849,0.566c0,0.306,0.211,0.528,1.143,0.893c1.376,0.529,2.085,0.907,2.085,2.071
				C166.646,63.999,165.537,64.456,164.326,64.456z"/>
			<path fill="#CCCCCC" d="M170.143,64.456c-0.838,0-1.743-0.329-2.367-0.786l0.554-0.919c0.577,0.401,1.226,0.611,1.802,0.611
				c0.766,0,1.129-0.245,1.129-0.685c0-0.469-0.539-0.694-1.435-1.035c-1.331-0.519-1.813-0.964-1.813-1.94
				c0-1.108,0.873-1.685,2.107-1.685c0.777,0,1.542,0.282,2.097,0.684l-0.529,0.932c-0.507-0.354-1.013-0.531-1.601-0.531
				c-0.589,0-0.848,0.235-0.848,0.566c0,0.306,0.211,0.528,1.142,0.893c1.378,0.529,2.085,0.907,2.085,2.071
				C172.461,63.999,171.354,64.456,170.143,64.456z"/>
		</g>
	</g>
	<g>
		<path fill="#CCCCCC" d="M73.386,76.254c-0.817,0-1.304-0.49-1.304-1.308v-1.944h0.619v1.92c0,0.512,0.245,0.794,0.689,0.794
			c0.456,0,0.696-0.269,0.696-0.782v-1.932h0.625v1.92C74.712,75.756,74.216,76.254,73.386,76.254L73.386,76.254z"/>
	</g>
	<g>
		<path fill="#CCCCCC" d="M79.02,76.192h-0.536l-1.519-2.236v2.236h-0.57V73H77l1.451,2.141V73h0.569V76.192L79.02,76.192z"/>
	</g>
	<g>
		<path fill="#CCCCCC" d="M81.419,76.192h-0.624V73h0.624V76.192L81.419,76.192z"/>
	</g>
	<g>
		<path fill="#CCCCCC" d="M84.443,76.241h-0.561l-1.23-3.165l0.625-0.138l0.911,2.492L85.08,73h0.63L84.443,76.241L84.443,76.241z"
			/>
	</g>
	<g>
		<path fill="#CCCCCC" d="M88.936,76.192h-2.051V73h2.007v0.551h-1.388v0.707h1.105l0.091,0.551h-1.197v0.831h1.431v0.553H88.936
			L88.936,76.192z"/>
	</g>
	<g>
		<path fill="#CCCCCC" d="M92.326,76.231l-0.911-1.25h-0.293v1.211h-0.619V73h1.002c0.759,0,1.211,0.372,1.211,0.995
			c0,0.434-0.219,0.745-0.635,0.903l0.886,1.188L92.326,76.231L92.326,76.231z M91.124,74.487H91.5c0.385,0,0.598-0.173,0.598-0.486
			c0-0.378-0.325-0.456-0.598-0.456h-0.377V74.487L91.124,74.487z"/>
	</g>
	<g>
		<path fill="#CCCCCC" d="M95.243,76.235c-0.339,0-0.725-0.085-1.085-0.239l-0.022-0.008l0.091-0.568l0.039,0.021
			c0.32,0.165,0.713,0.271,1.004,0.271c0.351,0,0.579-0.152,0.579-0.395c0-0.236-0.149-0.329-0.597-0.479
			c-0.669-0.232-1.009-0.445-1.009-0.95c0-0.549,0.445-0.934,1.082-0.934c0.322,0,0.648,0.066,0.919,0.188l0.022,0.011l-0.089,0.58
			l-0.041-0.021c-0.297-0.155-0.57-0.23-0.831-0.23c-0.278,0-0.488,0.146-0.488,0.339c0,0.212,0.145,0.294,0.639,0.464
			c0.627,0.22,0.968,0.437,0.968,0.967C96.422,75.842,95.947,76.235,95.243,76.235L95.243,76.235z"/>
	</g>
	<g>
		<path fill="#CCCCCC" d="M98.592,76.192h-0.626V73h0.626V76.192L98.592,76.192z"/>
	</g>
	<g>
		<path fill="#CCCCCC" d="M101.403,76.192h-0.627v-2.637h-0.979v-0.558h2.552l0.084,0.558h-1.029L101.403,76.192L101.403,76.192z"/>
	</g>
	<g>
		<path fill="#CCCCCC" d="M104.617,76.192h-0.625v-1.234l-1.142-1.88l0.634-0.137l0.83,1.451L105.116,73h0.686l-1.184,1.952
			L104.617,76.192L104.617,76.192z"/>
	</g>
	<g>
		<path fill="#CCCCCC" d="M109.794,76.254c-0.764,0-1.537-0.567-1.537-1.654c0-1.091,0.773-1.661,1.537-1.661
			c0.763,0,1.531,0.568,1.531,1.655C111.325,75.683,110.557,76.254,109.794,76.254L109.794,76.254z M109.794,73.477
			c-0.541,0-0.906,0.448-0.906,1.116c0,0.654,0.382,1.127,0.906,1.127c0.54,0,0.9-0.45,0.9-1.121
			C110.694,73.95,110.317,73.477,109.794,73.477L109.794,73.477z"/>
	</g>
	<g>
		<path fill="#CCCCCC" d="M113.38,76.192h-0.618V73h1.957v0.551h-1.339v0.756h1.049l0.094,0.553h-1.143V76.192L113.38,76.192z"/>
	</g>
	<g>
		<path fill="#CCCCCC" d="M119.146,76.192h-1.049V73h1.043c0.673,0,1.075,0.31,1.075,0.827c0,0.306-0.135,0.531-0.397,0.674
			c0.356,0.13,0.54,0.378,0.54,0.74C120.358,75.854,119.928,76.192,119.146,76.192L119.146,76.192z M118.693,75.671h0.46
			c0.416,0,0.617-0.14,0.617-0.43c0-0.306-0.205-0.464-0.61-0.464h-0.467V75.671L118.693,75.671z M118.693,74.271h0.404
			c0.356,0,0.536-0.134,0.536-0.395c0-0.15-0.053-0.354-0.519-0.354h-0.423L118.693,74.271L118.693,74.271z"/>
	</g>
	<g>
		<path fill="#CCCCCC" d="M123.689,76.231l-0.91-1.25h-0.292v1.211h-0.619V73h1.001c0.759,0,1.209,0.372,1.209,0.995
			c0,0.434-0.218,0.745-0.635,0.903l0.887,1.188L123.689,76.231L123.689,76.231z M122.487,74.487h0.376
			c0.386,0,0.597-0.173,0.597-0.486c0-0.378-0.324-0.456-0.597-0.456h-0.376V74.487L122.487,74.487z"/>
	</g>
	<g>
		<path fill="#CCCCCC" d="M126.321,76.192h-0.625V73h0.625V76.192L126.321,76.192z"/>
	</g>
	<g>
		<path fill="#CCCCCC" d="M129.137,76.192h-0.623v-2.637h-0.981v-0.558h2.553l0.084,0.558h-1.03v2.637H129.137z"/>
	</g>
	<g>
		<path fill="#CCCCCC" d="M131.935,76.192h-0.625V73h0.625V76.192L131.935,76.192z"/>
	</g>
	<g>
		<path fill="#CCCCCC" d="M134.513,76.235c-0.341,0-0.725-0.085-1.087-0.239l-0.023-0.008l0.094-0.568l0.039,0.021
			c0.319,0.165,0.712,0.271,1.003,0.271c0.351,0,0.578-0.152,0.578-0.395c0-0.236-0.148-0.329-0.596-0.479
			c-0.668-0.232-1.008-0.445-1.008-0.95c0-0.549,0.442-0.934,1.08-0.934c0.32,0,0.647,0.066,0.919,0.188l0.022,0.011l-0.091,0.58
			l-0.039-0.021c-0.299-0.155-0.568-0.23-0.832-0.23c-0.276,0-0.486,0.146-0.486,0.339c0,0.212,0.146,0.294,0.641,0.464
			c0.625,0.22,0.966,0.437,0.966,0.967C135.692,75.842,135.217,76.235,134.513,76.235L134.513,76.235z"/>
	</g>
	<g>
		<path fill="#CCCCCC" d="M139.669,76.192h-0.626v-1.376h-1.374v1.376h-0.617V73h0.617v1.246h1.374V73h0.626V76.192L139.669,76.192z
			"/>
	</g>
	<g>
		<path fill="#CCCCCC" d="M144.463,76.254c-0.921,0-1.538-0.662-1.538-1.646c0-0.999,0.617-1.67,1.538-1.67
			c0.364,0,0.656,0.08,0.918,0.247l0.018,0.011l-0.098,0.584l-0.043-0.032c-0.253-0.188-0.498-0.278-0.777-0.278
			c-0.575,0-0.918,0.425-0.918,1.13c0,0.696,0.355,1.13,0.931,1.13c0.276,0,0.562-0.101,0.828-0.284l0.041-0.029l0.085,0.545
			l-0.017,0.01C145.153,76.152,144.809,76.254,144.463,76.254L144.463,76.254z"/>
	</g>
	<g>
		<path fill="#CCCCCC" d="M148.131,76.254c-0.765,0-1.537-0.567-1.537-1.654c0-1.091,0.772-1.661,1.537-1.661
			c0.761,0,1.529,0.568,1.529,1.655C149.66,75.683,148.892,76.254,148.131,76.254L148.131,76.254z M148.131,73.477
			c-0.543,0-0.906,0.448-0.906,1.116c0,0.654,0.381,1.127,0.906,1.127c0.539,0,0.898-0.45,0.898-1.121
			C149.031,73.95,148.653,73.477,148.131,73.477L148.131,73.477z"/>
	</g>
	<g>
		<path fill="#CCCCCC" d="M152.918,76.192h-1.89V73h0.619v2.647h1.181L152.918,76.192L152.918,76.192z"/>
	</g>
	<g>
		<path fill="#CCCCCC" d="M155.32,76.254c-0.816,0-1.303-0.49-1.303-1.308v-1.944h0.619v1.92c0,0.512,0.243,0.794,0.689,0.794
			c0.454,0,0.695-0.269,0.695-0.782v-1.932h0.626v1.92C156.648,75.756,156.151,76.254,155.32,76.254L155.32,76.254z"/>
	</g>
	<g>
		<path fill="#CCCCCC" d="M160.353,76.202h-0.602l-0.851-2.418l-0.177,2.408h-0.57L158.406,73h0.843l0.835,2.445L160.931,73h0.824
			l0.251,3.192h-0.619l-0.182-2.408L160.353,76.202L160.353,76.202z"/>
	</g>
	<g>
		<path fill="#CCCCCC" d="M164.728,76.192h-1.051V73h1.044c0.675,0,1.076,0.31,1.076,0.827c0,0.306-0.136,0.531-0.397,0.674
			c0.356,0.13,0.539,0.378,0.539,0.74C165.938,75.854,165.508,76.192,164.728,76.192L164.728,76.192z M164.274,75.671h0.459
			c0.417,0,0.617-0.14,0.617-0.43c0-0.306-0.206-0.464-0.611-0.464h-0.465V75.671L164.274,75.671z M164.274,74.271h0.404
			c0.354,0,0.536-0.134,0.536-0.395c0-0.15-0.054-0.354-0.519-0.354h-0.424L164.274,74.271L164.274,74.271z"/>
	</g>
	<g>
		<path fill="#CCCCCC" d="M168.129,76.192h-0.625V73h0.625V76.192L168.129,76.192z"/>
	</g>
	<g>
		<path fill="#CCCCCC" d="M171.887,76.254l-0.311-0.845h-1.338l-0.289,0.783h-0.611l1.258-3.229h0.662l1.242,3.152L171.887,76.254
			L171.887,76.254z M170.441,74.857h0.928c-0.058-0.164-0.29-0.789-0.461-1.25L170.441,74.857L170.441,74.857z"/>
	</g>
</g>
</svg>
