<?xml version="1.0" encoding="utf-8"?>
<!-- Generator: Adobe Illustrator 16.0.1, SVG Export Plug-In . SVG Version: 6.00 Build 0)  -->
<!DOCTYPE svg PUBLIC "-//W3C//DTD SVG 1.1//EN" "http://www.w3.org/Graphics/SVG/1.1/DTD/svg11.dtd">
<svg version="1.1" id="Layer_1" xmlns="http://www.w3.org/2000/svg" xmlns:xlink="http://www.w3.org/1999/xlink" x="0px" y="0px"
	 width="150px" height="100px" viewBox="0 0 150 100" enable-background="new 0 0 150 100" xml:space="preserve">
<g>
	<polygon fill="#999999" points="18.865,52.145 10.293,58.74 10.293,31.746 18.87,39.202 	"/>
	<polygon fill="#999999" points="28.67,59.614 35.324,64.729 35.324,24.984 28.67,30.759 	"/>
	<polygon fill="#999999" points="9.154,59.614 2.5,64.729 2.5,24.984 9.154,30.76 	"/>
	<polygon fill="#999999" points="27.907,30 35.118,23.746 2.689,23.751 9.916,29.996 	"/>
	<g>
		<g>
			<path fill="#999999" d="M53.468,51.971c-2.663,0-4.961-1.148-6.501-2.95l1.958-1.904c1.228,1.33,3.029,2.165,4.752,2.165
				c2.56,0,3.787-0.888,3.787-2.661c0-1.413-1.071-2.117-4.125-3.031c-3.865-1.147-5.718-2.113-5.718-5.379
				c0-3.159,2.664-5.091,6.031-5.091c2.479,0,4.359,0.915,5.979,2.48l-1.932,1.959c-1.149-1.176-2.454-1.749-4.256-1.749
				c-2.142,0-3.055,1.043-3.055,2.271c0,1.278,0.834,1.906,3.994,2.845c3.604,1.097,5.849,2.247,5.849,5.511
				C60.23,49.726,58.141,51.971,53.468,51.971z"/>
			<path fill="#999999" d="M75.661,51.686L74.12,47.35h-7.31l-1.516,4.335H62.45l6.579-18.277h2.9l6.656,18.277H75.661z
				 M71.823,40.691c-0.443-1.306-1.175-3.42-1.384-4.203c-0.209,0.783-0.861,2.872-1.332,4.229l-1.461,4.177h5.639L71.823,40.691z"
				/>
			<path fill="#999999" d="M88.012,51.971c-4.519,0-6.869-2.926-6.869-7.962V33.407h2.742V43.93c0,3.447,1.438,5.299,4.178,5.299
				c2.873,0,4.229-1.773,4.229-5.117V33.407h2.741V44.06C95.034,49.179,92.552,51.971,88.012,51.971z"/>
			<path fill="#999999" d="M104.119,51.686h-4.987V33.407h4.987c4.908,0,8.902,2.688,8.902,9.139
				C113.021,48.995,108.896,51.686,104.119,51.686z M104.119,36.071h-2.245v12.95h2.245c4.334,0,6.109-2.635,6.109-6.476
				C110.229,38.707,108.453,36.071,104.119,36.071z"/>
			<path fill="#999999" d="M116.859,51.686V33.407h11.775v2.664h-9.033v4.517h5.248v2.664h-5.248v5.77h9.426v2.664H116.859
				L116.859,51.686z"/>
			<path fill="#999999" d="M142.786,44.217l3.733,7.469h-3.16l-3.629-7.233h-4.125v7.233h-2.688V33.407h8.019
				c3.183,0,5.873,1.698,5.873,5.458C146.807,41.788,145.268,43.59,142.786,44.217z M140.936,35.992h-5.328v5.875h5.328
				c1.826,0,3.104-0.94,3.104-2.924C144.04,37.036,142.786,35.992,140.936,35.992z"/>
		</g>
		<g>
			<path fill="#999999" d="M50.011,64.456c-1.201,0-2.237-0.517-2.93-1.329l0.883-0.859c0.553,0.604,1.366,0.979,2.142,0.979
				c1.153,0,1.708-0.4,1.708-1.201c0-0.635-0.483-0.954-1.861-1.363c-1.743-0.521-2.578-0.955-2.578-2.428
				c0-1.425,1.202-2.295,2.72-2.295c1.119,0,1.965,0.412,2.696,1.117l-0.872,0.884c-0.517-0.528-1.106-0.788-1.919-0.788
				c-0.965,0-1.377,0.469-1.377,1.023c0,0.576,0.377,0.857,1.802,1.281c1.624,0.496,2.638,1.015,2.638,2.482
				C53.062,63.445,52.12,64.456,50.011,64.456z"/>
			<path fill="#999999" d="M58.465,59.926c-0.506-0.52-0.953-0.754-1.508-0.754c-0.882,0-1.446,0.789-1.446,2.049
				c0,1.213,0.517,2.084,1.482,2.084c0.577,0,0.918-0.26,1.401-0.766l0.777,0.766c-0.482,0.612-1.095,1.151-2.215,1.151
				c-1.506,0-2.672-1.271-2.672-3.2c0-2.051,1.201-3.238,2.708-3.238c0.907,0,1.612,0.364,2.19,1.049L58.465,59.926z"/>
			<path fill="#999999" d="M64.329,64.328v-3.497c0-1.246-0.472-1.695-1.271-1.695c-0.812,0-1.271,0.578-1.271,1.578v3.614h-1.214
				v-7.946l1.214-0.637v2.991c0.306-0.448,0.918-0.721,1.554-0.721c1.437,0,2.201,0.941,2.201,2.767v3.545L64.329,64.328
				L64.329,64.328z"/>
			<path fill="#999999" d="M69.697,64.456c-1.555,0-2.719-1.281-2.719-3.212c0-2.025,1.201-3.227,2.754-3.227
				c1.578,0,2.754,1.26,2.754,3.19C72.486,63.257,71.286,64.456,69.697,64.456z M69.686,59.172c-0.918,0-1.482,0.812-1.482,2.037
				c0,1.354,0.623,2.096,1.542,2.096s1.521-0.932,1.521-2.06C71.264,59.984,70.662,59.172,69.686,59.172z"/>
			<path fill="#999999" d="M76.49,64.456c-1.555,0-2.721-1.281-2.721-3.212c0-2.025,1.201-3.227,2.756-3.227
				c1.578,0,2.754,1.26,2.754,3.19C79.279,63.257,78.08,64.456,76.49,64.456z M76.479,59.172c-0.918,0-1.482,0.812-1.482,2.037
				c0,1.354,0.624,2.096,1.542,2.096s1.519-0.932,1.519-2.06C78.057,59.984,77.456,59.172,76.479,59.172z"/>
			<path fill="#999999" d="M80.684,64.328v-7.946l1.211-0.637v8.582L80.684,64.328L80.684,64.328z"/>
			<path fill="#999999" d="M89.514,64.456c-1.555,0-2.722-1.281-2.722-3.212c0-2.025,1.201-3.227,2.756-3.227
				c1.578,0,2.755,1.26,2.755,3.19C92.303,63.257,91.1,64.456,89.514,64.456z M89.501,59.172c-0.92,0-1.483,0.812-1.483,2.037
				c0,1.354,0.625,2.096,1.543,2.096s1.518-0.932,1.518-2.06C91.077,59.984,90.477,59.172,89.501,59.172z"/>
			<path fill="#999999" d="M95.833,56.84c-0.397,0-0.562,0.153-0.562,0.602v0.705h1.141v1.131h-1.141v5.052h-1.215v-5.052h-0.802
				v-1.131h0.802v-0.812c0-1.129,0.693-1.554,1.565-1.554c0.317,0,0.657,0.047,0.917,0.117v1.062
				C96.259,56.875,96.045,56.84,95.833,56.84z"/>
			<path fill="#999999" d="M104.7,64.328h-3.271v-8.242h3.389c1.436,0,2.365,0.754,2.365,2.143c0,0.836-0.445,1.355-1.047,1.649
				c0.646,0.177,1.389,0.774,1.389,1.918C107.525,63.468,106.502,64.328,104.7,64.328z M104.807,57.218h-2.216v2.13h2.216
				c0.812,0,1.142-0.505,1.142-1.048C105.947,57.688,105.632,57.218,104.807,57.218z M104.83,60.467h-2.237v2.731h2.202
				c1.094,0,1.495-0.556,1.495-1.366C106.29,60.982,105.759,60.467,104.83,60.467z"/>
			<path fill="#999999" d="M112.458,64.328V63.74c-0.306,0.447-0.919,0.716-1.556,0.716c-1.435,0-2.2-0.94-2.2-2.765v-3.545h1.213
				v3.496c0,1.248,0.472,1.695,1.271,1.695c0.812,0,1.271-0.576,1.271-1.577v-3.614h1.213v6.182H112.458z"/>
			<path fill="#999999" d="M117.309,64.456c-0.836,0-1.742-0.329-2.365-0.786l0.553-0.919c0.576,0.401,1.225,0.61,1.803,0.61
				c0.766,0,1.133-0.244,1.133-0.685c0-0.469-0.543-0.694-1.438-1.034c-1.33-0.52-1.812-0.965-1.812-1.94
				c0-1.108,0.873-1.685,2.106-1.685c0.776,0,1.543,0.281,2.097,0.684l-0.529,0.932c-0.506-0.354-1.013-0.531-1.601-0.531
				c-0.589,0-0.851,0.235-0.851,0.566c0,0.307,0.213,0.527,1.143,0.893c1.38,0.529,2.085,0.907,2.085,2.071
				C119.629,63.999,118.521,64.456,117.309,64.456z"/>
			<path fill="#999999" d="M121.818,57.346c-0.437,0-0.789-0.353-0.789-0.775c0-0.438,0.354-0.789,0.789-0.789
				c0.426,0,0.777,0.353,0.777,0.789C122.596,56.993,122.244,57.346,121.818,57.346z M121.206,64.328v-6.182h1.213v6.182H121.206z"
				/>
			<path fill="#999999" d="M127.93,64.328v-3.497c0-1.246-0.472-1.695-1.271-1.695c-0.811,0-1.27,0.578-1.27,1.578v3.614h-1.215
				v-6.182h1.215v0.59c0.305-0.448,0.916-0.719,1.553-0.719c1.438,0,2.203,0.941,2.203,2.767v3.544H127.93z"/>
			<path fill="#999999" d="M135.877,61.668h-4.085c0.128,1.189,0.8,1.693,1.554,1.693c0.518,0,0.93-0.188,1.342-0.492l0.719,0.777
				c-0.543,0.518-1.188,0.809-2.131,0.809c-1.448,0-2.674-1.164-2.674-3.213c0-2.098,1.105-3.227,2.709-3.227
				c1.754,0,2.602,1.426,2.602,3.096C135.911,61.339,135.889,61.538,135.877,61.668z M133.227,59.111
				c-0.812,0-1.307,0.565-1.41,1.557h2.871C134.629,59.818,134.229,59.111,133.227,59.111z"/>
			<path fill="#999999" d="M139.326,64.456c-0.838,0-1.742-0.329-2.367-0.786l0.555-0.919c0.575,0.401,1.223,0.61,1.801,0.61
				c0.768,0,1.131-0.244,1.131-0.685c0-0.469-0.539-0.694-1.438-1.034c-1.328-0.52-1.812-0.965-1.812-1.94
				c0-1.108,0.871-1.685,2.107-1.685c0.777,0,1.543,0.281,2.098,0.684l-0.531,0.932c-0.508-0.354-1.014-0.531-1.6-0.531
				c-0.59,0-0.849,0.235-0.849,0.566c0,0.307,0.211,0.527,1.144,0.893c1.375,0.529,2.084,0.907,2.084,2.071
				C141.646,63.999,140.537,64.456,139.326,64.456z"/>
			<path fill="#999999" d="M145.143,64.456c-0.838,0-1.742-0.329-2.367-0.786l0.555-0.919c0.577,0.401,1.227,0.61,1.802,0.61
				c0.767,0,1.13-0.244,1.13-0.685c0-0.469-0.539-0.694-1.436-1.034c-1.331-0.52-1.812-0.965-1.812-1.94
				c0-1.108,0.873-1.685,2.106-1.685c0.776,0,1.542,0.281,2.097,0.684l-0.529,0.932c-0.506-0.354-1.013-0.531-1.601-0.531
				c-0.589,0-0.849,0.235-0.849,0.566c0,0.307,0.212,0.527,1.143,0.893c1.378,0.529,2.085,0.907,2.085,2.071
				C147.461,63.999,146.354,64.456,145.143,64.456z"/>
		</g>
	</g>
	<g>
		<path fill="#999999" d="M48.386,76.254c-0.817,0-1.304-0.49-1.304-1.309v-1.943h0.619v1.92c0,0.512,0.245,0.794,0.689,0.794
			c0.456,0,0.696-0.269,0.696-0.782v-1.932h0.625v1.92C49.712,75.756,49.216,76.254,48.386,76.254L48.386,76.254z"/>
	</g>
	<g>
		<path fill="#999999" d="M54.02,76.191h-0.535l-1.52-2.235v2.235h-0.57V73H52l1.451,2.141V73h0.568V76.191L54.02,76.191z"/>
	</g>
	<g>
		<path fill="#999999" d="M56.419,76.191h-0.624V73h0.624V76.191L56.419,76.191z"/>
	</g>
	<g>
		<path fill="#999999" d="M59.443,76.241h-0.562l-1.229-3.165l0.625-0.139l0.91,2.492L60.08,73h0.63L59.443,76.241L59.443,76.241z"
			/>
	</g>
	<g>
		<path fill="#999999" d="M63.936,76.191h-2.051V73h2.008v0.551h-1.389v0.707h1.105l0.091,0.551h-1.197v0.832h1.431v0.553h0.002
			V76.191z"/>
	</g>
	<g>
		<path fill="#999999" d="M67.326,76.23l-0.911-1.25h-0.293v1.211h-0.619V73h1.002c0.759,0,1.211,0.372,1.211,0.995
			c0,0.435-0.219,0.745-0.635,0.903l0.886,1.188L67.326,76.23L67.326,76.23z M66.124,74.486H66.5c0.385,0,0.598-0.172,0.598-0.485
			c0-0.378-0.324-0.456-0.598-0.456h-0.377L66.124,74.486L66.124,74.486z"/>
	</g>
	<g>
		<path fill="#999999" d="M70.243,76.234c-0.339,0-0.726-0.084-1.085-0.238l-0.022-0.008l0.091-0.568l0.039,0.021
			c0.32,0.164,0.713,0.271,1.004,0.271c0.352,0,0.58-0.151,0.58-0.396c0-0.235-0.149-0.328-0.598-0.479
			c-0.669-0.232-1.009-0.445-1.009-0.949c0-0.55,0.444-0.935,1.082-0.935c0.321,0,0.647,0.065,0.919,0.188l0.021,0.01l-0.089,0.58
			l-0.04-0.021c-0.298-0.155-0.57-0.229-0.832-0.229c-0.277,0-0.488,0.146-0.488,0.338c0,0.213,0.146,0.295,0.64,0.465
			c0.627,0.22,0.968,0.438,0.968,0.967C71.422,75.842,70.947,76.234,70.243,76.234L70.243,76.234z"/>
	</g>
	<g>
		<path fill="#999999" d="M73.592,76.191h-0.626V73h0.626V76.191L73.592,76.191z"/>
	</g>
	<g>
		<path fill="#999999" d="M76.402,76.191h-0.627v-2.637h-0.979v-0.558h2.553l0.084,0.558h-1.029L76.402,76.191L76.402,76.191z"/>
	</g>
	<g>
		<path fill="#999999" d="M79.617,76.191h-0.625v-1.233l-1.143-1.88l0.635-0.137l0.83,1.451L80.116,73h0.686l-1.184,1.952
			L79.617,76.191L79.617,76.191z"/>
	</g>
	<g>
		<path fill="#999999" d="M84.794,76.254c-0.765,0-1.537-0.566-1.537-1.654c0-1.091,0.772-1.66,1.537-1.66
			c0.763,0,1.531,0.567,1.531,1.654C86.325,75.684,85.557,76.254,84.794,76.254L84.794,76.254z M84.794,73.477
			c-0.541,0-0.905,0.448-0.905,1.116c0,0.654,0.381,1.128,0.905,1.128c0.54,0,0.899-0.451,0.899-1.121
			C85.693,73.95,85.316,73.477,84.794,73.477L84.794,73.477z"/>
	</g>
	<g>
		<path fill="#999999" d="M88.38,76.191h-0.618V73h1.957v0.551H88.38v0.756h1.05l0.094,0.553H88.38V76.191L88.38,76.191z"/>
	</g>
	<g>
		<path fill="#999999" d="M94.146,76.191h-1.049V73h1.043c0.672,0,1.074,0.311,1.074,0.827c0,0.306-0.135,0.53-0.396,0.674
			c0.355,0.13,0.539,0.378,0.539,0.74C95.357,75.854,94.928,76.191,94.146,76.191L94.146,76.191z M93.693,75.671h0.459
			c0.416,0,0.617-0.14,0.617-0.43c0-0.306-0.205-0.464-0.609-0.464h-0.467V75.671L93.693,75.671z M93.693,74.271h0.404
			c0.355,0,0.535-0.135,0.535-0.396c0-0.149-0.053-0.354-0.519-0.354h-0.423L93.693,74.271L93.693,74.271z"/>
	</g>
	<g>
		<path fill="#999999" d="M98.689,76.23l-0.91-1.25h-0.293v1.211h-0.618V73h1.001c0.759,0,1.209,0.372,1.209,0.995
			c0,0.435-0.219,0.745-0.635,0.903l0.887,1.188L98.689,76.23L98.689,76.23z M97.486,74.486h0.377c0.386,0,0.597-0.172,0.597-0.485
			c0-0.378-0.323-0.456-0.597-0.456h-0.377V74.486L97.486,74.486z"/>
	</g>
	<g>
		<path fill="#999999" d="M101.32,76.191h-0.625V73h0.625V76.191L101.32,76.191z"/>
	</g>
	<g>
		<path fill="#999999" d="M104.137,76.191h-0.623v-2.637h-0.98v-0.558h2.553l0.084,0.558h-1.029v2.637H104.137z"/>
	</g>
	<g>
		<path fill="#999999" d="M106.936,76.191h-0.625V73h0.625V76.191L106.936,76.191z"/>
	</g>
	<g>
		<path fill="#999999" d="M109.514,76.234c-0.342,0-0.726-0.084-1.088-0.238l-0.023-0.008l0.095-0.568l0.039,0.021
			c0.319,0.164,0.712,0.271,1.003,0.271c0.352,0,0.578-0.151,0.578-0.396c0-0.235-0.148-0.328-0.596-0.479
			c-0.668-0.232-1.008-0.445-1.008-0.949c0-0.55,0.441-0.935,1.079-0.935c0.32,0,0.647,0.065,0.919,0.188l0.022,0.01l-0.091,0.58
			l-0.039-0.021c-0.299-0.155-0.568-0.229-0.832-0.229c-0.276,0-0.486,0.146-0.486,0.338c0,0.213,0.146,0.295,0.641,0.465
			c0.625,0.22,0.967,0.438,0.967,0.967C110.691,75.842,110.217,76.234,109.514,76.234L109.514,76.234z"/>
	</g>
	<g>
		<path fill="#999999" d="M114.669,76.191h-0.626v-1.375h-1.374v1.375h-0.617V73h0.617v1.246h1.374V73h0.626V76.191L114.669,76.191z
			"/>
	</g>
	<g>
		<path fill="#999999" d="M119.463,76.254c-0.921,0-1.538-0.662-1.538-1.646c0-0.998,0.617-1.67,1.538-1.67
			c0.364,0,0.656,0.08,0.918,0.248l0.018,0.01l-0.098,0.584l-0.043-0.031c-0.253-0.188-0.498-0.277-0.777-0.277
			c-0.574,0-0.918,0.424-0.918,1.129c0,0.696,0.355,1.131,0.932,1.131c0.275,0,0.562-0.102,0.828-0.285l0.041-0.028l0.085,0.545
			l-0.017,0.011C120.152,76.152,119.809,76.254,119.463,76.254L119.463,76.254z"/>
	</g>
	<g>
		<path fill="#999999" d="M123.131,76.254c-0.765,0-1.537-0.566-1.537-1.654c0-1.091,0.772-1.66,1.537-1.66
			c0.762,0,1.529,0.567,1.529,1.654C124.66,75.684,123.893,76.254,123.131,76.254L123.131,76.254z M123.131,73.477
			c-0.543,0-0.906,0.448-0.906,1.116c0,0.654,0.381,1.128,0.906,1.128c0.539,0,0.898-0.451,0.898-1.121
			C124.031,73.95,123.652,73.477,123.131,73.477L123.131,73.477z"/>
	</g>
	<g>
		<path fill="#999999" d="M127.918,76.191h-1.891V73h0.619v2.646h1.182L127.918,76.191L127.918,76.191z"/>
	</g>
	<g>
		<path fill="#999999" d="M130.32,76.254c-0.816,0-1.303-0.49-1.303-1.309v-1.943h0.619v1.92c0,0.512,0.242,0.794,0.688,0.794
			c0.454,0,0.694-0.269,0.694-0.782v-1.932h0.627v1.92C131.648,75.756,131.15,76.254,130.32,76.254L130.32,76.254z"/>
	</g>
	<g>
		<path fill="#999999" d="M135.354,76.202h-0.603l-0.851-2.418l-0.178,2.407h-0.57L133.406,73h0.843l0.835,2.445L135.932,73h0.823
			l0.251,3.191h-0.619l-0.182-2.407L135.354,76.202L135.354,76.202z"/>
	</g>
	<g>
		<path fill="#999999" d="M139.729,76.191h-1.052V73h1.044c0.676,0,1.076,0.311,1.076,0.827c0,0.306-0.136,0.53-0.396,0.674
			c0.355,0.13,0.539,0.378,0.539,0.74C140.938,75.854,140.508,76.191,139.729,76.191L139.729,76.191z M139.273,75.671h0.459
			c0.418,0,0.617-0.14,0.617-0.43c0-0.306-0.205-0.464-0.61-0.464h-0.466V75.671L139.273,75.671z M139.273,74.271h0.404
			c0.354,0,0.536-0.135,0.536-0.396c0-0.149-0.054-0.354-0.519-0.354h-0.424L139.273,74.271L139.273,74.271z"/>
	</g>
	<g>
		<path fill="#999999" d="M143.129,76.191h-0.625V73h0.625V76.191L143.129,76.191z"/>
	</g>
	<g>
		<path fill="#999999" d="M146.887,76.254l-0.311-0.845h-1.338l-0.289,0.782h-0.611l1.258-3.229h0.662l1.242,3.152L146.887,76.254
			L146.887,76.254z M145.441,74.857h0.928c-0.059-0.164-0.29-0.789-0.461-1.25L145.441,74.857L145.441,74.857z"/>
	</g>
</g>
</svg>
