<?xml version="1.0" encoding="utf-8"?>
<!-- Generator: Adobe Illustrator 16.0.1, SVG Export Plug-In . SVG Version: 6.00 Build 0)  -->
<!DOCTYPE svg PUBLIC "-//W3C//DTD SVG 1.1//EN" "http://www.w3.org/Graphics/SVG/1.1/DTD/svg11.dtd">
<svg version="1.1" id="Layer_1" xmlns="http://www.w3.org/2000/svg" xmlns:xlink="http://www.w3.org/1999/xlink" x="0px" y="0px"
	 width="150px" height="100px" viewBox="0 0 150 100" enable-background="new 0 0 150 100" xml:space="preserve">
<g>
	<path fill="#CDCCCC" d="M51.455,57.193c-0.447,0.344-1.016,0.582-1.703,0.717c-0.687,0.137-1.419,0.201-2.196,0.201
		c-0.94,0-1.823-0.16-2.645-0.48c-0.822-0.32-1.538-0.811-2.15-1.467c-0.613-0.658-1.099-1.498-1.457-2.521
		c-0.359-1.023-0.538-2.236-0.538-3.642c0-1.464,0.198-2.708,0.594-3.731c0.396-1.022,0.919-1.86,1.568-2.51
		c0.65-0.65,1.379-1.124,2.186-1.424c0.807-0.298,1.629-0.447,2.466-0.447c0.896,0,1.628,0.048,2.195,0.146
		c0.568,0.097,1.054,0.229,1.457,0.392l-0.447,1.659c-0.717-0.359-1.741-0.538-3.07-0.538c-0.613,0-1.218,0.111-1.815,0.336
		c-0.597,0.225-1.132,0.591-1.603,1.098c-0.471,0.509-0.848,1.174-1.132,1.994c-0.283,0.822-0.426,1.831-0.426,3.026
		c0,1.075,0.135,2.016,0.403,2.823c0.27,0.807,0.64,1.479,1.109,2.018c0.471,0.537,1.023,0.941,1.659,1.209
		c0.635,0.27,1.325,0.404,2.072,0.404c0.673,0,1.259-0.066,1.76-0.201c0.5-0.135,0.922-0.307,1.267-0.516L51.455,57.193z"/>
	<path fill="#CDCCCC" d="M52.88,52.242c0-1.898,0.424-3.352,1.268-4.36c0.845-1.008,2.059-1.512,3.643-1.512
		c0.837,0,1.564,0.138,2.186,0.413c0.619,0.277,1.131,0.673,1.535,1.188c0.402,0.515,0.701,1.136,0.896,1.86
		c0.194,0.723,0.291,1.528,0.291,2.409c0,1.896-0.423,3.352-1.267,4.357c-0.845,1.01-2.059,1.514-3.642,1.514
		c-0.837,0-1.565-0.139-2.187-0.414s-1.131-0.674-1.535-1.188c-0.402-0.516-0.701-1.137-0.896-1.861
		C52.978,53.926,52.88,53.123,52.88,52.242z M54.741,52.242c0,0.566,0.056,1.111,0.168,1.635c0.111,0.521,0.287,0.979,0.525,1.367
		c0.239,0.389,0.553,0.701,0.941,0.941c0.389,0.238,0.857,0.357,1.412,0.357c2.031,0.016,3.048-1.42,3.048-4.303
		c0-0.582-0.058-1.137-0.169-1.658c-0.111-0.522-0.287-0.979-0.525-1.368c-0.24-0.388-0.554-0.697-0.941-0.93
		c-0.389-0.231-0.859-0.347-1.411-0.347C55.757,47.923,54.741,49.357,54.741,52.242z"/>
	<path fill="#CDCCCC" d="M71.774,57.844v-6.342c0-0.6-0.025-1.117-0.077-1.559c-0.054-0.439-0.154-0.81-0.304-1.109
		c-0.148-0.298-0.361-0.522-0.639-0.672c-0.277-0.148-0.639-0.224-1.088-0.224c-0.688,0-1.259,0.209-1.714,0.628
		c-0.456,0.417-0.772,0.94-0.953,1.567v7.71h-1.791V46.639h1.255l0.336,1.368h0.09c0.403-0.479,0.871-0.871,1.4-1.178
		c0.529-0.305,1.223-0.458,2.072-0.458c0.718,0,1.305,0.138,1.761,0.413c0.455,0.277,0.81,0.759,1.063,1.446
		c0.345-0.583,0.817-1.038,1.424-1.367c0.604-0.328,1.287-0.492,2.051-0.492c0.628,0,1.158,0.07,1.59,0.212
		c0.434,0.143,0.793,0.392,1.077,0.751c0.282,0.358,0.487,0.845,0.614,1.457c0.129,0.612,0.191,1.389,0.191,2.331v6.723h-1.793V51.1
		c0-0.539-0.025-1.006-0.078-1.4c-0.053-0.396-0.156-0.725-0.313-0.987c-0.156-0.261-0.373-0.456-0.649-0.582
		c-0.277-0.127-0.639-0.19-1.087-0.19c-0.748,0-1.331,0.209-1.748,0.628c-0.419,0.417-0.718,1.015-0.896,1.792v7.485h-1.795V57.844z
		"/>
	<path fill="#CDCCCC" d="M83.058,42.157h1.793v5.58h0.088c0.346-0.433,0.781-0.77,1.312-1.008c0.531-0.239,1.109-0.358,1.736-0.358
		c1.449,0,2.535,0.462,3.261,1.389c0.726,0.927,1.088,2.36,1.088,4.303c0,1.957-0.479,3.443-1.435,4.459
		c-0.957,1.018-2.301,1.525-4.033,1.525c-0.837,0-1.596-0.092-2.275-0.271s-1.191-0.373-1.533-0.582V42.157H83.058z M87.674,47.938
		c-0.748,0-1.353,0.209-1.815,0.628c-0.463,0.417-0.799,1.008-1.008,1.77v5.646c0.282,0.166,0.627,0.289,1.029,0.371
		c0.404,0.082,0.822,0.123,1.256,0.123c1.016,0,1.826-0.357,2.432-1.076c0.604-0.717,0.908-1.838,0.908-3.361
		c0-0.582-0.054-1.127-0.158-1.636c-0.104-0.508-0.269-0.941-0.491-1.3c-0.226-0.358-0.513-0.643-0.863-0.852
		S88.181,47.938,87.674,47.938z"/>
	<path fill="#CDCCCC" d="M94.597,43.231c0-0.344,0.115-0.639,0.348-0.885c0.231-0.246,0.525-0.37,0.886-0.37
		c0.358,0,0.664,0.124,0.918,0.37c0.254,0.246,0.382,0.541,0.382,0.885c0,0.345-0.128,0.628-0.382,0.853
		c-0.254,0.224-0.56,0.335-0.918,0.335s-0.654-0.111-0.886-0.335C94.712,43.859,94.597,43.577,94.597,43.231z M94.978,46.639h1.793
		v11.205h-1.793V46.639z"/>
	<path fill="#CDCCCC" d="M107.19,57.844v-6.387c0-1.166-0.168-2.042-0.504-2.633c-0.338-0.59-0.953-0.885-1.851-0.885
		c-0.792,0-1.444,0.212-1.96,0.639c-0.516,0.425-0.879,0.959-1.087,1.602v7.664h-1.793V46.639h1.255l0.336,1.368h0.089
		c0.359-0.479,0.843-0.871,1.445-1.178c0.606-0.305,1.326-0.458,2.164-0.458c0.61,0,1.149,0.07,1.612,0.212
		c0.463,0.143,0.849,0.392,1.153,0.751c0.308,0.358,0.539,0.841,0.695,1.446c0.157,0.604,0.235,1.37,0.235,2.297v6.768H107.19z"/>
	<path fill="#CDCCCC" d="M111.722,47.468c0.568-0.344,1.229-0.598,1.983-0.762s1.543-0.247,2.364-0.247
		c0.775,0,1.4,0.105,1.871,0.313c0.471,0.209,0.828,0.482,1.076,0.818c0.246,0.336,0.41,0.706,0.492,1.109
		c0.082,0.403,0.123,0.807,0.123,1.21c0,0.895-0.021,1.77-0.066,2.622s-0.067,1.658-0.067,2.42c0,0.553,0.022,1.076,0.067,1.568
		c0.045,0.494,0.127,0.949,0.246,1.367h-1.321l-0.472-1.568h-0.111c-0.135,0.209-0.303,0.414-0.506,0.617
		c-0.2,0.201-0.442,0.381-0.728,0.537c-0.284,0.156-0.612,0.287-0.985,0.393c-0.373,0.104-0.799,0.156-1.277,0.156
		s-0.922-0.074-1.333-0.225s-0.767-0.361-1.065-0.639c-0.298-0.277-0.533-0.607-0.705-0.996c-0.172-0.391-0.258-0.83-0.258-1.322
		c0-0.658,0.135-1.207,0.403-1.648c0.269-0.439,0.646-0.791,1.131-1.053s1.069-0.449,1.749-0.561s1.43-0.168,2.252-0.168
		c0.209,0,0.415,0,0.616,0c0.2,0,0.405,0.016,0.616,0.045c0.045-0.447,0.066-0.852,0.066-1.209c0-0.822-0.164-1.397-0.492-1.727
		c-0.33-0.328-0.927-0.492-1.793-0.492c-0.254,0-0.526,0.02-0.817,0.057c-0.292,0.039-0.591,0.093-0.896,0.161
		c-0.308,0.07-0.599,0.155-0.875,0.254c-0.275,0.101-0.52,0.212-0.729,0.334L111.722,47.468z M114.903,56.455
		c0.419,0,0.793-0.057,1.121-0.168c0.328-0.113,0.613-0.254,0.852-0.428c0.239-0.172,0.438-0.361,0.594-0.57
		c0.157-0.209,0.273-0.41,0.348-0.605v-1.859c-0.209-0.014-0.422-0.025-0.637-0.033c-0.218-0.008-0.432-0.01-0.641-0.01
		c-0.463,0-0.915,0.025-1.355,0.076c-0.439,0.053-0.83,0.15-1.164,0.291c-0.338,0.143-0.605,0.336-0.809,0.584
		c-0.201,0.246-0.302,0.557-0.302,0.93c0,0.523,0.187,0.953,0.56,1.289C113.845,56.287,114.321,56.455,114.903,56.455z"/>
	<path fill="#CDCCCC" d="M121.408,46.639h1.747v-2.219l1.794-0.515v2.733h3.047v1.569h-3.047v6.208c0,0.775,0.096,1.326,0.29,1.646
		c0.193,0.322,0.521,0.482,0.986,0.482c0.389,0,0.717-0.041,0.985-0.125c0.269-0.08,0.567-0.189,0.896-0.324l0.403,1.367
		c-0.403,0.195-0.845,0.352-1.321,0.471c-0.479,0.119-0.994,0.18-1.547,0.18c-0.912,0-1.555-0.258-1.929-0.773
		c-0.373-0.514-0.56-1.377-0.56-2.588v-6.543h-1.748v-1.568H121.408z"/>
	<path fill="#CDCCCC" d="M129.502,52.242c0-1.898,0.422-3.352,1.267-4.36c0.845-1.008,2.059-1.512,3.643-1.512
		c0.836,0,1.564,0.138,2.186,0.413c0.619,0.277,1.131,0.673,1.534,1.188c0.404,0.516,0.702,1.136,0.896,1.86
		c0.195,0.723,0.291,1.528,0.291,2.409c0,1.896-0.422,3.352-1.266,4.357c-0.845,1.01-2.059,1.514-3.642,1.514
		c-0.837,0-1.565-0.139-2.185-0.414c-0.621-0.275-1.134-0.674-1.535-1.188c-0.404-0.516-0.703-1.137-0.896-1.861
		C129.601,53.926,129.502,53.123,129.502,52.242z M131.36,52.242c0,0.566,0.058,1.111,0.168,1.635
		c0.113,0.521,0.289,0.979,0.527,1.367c0.239,0.389,0.555,0.701,0.94,0.941c0.39,0.238,0.86,0.357,1.413,0.357
		c2.031,0.016,3.048-1.42,3.048-4.303c0-0.582-0.056-1.137-0.169-1.658c-0.111-0.522-0.287-0.979-0.525-1.368
		c-0.24-0.388-0.554-0.697-0.941-0.93c-0.389-0.231-0.858-0.347-1.411-0.347C132.378,47.923,131.36,49.357,131.36,52.242z"/>
	<path fill="#CDCCCC" d="M147.118,48.365c-0.447-0.149-0.873-0.225-1.277-0.225c-0.642,0-1.15,0.176-1.523,0.526
		c-0.373,0.352-0.604,0.796-0.693,1.334v7.844h-1.793V46.639h1.255l0.336,1.368h0.091c0.282-0.509,0.623-0.9,1.02-1.178
		c0.396-0.275,0.898-0.414,1.513-0.414c0.435,0,0.919,0.075,1.456,0.224L147.118,48.365z"/>
	<path fill="#CDCCCC" d="M2.499,35.448v29.105h29.105V35.448H2.499z M18.004,51.592v6.252h-1.86v-6.229l-5.177-9.458h2.174
		l3.676,6.857l0.388,0.721h0.022l0.411-0.765l3.526-6.812h1.972L18.004,51.592z"/>
</g>
</svg>
