<?xml version="1.0" encoding="utf-8"?>
<!-- Generator: Adobe Illustrator 16.0.1, SVG Export Plug-In . SVG Version: 6.00 Build 0)  -->
<!DOCTYPE svg PUBLIC "-//W3C//DTD SVG 1.1//EN" "http://www.w3.org/Graphics/SVG/1.1/DTD/svg11.dtd">
<svg version="1.1" id="Layer_1" xmlns="http://www.w3.org/2000/svg" xmlns:xlink="http://www.w3.org/1999/xlink" x="0px" y="0px"
	 width="150px" height="100px" viewBox="25 0 150 100" enable-background="new 25 0 150 100" xml:space="preserve">
<g>
	<path fill="#CDCCCC" d="M100.207,2.501c-10.933,0-19.829,8.896-19.829,19.834c0,10.928,8.896,19.824,19.829,19.824
		c10.938,0,19.836-8.896,19.836-19.824C120.043,11.397,111.145,2.501,100.207,2.501z M118.178,22.335c0,3.213-0.85,6.23-2.334,8.844
		L103.051,20.69l-2.688-16.323C110.203,4.444,118.178,12.472,118.178,22.335z M100.051,4.367L97.366,20.69L84.577,31.179
		c-1.484-2.613-2.338-5.631-2.338-8.844C82.238,12.472,90.217,4.444,100.051,4.367z M100.207,40.299
		c-6.581,0-12.349-3.56-15.477-8.852l15.477-5.835l15.481,5.835C112.562,36.74,106.791,40.299,100.207,40.299z"/>
	<g>
		<path fill="#CDCCCC" d="M49.661,68.351l4.632-10.521h3.903v0.43H57.73c-0.625,0-1.035,0.054-1.231,0.156
			c-0.195,0.103-0.321,0.293-0.39,0.576c-0.062,0.276-0.098,0.95-0.098,2.006v6.235c0,1,0.026,1.654,0.075,1.968
			c0.053,0.307,0.179,0.543,0.381,0.688c0.199,0.15,0.589,0.226,1.165,0.226h0.563v0.43h-6.074v-0.43h0.449
			c0.538,0,0.912-0.068,1.117-0.205c0.215-0.138,0.348-0.353,0.407-0.646c0.058-0.289,0.088-0.967,0.088-2.031v-8.098l-5.036,11.408
			h-0.443l-5.068-11.408v7.453c0,1.02,0.029,1.713,0.091,2.084c0.065,0.367,0.25,0.689,0.583,0.971
			c0.326,0.275,0.781,0.438,1.367,0.472v0.43h-4.551v-0.43c0.547-0.031,0.99-0.177,1.328-0.439c0.342-0.272,0.547-0.596,0.625-0.985
			c0.072-0.387,0.111-1.105,0.111-2.158v-5.533c0-1.016-0.03-1.664-0.092-1.963c-0.059-0.293-0.182-0.492-0.372-0.609
			c-0.191-0.107-0.611-0.166-1.255-0.166h-0.346v-0.43h3.877L49.661,68.351z"/>
		<path fill="#CDCCCC" d="M66.233,65.466h-5.352c-0.03,0.365-0.039,0.639-0.039,0.82c0,1.352,0.215,2.367,0.634,3.047
			c0.424,0.678,1.049,1.016,1.889,1.016c1.139,0,1.943-0.508,2.422-1.529h0.446c-0.202,0.642-0.596,1.14-1.188,1.496
			c-0.59,0.365-1.244,0.541-1.944,0.541c-0.648,0-1.263-0.168-1.839-0.493c-0.583-0.326-1.056-0.796-1.426-1.392
			c-0.371-0.602-0.553-1.328-0.553-2.188c0-1.211,0.357-2.217,1.071-3.023c0.712-0.807,1.601-1.205,2.676-1.205
			c1.005,0,1.786,0.303,2.333,0.918C65.911,64.089,66.204,64.753,66.233,65.466z M64.597,65.089
			c0.016-0.141,0.025-0.277,0.025-0.385c0-0.553-0.162-0.977-0.485-1.279c-0.322-0.309-0.712-0.459-1.185-0.459
			c-1.14,0-1.816,0.707-2.039,2.123H64.597z"/>
		<path fill="#CDCCCC" d="M70.167,64.515c0.216-0.559,0.558-1.022,1.036-1.397c0.479-0.371,0.941-0.562,1.4-0.562
			c0.416,0,0.739,0.131,0.973,0.385c0.244,0.261,0.355,0.519,0.355,0.787c0,0.187-0.053,0.338-0.176,0.47
			c-0.121,0.137-0.274,0.194-0.449,0.194c-0.312,0-0.547-0.229-0.714-0.692c-0.11-0.312-0.283-0.466-0.507-0.466
			c-0.267,0-0.589,0.177-0.966,0.543c-0.371,0.371-0.609,0.753-0.717,1.144c-0.107,0.396-0.162,0.938-0.162,1.621v1.373
			c0,0.813,0.016,1.332,0.036,1.547c0.019,0.215,0.11,0.371,0.263,0.488c0.156,0.106,0.44,0.166,0.834,0.166h0.263v0.43h-4.083
			v-0.43h0.195c0.382,0,0.645-0.05,0.808-0.156c0.16-0.104,0.254-0.244,0.286-0.437c0.03-0.186,0.046-0.727,0.046-1.608v-2.17
			c0-0.824-0.01-1.343-0.03-1.554c-0.025-0.209-0.113-0.371-0.27-0.487c-0.159-0.111-0.433-0.17-0.84-0.17h-0.195v-0.427
			c0.593-0.062,1.358-0.254,2.312-0.551C70.045,63.048,70.143,63.702,70.167,64.515z"/>
		<path fill="#CDCCCC" d="M80.954,68.673h0.406c-0.426,1.449-1.481,2.184-3.183,2.184c-1.094,0-2.018-0.371-2.76-1.112
			c-0.746-0.752-1.127-1.734-1.127-2.959c0-1.261,0.41-2.277,1.211-3.058c0.811-0.78,1.761-1.172,2.862-1.172
			c0.664,0,1.273,0.144,1.836,0.435c0.547,0.293,0.83,0.645,0.83,1.063c0,0.156-0.048,0.31-0.156,0.445
			c-0.104,0.137-0.254,0.205-0.449,0.205c-0.407,0-0.661-0.24-0.759-0.723c-0.071-0.361-0.188-0.615-0.344-0.762
			c-0.167-0.144-0.476-0.212-0.948-0.212c-0.84,0-1.465,0.289-1.891,0.863c-0.42,0.588-0.634,1.467-0.634,2.633
			c0,1.207,0.23,2.147,0.689,2.832c0.443,0.681,1.132,1.021,2.054,1.021C79.827,70.358,80.618,69.796,80.954,68.673z"/>
		<path fill="#CDCCCC" d="M89.484,65.466h-5.351c-0.029,0.365-0.039,0.639-0.039,0.82c0,1.352,0.209,2.367,0.628,3.047
			c0.426,0.678,1.055,1.016,1.895,1.016c1.139,0,1.943-0.508,2.418-1.529h0.449c-0.201,0.642-0.595,1.14-1.191,1.496
			c-0.592,0.365-1.24,0.541-1.943,0.541c-0.645,0-1.26-0.168-1.836-0.493c-0.583-0.326-1.055-0.796-1.422-1.392
			c-0.375-0.602-0.557-1.328-0.557-2.188c0-1.211,0.358-2.217,1.071-3.023s1.601-1.205,2.669-1.205c1.006,0,1.794,0.303,2.34,0.918
			C89.164,64.089,89.456,64.753,89.484,65.466z M87.848,65.089c0.016-0.141,0.026-0.277,0.026-0.385
			c0-0.553-0.156-0.977-0.479-1.279c-0.321-0.309-0.722-0.459-1.191-0.459c-1.139,0-1.816,0.707-2.037,2.123H87.848z"/>
		<path fill="#CDCCCC" d="M97.435,63.679v-2.998c0-0.822-0.016-1.334-0.04-1.549c-0.016-0.209-0.106-0.381-0.263-0.488
			c-0.156-0.11-0.436-0.164-0.83-0.164h-0.205v-0.44c0.762-0.017,1.585-0.146,2.49-0.392h0.195v10.328
			c0,0.896,0.02,1.437,0.049,1.631c0.033,0.195,0.13,0.343,0.297,0.435c0.162,0.094,0.474,0.144,0.918,0.144v0.424
			c-0.909,0.024-1.713,0.106-2.416,0.25c-0.078-0.293-0.114-0.758-0.114-1.387c-0.462,0.459-0.941,0.805-1.429,1.038
			c-0.488,0.23-1.002,0.349-1.525,0.349c-0.995,0-1.851-0.4-2.577-1.201c-0.722-0.801-1.08-1.773-1.08-2.91
			c0-1.246,0.368-2.262,1.103-3.027c0.738-0.777,1.618-1.162,2.633-1.162c0.526,0,1.016,0.099,1.479,0.277
			C96.579,63.022,97.018,63.308,97.435,63.679z M97.435,64.226c-0.417-0.356-0.83-0.625-1.247-0.801
			c-0.42-0.182-0.833-0.27-1.253-0.27c-0.703,0-1.29,0.273-1.764,0.816c-0.472,0.543-0.714,1.436-0.714,2.663
			c0,1.246,0.242,2.175,0.73,2.767c0.488,0.59,1.083,0.893,1.797,0.893c0.478,0,0.911-0.111,1.321-0.342
			c0.407-0.223,0.782-0.561,1.13-1.01V64.226z"/>
		<path fill="#CDCCCC" d="M107.902,65.466h-5.359c-0.02,0.365-0.035,0.639-0.035,0.82c0,1.352,0.211,2.367,0.633,3.047
			c0.42,0.678,1.051,1.016,1.885,1.016c1.141,0,1.951-0.508,2.424-1.529h0.453c-0.203,0.642-0.602,1.14-1.195,1.496
			c-0.59,0.365-1.244,0.541-1.938,0.541c-0.652,0-1.266-0.168-1.846-0.493c-0.576-0.326-1.055-0.796-1.424-1.392
			c-0.363-0.602-0.549-1.328-0.549-2.188c0-1.211,0.354-2.217,1.066-3.023c0.713-0.806,1.609-1.205,2.676-1.205
			c1.006,0,1.783,0.303,2.334,0.918C107.582,64.089,107.867,64.753,107.902,65.466z M106.258,65.089
			c0.016-0.141,0.027-0.277,0.027-0.385c0-0.553-0.158-0.977-0.48-1.279c-0.322-0.309-0.719-0.459-1.182-0.459
			c-1.143,0-1.822,0.707-2.041,2.123H106.258z"/>
		<path fill="#CDCCCC" d="M109.408,70.792v-2.525h0.371c0.424,1.457,1.182,2.189,2.275,2.189c0.479,0,0.832-0.146,1.064-0.436
			c0.23-0.287,0.354-0.601,0.354-0.947c0-0.4-0.125-0.727-0.381-0.982c-0.254-0.258-0.754-0.57-1.486-0.932
			c-0.777-0.379-1.336-0.752-1.67-1.127c-0.338-0.361-0.506-0.807-0.506-1.338c0-0.508,0.184-0.992,0.545-1.451
			c0.359-0.459,0.867-0.688,1.523-0.688c0.672,0,1.229,0.268,1.66,0.813c0.096-0.093,0.215-0.322,0.363-0.685h0.352v2.373h-0.352
			c-0.121-0.569-0.365-1.059-0.723-1.463c-0.355-0.416-0.783-0.617-1.27-0.617c-0.375,0-0.68,0.111-0.91,0.349
			c-0.236,0.229-0.352,0.498-0.352,0.801c0,0.343,0.133,0.636,0.389,0.873c0.254,0.25,0.725,0.537,1.436,0.854
			c1.064,0.478,1.711,0.951,1.945,1.406c0.246,0.469,0.359,0.908,0.359,1.334c0,0.668-0.215,1.215-0.66,1.635
			c-0.443,0.41-0.996,0.625-1.664,0.625c-0.703,0-1.34-0.293-1.885-0.875c-0.174,0.191-0.312,0.459-0.41,0.812L109.408,70.792
			L109.408,70.792z"/>
		<path fill="#CDCCCC" d="M115.707,65.958h4.602v1.422h-4.602V65.958z"/>
		<path fill="#CDCCCC" d="M127.727,63.698c1.447,0.107,2.52,0.465,3.217,1.078c0.705,0.608,1.053,1.383,1.053,2.301
			c0,0.801-0.242,1.488-0.713,2.064c-0.475,0.582-1.084,0.963-1.826,1.139c-0.742,0.18-1.729,0.264-2.979,0.264h-4.988v-0.43h0.488
			c0.547,0,0.922-0.068,1.133-0.205c0.203-0.137,0.342-0.352,0.4-0.645c0.051-0.289,0.078-0.968,0.078-2.031v-6.188
			c0-1.035-0.027-1.698-0.09-1.996c-0.059-0.303-0.188-0.508-0.371-0.625c-0.191-0.106-0.611-0.166-1.258-0.166h-0.234v-0.43
			l2.09-0.06l2.383-0.071c3.477,0,5.215,1,5.215,2.995c0,0.83-0.303,1.49-0.898,1.992C129.832,63.185,128.93,63.526,127.727,63.698z
			 M125.434,63.522c0.156,0.004,0.285,0.01,0.391,0.01c1.352,0,2.271-0.215,2.764-0.641c0.498-0.425,0.742-1.111,0.742-2.064
			c0-0.66-0.098-1.172-0.291-1.533c-0.193-0.367-0.488-0.645-0.871-0.84c-0.381-0.201-1.051-0.299-1.986-0.299
			c-0.238,0-0.492,0.01-0.746,0.029L125.434,63.522L125.434,63.522z M125.434,63.981v2.832c0,1.209,0.02,1.973,0.062,2.299
			c0.045,0.322,0.162,0.572,0.352,0.738c0.191,0.17,0.566,0.254,1.133,0.254c1.002,0,1.744-0.254,2.246-0.769
			c0.504-0.512,0.75-1.278,0.75-2.31c0-1.045-0.275-1.825-0.848-2.319c-0.562-0.498-1.562-0.746-2.984-0.746
			C125.914,63.962,125.678,63.966,125.434,63.981z"/>
		<path fill="#CDCCCC" d="M140.523,65.466h-5.355c-0.025,0.365-0.043,0.639-0.043,0.82c0,1.352,0.215,2.367,0.641,3.047
			c0.42,0.678,1.045,1.016,1.883,1.016c1.137,0,1.945-0.508,2.424-1.529h0.451c-0.197,0.642-0.598,1.14-1.193,1.496
			c-0.596,0.365-1.24,0.541-1.938,0.541c-0.656,0-1.266-0.168-1.85-0.493c-0.578-0.326-1.047-0.796-1.418-1.392
			c-0.367-0.602-0.555-1.328-0.555-2.188c0-1.211,0.359-2.217,1.072-3.023c0.713-0.806,1.604-1.205,2.674-1.205
			c1.008,0,1.781,0.303,2.336,0.918C140.199,64.089,140.492,64.753,140.523,65.466z M138.881,65.089
			c0.018-0.141,0.029-0.277,0.029-0.385c0-0.553-0.164-0.977-0.484-1.279c-0.324-0.309-0.719-0.459-1.193-0.459
			c-1.135,0-1.814,0.707-2.033,2.123H138.881z"/>
		<path fill="#CDCCCC" d="M143.898,62.556h0.254c0.141,0.392,0.227,0.912,0.238,1.586c0.457-0.537,0.928-0.932,1.422-1.19
			c0.488-0.265,1.008-0.396,1.547-0.396c0.613,0,1.113,0.131,1.5,0.385c0.393,0.261,0.645,0.566,0.764,0.943
			c0.107,0.371,0.166,0.912,0.166,1.625v2.404c0,0.883,0.012,1.424,0.043,1.619c0.035,0.197,0.133,0.342,0.299,0.439
			c0.166,0.096,0.471,0.143,0.918,0.143v0.43h-3.936v-0.43h0.18c0.453,0,0.748-0.064,0.885-0.195
			c0.131-0.133,0.215-0.287,0.229-0.459c0.025-0.18,0.027-0.689,0.027-1.547v-2.477c0-0.605-0.027-1.045-0.086-1.302
			c-0.062-0.264-0.219-0.485-0.473-0.69c-0.266-0.201-0.596-0.297-0.992-0.297c-0.461,0-0.893,0.135-1.309,0.408
			c-0.414,0.27-0.814,0.68-1.184,1.221v3.137c0,0.883,0.02,1.424,0.057,1.619c0.033,0.197,0.137,0.342,0.295,0.439
			c0.168,0.098,0.48,0.143,0.93,0.143v0.43h-3.881v-0.43c0.43,0,0.732-0.045,0.898-0.133c0.168-0.088,0.271-0.219,0.311-0.396
			c0.039-0.182,0.062-0.737,0.062-1.674v-2.291c0-0.894-0.021-1.437-0.053-1.627c-0.027-0.195-0.137-0.336-0.305-0.435
			c-0.16-0.094-0.467-0.146-0.916-0.146v-0.431C142.475,62.913,143.18,62.765,143.898,62.556z"/>
		<path fill="#CDCCCC" d="M151.957,70.544v-0.293l5.09-6.953h-2.793c-0.355,0-0.598,0.02-0.73,0.068
			c-0.129,0.043-0.277,0.195-0.461,0.453c-0.178,0.254-0.355,0.645-0.529,1.172h-0.352l0.117-2.129h6.439v0.342l-5.062,6.91h2.098
			c0.676,0,1.137-0.033,1.369-0.113c0.229-0.078,0.459-0.258,0.684-0.562c0.227-0.291,0.451-0.739,0.678-1.342h0.371l-0.219,2.447
			H151.957z"/>
		<path fill="#CDCCCC" d="M57.25,84.47l0.101,3.172h-0.44c-0.087-0.69-0.283-1.27-0.589-1.723c-0.302-0.453-0.622-0.736-0.954-0.844
			c-0.325-0.117-0.892-0.172-1.68-0.172h-2.484v5.391h1.191c0.772,0,1.284-0.127,1.538-0.387c0.25-0.258,0.377-0.781,0.377-1.561
			h0.469v4.481H54.31c0-0.547-0.056-0.979-0.166-1.295c-0.108-0.31-0.27-0.527-0.485-0.64c-0.218-0.119-0.635-0.178-1.264-0.178
			h-1.191v3.164c0,1.002,0.023,1.652,0.078,1.959c0.049,0.312,0.175,0.541,0.381,0.693c0.199,0.148,0.595,0.225,1.175,0.225h0.429
			v0.43h-5.907v-0.43h0.397c0.54,0,0.918-0.072,1.126-0.209c0.212-0.133,0.349-0.352,0.401-0.635
			c0.064-0.293,0.094-0.977,0.094-2.033v-6.24c0-1.016-0.03-1.662-0.094-1.957c-0.053-0.293-0.179-0.502-0.371-0.608
			c-0.189-0.117-0.609-0.173-1.253-0.173h-0.225v-0.434h9.815V84.47z"/>
		<path fill="#CDCCCC" d="M64.816,95.786h0.343c-0.05,1.07-0.577,1.602-1.573,1.602c-0.43,0-0.762-0.117-1.006-0.336
			c-0.25-0.225-0.41-0.561-0.484-1.006c-0.628,0.445-1.195,0.781-1.713,1.006c-0.514,0.219-0.977,0.336-1.384,0.336
			c-0.52,0-0.969-0.145-1.34-0.453c-0.378-0.299-0.566-0.692-0.566-1.19c0-0.642,0.316-1.207,0.947-1.688
			c0.628-0.479,1.498-0.947,2.601-1.402l1.456-0.59v-0.375c0-0.537-0.035-0.92-0.101-1.156c-0.069-0.236-0.25-0.447-0.539-0.637
			c-0.289-0.187-0.663-0.283-1.132-0.283c-0.938,0-1.461,0.318-1.572,0.938c-0.098,0.639-0.362,0.961-0.789,0.961
			c-0.374,0-0.566-0.186-0.566-0.545c0-0.357,0.25-0.738,0.758-1.154c0.508-0.403,1.292-0.608,2.363-0.608
			c0.792,0,1.407,0.123,1.846,0.375c0.439,0.244,0.732,0.533,0.869,0.851c0.14,0.321,0.215,0.812,0.215,1.467V95
			c0,0.728,0.03,1.188,0.108,1.396c0.071,0.211,0.238,0.312,0.488,0.312C64.459,96.704,64.72,96.392,64.816,95.786z M62.097,92.501
			l-1.026,0.414c-1.615,0.656-2.416,1.482-2.416,2.471c0,0.4,0.098,0.713,0.306,0.959c0.211,0.238,0.479,0.359,0.808,0.359
			c0.296,0,0.634-0.096,1.025-0.291s0.82-0.484,1.303-0.875V92.501z"/>
		<path fill="#CDCCCC" d="M66.136,97.437v-2.522h0.371c0.423,1.451,1.182,2.185,2.275,2.185c0.479,0,0.831-0.144,1.065-0.433
			c0.234-0.287,0.352-0.604,0.352-0.947c0-0.399-0.124-0.727-0.378-0.983c-0.259-0.26-0.752-0.562-1.488-0.935
			c-0.778-0.377-1.334-0.752-1.669-1.116c-0.339-0.363-0.508-0.812-0.508-1.351c0-0.502,0.186-0.983,0.547-1.444
			c0.359-0.457,0.872-0.688,1.527-0.688c0.669,0,1.22,0.272,1.666,0.812c0.089-0.093,0.209-0.318,0.362-0.685H70.6v2.377h-0.342
			c-0.127-0.57-0.371-1.058-0.729-1.47c-0.361-0.416-0.781-0.614-1.27-0.614c-0.375,0-0.677,0.117-0.911,0.346
			C67.117,90.203,67,90.467,67,90.778c0,0.332,0.126,0.625,0.387,0.871c0.247,0.254,0.732,0.531,1.435,0.854
			c1.065,0.482,1.709,0.953,1.953,1.4c0.235,0.469,0.352,0.914,0.352,1.338c0,0.664-0.215,1.211-0.661,1.631
			c-0.442,0.422-0.989,0.627-1.663,0.627c-0.709,0-1.338-0.283-1.884-0.865c-0.172,0.182-0.31,0.455-0.411,0.805h-0.372
			L66.136,97.437L66.136,97.437z"/>
		<path fill="#CDCCCC" d="M74.898,90.776c0.378-0.527,0.797-0.916,1.26-1.187c0.465-0.264,0.977-0.391,1.533-0.391
			c0.635,0,1.159,0.127,1.573,0.391c0.419,0.271,0.684,0.593,0.81,0.974c0.124,0.385,0.192,1.004,0.192,1.869v2.123
			c0,0.897,0.014,1.446,0.049,1.637c0.032,0.195,0.137,0.342,0.302,0.434c0.17,0.084,0.479,0.133,0.938,0.133v0.43H77.59v-0.43
			h0.176c0.459,0,0.756-0.062,0.889-0.199c0.13-0.127,0.215-0.283,0.235-0.463c0.023-0.178,0.032-0.688,0.032-1.541v-2.309
			c0-0.635-0.039-1.107-0.11-1.416c-0.078-0.309-0.254-0.561-0.534-0.762c-0.277-0.199-0.625-0.299-1.045-0.299
			c-0.488,0-0.921,0.143-1.312,0.428c-0.39,0.287-0.729,0.711-1.022,1.283v3.074c0,0.858,0.01,1.396,0.039,1.594
			c0.03,0.199,0.124,0.354,0.289,0.453c0.16,0.102,0.46,0.155,0.889,0.155v0.431h-3.902v-0.431h0.195
			c0.455,0,0.742-0.062,0.879-0.19c0.133-0.127,0.215-0.281,0.24-0.459c0.014-0.18,0.03-0.695,0.03-1.553v-7.654
			c0-0.777-0.075-1.267-0.222-1.469c-0.149-0.211-0.501-0.314-1.058-0.314v-0.43c0.971,0,1.777-0.131,2.425-0.396h0.195V90.776
			L74.898,90.776z"/>
		<path fill="#CDCCCC" d="M85.064,89.2v5.355c0,0.819,0.009,1.334,0.039,1.543c0.026,0.217,0.114,0.377,0.27,0.487
			c0.157,0.117,0.438,0.172,0.833,0.172h0.196v0.431h-4.134v-0.431h0.316c0.449,0,0.739-0.062,0.869-0.19
			c0.136-0.127,0.215-0.281,0.234-0.459c0.026-0.18,0.036-0.695,0.036-1.553v-2.326c0-0.898-0.039-1.453-0.126-1.652
			c-0.085-0.201-0.202-0.322-0.339-0.375c-0.137-0.051-0.384-0.074-0.735-0.074H82.27v-0.43c1.117-0.117,1.982-0.279,2.587-0.498
			H85.064L85.064,89.2z M83.254,85.28c0-0.271,0.097-0.498,0.287-0.693c0.192-0.195,0.419-0.293,0.689-0.293
			c0.273,0,0.492,0.098,0.684,0.293c0.189,0.195,0.284,0.424,0.284,0.693c0,0.277-0.095,0.508-0.284,0.701
			c-0.192,0.194-0.41,0.289-0.684,0.289c-0.27,0-0.498-0.095-0.689-0.289C83.352,85.788,83.254,85.558,83.254,85.28z"/>
		<path fill="#CDCCCC" d="M87.483,93.335c0-1.176,0.4-2.162,1.181-2.949c0.791-0.795,1.758-1.186,2.91-1.186
			c1.163,0,2.129,0.4,2.92,1.191c0.785,0.795,1.175,1.776,1.175,2.942c0,1.297-0.394,2.312-1.202,3.053
			c-0.794,0.744-1.762,1.109-2.894,1.109c-1.133,0-2.096-0.373-2.891-1.125C87.883,95.622,87.483,94.604,87.483,93.335z
			 M89.045,93.382c0,1.359,0.215,2.316,0.665,2.865c0.442,0.551,1.063,0.818,1.865,0.818c0.82,0,1.445-0.269,1.878-0.818
			c0.437-0.549,0.654-1.506,0.654-2.865c0-1.35-0.218-2.311-0.647-2.889c-0.43-0.574-1.062-0.869-1.885-0.869
			c-0.82,0-1.445,0.289-1.881,0.865C89.261,91.06,89.045,92.028,89.045,93.382z"/>
		<path fill="#CDCCCC" d="M99.026,89.2h0.254c0.14,0.387,0.224,0.918,0.237,1.582c0.45-0.527,0.918-0.922,1.416-1.191
			c0.496-0.264,1.014-0.391,1.551-0.391c0.607,0,1.113,0.127,1.504,0.381c0.391,0.258,0.645,0.576,0.754,0.941
			c0.115,0.377,0.174,0.914,0.174,1.627v2.406c0,0.885,0.014,1.432,0.041,1.62c0.037,0.195,0.135,0.339,0.301,0.437
			c0.16,0.098,0.469,0.146,0.91,0.146v0.431h-3.928v-0.431h0.176c0.449,0,0.752-0.062,0.889-0.198
			c0.129-0.127,0.207-0.279,0.227-0.461c0.027-0.17,0.029-0.687,0.029-1.543v-2.48c0-0.605-0.029-1.035-0.088-1.299
			c-0.061-0.258-0.217-0.488-0.48-0.688c-0.262-0.194-0.586-0.297-0.986-0.297c-0.459,0-0.895,0.138-1.309,0.406
			c-0.42,0.268-0.811,0.684-1.179,1.225v3.134c0,0.885,0.017,1.432,0.056,1.62c0.032,0.195,0.13,0.339,0.296,0.437
			s0.475,0.146,0.924,0.146v0.431h-3.887v-0.431c0.44,0,0.736-0.043,0.902-0.127c0.172-0.092,0.28-0.225,0.319-0.405
			c0.039-0.177,0.059-0.732,0.059-1.67v-2.289c0-0.898-0.02-1.437-0.055-1.627c-0.033-0.189-0.131-0.332-0.296-0.435
			c-0.167-0.099-0.469-0.142-0.928-0.142v-0.44C97.601,89.556,98.296,89.411,99.026,89.2z"/>
		<path fill="#CDCCCC" d="M124.643,97.497h-0.43l-3.867-10.482l-3.389,10.482H116.5l-3.059-9.904
			c-0.281-0.896-0.479-1.494-0.604-1.795c-0.121-0.299-0.275-0.518-0.473-0.654c-0.195-0.136-0.527-0.221-0.984-0.24V84.47h4.773
			v0.434c-0.574,0.039-0.938,0.117-1.104,0.25c-0.166,0.128-0.244,0.308-0.244,0.535c0,0.207,0.129,0.738,0.395,1.588l2.266,7.412
			l3.326-10.219h0.521l3.73,10.219l1.941-6.756c0.262-0.914,0.389-1.506,0.389-1.789c0-0.828-0.447-1.24-1.326-1.24V84.47h3.473
			v0.434c-0.506,0.039-0.896,0.23-1.141,0.566c-0.254,0.342-0.566,1.156-0.947,2.457L124.643,97.497z"/>
		<path fill="#CDCCCC" d="M135.648,92.106h-5.359c-0.021,0.365-0.031,0.643-0.031,0.828c0,1.348,0.207,2.362,0.629,3.037
			c0.426,0.68,1.055,1.021,1.895,1.021c1.137,0,1.941-0.513,2.418-1.527h0.449c-0.203,0.634-0.596,1.138-1.191,1.494
			c-0.594,0.358-1.24,0.537-1.941,0.537c-0.646,0-1.262-0.158-1.848-0.49c-0.572-0.33-1.045-0.789-1.416-1.396
			c-0.371-0.598-0.553-1.329-0.553-2.184c0-1.215,0.357-2.221,1.07-3.021c0.713-0.808,1.602-1.207,2.668-1.207
			c1.006,0,1.785,0.307,2.336,0.918C135.326,90.733,135.613,91.392,135.648,92.106z M134.008,91.733
			c0.02-0.146,0.029-0.273,0.029-0.385c0-0.552-0.166-0.982-0.488-1.283c-0.322-0.299-0.713-0.455-1.182-0.455
			c-1.141,0-1.816,0.707-2.039,2.123H134.008z"/>
		<path fill="#CDCCCC" d="M144.057,92.106h-5.361c-0.02,0.365-0.035,0.643-0.035,0.828c0,1.348,0.211,2.362,0.633,3.037
			c0.422,0.68,1.055,1.021,1.889,1.021c1.137,0,1.947-0.513,2.422-1.527h0.455c-0.205,0.634-0.605,1.138-1.199,1.494
			c-0.588,0.358-1.232,0.537-1.938,0.537c-0.65,0-1.266-0.158-1.846-0.49c-0.576-0.33-1.057-0.789-1.424-1.396
			c-0.363-0.598-0.551-1.329-0.551-2.184c0-1.215,0.355-2.221,1.07-3.021c0.711-0.808,1.607-1.207,2.676-1.207
			c1.004,0,1.783,0.307,2.332,0.918C143.734,90.733,144.02,91.392,144.057,92.106z M142.41,91.733
			c0.025-0.146,0.027-0.273,0.027-0.385c0-0.552-0.158-0.982-0.48-1.283c-0.322-0.299-0.719-0.455-1.184-0.455
			c-1.143,0-1.82,0.707-2.039,2.123H142.41z"/>
		<path fill="#CDCCCC" d="M149.859,89.507h3.094v0.432c-0.566,0.019-1.336,0.438-2.285,1.279c-0.312,0.264-0.781,0.643-1.426,1.152
			l2.734,3.207c0.414,0.482,0.732,0.795,0.977,0.941c0.238,0.146,0.488,0.225,0.732,0.239v0.431h-3.826v-0.431
			c0.633-0.016,0.953-0.149,0.953-0.409c0-0.123-0.211-0.427-0.623-0.914l-1.975-2.287l-0.398,0.297v1.111
			c0,0.819,0.01,1.334,0.031,1.541c0.018,0.213,0.107,0.372,0.266,0.485c0.154,0.117,0.426,0.176,0.816,0.176v0.431h-3.896v-0.431
			h0.293c0.449,0,0.742-0.062,0.877-0.19c0.137-0.127,0.213-0.281,0.23-0.459c0.02-0.181,0.025-0.695,0.025-1.553v-7.699
			c0-0.748-0.066-1.222-0.207-1.424c-0.145-0.211-0.479-0.314-1.021-0.314v-0.43c0.369,0,0.811-0.045,1.328-0.131
			c0.52-0.089,0.871-0.173,1.061-0.265h0.195v8.642l0.805-0.564c1.305-0.922,1.959-1.594,1.959-2.004c0-0.268-0.24-0.41-0.721-0.428
			v-0.432H149.859z"/>
	</g>
	<rect x="42.79" y="77.229" fill="#CDCCCC" width="115.046" height="0.307"/>
</g>
</svg>
