<?xml version="1.0" encoding="utf-8"?>
<!-- Generator: Adobe Illustrator 17.0.2, SVG Export Plug-In . SVG Version: 6.00 Build 0)  -->
<!DOCTYPE svg PUBLIC "-//W3C//DTD SVG 1.1//EN" "http://www.w3.org/Graphics/SVG/1.1/DTD/svg11.dtd">
<svg version="1.1" id="Layer_1" xmlns="http://www.w3.org/2000/svg" xmlns:xlink="http://www.w3.org/1999/xlink" x="0px" y="0px"
	 width="200px" height="100px" viewBox="0 50 200 100" enable-background="new 0 50 200 100" xml:space="preserve">
<g>
	<path fill="#CDCCCC" d="M100.207,52.502c-10.933,0-19.829,8.897-19.829,19.834c0,10.928,8.896,19.824,19.829,19.824
		c10.938,0,19.836-8.896,19.836-19.824C120.043,61.399,111.145,52.502,100.207,52.502z M118.178,72.336
		c0,3.213-0.85,6.23-2.334,8.843l-12.793-10.488l-2.687-16.323C110.203,54.445,118.178,62.473,118.178,72.336z M100.052,54.368
		l-2.686,16.323L84.577,81.179c-1.484-2.612-2.338-5.63-2.338-8.843C82.239,62.473,90.218,54.445,100.052,54.368z M100.207,90.3
		c-6.581,0-12.349-3.56-15.477-8.852l15.477-5.835l15.48,5.835C112.562,86.741,106.791,90.3,100.207,90.3z"/>
	<g>
		<path fill="#CDCCCC" d="M49.661,118.352l4.632-10.521h3.903v0.43h-0.465c-0.625,0-1.035,0.053-1.231,0.156
			c-0.195,0.102-0.321,0.293-0.39,0.576c-0.062,0.277-0.098,0.951-0.098,2.006v6.236c0,1,0.026,1.654,0.075,1.967
			c0.053,0.307,0.179,0.543,0.381,0.689c0.199,0.15,0.589,0.225,1.165,0.225h0.563v0.43h-6.074v-0.43h0.449
			c0.538,0,0.912-0.068,1.117-0.205c0.215-0.137,0.348-0.352,0.407-0.645c0.058-0.289,0.088-0.967,0.088-2.031v-8.098l-5.036,11.408
			h-0.443l-5.068-11.408v7.453c0,1.02,0.029,1.713,0.091,2.084c0.065,0.367,0.25,0.689,0.583,0.971
			c0.326,0.275,0.781,0.438,1.367,0.471v0.43h-4.551v-0.43c0.547-0.031,0.99-0.176,1.328-0.439c0.342-0.273,0.547-0.596,0.625-0.986
			c0.072-0.387,0.111-1.105,0.111-2.158V111c0-1.016-0.03-1.664-0.092-1.963c-0.059-0.293-0.182-0.492-0.372-0.609
			c-0.191-0.107-0.611-0.166-1.255-0.166h-0.346v-0.43h3.877L49.661,118.352z"/>
		<path fill="#CDCCCC" d="M66.234,115.467h-5.352c-0.03,0.365-0.039,0.639-0.039,0.82c0,1.352,0.215,2.367,0.634,3.047
			c0.424,0.678,1.049,1.016,1.889,1.016c1.139,0,1.943-0.508,2.422-1.529h0.446c-0.202,0.641-0.596,1.139-1.188,1.496
			c-0.59,0.365-1.244,0.541-1.944,0.541c-0.648,0-1.263-0.168-1.839-0.494c-0.583-0.326-1.056-0.795-1.426-1.391
			c-0.371-0.602-0.553-1.328-0.553-2.188c0-1.211,0.357-2.217,1.071-3.023c0.712-0.807,1.601-1.205,2.676-1.205
			c1.005,0,1.786,0.303,2.333,0.918C65.911,114.09,66.204,114.754,66.234,115.467z M64.597,115.09
			c0.016-0.141,0.025-0.277,0.025-0.385c0-0.553-0.162-0.977-0.485-1.279c-0.322-0.309-0.712-0.459-1.185-0.459
			c-1.14,0-1.816,0.707-2.039,2.123H64.597z"/>
		<path fill="#CDCCCC" d="M70.168,114.516c0.216-0.559,0.558-1.023,1.036-1.398c0.479-0.371,0.941-0.561,1.4-0.561
			c0.416,0,0.739,0.131,0.973,0.385c0.244,0.26,0.355,0.518,0.355,0.787c0,0.186-0.053,0.338-0.176,0.469
			c-0.121,0.137-0.274,0.195-0.449,0.195c-0.312,0-0.547-0.229-0.714-0.693c-0.11-0.312-0.283-0.465-0.507-0.465
			c-0.267,0-0.589,0.176-0.966,0.543c-0.371,0.371-0.609,0.752-0.717,1.143c-0.107,0.396-0.162,0.938-0.162,1.621v1.373
			c0,0.814,0.016,1.332,0.036,1.547c0.019,0.215,0.11,0.371,0.263,0.488c0.156,0.107,0.44,0.166,0.834,0.166h0.263v0.43h-4.083
			v-0.43h0.195c0.382,0,0.645-0.049,0.808-0.156c0.16-0.104,0.254-0.244,0.286-0.436c0.03-0.186,0.046-0.727,0.046-1.609v-2.17
			c0-0.824-0.01-1.342-0.03-1.553c-0.025-0.209-0.113-0.371-0.27-0.488c-0.159-0.111-0.433-0.17-0.84-0.17h-0.195v-0.426
			c0.593-0.062,1.358-0.254,2.312-0.551C70.046,113.049,70.143,113.703,70.168,114.516z"/>
		<path fill="#CDCCCC" d="M80.954,118.674h0.406c-0.426,1.449-1.481,2.184-3.183,2.184c-1.094,0-2.018-0.371-2.76-1.113
			c-0.746-0.752-1.127-1.734-1.127-2.959c0-1.26,0.41-2.277,1.211-3.057c0.811-0.781,1.761-1.172,2.862-1.172
			c0.664,0,1.273,0.143,1.836,0.434c0.547,0.293,0.83,0.645,0.83,1.064c0,0.156-0.048,0.309-0.156,0.445
			c-0.104,0.137-0.254,0.205-0.449,0.205c-0.407,0-0.661-0.24-0.759-0.723c-0.071-0.361-0.188-0.615-0.344-0.762
			c-0.167-0.143-0.476-0.211-0.948-0.211c-0.84,0-1.465,0.289-1.891,0.863c-0.42,0.588-0.634,1.467-0.634,2.633
			c0,1.207,0.23,2.148,0.689,2.832c0.443,0.68,1.132,1.021,2.054,1.021C79.827,120.359,80.618,119.797,80.954,118.674z"/>
		<path fill="#CDCCCC" d="M89.485,115.467h-5.351c-0.029,0.365-0.039,0.639-0.039,0.82c0,1.352,0.209,2.367,0.628,3.047
			c0.426,0.678,1.055,1.016,1.895,1.016c1.139,0,1.943-0.508,2.418-1.529h0.449c-0.201,0.641-0.595,1.139-1.191,1.496
			c-0.592,0.365-1.24,0.541-1.943,0.541c-0.645,0-1.26-0.168-1.836-0.494c-0.583-0.326-1.055-0.795-1.422-1.391
			c-0.375-0.602-0.557-1.328-0.557-2.188c0-1.211,0.358-2.217,1.071-3.023c0.713-0.807,1.601-1.205,2.669-1.205
			c1.006,0,1.794,0.303,2.34,0.918C89.164,114.09,89.456,114.754,89.485,115.467z M87.848,115.09
			c0.016-0.141,0.026-0.277,0.026-0.385c0-0.553-0.156-0.977-0.479-1.279c-0.321-0.309-0.722-0.459-1.191-0.459
			c-1.139,0-1.816,0.707-2.037,2.123H87.848z"/>
		<path fill="#CDCCCC" d="M97.435,113.68v-2.998c0-0.822-0.016-1.334-0.04-1.549c-0.016-0.209-0.106-0.381-0.263-0.488
			c-0.156-0.111-0.436-0.164-0.83-0.164h-0.205v-0.441c0.762-0.016,1.585-0.146,2.49-0.391h0.195v10.328
			c0,0.896,0.02,1.436,0.049,1.631c0.033,0.195,0.13,0.342,0.297,0.434c0.162,0.094,0.474,0.143,0.918,0.143v0.424
			c-0.909,0.025-1.713,0.107-2.416,0.25c-0.078-0.293-0.114-0.758-0.114-1.387c-0.462,0.459-0.941,0.805-1.429,1.039
			c-0.488,0.23-1.002,0.348-1.525,0.348c-0.995,0-1.851-0.4-2.577-1.201c-0.722-0.801-1.08-1.773-1.08-2.91
			c0-1.246,0.368-2.262,1.103-3.027c0.738-0.777,1.618-1.162,2.633-1.162c0.526,0,1.016,0.098,1.479,0.277
			C96.579,113.023,97.018,113.309,97.435,113.68z M97.435,114.227c-0.417-0.357-0.83-0.625-1.247-0.801
			c-0.42-0.182-0.833-0.27-1.253-0.27c-0.703,0-1.29,0.273-1.764,0.816c-0.472,0.543-0.714,1.436-0.714,2.664
			c0,1.246,0.242,2.174,0.73,2.766c0.488,0.59,1.083,0.893,1.797,0.893c0.478,0,0.911-0.111,1.321-0.342
			c0.407-0.223,0.782-0.561,1.13-1.01V114.227z"/>
		<path fill="#CDCCCC" d="M107.902,115.467h-5.359c-0.02,0.365-0.035,0.639-0.035,0.82c0,1.352,0.211,2.367,0.633,3.047
			c0.42,0.678,1.051,1.016,1.885,1.016c1.141,0,1.951-0.508,2.424-1.529h0.453c-0.203,0.641-0.602,1.139-1.195,1.496
			c-0.59,0.365-1.244,0.541-1.938,0.541c-0.652,0-1.266-0.168-1.846-0.494c-0.576-0.326-1.055-0.795-1.424-1.391
			c-0.363-0.602-0.549-1.328-0.549-2.188c0-1.211,0.354-2.217,1.067-3.023s1.609-1.205,2.676-1.205c1.006,0,1.783,0.303,2.334,0.918
			C107.582,114.09,107.867,114.754,107.902,115.467z M106.258,115.09c0.016-0.141,0.027-0.277,0.027-0.385
			c0-0.553-0.158-0.977-0.48-1.279c-0.322-0.309-0.719-0.459-1.182-0.459c-1.143,0-1.822,0.707-2.041,2.123H106.258z"/>
		<path fill="#CDCCCC" d="M109.408,120.793v-2.525h0.371c0.424,1.457,1.182,2.189,2.275,2.189c0.479,0,0.832-0.146,1.066-0.436
			c0.23-0.287,0.352-0.6,0.352-0.947c0-0.4-0.125-0.727-0.379-0.982c-0.254-0.258-0.754-0.57-1.488-0.932
			c-0.777-0.379-1.336-0.752-1.67-1.127c-0.338-0.361-0.506-0.807-0.506-1.338c0-0.508,0.184-0.992,0.545-1.451
			s0.869-0.688,1.525-0.688c0.672,0,1.227,0.268,1.66,0.814c0.096-0.092,0.215-0.322,0.363-0.684h0.352v2.373h-0.352
			c-0.121-0.57-0.365-1.059-0.723-1.463c-0.355-0.416-0.783-0.617-1.27-0.617c-0.375,0-0.68,0.111-0.91,0.348
			c-0.236,0.229-0.352,0.498-0.352,0.801c0,0.342,0.133,0.635,0.389,0.873c0.254,0.25,0.725,0.537,1.436,0.855
			c1.064,0.477,1.711,0.951,1.945,1.406c0.246,0.469,0.359,0.908,0.359,1.334c0,0.668-0.215,1.215-0.66,1.635
			c-0.443,0.41-0.996,0.625-1.664,0.625c-0.703,0-1.34-0.293-1.885-0.875c-0.174,0.191-0.311,0.459-0.41,0.811L109.408,120.793
			L109.408,120.793z"/>
		<path fill="#CDCCCC" d="M115.707,115.959h4.602v1.422h-4.602V115.959z"/>
		<path fill="#CDCCCC" d="M127.727,113.699c1.447,0.107,2.52,0.465,3.217,1.078c0.705,0.609,1.053,1.383,1.053,2.301
			c0,0.801-0.242,1.488-0.713,2.064c-0.475,0.582-1.084,0.963-1.826,1.139c-0.742,0.18-1.73,0.264-2.98,0.264h-4.988v-0.43h0.488
			c0.547,0,0.922-0.068,1.133-0.205c0.203-0.137,0.342-0.352,0.4-0.645c0.051-0.289,0.08-0.967,0.08-2.031v-6.188
			c0-1.035-0.029-1.699-0.09-1.996c-0.059-0.303-0.188-0.508-0.371-0.625c-0.193-0.107-0.613-0.166-1.258-0.166h-0.236v-0.43
			l2.09-0.059l2.383-0.072c3.477,0,5.215,1,5.215,2.996c0,0.83-0.303,1.49-0.898,1.992
			C129.832,113.186,128.93,113.527,127.727,113.699z M125.434,113.523c0.156,0.004,0.285,0.01,0.391,0.01
			c1.352,0,2.27-0.215,2.764-0.641c0.498-0.424,0.742-1.111,0.742-2.064c0-0.66-0.098-1.172-0.291-1.533
			c-0.195-0.367-0.488-0.645-0.871-0.84c-0.381-0.201-1.051-0.299-1.988-0.299c-0.238,0-0.492,0.01-0.746,0.029L125.434,113.523
			L125.434,113.523z M125.434,113.982v2.832c0,1.209,0.02,1.973,0.062,2.299c0.045,0.322,0.162,0.572,0.352,0.738
			c0.191,0.17,0.566,0.254,1.133,0.254c1.002,0,1.744-0.254,2.246-0.768c0.504-0.512,0.75-1.279,0.75-2.309
			c0-1.045-0.275-1.826-0.848-2.32c-0.562-0.498-1.562-0.746-2.984-0.746C125.914,113.963,125.678,113.967,125.434,113.982z"/>
		<path fill="#CDCCCC" d="M140.523,115.467h-5.355c-0.025,0.365-0.043,0.639-0.043,0.82c0,1.352,0.215,2.367,0.641,3.047
			c0.42,0.678,1.045,1.016,1.883,1.016c1.137,0,1.945-0.508,2.424-1.529h0.451c-0.197,0.641-0.598,1.139-1.193,1.496
			c-0.596,0.365-1.24,0.541-1.939,0.541c-0.656,0-1.264-0.168-1.848-0.494c-0.578-0.326-1.047-0.795-1.418-1.391
			c-0.367-0.602-0.555-1.328-0.555-2.188c0-1.211,0.359-2.217,1.072-3.023s1.604-1.205,2.674-1.205c1.008,0,1.781,0.303,2.336,0.918
			C140.199,114.09,140.492,114.754,140.523,115.467z M138.881,115.09c0.018-0.141,0.029-0.277,0.029-0.385
			c0-0.553-0.164-0.977-0.484-1.279c-0.324-0.309-0.719-0.459-1.193-0.459c-1.135,0-1.814,0.707-2.033,2.123H138.881z"/>
		<path fill="#CDCCCC" d="M143.898,112.557h0.254c0.141,0.391,0.227,0.912,0.238,1.586c0.457-0.537,0.928-0.932,1.422-1.191
			c0.49-0.264,1.008-0.395,1.547-0.395c0.613,0,1.113,0.131,1.5,0.385c0.393,0.26,0.646,0.566,0.764,0.943
			c0.107,0.371,0.166,0.912,0.166,1.625v2.404c0,0.883,0.012,1.424,0.043,1.619c0.035,0.197,0.133,0.342,0.299,0.439
			s0.471,0.143,0.918,0.143v0.43h-3.936v-0.43h0.18c0.453,0,0.748-0.064,0.885-0.195c0.131-0.133,0.215-0.287,0.229-0.459
			c0.025-0.18,0.027-0.689,0.027-1.547v-2.477c0-0.605-0.027-1.045-0.086-1.301c-0.062-0.264-0.219-0.486-0.473-0.691
			c-0.266-0.201-0.596-0.297-0.992-0.297c-0.461,0-0.893,0.135-1.309,0.408c-0.414,0.27-0.814,0.68-1.184,1.221v3.137
			c0,0.883,0.02,1.424,0.057,1.619c0.033,0.197,0.137,0.342,0.295,0.439c0.168,0.098,0.48,0.143,0.93,0.143v0.43h-3.881v-0.43
			c0.43,0,0.732-0.045,0.898-0.133c0.168-0.088,0.273-0.219,0.312-0.395c0.039-0.182,0.061-0.738,0.061-1.674v-2.291
			c0-0.893-0.021-1.436-0.051-1.627c-0.029-0.195-0.137-0.336-0.305-0.434c-0.16-0.094-0.467-0.146-0.916-0.146v-0.43
			C142.475,112.914,143.18,112.766,143.898,112.557z"/>
		<path fill="#CDCCCC" d="M151.957,120.545v-0.293l5.09-6.953h-2.793c-0.355,0-0.598,0.02-0.73,0.068
			c-0.129,0.043-0.277,0.195-0.461,0.453c-0.178,0.254-0.355,0.645-0.529,1.172h-0.352l0.117-2.129h6.439v0.342l-5.062,6.91h2.098
			c0.676,0,1.137-0.033,1.369-0.113c0.229-0.078,0.459-0.258,0.684-0.562c0.225-0.291,0.451-0.74,0.678-1.342h0.371l-0.219,2.447
			C158.657,120.545,151.957,120.545,151.957,120.545z"/>
		<path fill="#CDCCCC" d="M57.25,134.471l0.101,3.172h-0.44c-0.087-0.691-0.283-1.27-0.589-1.723
			c-0.302-0.453-0.622-0.736-0.954-0.844c-0.325-0.117-0.892-0.172-1.68-0.172h-2.484v5.391h1.191c0.772,0,1.284-0.127,1.538-0.387
			c0.25-0.258,0.377-0.781,0.377-1.561h0.469v4.482H54.31c0-0.547-0.056-0.979-0.166-1.295c-0.108-0.309-0.27-0.527-0.485-0.639
			c-0.218-0.119-0.635-0.178-1.264-0.178h-1.191v3.164c0,1.002,0.023,1.652,0.078,1.959c0.049,0.312,0.175,0.541,0.381,0.693
			c0.199,0.148,0.595,0.225,1.175,0.225h0.429v0.43H47.36v-0.43h0.397c0.54,0,0.918-0.072,1.126-0.209
			c0.212-0.133,0.349-0.352,0.401-0.635c0.064-0.293,0.094-0.977,0.094-2.033v-6.24c0-1.016-0.03-1.662-0.094-1.957
			c-0.053-0.293-0.179-0.502-0.371-0.609c-0.189-0.117-0.609-0.172-1.253-0.172h-0.225v-0.434h9.815V134.471z"/>
		<path fill="#CDCCCC" d="M64.817,145.787h0.343c-0.05,1.07-0.577,1.602-1.573,1.602c-0.43,0-0.762-0.117-1.006-0.336
			c-0.25-0.225-0.41-0.561-0.484-1.006c-0.628,0.445-1.195,0.781-1.713,1.006c-0.514,0.219-0.977,0.336-1.384,0.336
			c-0.52,0-0.969-0.145-1.34-0.453c-0.378-0.299-0.566-0.693-0.566-1.191c0-0.641,0.316-1.207,0.947-1.689
			c0.628-0.479,1.498-0.947,2.601-1.402l1.456-0.59v-0.375c0-0.537-0.035-0.92-0.101-1.156c-0.069-0.236-0.25-0.447-0.539-0.637
			c-0.289-0.186-0.663-0.283-1.132-0.283c-0.938,0-1.461,0.318-1.572,0.938c-0.098,0.639-0.362,0.961-0.789,0.961
			c-0.374,0-0.566-0.186-0.566-0.545c0-0.357,0.25-0.738,0.758-1.154c0.508-0.404,1.292-0.609,2.363-0.609
			c0.792,0,1.407,0.123,1.846,0.375c0.439,0.244,0.732,0.533,0.869,0.85c0.14,0.322,0.215,0.812,0.215,1.467v3.105
			c0,0.727,0.03,1.189,0.108,1.395c0.071,0.211,0.238,0.312,0.488,0.312C64.46,146.705,64.72,146.393,64.817,145.787z
			 M62.097,142.502l-1.026,0.414c-1.615,0.656-2.416,1.482-2.416,2.471c0,0.4,0.098,0.713,0.306,0.959
			c0.211,0.238,0.479,0.359,0.808,0.359c0.296,0,0.634-0.096,1.025-0.291c0.391-0.195,0.82-0.484,1.303-0.875V142.502z"/>
		<path fill="#CDCCCC" d="M66.136,147.438v-2.523h0.371c0.423,1.451,1.182,2.184,2.275,2.184c0.479,0,0.831-0.143,1.065-0.432
			c0.234-0.287,0.352-0.605,0.352-0.947c0-0.4-0.124-0.727-0.378-0.984c-0.259-0.26-0.752-0.562-1.488-0.934
			c-0.778-0.377-1.334-0.752-1.669-1.117c-0.339-0.363-0.508-0.812-0.508-1.35c0-0.502,0.186-0.984,0.547-1.445
			c0.359-0.457,0.872-0.688,1.527-0.688c0.669,0,1.22,0.273,1.666,0.811c0.089-0.092,0.209-0.318,0.362-0.684H70.6v2.377h-0.342
			c-0.127-0.57-0.371-1.057-0.729-1.469c-0.361-0.416-0.781-0.615-1.27-0.615c-0.375,0-0.677,0.117-0.911,0.346
			c-0.231,0.236-0.348,0.5-0.348,0.811c0,0.332,0.126,0.625,0.387,0.871c0.247,0.254,0.732,0.531,1.435,0.854
			c1.065,0.482,1.709,0.953,1.953,1.4c0.235,0.469,0.352,0.914,0.352,1.338c0,0.664-0.215,1.211-0.661,1.631
			c-0.442,0.422-0.989,0.627-1.663,0.627c-0.709,0-1.338-0.283-1.884-0.865c-0.172,0.182-0.31,0.455-0.411,0.805h-0.372V147.438z"/>
		<path fill="#CDCCCC" d="M74.899,140.777c0.378-0.527,0.797-0.916,1.26-1.186c0.465-0.264,0.977-0.391,1.533-0.391
			c0.635,0,1.159,0.127,1.573,0.391c0.419,0.27,0.684,0.592,0.81,0.973c0.124,0.385,0.192,1.004,0.192,1.869v2.123
			c0,0.898,0.014,1.447,0.049,1.637c0.032,0.195,0.137,0.342,0.302,0.434c0.17,0.084,0.479,0.133,0.938,0.133v0.43h-3.965v-0.43
			h0.176c0.459,0,0.756-0.062,0.889-0.199c0.13-0.127,0.215-0.283,0.235-0.463c0.023-0.178,0.032-0.689,0.032-1.541v-2.309
			c0-0.635-0.039-1.107-0.11-1.416c-0.078-0.309-0.254-0.561-0.534-0.762c-0.277-0.199-0.625-0.299-1.045-0.299
			c-0.488,0-0.921,0.143-1.312,0.428c-0.39,0.287-0.729,0.711-1.022,1.283v3.074c0,0.859,0.01,1.396,0.039,1.594
			c0.03,0.199,0.124,0.355,0.289,0.453c0.16,0.102,0.46,0.156,0.889,0.156v0.43h-3.902v-0.43h0.195c0.455,0,0.742-0.062,0.879-0.191
			c0.133-0.127,0.215-0.281,0.24-0.459c0.014-0.18,0.03-0.695,0.03-1.553v-7.654c0-0.777-0.075-1.266-0.222-1.469
			c-0.149-0.211-0.501-0.314-1.058-0.314v-0.43c0.971,0,1.777-0.131,2.425-0.395h0.195L74.899,140.777L74.899,140.777z"/>
		<path fill="#CDCCCC" d="M85.065,139.201v5.355c0,0.82,0.009,1.334,0.039,1.543c0.026,0.217,0.114,0.377,0.27,0.488
			c0.157,0.117,0.438,0.172,0.833,0.172h0.196v0.43h-4.134v-0.43h0.316c0.449,0,0.739-0.062,0.869-0.191
			c0.136-0.127,0.215-0.281,0.234-0.459c0.026-0.18,0.036-0.695,0.036-1.553v-2.326c0-0.898-0.039-1.453-0.126-1.652
			c-0.085-0.201-0.202-0.322-0.339-0.375c-0.137-0.051-0.384-0.074-0.735-0.074H82.27v-0.43c1.117-0.117,1.982-0.279,2.587-0.498
			L85.065,139.201L85.065,139.201z M83.255,135.281c0-0.27,0.097-0.498,0.287-0.693c0.192-0.195,0.419-0.293,0.689-0.293
			c0.273,0,0.492,0.098,0.684,0.293c0.189,0.195,0.284,0.424,0.284,0.693c0,0.277-0.095,0.508-0.284,0.701
			c-0.192,0.195-0.41,0.289-0.684,0.289c-0.27,0-0.498-0.094-0.689-0.289C83.352,135.789,83.255,135.559,83.255,135.281z"/>
		<path fill="#CDCCCC" d="M87.484,143.336c0-1.176,0.4-2.162,1.181-2.949c0.791-0.795,1.758-1.186,2.91-1.186
			c1.163,0,2.129,0.4,2.92,1.191c0.785,0.795,1.175,1.777,1.175,2.943c0,1.297-0.394,2.312-1.202,3.053
			c-0.794,0.744-1.762,1.109-2.894,1.109c-1.133,0-2.096-0.373-2.891-1.125C87.884,145.623,87.484,144.605,87.484,143.336z
			 M89.046,143.383c0,1.359,0.215,2.316,0.665,2.865c0.442,0.551,1.063,0.818,1.865,0.818c0.82,0,1.445-0.268,1.878-0.818
			c0.437-0.549,0.654-1.506,0.654-2.865c0-1.35-0.218-2.311-0.647-2.889c-0.43-0.574-1.062-0.869-1.885-0.869
			c-0.82,0-1.445,0.289-1.881,0.865C89.261,141.061,89.046,142.029,89.046,143.383z"/>
		<path fill="#CDCCCC" d="M99.027,139.201h0.254c0.14,0.387,0.224,0.918,0.237,1.582c0.45-0.527,0.918-0.922,1.416-1.191
			c0.496-0.264,1.013-0.391,1.55-0.391c0.609,0,1.113,0.127,1.504,0.381c0.391,0.258,0.645,0.576,0.754,0.941
			c0.115,0.377,0.174,0.914,0.174,1.627v2.406c0,0.885,0.014,1.432,0.041,1.621c0.037,0.195,0.135,0.338,0.301,0.436
			c0.16,0.098,0.469,0.146,0.91,0.146v0.43h-3.928v-0.43h0.176c0.449,0,0.752-0.062,0.889-0.199
			c0.129-0.127,0.207-0.279,0.227-0.461c0.027-0.17,0.029-0.686,0.029-1.543v-2.48c0-0.605-0.029-1.035-0.088-1.299
			c-0.061-0.258-0.217-0.488-0.48-0.688c-0.262-0.195-0.586-0.297-0.986-0.297c-0.459,0-0.896,0.137-1.309,0.406
			c-0.42,0.268-0.811,0.684-1.179,1.225v3.133c0,0.885,0.017,1.432,0.056,1.621c0.032,0.195,0.13,0.338,0.296,0.436
			s0.475,0.146,0.924,0.146v0.43h-3.887v-0.43c0.44,0,0.736-0.043,0.902-0.127c0.172-0.092,0.28-0.225,0.319-0.406
			c0.039-0.176,0.059-0.732,0.059-1.67v-2.289c0-0.898-0.02-1.436-0.055-1.627c-0.033-0.189-0.131-0.332-0.296-0.434
			c-0.167-0.098-0.469-0.141-0.928-0.141v-0.441C97.601,139.557,98.297,139.412,99.027,139.201z"/>
		<path fill="#CDCCCC" d="M124.643,147.498h-0.43l-3.867-10.482l-3.389,10.482H116.5l-3.059-9.904
			c-0.281-0.896-0.477-1.494-0.602-1.795c-0.121-0.299-0.277-0.518-0.473-0.654s-0.527-0.221-0.984-0.24v-0.434h4.773v0.434
			c-0.574,0.039-0.938,0.117-1.104,0.25c-0.166,0.127-0.244,0.307-0.244,0.535c0,0.207,0.129,0.738,0.395,1.588l2.266,7.412
			l3.326-10.219h0.521l3.73,10.219l1.941-6.756c0.262-0.914,0.389-1.506,0.389-1.789c0-0.828-0.447-1.24-1.326-1.24v-0.434h3.473
			v0.434c-0.506,0.039-0.896,0.23-1.141,0.566c-0.254,0.342-0.566,1.156-0.947,2.457L124.643,147.498z"/>
		<path fill="#CDCCCC" d="M135.648,142.107h-5.359c-0.021,0.365-0.031,0.643-0.031,0.828c0,1.348,0.207,2.363,0.629,3.037
			c0.426,0.68,1.055,1.021,1.895,1.021c1.137,0,1.941-0.512,2.418-1.527h0.449c-0.203,0.633-0.596,1.137-1.191,1.494
			c-0.594,0.359-1.24,0.537-1.943,0.537c-0.645,0-1.26-0.158-1.846-0.49c-0.574-0.33-1.045-0.789-1.416-1.395
			c-0.371-0.598-0.553-1.33-0.553-2.184c0-1.215,0.357-2.221,1.07-3.021c0.713-0.807,1.602-1.207,2.668-1.207
			c1.006,0,1.785,0.307,2.336,0.918C135.326,140.734,135.613,141.393,135.648,142.107z M134.008,141.734
			c0.02-0.146,0.029-0.273,0.029-0.385c0-0.551-0.166-0.982-0.488-1.283c-0.322-0.299-0.713-0.455-1.182-0.455
			c-1.141,0-1.816,0.707-2.039,2.123H134.008z"/>
		<path fill="#CDCCCC" d="M144.057,142.107h-5.361c-0.02,0.365-0.035,0.643-0.035,0.828c0,1.348,0.211,2.363,0.633,3.037
			c0.422,0.68,1.053,1.021,1.887,1.021c1.137,0,1.949-0.512,2.422-1.527h0.455c-0.205,0.633-0.604,1.137-1.199,1.494
			c-0.588,0.359-1.232,0.537-1.936,0.537c-0.652,0-1.266-0.158-1.846-0.49c-0.576-0.33-1.057-0.789-1.424-1.395
			c-0.363-0.598-0.551-1.33-0.551-2.184c0-1.215,0.355-2.221,1.07-3.021c0.711-0.807,1.607-1.207,2.676-1.207
			c1.004,0,1.783,0.307,2.332,0.918C143.734,140.734,144.02,141.393,144.057,142.107z M142.41,141.734
			c0.025-0.146,0.027-0.273,0.027-0.385c0-0.551-0.158-0.982-0.48-1.283c-0.322-0.299-0.719-0.455-1.184-0.455
			c-1.141,0-1.82,0.707-2.039,2.123H142.41z"/>
		<path fill="#CDCCCC" d="M149.859,139.508h3.094v0.432c-0.566,0.018-1.336,0.438-2.285,1.279c-0.312,0.264-0.781,0.643-1.426,1.152
			l2.734,3.207c0.414,0.482,0.734,0.795,0.977,0.941c0.238,0.146,0.488,0.225,0.732,0.24v0.43h-3.826v-0.43
			c0.633-0.016,0.953-0.15,0.953-0.41c0-0.123-0.211-0.426-0.623-0.914l-1.973-2.287l-0.4,0.297v1.111
			c0,0.82,0.01,1.334,0.031,1.541c0.018,0.213,0.109,0.373,0.266,0.486c0.154,0.117,0.426,0.176,0.816,0.176v0.43h-3.895v-0.43
			h0.293c0.449,0,0.742-0.062,0.877-0.191c0.137-0.127,0.213-0.281,0.229-0.459c0.02-0.18,0.027-0.695,0.027-1.553v-7.699
			c0-0.748-0.068-1.221-0.207-1.424c-0.145-0.211-0.48-0.314-1.023-0.314v-0.43c0.369,0,0.812-0.045,1.328-0.131
			c0.52-0.088,0.871-0.172,1.062-0.264h0.195v8.641l0.805-0.564c1.305-0.922,1.959-1.594,1.959-2.004c0-0.268-0.24-0.41-0.721-0.428
			v-0.431H149.859z"/>
	</g>
	<rect x="42.79" y="127.23" fill="#CDCCCC" width="115.046" height="0.307"/>
</g>
</svg>
