<?xml version="1.0" encoding="utf-8"?>
<!-- Generator: Adobe Illustrator 16.0.1, SVG Export Plug-In . SVG Version: 6.00 Build 0)  -->
<!DOCTYPE svg PUBLIC "-//W3C//DTD SVG 1.1//EN" "http://www.w3.org/Graphics/SVG/1.1/DTD/svg11.dtd">
<svg version="1.1" id="Layer_1" xmlns="http://www.w3.org/2000/svg" xmlns:xlink="http://www.w3.org/1999/xlink" x="0px" y="0px"
	 width="200px" height="200px" viewBox="0 0 200 200" enable-background="new 0 0 200 200" xml:space="preserve">
<g>
	<g>
		<path fill="#CDCCCC" d="M53.738,105.926c-4.753,0-8.284-3.667-8.284-8.305v-0.046c0-4.591,3.462-8.353,8.422-8.353
			c3.044,0,4.866,1.016,6.367,2.493l-2.26,2.607c-1.248-1.132-2.516-1.824-4.132-1.824c-2.721,0-4.682,2.261-4.682,5.029v0.047
			c0,2.769,1.914,5.075,4.682,5.075c1.846,0,2.976-0.738,4.246-1.892l2.262,2.284C58.7,104.819,56.853,105.926,53.738,105.926z"/>
		<path fill="#CDCCCC" d="M70.582,105.926c-4.983,0-8.558-3.713-8.558-8.305v-0.046c0-4.591,3.622-8.353,8.605-8.353
			c4.982,0,8.558,3.716,8.558,8.306v0.047C79.187,102.166,75.564,105.926,70.582,105.926z M75.471,97.575
			c0-2.77-2.029-5.076-4.89-5.076c-2.861,0-4.844,2.261-4.844,5.029v0.047c0,2.769,2.03,5.075,4.891,5.075
			c2.861,0,4.843-2.261,4.843-5.029V97.575z"/>
		<path fill="#CDCCCC" d="M88.649,105.648H82.35V89.501h6.299c5.075,0,8.581,3.483,8.581,8.027v0.047
			C97.23,102.12,93.724,105.648,88.649,105.648z M93.516,97.575c0-2.86-1.961-4.868-4.866-4.868h-2.745v9.736h2.745
			c2.905,0,4.866-1.961,4.866-4.822V97.575z"/>
		<path fill="#CDCCCC" d="M100.397,105.648V89.501h12.18v3.161h-8.653v3.274h7.615v3.16h-7.615v3.392h8.768v3.16H100.397z"/>
	</g>
	<rect x="119.373" y="107.616" fill="#CDCCCC" width="13.293" height="3.161"/>
	<g>
		<path fill="#CDCCCC" d="M154.545,105.648h-3.416v-9.85c0-1.235-0.25-2.159-0.748-2.766c-0.497-0.608-1.936-0.751-3.018-0.751
			c-1.438,0-2.834,0.569-3.5,1.419s-1.107,1.968-1.107,3.967v7.98h-3.404v-16.02h2.664l0.48,2.1l0,0
			c0.481-0.763,1.377-1.415,2.396-1.78c0.924-0.331,2.218-0.491,2.678-0.48c3.765,0.078,6.975,1.827,6.975,5.737V105.648z"/>
	</g>
</g>
</svg>
