<?xml version="1.0" encoding="utf-8"?>
<!-- Generator: Adobe Illustrator 16.0.1, SVG Export Plug-In . SVG Version: 6.00 Build 0)  -->
<!DOCTYPE svg PUBLIC "-//W3C//DTD SVG 1.1//EN" "http://www.w3.org/Graphics/SVG/1.1/DTD/svg11.dtd">
<svg version="1.1" id="Layer_1" xmlns="http://www.w3.org/2000/svg" xmlns:xlink="http://www.w3.org/1999/xlink" x="0px" y="0px"
	 width="150px" height="100px" viewBox="25 0 150 100" enable-background="new 25 0 150 100" xml:space="preserve">
<g>
	<g>
		<path fill="#CDCCCC" d="M53.738,55.926c-4.753,0-8.283-3.667-8.283-8.305v-0.046c0-4.591,3.462-8.353,8.422-8.353
			c3.044,0,4.866,1.016,6.367,2.492l-2.261,2.607c-1.248-1.132-2.516-1.824-4.132-1.824c-2.721,0-4.682,2.261-4.682,5.029v0.047
			c0,2.769,1.914,5.075,4.682,5.075c1.846,0,2.977-0.738,4.246-1.893l2.262,2.284C58.701,54.819,56.854,55.926,53.738,55.926z"/>
		<path fill="#CDCCCC" d="M70.583,55.926c-4.983,0-8.559-3.713-8.559-8.305v-0.046c0-4.591,3.622-8.353,8.605-8.353
			c4.981,0,8.558,3.716,8.558,8.306v0.047C79.188,52.166,75.564,55.926,70.583,55.926z M75.472,47.575
			c0-2.77-2.029-5.076-4.89-5.076c-2.861,0-4.845,2.261-4.845,5.029v0.047c0,2.769,2.03,5.075,4.892,5.075
			c2.86,0,4.843-2.261,4.843-5.029V47.575z"/>
		<path fill="#CDCCCC" d="M88.649,55.648h-6.299V39.501h6.299c5.075,0,8.581,3.483,8.581,8.027v0.047
			C97.23,52.12,93.725,55.648,88.649,55.648z M93.517,47.575c0-2.86-1.961-4.868-4.866-4.868h-2.745v9.736h2.745
			c2.905,0,4.866-1.961,4.866-4.822V47.575z"/>
		<path fill="#CDCCCC" d="M100.397,55.648V39.501h12.181v3.161h-8.654v3.274h7.615v3.16h-7.615v3.392h8.768v3.16H100.397z"/>
	</g>
	<rect x="119.373" y="57.617" fill="#CDCCCC" width="13.293" height="3.16"/>
	<g>
		<path fill="#CDCCCC" d="M154.545,55.648h-3.416v-9.851c0-1.234-0.25-2.158-0.748-2.766c-0.496-0.608-1.936-0.751-3.018-0.751
			c-1.438,0-2.834,0.569-3.5,1.419s-1.107,1.968-1.107,3.967v7.98h-3.404V39.627h2.664l0.48,2.101l0,0
			c0.48-0.764,1.377-1.415,2.396-1.78c0.924-0.331,2.217-0.491,2.678-0.48c3.766,0.078,6.975,1.827,6.975,5.737V55.648
			L154.545,55.648z"/>
	</g>
</g>
</svg>
