<?xml version="1.0" encoding="utf-8"?>
<!-- Generator: Adobe Illustrator 16.0.1, SVG Export Plug-In . SVG Version: 6.00 Build 0)  -->
<!DOCTYPE svg PUBLIC "-//W3C//DTD SVG 1.1//EN" "http://www.w3.org/Graphics/SVG/1.1/DTD/svg11.dtd">
<svg version="1.1" id="Layer_1" xmlns="http://www.w3.org/2000/svg" xmlns:xlink="http://www.w3.org/1999/xlink" x="0px" y="0px"
	 width="197.62px" height="168.883px" viewBox="177.622 102.455 197.62 168.883"
	 enable-background="new 177.622 102.455 197.62 168.883" xml:space="preserve">
<g id="Layer_1_1_" display="none" opacity="0.5">
</g>
<g id="Layer_2">
</g>
<g>
	<path fill="#5C6468" d="M375.242,106.875l-48.94-4.42l-0.1,1.1l-2.734,30.284l48.939,4.42L375.242,106.875L375.242,106.875
		L375.242,106.875z M328.115,104.628l44.955,4.061l-0.356,3.947l-23.465,8.889l-21.49-12.948L328.115,104.628z M370.595,136.087
		l-44.955-4.061l1.919-21.236l21.491,12.95l23.465-8.89L370.595,136.087z"/>
	<path fill="#5C6468" d="M346.529,141.733c-0.109,0.12-0.17,0.271-0.17,0.431s0.061,0.31,0.181,0.42c0.109,0.12,0.26,0.18,0.42,0.18
		s0.31-0.069,0.42-0.18c0.12-0.11,0.18-0.26,0.18-0.42s-0.069-0.321-0.18-0.431C347.149,141.513,346.769,141.513,346.529,141.733z"
		/>
	<path fill="#5C6468" d="M277.659,177.905c-0.276,0.184-0.347,0.56-0.152,0.835c0.126,0.181,0.334,0.274,0.545,0.257
		c0.099-0.008,0.197-0.047,0.292-0.105c0.274-0.194,0.334-0.56,0.15-0.836C278.3,177.781,277.934,177.711,277.659,177.905z"/>
	<path fill="#5C6468" d="M250.219,230.638c-0.33,0.04-0.56,0.351-0.51,0.671c0.04,0.311,0.29,0.52,0.59,0.52c0.019,0,0.05,0,0.08,0
		c0.33-0.039,0.56-0.35,0.51-0.67C250.849,230.829,250.549,230.598,250.219,230.638z"/>
	<path fill="#5C6468" d="M284.188,222.4c-0.33,0.091-0.51,0.42-0.42,0.739c0.071,0.27,0.312,0.439,0.58,0.441
		c0.051,0,0.101,0,0.16-0.021c0.309-0.091,0.5-0.421,0.41-0.74C284.838,222.5,284.499,222.32,284.188,222.4z"/>
	<path fill="#5C6468" d="M279.357,223.749c-0.318,0.09-0.51,0.42-0.42,0.74c0.08,0.26,0.32,0.44,0.58,0.44
		c0.051,0,0.11-0.011,0.16-0.021c0.32-0.09,0.51-0.42,0.42-0.74C280.008,223.849,279.678,223.659,279.357,223.749z"/>
	<path fill="#5C6468" d="M280.869,181.731c-0.221,0.248-0.199,0.628,0.05,0.848c0.13,0.11,0.286,0.167,0.444,0.154
		c0.15-0.012,0.295-0.085,0.395-0.203c0.23-0.25,0.21-0.62-0.041-0.85C281.469,181.459,281.088,181.481,280.869,181.731z"/>
	<path fill="#5C6468" d="M264.868,227.661c-0.32,0.08-0.52,0.409-0.44,0.729c0.071,0.27,0.31,0.449,0.58,0.449
		c0.049,0,0.099,0,0.15-0.01c0.319-0.08,0.519-0.41,0.439-0.729C265.517,227.78,265.187,227.581,264.868,227.661z"/>
	<path fill="#5C6468" d="M305.072,192.874c-0.059-0.33-0.37-0.549-0.69-0.49c-0.329,0.061-0.55,0.371-0.489,0.701
		c0.051,0.289,0.301,0.49,0.59,0.49c0.031,0,0.07,0,0.1-0.011C304.912,193.515,305.132,193.194,305.072,192.874z"/>
	<path fill="#5C6468" d="M260.008,228.819c-0.32,0.07-0.53,0.4-0.45,0.721c0.061,0.279,0.311,0.469,0.59,0.469
		c0.04,0,0.08-0.01,0.12-0.02c0.33-0.07,0.53-0.391,0.46-0.71C260.658,228.95,260.338,228.749,260.008,228.819z"/>
	<path fill="#5C6468" d="M255.128,229.829c-0.33,0.061-0.54,0.381-0.48,0.711c0.051,0.279,0.311,0.479,0.59,0.479
		c0.04,0,0.08,0,0.11-0.011c0.33-0.059,0.54-0.37,0.48-0.699C255.768,229.979,255.448,229.769,255.128,229.829z"/>
	<path fill="#5C6468" d="M274.528,225.088c-0.309,0.091-0.5,0.42-0.409,0.74c0.069,0.271,0.309,0.44,0.58,0.441
		c0.05,0,0.099-0.012,0.159-0.021c0.32-0.09,0.5-0.42,0.41-0.74C275.188,225.19,274.858,224.999,274.528,225.088z"/>
	<path fill="#5C6468" d="M275.528,174.071c-0.319,0.071-0.519,0.39-0.45,0.72c0.07,0.271,0.31,0.46,0.591,0.46
		c0.04,0,0.08,0,0.13-0.01c0.319-0.08,0.529-0.401,0.45-0.72C276.178,174.191,275.848,173.991,275.528,174.071z"/>
	<path fill="#5C6468" d="M274.347,170.286c0.29,0,0.54-0.21,0.59-0.5c0.06-0.33-0.16-0.639-0.49-0.69
		c-0.33-0.06-0.639,0.16-0.69,0.49c-0.06,0.33,0.16,0.64,0.49,0.69C274.278,170.286,274.318,170.286,274.347,170.286z"/>
	<path fill="#5C6468" d="M279.423,161.259c0.302-0.151,0.42-0.51,0.28-0.8c-0.15-0.3-0.51-0.429-0.811-0.28
		c-0.291,0.151-0.42,0.51-0.271,0.8c0.101,0.221,0.321,0.341,0.541,0.341C279.253,161.32,279.343,161.299,279.423,161.259z"/>
	<path fill="#5C6468" d="M300.203,174.297c-0.32,0.09-0.5,0.431-0.4,0.75c0.08,0.25,0.321,0.42,0.58,0.42
		c0.051,0,0.11-0.01,0.17-0.02c0.32-0.101,0.5-0.44,0.4-0.75C300.852,174.377,300.521,174.197,300.203,174.297z"/>
	<path fill="#5C6468" d="M302.247,179.471c-0.07-0.319-0.392-0.519-0.71-0.449c-0.33,0.07-0.53,0.39-0.46,0.72
		c0.069,0.27,0.319,0.46,0.59,0.46c0.04,0,0.09,0,0.13-0.01C302.117,180.121,302.316,179.801,302.247,179.471z"/>
	<path fill="#5C6468" d="M299.465,188.188c-0.332-0.014-0.611,0.262-0.613,0.594c-0.002,0.331,0.262,0.6,0.594,0.612
		c-0.002-0.011-0.002-0.011-0.002-0.011c0.02,0,0.041,0.008,0.062,0.006c0.298-0.025,0.538-0.286,0.554-0.588
		C300.059,188.459,299.796,188.191,299.465,188.188z"/>
	<path fill="#5C6468" d="M298.748,218.609c-0.33,0.07-0.52,0.399-0.45,0.72c0.071,0.28,0.31,0.461,0.591,0.461
		c0.039,0,0.09,0,0.129-0.011c0.33-0.079,0.521-0.401,0.45-0.72C299.389,218.729,299.066,218.529,298.748,218.609z"/>
	<path fill="#5C6468" d="M302.671,183.672c-0.321,0.06-0.53,0.38-0.47,0.7c0.059,0.29,0.309,0.481,0.59,0.481
		c0.04,0,0.08,0,0.12-0.011c0.319-0.06,0.53-0.38,0.47-0.71C303.311,183.813,302.991,183.603,302.671,183.672z"/>
	<path fill="#5C6468" d="M303.648,217.508c-0.33,0.07-0.541,0.392-0.461,0.711c0.051,0.279,0.301,0.48,0.58,0.48
		c0.041,0,0.09-0.01,0.131-0.021c0.319-0.069,0.529-0.38,0.459-0.71C304.289,217.65,303.968,217.44,303.648,217.508z"/>
	<path fill="#5C6468" d="M289.018,221.079c-0.318,0.09-0.51,0.42-0.42,0.74c0.071,0.27,0.312,0.439,0.58,0.439
		c0.049,0,0.1,0,0.15-0.02c0.32-0.08,0.51-0.41,0.43-0.73C289.668,221.189,289.338,220.999,289.018,221.079z"/>
	<path fill="#5C6468" d="M296.275,165.821c-0.28,0.18-0.36,0.55-0.18,0.83c0.109,0.18,0.309,0.279,0.51,0.279
		c0.109,0,0.22-0.03,0.319-0.1c0.281-0.17,0.361-0.54,0.181-0.82C296.925,165.72,296.555,165.64,296.275,165.821z"/>
	<path fill="#5C6468" d="M285.688,184.497c-0.295-0.165-0.658-0.054-0.824,0.23c-0.156,0.295-0.055,0.658,0.238,0.823
		c0-0.01,0-0.01,0-0.01c0.105,0.062,0.229,0.092,0.338,0.082c0.201-0.016,0.381-0.133,0.477-0.311
		C286.073,185.017,285.973,184.654,285.688,184.497z"/>
	<path fill="#5C6468" d="M293.926,162.84c0.229-0.24,0.219-0.621-0.01-0.85c0-0.01,0-0.01,0-0.01c-0.241-0.23-0.621-0.22-0.852,0.01
		c-0.229,0.241-0.229,0.621,0.012,0.85c0.109,0.121,0.27,0.17,0.42,0.17S293.807,162.95,293.926,162.84z"/>
	<path fill="#5C6468" d="M290.173,186.42c-0.321-0.104-0.657,0.075-0.761,0.385c-0.104,0.321,0.074,0.656,0.395,0.76
		c0.072,0.024,0.152,0.027,0.232,0.021c0.23-0.019,0.438-0.177,0.518-0.415C290.65,186.852,290.482,186.515,290.173,186.42z"/>
	<path fill="#5C6468" d="M293.878,219.81c-0.33,0.079-0.521,0.409-0.44,0.729c0.07,0.27,0.32,0.449,0.58,0.451
		c0.049,0,0.101,0,0.15-0.021c0.32-0.08,0.51-0.409,0.43-0.729C294.518,219.918,294.198,219.73,293.878,219.81z"/>
	<path fill="#5C6468" d="M294.868,187.681c-0.336-0.052-0.638,0.174-0.681,0.509c-0.053,0.326,0.174,0.628,0.498,0.671
		c0.051,0.017,0.102,0.013,0.142,0.009c0.269-0.022,0.502-0.232,0.539-0.508C295.418,188.027,295.193,187.724,294.868,187.681z"/>
	<path fill="#5C6468" d="M269.709,226.411c-0.321,0.08-0.51,0.409-0.431,0.729c0.07,0.27,0.32,0.449,0.58,0.451
		c0.051,0,0.11-0.01,0.16-0.021c0.32-0.09,0.51-0.42,0.42-0.739C270.358,226.51,270.028,226.32,269.709,226.411z"/>
	<path fill="#5C6468" d="M275.545,165.048c0.17,0,0.35-0.07,0.47-0.22c0.2-0.26,0.16-0.63-0.09-0.84c-0.26-0.21-0.64-0.17-0.85,0.09
		c-0.21,0.26-0.171,0.64,0.09,0.84C275.275,165.008,275.415,165.048,275.545,165.048z"/>
	<path fill="#5C6468" d="M186.608,201.508c-0.16-0.289-0.53-0.389-0.81-0.219c-0.29,0.16-0.389,0.529-0.23,0.819
		c0.11,0.19,0.32,0.3,0.531,0.3c0.101,0,0.2-0.029,0.29-0.08c0.29-0.16,0.389-0.529,0.23-0.82H186.608z"/>
	<path fill="#5C6468" d="M180.868,187.829c-0.091-0.32-0.42-0.5-0.74-0.41c-0.32,0.09-0.5,0.429-0.41,0.74
		c0.08,0.271,0.321,0.44,0.58,0.439c0.05,0,0.11-0.01,0.16-0.029c0.319-0.09,0.51-0.42,0.42-0.74H180.868z"/>
	<path fill="#5C6468" d="M178.959,182.559c-0.32,0.06-0.53,0.38-0.46,0.71c0.059,0.28,0.309,0.47,0.59,0.47c0.04,0,0.08,0,0.12-0.01
		c0.319-0.07,0.529-0.391,0.46-0.71C179.599,182.689,179.289,182.489,178.959,182.559z"/>
	<path fill="#5C6468" d="M183.539,196.819c-0.301,0.141-0.431,0.5-0.29,0.801c0.109,0.209,0.319,0.34,0.55,0.34
		c0.08,0,0.17-0.01,0.25-0.051c0.3-0.14,0.43-0.5,0.29-0.8C184.199,196.809,183.839,196.678,183.539,196.819z"/>
	<path fill="#5C6468" d="M181.658,192.189c-0.31,0.11-0.47,0.46-0.36,0.771c0.09,0.24,0.321,0.39,0.56,0.39
		c0.07,0,0.15-0.011,0.21-0.039c0.32-0.11,0.47-0.461,0.36-0.771C182.307,192.229,181.968,192.069,181.658,192.189z"/>
	<path fill="#5C6468" d="M178.819,178.129h-0.01c-0.04-0.33-0.35-0.56-0.67-0.51c-0.33,0.05-0.56,0.35-0.51,0.68
		c0.04,0.3,0.29,0.51,0.59,0.511c0.03,0,0.05,0,0.08,0C178.63,178.759,178.859,178.459,178.819,178.129z"/>
	<path fill="#5C6468" d="M308.32,188.527c0.04,0,0.08,0,0.12-0.01c0.319-0.062,0.529-0.38,0.47-0.71c-0.07-0.32-0.38-0.53-0.71-0.46
		c-0.321,0.059-0.531,0.38-0.47,0.7C307.79,188.336,308.04,188.527,308.32,188.527z"/>
	<path fill="#5C6468" d="M303.217,188.739c0.04,0.301,0.301,0.531,0.6,0.53c0.021,0,0.041,0,0.07-0.011c-0.01,0-0.01,0-0.01,0
		c0.329-0.029,0.568-0.329,0.529-0.659c-0.029-0.33-0.33-0.57-0.66-0.53C303.417,188.109,303.177,188.409,303.217,188.739z"/>
	<path fill="#5C6468" d="M284.495,159.441c0.021,0,0.04,0,0.06,0c0.32-0.03,0.57-0.32,0.54-0.65s-0.319-0.57-0.649-0.54
		c-0.329,0.02-0.57,0.32-0.551,0.65C283.925,159.211,284.195,159.441,284.495,159.441z"/>
	<path fill="#5C6468" d="M317.899,185.646c0.069,0,0.149-0.01,0.22-0.04c0.31-0.12,0.46-0.469,0.34-0.78
		c-0.12-0.3-0.469-0.46-0.78-0.33c-0.31,0.121-0.46,0.46-0.34,0.771C317.429,185.507,317.66,185.647,317.899,185.646z"/>
	<path fill="#5C6468" d="M289.154,160.151c0.08,0.04,0.16,0.05,0.23,0.05c0.241,0,0.461-0.14,0.561-0.37
		c0.119-0.309-0.02-0.65-0.319-0.78c-0.312-0.13-0.66,0.01-0.79,0.32C288.706,159.671,288.855,160.031,289.154,160.151z"/>
	<path fill="#5C6468" d="M298.936,171.352c0.08,0,0.17-0.011,0.239-0.051c0.31-0.13,0.441-0.489,0.31-0.79
		c-0.129-0.3-0.488-0.44-0.789-0.3c-0.301,0.13-0.44,0.48-0.311,0.78C298.484,171.22,298.705,171.351,298.936,171.352z"/>
	<path fill="#5C6468" d="M240.318,231.309c-0.34,0-0.6,0.27-0.6,0.6s0.26,0.6,0.6,0.6c0.33,0,0.601-0.27,0.601-0.6
		C240.909,231.579,240.648,231.309,240.318,231.309z"/>
	<path fill="#5C6468" d="M230.419,230.627c-0.33-0.049-0.63,0.182-0.681,0.511c-0.05,0.329,0.181,0.631,0.511,0.671
		c0.029,0.01,0.059,0.01,0.09,0.01c0.29,0,0.55-0.221,0.59-0.51C230.979,230.979,230.749,230.668,230.419,230.627z"/>
	<path fill="#5C6468" d="M225.539,229.749c-0.33-0.069-0.641,0.131-0.721,0.461c-0.069,0.319,0.141,0.64,0.46,0.709
		c0.051,0.011,0.091,0.011,0.131,0.011c0.279,0,0.529-0.19,0.59-0.47C226.068,230.139,225.858,229.819,225.539,229.749z"/>
	<path fill="#5C6468" d="M220.738,228.499c-0.319-0.1-0.649,0.08-0.75,0.4c-0.09,0.318,0.091,0.648,0.41,0.75
		c0.051,0.02,0.11,0.03,0.17,0.03c0.25,0,0.49-0.171,0.57-0.431C221.238,228.929,221.058,228.599,220.738,228.499z"/>
	<path fill="#5C6468" d="M216.058,226.879c-0.309-0.121-0.66,0.029-0.78,0.34c-0.119,0.31,0.03,0.66,0.341,0.779
		c0.069,0.03,0.139,0.041,0.219,0.041c0.241,0,0.46-0.151,0.56-0.381C216.518,227.349,216.358,226.999,216.058,226.879z"/>
	<path fill="#5C6468" d="M235.357,231.149c-0.339-0.029-0.62,0.221-0.649,0.551c-0.02,0.329,0.23,0.619,0.56,0.639
		c0.021,0,0.03,0,0.049,0c0.311,0,0.57-0.239,0.591-0.549C235.927,231.459,235.687,231.168,235.357,231.149z"/>
	<path fill="#5C6468" d="M245.278,231.138c-0.33,0.021-0.58,0.312-0.56,0.641c0.02,0.32,0.281,0.56,0.6,0.56c0.011,0,0.03,0,0.04,0
		c0.331-0.029,0.581-0.31,0.561-0.639C245.888,231.368,245.608,231.118,245.278,231.138z"/>
	<path fill="#5C6468" d="M207.158,222.53v-0.01c-0.28-0.16-0.65-0.07-0.82,0.21c-0.17,0.29-0.08,0.659,0.21,0.83
		c0-0.011,0-0.011,0-0.011c0.09,0.06,0.201,0.09,0.309,0.09c0.2,0,0.401-0.1,0.511-0.29
		C207.538,223.06,207.448,222.69,207.158,222.53z"/>
	<path fill="#5C6468" d="M194.679,213.338c-0.24,0.23-0.24,0.621-0.01,0.851c0.109,0.12,0.269,0.181,0.43,0.181
		c0.15,0,0.3-0.061,0.41-0.17c0.24-0.232,0.25-0.611,0.01-0.852C195.289,213.118,194.909,213.109,194.679,213.338z"/>
	<path fill="#5C6468" d="M191.379,209.588c-0.26,0.211-0.3,0.58-0.08,0.841c-0.01,0-0.01,0-0.01,0c0.12,0.14,0.29,0.22,0.47,0.221
		c0.13,0,0.27-0.051,0.38-0.142c0.26-0.209,0.29-0.59,0.08-0.84C192.009,209.409,191.629,209.37,191.379,209.588z"/>
	<path fill="#5C6468" d="M198.288,216.797c-0.22,0.25-0.19,0.631,0.06,0.852c0.111,0.1,0.25,0.15,0.389,0.148
		c0.171,0,0.341-0.08,0.461-0.209c0.21-0.25,0.18-0.631-0.07-0.851C198.878,216.519,198.498,216.547,198.288,216.797z"/>
	<path fill="#5C6468" d="M189.248,205.709c-0.191-0.28-0.561-0.35-0.84-0.16c-0.27,0.191-0.34,0.561-0.15,0.84
		c0.111,0.17,0.3,0.26,0.49,0.26c0.12,0,0.239-0.04,0.34-0.109c0.269-0.19,0.339-0.56,0.149-0.83H189.248z"/>
	<path fill="#5C6468" d="M202.188,219.939c-0.2,0.271-0.14,0.64,0.13,0.84c0.11,0.08,0.23,0.11,0.351,0.109
		c0.189,0,0.37-0.079,0.49-0.25c0.189-0.271,0.13-0.64-0.141-0.841C202.749,219.609,202.378,219.668,202.188,219.939z"/>
	<path fill="#5C6468" d="M211.518,224.888c-0.3-0.149-0.66-0.019-0.8,0.271c-0.15,0.301-0.03,0.661,0.27,0.811
		c0.091,0.039,0.171,0.06,0.261,0.06c0.229,0,0.439-0.13,0.54-0.34C211.938,225.388,211.818,225.029,211.518,224.888z"/>
	<path fill="#5C6468" d="M323.589,215.909c0.009,0,0.02,0,0.03,0c0.33-0.021,0.58-0.3,0.569-0.63
		c-0.021-0.329-0.301-0.59-0.631-0.569s-0.59,0.299-0.569,0.629C322.999,215.659,323.268,215.909,323.589,215.909z"/>
	<path fill="#5C6468" d="M356.628,222.77c-0.18,0.27-0.101,0.641,0.17,0.829c0.101,0.06,0.22,0.101,0.33,0.101
		c0.2,0,0.39-0.101,0.5-0.271c0.189-0.279,0.109-0.65-0.17-0.841C357.178,222.411,356.808,222.491,356.628,222.77z"/>
	<path fill="#5C6468" d="M348.428,218.019c-0.31-0.12-0.661,0.04-0.77,0.351c-0.12,0.31,0.04,0.66,0.35,0.77
		c0.071,0.029,0.141,0.04,0.21,0.04c0.241,0,0.47-0.15,0.561-0.39C348.898,218.479,348.738,218.138,348.428,218.019z"/>
	<path fill="#5C6468" d="M346.619,146.757c-0.33-0.02-0.62,0.22-0.65,0.55c-0.019,0.33,0.222,0.62,0.562,0.649
		c0.01,0,0.028,0,0.049,0c0.3,0,0.57-0.239,0.59-0.55C347.189,147.067,346.949,146.786,346.619,146.757z"/>
	<path fill="#5C6468" d="M355.588,270.139c-0.33,0.011-0.58,0.29-0.57,0.619c0.011,0.33,0.28,0.58,0.602,0.58
		c0.009,0,0.019,0,0.029,0c0.33-0.02,0.58-0.299,0.569-0.629C356.198,270.379,355.918,270.12,355.588,270.139z"/>
	<path fill="#5C6468" d="M346.03,151.727c-0.33-0.061-0.641,0.15-0.7,0.479c-0.062,0.33,0.15,0.64,0.479,0.7
		c0.03,0.01,0.071,0.01,0.11,0.01c0.28,0,0.53-0.199,0.59-0.489C346.57,152.097,346.349,151.787,346.03,151.727z"/>
	<path fill="#5C6468" d="M353.068,220.059c-0.29-0.15-0.65-0.04-0.801,0.26c-0.148,0.301-0.039,0.661,0.261,0.811
		c0.091,0.039,0.181,0.06,0.271,0.06c0.22,0,0.43-0.12,0.54-0.33C353.478,220.569,353.369,220.208,353.068,220.059z"/>
	<path fill="#5C6468" d="M350.668,270.02c-0.33-0.029-0.62,0.21-0.65,0.54c-0.029,0.329,0.211,0.619,0.54,0.649
		c0.021,0,0.04,0,0.061,0c0.3,0,0.56-0.229,0.59-0.541C351.237,270.338,350.998,270.049,350.668,270.02z"/>
	<path fill="#5C6468" d="M343.5,162.106c0.139-0.31,0-0.66-0.3-0.8c-0.312-0.129-0.66,0.01-0.79,0.31c-0.141,0.3,0,0.66,0.3,0.79
		c0.08,0.041,0.16,0.05,0.24,0.05C343.18,162.456,343.4,162.326,343.5,162.106z"/>
	<path fill="#5C6468" d="M341.018,268.008c-0.319-0.109-0.659,0.061-0.76,0.38c-0.099,0.321,0.071,0.659,0.391,0.761
		c0.061,0.02,0.119,0.03,0.181,0.029c0.25,0,0.489-0.159,0.569-0.42C341.498,268.448,341.329,268.109,341.018,268.008z"/>
	<path fill="#5C6468" d="M340.649,166.897c0.199,0,0.399-0.1,0.52-0.29c0.17-0.28,0.08-0.65-0.21-0.82
		c-0.28-0.17-0.65-0.08-0.82,0.21c-0.17,0.28-0.08,0.65,0.2,0.82C340.44,166.877,340.549,166.897,340.649,166.897z"/>
	<path fill="#5C6468" d="M345.789,269.279c-0.33-0.069-0.641,0.14-0.71,0.47c-0.07,0.32,0.14,0.641,0.46,0.711
		c0.04,0.01,0.09,0.01,0.13,0.008c0.269,0,0.519-0.198,0.58-0.479C346.318,269.668,346.108,269.348,345.789,269.279z"/>
	<path fill="#5C6468" d="M344.89,156.597c-0.318-0.09-0.648,0.08-0.75,0.399c-0.1,0.32,0.08,0.65,0.4,0.75
		c0.059,0.021,0.11,0.031,0.17,0.031c0.26,0,0.5-0.17,0.58-0.43C345.38,157.036,345.21,156.697,344.89,156.597z"/>
	<path fill="#5C6468" d="M343.597,216.489c-0.319-0.09-0.648,0.11-0.729,0.43c-0.08,0.32,0.109,0.65,0.43,0.73
		c0.05,0.01,0.101,0.02,0.15,0.02c0.269,0,0.51-0.18,0.579-0.451C344.107,216.899,343.917,216.569,343.597,216.489z"/>
	<path fill="#5C6468" d="M365.058,267.989c-0.3,0.141-0.429,0.5-0.279,0.801c0.101,0.209,0.319,0.34,0.54,0.34
		c0.091,0,0.181-0.02,0.261-0.06c0.3-0.151,0.42-0.51,0.279-0.812C365.708,267.967,365.348,267.838,365.058,267.989z"/>
	<path fill="#5C6468" d="M373.959,247.441c0.029,0,0.06-0.011,0.09-0.011c0.32-0.051,0.55-0.35,0.5-0.68s-0.35-0.561-0.68-0.51
		c-0.33,0.049-0.562,0.358-0.511,0.688C373.409,247.219,373.659,247.439,373.959,247.441z"/>
	<path fill="#5C6468" d="M373.418,241.78c-0.101-0.32-0.44-0.49-0.75-0.391c-0.32,0.091-0.5,0.431-0.4,0.75
		c0.08,0.25,0.321,0.42,0.58,0.421c0.051,0,0.11-0.011,0.17-0.03C373.338,242.429,373.508,242.099,373.418,241.78z"/>
	<path fill="#5C6468" d="M372.469,260.999c-0.29-0.15-0.65-0.02-0.8,0.271c-0.141,0.3-0.021,0.66,0.28,0.81
		c0.079,0.041,0.17,0.061,0.26,0.06c0.22,0,0.439-0.13,0.54-0.341C372.899,261.499,372.769,261.138,372.469,260.999z"/>
	<path fill="#5C6468" d="M360.449,269.529c-0.32,0.069-0.53,0.39-0.45,0.71c0.059,0.28,0.299,0.471,0.58,0.471
		c0.04,0,0.09,0,0.13-0.01c0.319-0.07,0.529-0.391,0.46-0.711C361.098,269.659,360.778,269.459,360.449,269.529z"/>
	<path fill="#5C6468" d="M370.688,236.79c-0.29,0.15-0.41,0.51-0.261,0.81c0.111,0.2,0.321,0.319,0.531,0.321
		c0.099,0,0.189-0.021,0.279-0.061c0.29-0.16,0.41-0.521,0.261-0.811C371.348,236.749,370.979,236.639,370.688,236.79z"/>
	<path fill="#5C6468" d="M374.317,251.23c-0.34-0.011-0.609,0.261-0.609,0.59c0,0.33,0.26,0.599,0.59,0.609
		c0.01,0,0.01,0,0.009,0.001c0.33,0,0.602-0.27,0.602-0.6S374.647,251.23,374.317,251.23z"/>
	<path fill="#5C6468" d="M373.919,256.209c-0.33-0.06-0.65,0.14-0.71,0.47c-0.07,0.319,0.14,0.641,0.46,0.71
		c0.04,0.01,0.08,0.01,0.12,0.01c0.279,0,0.529-0.199,0.59-0.48C374.449,256.588,374.238,256.279,373.919,256.209z"/>
	<path fill="#5C6468" d="M365.269,229.87c0.23-0.231,0.23-0.611,0-0.851c-0.229-0.229-0.609-0.24-0.84,0
		c-0.239,0.229-0.239,0.61-0.01,0.851c0.12,0.109,0.269,0.17,0.43,0.17C364.999,230.04,365.149,229.989,365.269,229.87z"/>
	<path fill="#5C6468" d="M368.928,265.2c-0.229,0.24-0.229,0.62,0.01,0.85c0.12,0.119,0.271,0.17,0.421,0.17
		c0.159,0,0.311-0.061,0.431-0.18c0.229-0.242,0.229-0.621-0.011-0.851C369.548,264.959,369.158,264.969,368.928,265.2z"/>
	<path fill="#5C6468" d="M360.699,225.678c-0.221,0.261-0.182,0.641,0.079,0.851c0.109,0.091,0.25,0.13,0.381,0.13
		c0.17,0,0.34-0.07,0.46-0.22c0.21-0.25,0.18-0.63-0.08-0.841C361.278,225.388,360.909,225.428,360.699,225.678z"/>
	<path fill="#5C6468" d="M368.648,232.799c-0.211-0.26-0.591-0.301-0.851-0.09c-0.25,0.209-0.29,0.59-0.08,0.84
		c0.121,0.15,0.29,0.22,0.46,0.221c0.141,0,0.271-0.04,0.38-0.131C368.818,233.429,368.858,233.049,368.648,232.799z"/>
	<path fill="#5C6468" d="M338.648,215.44c-0.319-0.051-0.63,0.17-0.689,0.489c-0.05,0.329,0.17,0.64,0.5,0.69
		c0.029,0.01,0.059,0.01,0.099,0.01c0.29,0,0.54-0.211,0.591-0.5C339.199,215.799,338.978,215.491,338.648,215.44z"/>
	<path fill="#5C6468" d="M307.299,207.029c0-0.01,0-0.01,0-0.01c-0.05-0.319-0.361-0.552-0.68-0.5
		c-0.33,0.05-0.562,0.351-0.511,0.681c0.04,0.299,0.301,0.51,0.591,0.51c0.028,0,0.06,0,0.09,0
		C307.119,207.659,307.339,207.348,307.299,207.029z"/>
	<path fill="#5C6468" d="M314.139,241.209c-0.11-0.31-0.449-0.479-0.76-0.371c-0.32,0.102-0.49,0.451-0.38,0.761
		c0.09,0.25,0.319,0.409,0.57,0.409c0.06,0,0.12-0.01,0.189-0.039c0.311-0.1,0.48-0.439,0.38-0.75
		C314.139,241.209,314.139,241.209,314.139,241.209z"/>
	<path fill="#5C6468" d="M311.558,231.62c-0.069-0.32-0.39-0.521-0.71-0.451c-0.33,0.07-0.529,0.392-0.46,0.711
		c0.062,0.279,0.312,0.47,0.59,0.47c0.04,0,0.091,0,0.131-0.011C311.428,232.269,311.628,231.95,311.558,231.62z"/>
	<path fill="#5C6468" d="M317.478,249.918c-0.289,0.16-0.398,0.531-0.239,0.82c0.109,0.2,0.31,0.311,0.53,0.311
		c0.091,0,0.19-0.02,0.28-0.069c0.29-0.151,0.4-0.521,0.24-0.812C318.138,249.879,317.768,249.77,317.478,249.918z"/>
	<path fill="#5C6468" d="M313.349,187.286c0.32-0.09,0.5-0.43,0.4-0.75c-0.09-0.309-0.43-0.489-0.75-0.399
		c-0.309,0.1-0.49,0.43-0.4,0.75c0.08,0.26,0.321,0.43,0.58,0.429C313.23,187.316,313.289,187.307,313.349,187.286z"/>
	<path fill="#5C6468" d="M313.539,215.717c-0.33,0.041-0.561,0.352-0.511,0.682c0.04,0.301,0.301,0.51,0.591,0.51
		c0.029,0,0.06,0,0.09,0c0.33-0.05,0.56-0.361,0.51-0.691C314.169,215.899,313.858,215.668,313.539,215.717z"/>
	<path fill="#5C6468" d="M315.178,245.489c-0.3,0.15-0.42,0.51-0.279,0.811c0.109,0.209,0.319,0.33,0.539,0.33
		c0.09,0,0.181-0.021,0.271-0.061c0.3-0.15,0.42-0.51,0.27-0.8C315.828,245.467,315.468,245.348,315.178,245.489z"/>
	<path fill="#5C6468" d="M311.999,236.029c-0.33,0.091-0.521,0.421-0.431,0.74c0.069,0.271,0.311,0.45,0.58,0.448
		c0.05,0,0.1-0.008,0.149-0.028c0.321-0.08,0.51-0.41,0.43-0.729C312.648,236.138,312.318,235.95,311.999,236.029z"/>
	<path fill="#5C6468" d="M305.852,197.526c-0.06-0.32-0.371-0.55-0.689-0.49c-0.33,0.049-0.551,0.36-0.5,0.69
		c0.05,0.289,0.3,0.5,0.589,0.5c0.031,0,0.069,0,0.101-0.011C305.682,198.167,305.9,197.856,305.852,197.526z"/>
	<path fill="#5C6468" d="M310.549,226.741c-0.07-0.322-0.38-0.541-0.71-0.471c-0.321,0.059-0.54,0.38-0.47,0.699
		c0.059,0.289,0.3,0.49,0.591,0.49c0.029,0,0.069-0.01,0.109-0.01C310.399,227.379,310.609,227.07,310.549,226.741z"/>
	<path fill="#5C6468" d="M306.549,202.07c-0.05-0.329-0.361-0.562-0.68-0.51c-0.33,0.049-0.551,0.358-0.5,0.688
		c0.04,0.301,0.3,0.51,0.59,0.512c0.029,0,0.06,0,0.09-0.01C306.379,202.7,306.599,202.389,306.549,202.07z"/>
	<path fill="#5C6468" d="M308.019,211.967c-0.05-0.318-0.35-0.549-0.68-0.5c-0.33,0.052-0.55,0.361-0.5,0.682
		c0.04,0.301,0.299,0.51,0.59,0.51c0.03,0,0.061,0,0.09,0C307.849,212.609,308.069,212.297,308.019,211.967z"/>
	<path fill="#5C6468" d="M338.2,169.956c-0.26-0.2-0.642-0.15-0.84,0.11c-0.201,0.26-0.151,0.64,0.108,0.84
		c0.111,0.09,0.241,0.13,0.37,0.13c0.17,0,0.352-0.08,0.47-0.229C338.51,170.536,338.46,170.166,338.2,169.956z"/>
	<path fill="#5C6468" d="M308.967,216.937c-0.068-0.319-0.39-0.528-0.71-0.46c-0.33,0.07-0.54,0.391-0.46,0.71
		c0.05,0.28,0.3,0.481,0.58,0.481c0.04,0,0.09-0.01,0.13-0.021C308.827,217.579,309.037,217.267,308.967,216.937z"/>
	<path fill="#5C6468" d="M309.628,221.829c-0.049-0.32-0.37-0.539-0.689-0.479c-0.33,0.05-0.551,0.37-0.489,0.69
		c0.05,0.289,0.309,0.5,0.59,0.5c0.04,0,0.069,0,0.109-0.011C309.468,222.469,309.688,222.159,309.628,221.829z"/>
	<path fill="#5C6468" d="M333.638,214.829c-0.33-0.029-0.62,0.221-0.649,0.551s0.221,0.619,0.551,0.649c0-0.01,0-0.01,0-0.01
		c0.33,0.028,0.62-0.222,0.648-0.54C334.208,215.139,333.968,214.859,333.638,214.829z"/>
	<path fill="#5C6468" d="M332.008,263.969c0-0.01,0-0.01,0-0.01c-0.279-0.16-0.649-0.07-0.819,0.22
		c-0.171,0.28-0.069,0.649,0.21,0.819c0.101,0.051,0.21,0.08,0.31,0.08c0.201,0,0.4-0.109,0.521-0.289
		C332.388,264.499,332.298,264.129,332.008,263.969z"/>
	<path fill="#5C6468" d="M331.32,177.196c-0.21-0.26-0.59-0.3-0.852-0.09c-0.25,0.21-0.29,0.59-0.08,0.85
		c0.12,0.141,0.29,0.221,0.46,0.221c0.142,0,0.271-0.05,0.382-0.141C331.49,177.826,331.53,177.456,331.32,177.196z"/>
	<path fill="#5C6468" d="M334.12,173.786c-0.23,0.241-0.23,0.621,0.01,0.851c0.12,0.109,0.271,0.17,0.42,0.17
		c0.151,0,0.312-0.061,0.432-0.18c0.229-0.241,0.229-0.621-0.012-0.851C334.73,173.547,334.349,173.547,334.12,173.786z"/>
	<path fill="#5C6468" d="M328.598,214.598c-0.33,0-0.609,0.271-0.609,0.602c0,0.329,0.261,0.6,0.601,0.6
		c0.33,0,0.599-0.26,0.599-0.592C329.188,214.877,328.928,214.609,328.598,214.598z"/>
	<path fill="#5C6468" d="M336.398,266.229c-0.301-0.141-0.649,0-0.79,0.3c-0.131,0.3,0,0.66,0.301,0.79
		c0.079,0.04,0.17,0.061,0.25,0.059c0.229,0,0.449-0.139,0.55-0.358C336.838,266.717,336.709,266.359,336.398,266.229z"/>
	<path fill="#5C6468" d="M318.528,215.099c-0.329,0.03-0.569,0.319-0.529,0.649c0.029,0.311,0.29,0.541,0.599,0.541
		c0.011,0,0.03,0,0.051,0c0.329-0.031,0.569-0.33,0.539-0.66C319.159,215.299,318.858,215.06,318.528,215.099z"/>
	<path fill="#5C6468" d="M323,182.737c-0.151-0.3-0.51-0.42-0.81-0.27c-0.29,0.15-0.41,0.51-0.262,0.81
		c0.111,0.21,0.321,0.33,0.54,0.33c0.09,0,0.182-0.019,0.271-0.07C323.03,183.387,323.15,183.027,323,182.737z"/>
	<path fill="#5C6468" d="M320.108,254.178c-0.27,0.199-0.319,0.58-0.12,0.841c0.12,0.16,0.301,0.239,0.48,0.239
		c0.12,0,0.25-0.041,0.36-0.12c0.26-0.199,0.319-0.579,0.12-0.841C320.749,254.038,320.369,253.979,320.108,254.178z"/>
	<path fill="#5C6468" d="M323.338,257.999c-0.229,0.231-0.229,0.611,0.01,0.851c0.111,0.11,0.271,0.17,0.42,0.171
		c0.15,0,0.312-0.061,0.42-0.182c0.24-0.229,0.24-0.609,0-0.85C323.948,257.758,323.567,257.758,323.338,257.999z"/>
	<path fill="#5C6468" d="M327.309,180.187c-0.18-0.281-0.559-0.361-0.828-0.18c-0.281,0.18-0.361,0.55-0.182,0.83
		c0.111,0.18,0.312,0.27,0.5,0.27c0.11,0,0.23-0.03,0.33-0.09C327.41,180.837,327.48,180.457,327.309,180.187z"/>
	<path fill="#5C6468" d="M327.909,261.219c-0.261-0.2-0.642-0.15-0.841,0.109c-0.199,0.271-0.15,0.641,0.119,0.84
		c0.11,0.09,0.231,0.131,0.361,0.131c0.18,0,0.36-0.09,0.479-0.239c0.2-0.271,0.15-0.642-0.109-0.841
		C327.909,261.219,327.909,261.219,327.909,261.219z"/>
</g>
</svg>
