<?xml version="1.0" encoding="utf-8"?>
<!-- Generator: Adobe Illustrator 16.0.1, SVG Export Plug-In . SVG Version: 6.00 Build 0)  -->
<!DOCTYPE svg PUBLIC "-//W3C//DTD SVG 1.1//EN" "http://www.w3.org/Graphics/SVG/1.1/DTD/svg11.dtd">
<svg version="1.1" id="Layer_1" xmlns="http://www.w3.org/2000/svg" xmlns:xlink="http://www.w3.org/1999/xlink" x="0px" y="0px"
	 width="600px" height="300px" viewBox="0 0 600 300" enable-background="new 0 0 600 300" xml:space="preserve">
<g id="Layer_1_1_">
	<g>
		<g>
			<rect x="14.18" y="12.922" fill="#FFFFFF" width="90.232" height="63.72"/>
			<circle fill="#FFC829" cx="21.026" cy="19.771" r="2.289"/>
			<circle fill="#939EA2" cx="30.505" cy="19.771" r="2.289"/>
			<ellipse fill="#939EA2" cx="39.979" cy="19.772" rx="2.289" ry="2.341"/>
			<path fill="#242A33" d="M105.412,10.922H13.18c-0.552,0-1,0.448-1,1v65.72c0,0.552,0.448,1,1,1h92.232c0.552,0,1-0.448,1-1
				v-65.72C106.412,11.371,105.963,10.922,105.412,10.922z M104.412,12.922v13.7H14.18v-13.7H104.412z M14.18,76.643v-48.02h90.232
				v48.02H14.18z"/>
		</g>
		<path fill="#242A33" d="M262.851,120.115c0-0.55,0.45-1,1-1l0,0c0.55,0,1,0.45,1,1l0,0c0,0.56-0.45,1-1,1l0,0
			C263.3,121.115,262.851,120.675,262.851,120.115z M258.851,120.115c0-0.55,0.45-1,1-1l0,0c0.55,0,1,0.45,1,1l0,0
			c0,0.56-0.45,1-1,1l0,0C259.3,121.115,258.851,120.675,258.851,120.115z M254.851,120.115c0-0.55,0.45-1,1-1l0,0
			c0.55,0,1,0.45,1,1l0,0c0,0.56-0.45,1-1,1l0,0C255.3,121.115,254.851,120.675,254.851,120.115z M250.851,120.115
			c0-0.55,0.45-1,1-1l0,0c0.55,0,1,0.45,1,1l0,0c0,0.56-0.45,1-1,1l0,0C251.3,121.115,250.851,120.675,250.851,120.115z
			 M246.851,120.115c0-0.55,0.45-1,1-1l0,0c0.55,0,1,0.45,1,1l0,0c0,0.56-0.45,1-1,1l0,0
			C247.3,121.115,246.851,120.675,246.851,120.115z M242.851,120.115c0-0.55,0.45-1,1-1l0,0c0.55,0,1,0.45,1,1l0,0
			c0,0.56-0.45,1-1,1l0,0C243.3,121.115,242.851,120.675,242.851,120.115z M238.851,120.115c0-0.55,0.45-1,1-1l0,0
			c0.55,0,1,0.45,1,1l0,0c0,0.56-0.45,1-1,1l0,0C239.3,121.115,238.851,120.675,238.851,120.115z M234.851,120.115
			c0-0.55,0.45-1,1-1l0,0c0.55,0,1,0.45,1,1l0,0c0,0.56-0.45,1-1,1l0,0C235.3,121.115,234.851,120.675,234.851,120.115z
			 M230.851,120.115c0-0.55,0.45-1,1-1l0,0c0.55,0,1,0.45,1,1l0,0c0,0.56-0.45,1-1,1l0,0
			C231.3,121.115,230.851,120.675,230.851,120.115z M226.851,120.115c0-0.55,0.45-1,1-1l0,0c0.55,0,1,0.45,1,1l0,0
			c0,0.56-0.45,1-1,1l0,0C227.3,121.115,226.851,120.675,226.851,120.115z M222.851,120.115c0-0.55,0.45-1,1-1l0,0
			c0.55,0,1,0.45,1,1l0,0c0,0.56-0.45,1-1,1l0,0C223.3,121.115,222.851,120.675,222.851,120.115z M218.851,120.115
			c0-0.55,0.45-1,1-1l0,0c0.55,0,1,0.45,1,1l0,0c0,0.56-0.45,1-1,1l0,0C219.3,121.115,218.851,120.675,218.851,120.115z
			 M214.851,120.115c0-0.55,0.45-1,1-1l0,0c0.55,0,1,0.45,1,1l0,0c0,0.56-0.45,1-1,1l0,0
			C215.3,121.115,214.851,120.675,214.851,120.115z M210.851,120.115c0-0.55,0.45-1,1-1l0,0c0.55,0,1,0.45,1,1l0,0
			c0,0.56-0.45,1-1,1l0,0C211.3,121.115,210.851,120.675,210.851,120.115z M206.851,120.115c0-0.55,0.45-1,1-1l0,0
			c0.55,0,1,0.45,1,1l0,0c0,0.56-0.45,1-1,1l0,0C207.3,121.115,206.851,120.675,206.851,120.115z M202.851,120.115
			c0-0.55,0.45-1,1-1l0,0c0.55,0,1,0.45,1,1l0,0c0,0.56-0.45,1-1,1l0,0C203.3,121.115,202.851,120.675,202.851,120.115z"/>
		<path fill="#242A33" d="M394.687,120.115c0-0.55,0.439-1,1-1l0,0c0.556,0,1,0.45,1,1l0,0c0,0.56-0.444,1-1,1l0,0
			C395.126,121.115,394.687,120.675,394.687,120.115z M390.677,120.115c0-0.55,0.449-1,1-1l0,0c0.562,0,1,0.45,1,1l0,0
			c0,0.56-0.438,1-1,1l0,0C391.126,121.115,390.677,120.675,390.677,120.115z M386.677,120.115c0-0.55,0.449-1,1-1l0,0
			c0.562,0,1,0.45,1,1l0,0c0,0.56-0.438,1-1,1l0,0C387.126,121.115,386.677,120.675,386.677,120.115z M382.677,120.115
			c0-0.55,0.449-1,1-1l0,0c0.562,0,1,0.45,1,1l0,0c0,0.56-0.438,1-1,1l0,0C383.126,121.115,382.677,120.675,382.677,120.115z
			 M378.687,120.115c0-0.55,0.439-1,1-1l0,0c0.556,0,0.99,0.45,0.99,1l0,0c0,0.56-0.438,1-0.99,1l0,0
			C379.126,121.115,378.687,120.675,378.687,120.115z M374.687,120.115c0-0.55,0.439-1,1-1l0,0c0.556,0,1,0.45,1,1l0,0
			c0,0.56-0.444,1-1,1l0,0C375.126,121.115,374.687,120.675,374.687,120.115z M370.687,120.115c0-0.55,0.439-1,1-1l0,0
			c0.556,0,1,0.45,1,1l0,0c0,0.56-0.444,1-1,1l0,0C371.126,121.115,370.687,120.675,370.687,120.115z M366.687,120.115
			c0-0.55,0.439-1,1-1l0,0c0.556,0,1,0.45,1,1l0,0c0,0.56-0.444,1-1,1l0,0C367.126,121.115,366.687,120.675,366.687,120.115z
			 M362.677,120.115c0-0.55,0.449-1,1-1l0,0c0.562,0,1,0.45,1,1l0,0c0,0.56-0.438,1-1,1l0,0
			C363.126,121.115,362.677,120.675,362.677,120.115z M358.677,120.115c0-0.55,0.449-1,1-1l0,0c0.562,0,1,0.45,1,1l0,0
			c0,0.56-0.438,1-1,1l0,0C359.126,121.115,358.677,120.675,358.677,120.115z M354.677,120.115c0-0.55,0.449-1,1-1l0,0
			c0.562,0,1,0.45,1,1l0,0c0,0.56-0.438,1-1,1l0,0C355.126,121.115,354.677,120.675,354.677,120.115z M350.687,120.115
			c0-0.55,0.439-1,1-1l0,0c0.556,0,0.99,0.45,0.99,1l0,0c0,0.56-0.438,1-0.99,1l0,0
			C351.126,121.115,350.687,120.675,350.687,120.115z"/>
		<path fill="#242A33" d="M246.411,257.674c0-0.561,0.438-1,1-1l0,0c0.55,0,1,0.439,1,1l0,0c0,0.551-0.45,1-1,1l0,0
			C246.851,258.674,246.411,258.225,246.411,257.674z M242.411,257.674c0-0.561,0.447-1,1-1l0,0c0.55,0,1,0.439,1,1l0,0
			c0,0.551-0.45,1-1,1l0,0C242.857,258.674,242.411,258.225,242.411,257.674z M238.411,257.674c0-0.561,0.438-1,1-1l0,0
			c0.55,0,1,0.439,1,1l0,0c0,0.551-0.45,1-1,1l0,0C238.851,258.674,238.411,258.225,238.411,257.674z M234.411,257.674
			c0-0.561,0.438-1,1-1l0,0c0.55,0,1,0.439,1,1l0,0c0,0.551-0.45,1-1,1l0,0C234.851,258.674,234.411,258.225,234.411,257.674z
			 M230.411,257.674c0-0.561,0.447-1,1-1l0,0c0.55,0,1,0.439,1,1l0,0c0,0.551-0.45,1-1,1l0,0
			C230.857,258.674,230.411,258.225,230.411,257.674z M226.411,257.674c0-0.561,0.438-1,1-1l0,0c0.55,0,1,0.439,1,1l0,0
			c0,0.551-0.45,1-1,1l0,0C226.851,258.674,226.411,258.225,226.411,257.674z M222.411,257.674c0-0.561,0.438-1,1-1l0,0
			c0.55,0,1,0.439,1,1l0,0c0,0.551-0.45,1-1,1l0,0C222.851,258.674,222.411,258.225,222.411,257.674z M218.411,257.674
			c0-0.561,0.438-1,1-1l0,0c0.55,0,1,0.439,1,1l0,0c0,0.551-0.45,1-1,1l0,0C218.851,258.674,218.411,258.225,218.411,257.674z
			 M214.411,257.674c0-0.561,0.438-1,1-1l0,0c0.55,0,1,0.439,1,1l0,0c0,0.551-0.45,1-1,1l0,0
			C214.851,258.674,214.411,258.225,214.411,257.674z M210.411,257.674c0-0.561,0.447-1,1-1l0,0c0.55,0,1,0.439,1,1l0,0
			c0,0.551-0.45,1-1,1l0,0C210.857,258.674,210.411,258.225,210.411,257.674z M206.411,257.674c0-0.561,0.438-1,1-1l0,0
			c0.55,0,1,0.439,1,1l0,0c0,0.551-0.45,1-1,1l0,0C206.851,258.674,206.411,258.225,206.411,257.674z M202.411,257.674
			c0-0.561,0.438-1,1-1l0,0c0.55,0,1,0.439,1,1l0,0c0,0.551-0.45,1-1,1l0,0C202.851,258.674,202.411,258.225,202.411,257.674z
			 M198.411,257.674c0-0.561,0.447-1,1-1l0,0c0.55,0,1,0.439,1,1l0,0c0,0.551-0.45,1-1,1l0,0
			C198.857,258.674,198.411,258.225,198.411,257.674z M194.411,257.674c0-0.561,0.438-1,1-1l0,0c0.55,0,1,0.439,1,1l0,0
			c0,0.551-0.45,1-1,1l0,0C194.851,258.674,194.411,258.225,194.411,257.674z M190.411,257.674c0-0.561,0.438-1,1-1l0,0
			c0.55,0,1,0.439,1,1l0,0c0,0.551-0.45,1-1,1l0,0C190.851,258.674,190.411,258.225,190.411,257.674z M186.411,257.674
			c0-0.561,0.438-1,1-1l0,0c0.55,0,1,0.439,1,1l0,0c0,0.551-0.45,1-1,1l0,0C186.851,258.674,186.411,258.225,186.411,257.674z
			 M182.411,257.674c0-0.561,0.438-1,1-1l0,0c0.55,0,1,0.439,1,1l0,0c0,0.551-0.45,1-1,1l0,0
			C182.851,258.674,182.411,258.225,182.411,257.674z M178.411,257.674c0-0.561,0.447-1,1-1l0,0c0.55,0,1,0.439,1,1l0,0
			c0,0.551-0.45,1-1,1l0,0C178.857,258.674,178.411,258.225,178.411,257.674z M174.411,257.674c0-0.561,0.438-1,1-1l0,0
			c0.55,0,1,0.439,1,1l0,0c0,0.551-0.45,1-1,1l0,0C174.851,258.674,174.411,258.225,174.411,257.674z M170.411,257.674
			c0-0.561,0.438-1,1-1l0,0c0.55,0,1,0.439,1,1l0,0c0,0.551-0.45,1-1,1l0,0C170.851,258.674,170.411,258.225,170.411,257.674z
			 M166.411,257.674c0-0.561,0.447-1,1-1l0,0c0.55,0,1,0.439,1,1l0,0c0,0.551-0.45,1-1,1l0,0
			C166.857,258.674,166.411,258.225,166.411,257.674z M162.411,257.674c0-0.561,0.438-1,1-1l0,0c0.55,0,1,0.439,1,1l0,0
			c0,0.551-0.45,1-1,1l0,0C162.851,258.674,162.411,258.225,162.411,257.674z M158.411,257.674c0-0.561,0.447-1,1-1l0,0
			c0.55,0,1,0.439,1,1l0,0c0,0.551-0.45,1-1,1l0,0C158.857,258.674,158.411,258.225,158.411,257.674z M154.411,257.674
			c0-0.561,0.438-1,1-1l0,0c0.55,0,1,0.439,1,1l0,0c0,0.551-0.45,1-1,1l0,0C154.851,258.674,154.411,258.225,154.411,257.674z
			 M150.411,257.674c0-0.561,0.438-1,1-1l0,0c0.55,0,1,0.439,1,1l0,0c0,0.551-0.45,1-1,1l0,0
			C150.851,258.674,150.411,258.225,150.411,257.674z M146.411,257.674c0-0.561,0.447-1,1-1l0,0c0.55,0,1,0.439,1,1l0,0
			c0,0.551-0.45,1-1,1l0,0C146.857,258.674,146.411,258.225,146.411,257.674z M142.411,257.674c0-0.561,0.438-1,1-1l0,0
			c0.55,0,1,0.439,1,1l0,0c0,0.551-0.45,1-1,1l0,0C142.851,258.674,142.411,258.225,142.411,257.674z M138.411,257.674
			c0-0.561,0.438-1,1-1l0,0c0.55,0,1,0.439,1,1l0,0c0,0.551-0.45,1-1,1l0,0C138.851,258.674,138.411,258.225,138.411,257.674z
			 M134.411,257.674c0-0.561,0.438-1,1-1l0,0c0.55,0,1,0.439,1,1l0,0c0,0.551-0.45,1-1,1l0,0
			C134.851,258.674,134.411,258.225,134.411,257.674z M130.411,257.674c0-0.561,0.438-1,1-1l0,0c0.55,0,1,0.439,1,1l0,0
			c0,0.551-0.45,1-1,1l0,0C130.851,258.674,130.411,258.225,130.411,257.674z M250.411,257.654c-0.093-0.549,0.277-1.062,0.83-1.15
			l0,0c0.537-0.078,1.06,0.291,1.14,0.83l0,0c0.09,0.551-0.28,1.062-0.82,1.15l0,0c-0.06,0.01-0.107,0.01-0.16,0.01l0,0
			C250.92,258.494,250.491,258.145,250.411,257.654z M254.3,256.734c-0.25-0.5-0.04-1.101,0.46-1.34l0,0
			c0.49-0.24,1.09-0.029,1.33,0.461l0,0c0.25,0.5,0.04,1.1-0.45,1.34l0,0l0,0l0,0c-0.147,0.07-0.3,0.1-0.438,0.1l0,0
			C254.831,257.293,254.471,257.084,254.3,256.734z M257.75,254.725c-0.37-0.41-0.353-1.039,0.06-1.42v0.01
			c0.4-0.379,1.03-0.354,1.41,0.052l0,0c0.37,0.409,0.35,1.038-0.06,1.42l0,0c-0.19,0.17-0.433,0.26-0.683,0.26l0,0
			C258.221,255.043,257.951,254.936,257.75,254.725z M260.479,251.805c-0.47-0.275-0.63-0.891-0.35-1.369l0,0
			c0.28-0.471,0.897-0.631,1.37-0.352l0,0c0.479,0.279,0.63,0.9,0.35,1.369l0,0c-0.18,0.32-0.52,0.49-0.857,0.49l0,0
			C260.817,251.945,260.641,251.904,260.479,251.805z M262.26,248.225c-0.53-0.131-0.86-0.67-0.73-1.199v-0.01
			c0.133-0.531,0.673-0.861,1.213-0.729l0,0c0.537,0.142,0.857,0.68,0.729,1.209l0,0c-0.11,0.461-0.52,0.76-0.97,0.76l0,0
			C262.42,248.254,262.34,248.244,262.26,248.225z M261.88,243.344v-0.01c-0.03-0.551,0.399-1.01,0.95-1.041l0,0
			c0.55-0.027,1.02,0.4,1.05,0.951l0,0c0.02,0.549-0.4,1.021-0.95,1.049l0,0c-0.02,0-0.04,0-0.05,0l0,0
			C262.351,244.293,261.911,243.873,261.88,243.344z M261.161,239.713c-0.183-0.52,0.09-1.09,0.607-1.27l0,0
			c0.521-0.189,1.09,0.08,1.28,0.6l0,0l0,0l0,0c0.18,0.521-0.09,1.092-0.61,1.281l0,0c-0.107,0.039-0.229,0.061-0.34,0.061l0,0
			C261.688,240.385,261.311,240.123,261.161,239.713z M259.431,236.463c-0.33-0.447-0.24-1.078,0.21-1.398l0,0
			c0.44-0.325,1.07-0.235,1.4,0.213l0,0c0.317,0.439,0.229,1.066-0.21,1.396l0,0c-0.183,0.131-0.393,0.189-0.603,0.189l0,0
			C259.931,236.865,259.621,236.725,259.431,236.463z M256.831,233.834c-0.44-0.33-0.53-0.961-0.2-1.398l0,0
			c0.33-0.438,0.96-0.526,1.397-0.196l0,0l0,0l0,0c0.44,0.325,0.53,0.961,0.2,1.396l0,0c-0.2,0.26-0.5,0.398-0.8,0.398l0,0
			C257.221,234.035,257.01,233.963,256.831,233.834z M253.581,232.064c-0.513-0.189-0.78-0.76-0.59-1.279l0,0
			c0.188-0.52,0.77-0.791,1.277-0.6l0,0c0.521,0.188,0.79,0.77,0.603,1.289l0,0c-0.15,0.395-0.53,0.645-0.94,0.645l0,0
			C253.811,232.123,253.701,232.105,253.581,232.064z M249.971,231.314c-0.55-0.039-0.97-0.51-0.94-1.062l0,0
			c0.03-0.551,0.513-0.971,1.062-0.938l0,0l0,0l0,0c0.55,0.028,0.97,0.51,0.938,1.061l0,0c-0.037,0.529-0.479,0.939-1,0.939l0,0
			C250.011,231.314,249.991,231.314,249.971,231.314z M246.031,231.285c-0.553,0-1-0.451-1-1l0,0c0-0.551,0.447-1,1-1l0,0
			c0.55,0,1,0.449,1,1l0,0C247.031,230.834,246.581,231.285,246.031,231.285L246.031,231.285L246.031,231.285z M241.031,230.285
			c0-0.551,0.447-1,1-1l0,0c0.55,0,1,0.449,1,1l0,0c0,0.549-0.45,1-1,1l0,0C241.479,231.285,241.031,230.834,241.031,230.285z
			 M238.031,231.285c-0.562,0-1-0.451-1-1l0,0c0-0.561,0.447-1,1-1l0,0c0.55,0,1,0.449,1,1l0,0
			C239.031,230.834,238.581,231.285,238.031,231.285L238.031,231.285L238.031,231.285z M234.031,231.275c-0.553,0-1-0.441-1-1l0,0
			c0-0.551,0.447-1,1-0.99l0,0c0.55,0,1,0.439,1,1l0,0C235.031,230.834,234.581,231.275,234.031,231.275L234.031,231.275
			L234.031,231.275z M229.031,230.275c0-0.551,0.447-1,1-1l0,0c0.55,0,1,0.449,1,1l0,0c0,0.559-0.45,1-1,1l0,0
			C229.479,231.275,229.031,230.824,229.031,230.275z M225.031,230.275c0-0.551,0.447-1,1-1l0,0c0.55,0,1,0.449,1,1l0,0
			c0,0.549-0.45,1-1,1l0,0C225.479,231.275,225.031,230.824,225.031,230.275z M222.031,231.275c-0.553,0-1-0.451-1-1l0,0
			c0-0.562,0.447-1,1-1l0,0c0.55,0,1,0.449,1,1l0,0C223.031,230.824,222.581,231.275,222.031,231.275L222.031,231.275
			L222.031,231.275z M218.031,231.266c-0.553,0-1-0.438-1-0.988l0,0c0-0.561,0.447-0.998,1-0.998l0,0c0.55,0,1,0.438,1,0.998l0,0
			C219.031,230.824,218.581,231.266,218.031,231.266L218.031,231.266L218.031,231.266z M214.031,231.266c-0.553,0-1-0.438-1-1l0,0
			c0-0.553,0.447-1,1-1l0,0c0.55,0,1,0.447,1,1l0,0C215.031,230.824,214.581,231.266,214.031,231.266L214.031,231.266
			L214.031,231.266z M210.031,231.266c-0.553,0-1-0.451-1-1l0,0c0-0.553,0.447-1,1-1l0,0c0.55,0,1,0.447,1,1l0,0
			C211.031,230.814,210.581,231.266,210.031,231.266L210.031,231.266L210.031,231.266z M206.031,231.266c-0.562,0-1-0.451-1-1l0,0
			c0-0.553,0.447-1,1-1l0,0c0.55,0,1,0.447,1,1l0,0C207.031,230.814,206.581,231.266,206.031,231.266L206.031,231.266
			L206.031,231.266z M202.031,231.266c-0.553,0-1-0.451-1-1l0,0c0-0.562,0.447-1,1-1l0,0c0.55,0,1,0.447,1,1l0,0
			C203.031,230.814,202.581,231.266,202.031,231.266L202.031,231.266L202.031,231.266z M197.031,230.254c0-0.551,0.447-1,1-1l0,0
			c0.55,0,1,0.449,1,1l0,0c0,0.561-0.45,1-1,1l0,0C197.479,231.254,197.031,230.805,197.031,230.254z M193.031,230.254
			c0-0.551,0.447-1,1-1l0,0c0.55,0,1,0.449,1,1l0,0c0,0.551-0.45,1-1,1l0,0C193.479,231.254,193.031,230.805,193.031,230.254z
			 M189.031,230.254c0-0.551,0.447-1,1-1l0,0c0.55,0,1,0.449,1,1l0,0c0,0.551-0.45,1-1,1l0,0
			C189.479,231.254,189.031,230.805,189.031,230.254z M185.031,230.254c0-0.561,0.447-1,1-1l0,0c0.55,0,1,0.449,1,1l0,0
			c0,0.551-0.45,1-1,1l0,0C185.479,231.254,185.031,230.805,185.031,230.254z M181.031,230.254c0-0.561,0.447-1,1-1l0,0
			c0.55,0,1,0.439,1,1l0,0c0,0.551-0.45,1-1,1l0,0C181.479,231.254,181.031,230.805,181.031,230.254z M177.031,230.244
			c0-0.549,0.447-1,1-1l0,0c0.55,0,1,0.451,1,1l0,0c0,0.562-0.45,1-1,1l0,0C177.479,231.244,177.031,230.793,177.031,230.244z
			 M174.031,231.244c-0.553,0-1-0.449-1-1l0,0c0-0.549,0.447-1,1-1l0,0c0.55,0,1,0.451,1,1l0,0
			C175.031,230.793,174.581,231.244,174.031,231.244L174.031,231.244L174.031,231.244z M170.031,231.244c-0.553,0-1-0.449-1-1l0,0
			c0-0.549,0.447-1,1-1l0,0c0.55,0,1,0.451,1,1l0,0C171.031,230.793,170.581,231.244,170.031,231.244L170.031,231.244
			L170.031,231.244z M166.021,231.244c-0.55-0.01-0.99-0.459-0.99-1.01l0,0c0-0.549,0.45-1,1.013-0.99l0,0
			c0.55,0,0.987,0.451,0.987,1l0,0c0,0.551-0.447,1-1,1l0,0C166.031,231.244,166.031,231.244,166.021,231.244z M161.817,230.674
			L161.817,230.674c-0.538-0.141-0.85-0.688-0.71-1.221l0,0c0.143-0.539,0.69-0.85,1.23-0.709l0,0l0,0l0,0
			c0.53,0.141,0.85,0.689,0.7,1.219l0,0c-0.12,0.451-0.521,0.75-0.96,0.75l0,0C161.991,230.713,161.897,230.695,161.817,230.674z
			 M157.891,229.055c-0.479-0.271-0.64-0.881-0.37-1.354l0,0c0.28-0.479,0.893-0.648,1.37-0.371l0,0
			c0.48,0.271,0.643,0.881,0.37,1.356l0,0c-0.19,0.318-0.52,0.515-0.87,0.515l0,0C158.221,229.195,158.05,229.145,157.891,229.055z
			 M154.511,226.504L154.511,226.504c-0.39-0.391-0.4-1.029-0.01-1.42l0,0c0.38-0.391,1.01-0.398,1.41-0.01l0,0
			c0.39,0.379,0.397,1.02,0.01,1.41l0,0c-0.19,0.199-0.45,0.299-0.71,0.299l0,0C154.96,226.785,154.701,226.695,154.511,226.504z
			 M151.88,223.174L151.88,223.174c-0.28-0.479-0.13-1.09,0.34-1.369l0,0c0.47-0.289,1.09-0.141,1.37,0.34l0,0
			c0.29,0.476,0.13,1.08-0.34,1.371l0,0c-0.16,0.104-0.34,0.144-0.51,0.144l0,0C152.397,223.654,152.067,223.484,151.88,223.174z
			 M150.181,219.285L150.181,219.285c-0.16-0.541,0.15-1.09,0.68-1.24l0,0c0.53-0.16,1.08,0.15,1.24,0.682l0,0l0,0l0,0
			c0.15,0.527-0.147,1.08-0.68,1.238l0,0c-0.09,0.021-0.19,0.039-0.28,0.039l0,0C150.701,220.004,150.3,219.713,150.181,219.285z
			 M149.521,215.084L149.521,215.084c-0.01-0.551,0.42-1.01,0.973-1.02l0,0c0.56-0.021,1.02,0.42,1.027,0.969l0,0
			c0.021,0.551-0.42,1.01-0.97,1.031l0,0c-0.01,0-0.021,0-0.03,0l0,0C149.979,216.064,149.541,215.635,149.521,215.084z
			 M150.688,212.064c-0.54-0.119-0.87-0.66-0.75-1.199l0,0c0.13-0.531,0.66-0.871,1.2-0.75l0,0c0.54,0.129,0.88,0.67,0.75,1.199l0,0
			c-0.11,0.471-0.52,0.778-0.97,0.778l0,0C150.84,212.094,150.771,212.084,150.688,212.064z M151.84,208.244
			c-0.49-0.26-0.67-0.869-0.42-1.35l0,0c0.26-0.49,0.87-0.687,1.35-0.42l0,0c0.49,0.25,0.683,0.854,0.42,1.35l0,0
			c-0.18,0.34-0.52,0.531-0.88,0.531l0,0C152.147,208.355,151.991,208.314,151.84,208.244z M153.931,204.834
			c-0.41-0.371-0.438-1.01-0.06-1.41l0,0c0.37-0.408,1-0.438,1.41-0.068l0,0c0.407,0.384,0.43,1.015,0.06,1.41l0,0l0,0l0,0
			c-0.2,0.224-0.47,0.328-0.74,0.328l0,0C154.357,205.094,154.121,205.004,153.931,204.834z M156.811,202.064
			c-0.3-0.472-0.17-1.09,0.29-1.396l0,0c0.47-0.301,1.09-0.17,1.38,0.306l0,0c0.312,0.461,0.17,1.08-0.29,1.381l0,0l0,0l0,0
			c-0.17,0.104-0.357,0.16-0.54,0.16l0,0C157.317,202.516,157,202.355,156.811,202.064z M160.291,200.105
			c-0.17-0.521,0.12-1.09,0.64-1.263l0,0c0.521-0.174,1.09,0.105,1.26,0.632l0,0c0.183,0.524-0.107,1.09-0.63,1.27l0,0
			c-0.107,0.031-0.21,0.051-0.317,0.051l0,0C160.817,200.793,160.431,200.525,160.291,200.105z M164.161,199.105
			c-0.03-0.551,0.39-1.031,0.938-1.062l0,0c0.55-0.027,1.021,0.393,1.062,0.939l0,0c0.027,0.551-0.393,1.02-0.94,1.061l0,0
			c-0.02,0-0.04,0-0.06,0l0,0C164.641,200.043,164.188,199.635,164.161,199.105z M204.161,199.016c0-0.553,0.447-1,1-1l0,0
			c0.55,0,1,0.447,1,1l0,0c0,0.549-0.45,1-1,1l0,0C204.607,200.016,204.161,199.564,204.161,199.016z M200.161,199.016
			c0-0.553,0.447-1,1-1l0,0c0.55,0,1,0.447,1,1l0,0c0,0.549-0.45,1-1,1l0,0C200.607,200.016,200.161,199.564,200.161,199.016z
			 M196.161,199.016c0-0.553,0.447-1,1-1l0,0c0.55,0,1,0.447,1,1l0,0c0,0.549-0.45,1-1,1l0,0
			C196.607,200.016,196.161,199.564,196.161,199.016z M192.161,199.016c0-0.553,0.447-1,1-1l0,0c0.55,0,1,0.447,1,1l0,0
			c0,0.549-0.45,1-1,1l0,0C192.607,200.016,192.161,199.564,192.161,199.016z M188.161,199.016c0-0.553,0.447-1,1-1l0,0
			c0.55,0,1,0.447,1,1l0,0c0,0.549-0.45,1-1,1l0,0C188.607,200.016,188.161,199.564,188.161,199.016z M184.161,199.016
			c0-0.553,0.447-1,1-1l0,0c0.55,0,1,0.447,1,1l0,0c0,0.549-0.45,1-1,1l0,0C184.607,200.016,184.161,199.564,184.161,199.016z
			 M180.161,199.016c0-0.553,0.447-1,1-1l0,0c0.55,0,1,0.447,1,1l0,0c0,0.549-0.45,1-1,1l0,0
			C180.607,200.016,180.161,199.564,180.161,199.016z M176.161,199.016c0-0.553,0.447-1,1-1l0,0c0.55,0,1,0.447,1,1l0,0
			c0,0.549-0.45,1-1,1l0,0C176.607,200.016,176.161,199.564,176.161,199.016z M172.161,199.016c0-0.553,0.447-1,1-1l0,0
			c0.55,0,1,0.447,1,1l0,0c0,0.549-0.45,1-1,1l0,0C172.607,200.016,172.161,199.564,172.161,199.016z M168.161,199.016
			c0-0.553,0.447-1,1-1l0,0c0.55,0,1,0.447,1,1l0,0c0,0.549-0.45,1-1,1l0,0C168.607,200.016,168.161,199.564,168.161,199.016z
			 M208.161,199.043c-0.021-0.549,0.407-1.02,0.96-1.039l0,0c0.55-0.029,1.02,0.4,1.04,0.959l0,0c0.02,0.553-0.41,1.012-0.96,1.041
			l0,0c-0.013,0-0.03,0-0.04,0l0,0C208.63,200.004,208.181,199.584,208.161,199.043z M212.13,198.605
			c-0.17-0.531,0.11-1.09,0.64-1.271l0,0c0.521-0.17,1.09,0.109,1.26,0.641l0,0c0.173,0.521-0.107,1.09-0.64,1.265l0,0
			c-0.1,0.041-0.2,0.051-0.31,0.051l0,0C212.661,199.285,212.271,199.025,212.13,198.605z M215.831,197.084
			c-0.312-0.461-0.2-1.08,0.26-1.391l0,0c0.46-0.312,1.08-0.189,1.39,0.26l0,0c0.312,0.461,0.19,1.08-0.26,1.391l0,0l0,0l0,0
			c-0.18,0.119-0.37,0.186-0.57,0.186l0,0C216.331,197.525,216.021,197.365,215.831,197.084z M218.971,194.615
			c-0.43-0.361-0.479-0.99-0.13-1.41l0,0c0.35-0.43,0.979-0.479,1.41-0.131l0,0c0.42,0.352,0.479,0.99,0.12,1.41l0,0
			c-0.19,0.24-0.48,0.358-0.763,0.358l0,0C219.38,194.844,219.147,194.766,218.971,194.615z M221.311,191.373
			c-0.51-0.219-0.729-0.818-0.51-1.318l0,0c0.23-0.5,0.82-0.729,1.32-0.512l0,0c0.51,0.23,0.729,0.82,0.51,1.32l0,0
			c-0.17,0.371-0.53,0.6-0.92,0.6l0,0C221.581,191.463,221.438,191.436,221.311,191.373z M222.67,187.615
			c-0.55-0.07-0.93-0.58-0.853-1.131l0,0c0.08-0.539,0.58-0.92,1.133-0.851l0,0c0.55,0.074,0.93,0.574,0.85,1.132l0,0
			c-0.07,0.5-0.5,0.854-0.99,0.854l0,0C222.771,187.623,222.721,187.623,222.67,187.615z M221.951,182.635c0-0.551,0.447-1,1-1l0,0
			c0.55,0,1,0.449,1,1l0,0c0,0.551-0.45,1-1,1l0,0C222.397,183.635,221.951,183.186,221.951,182.635z M221.951,178.635
			c0-0.551,0.447-1,1-1l0,0c0.55,0,1,0.449,1,1l0,0c0,0.551-0.45,1-1,1l0,0C222.397,179.635,221.951,179.186,221.951,178.635z
			 M221.951,174.635c0-0.551,0.447-1,1-1l0,0c0.55,0,1,0.449,1,1l0,0c0,0.551-0.45,1-1,1l0,0
			C222.397,175.635,221.951,175.186,221.951,174.635z M221.951,170.635c0-0.551,0.447-1,1-1l0,0c0.55,0,1,0.449,1,1l0,0
			c0,0.551-0.45,1-1,1l0,0C222.397,171.635,221.951,171.186,221.951,170.635z M222.92,167.635c-0.55-0.021-0.98-0.479-0.96-1.029
			v-0.012c0.02-0.551,0.479-0.979,1.03-0.959l0,0c0.56,0.021,0.987,0.479,0.97,1.039l0,0c-0.021,0.539-0.47,0.961-1.01,0.961l0,0
			C222.938,167.635,222.931,167.635,222.92,167.635z M223.34,163.664c-0.53-0.17-0.82-0.74-0.65-1.26l0,0
			c0.17-0.531,0.74-0.82,1.263-0.65l0,0c0.527,0.17,0.817,0.74,0.647,1.26l0,0l0,0l0,0c-0.14,0.435-0.53,0.699-0.95,0.699l0,0
			C223.541,163.715,223.438,163.695,223.34,163.664z M224.831,159.953c-0.46-0.309-0.58-0.93-0.271-1.389l0,0
			c0.3-0.461,0.933-0.58,1.38-0.271l0,0c0.46,0.311,0.58,0.932,0.28,1.391l0,0c-0.2,0.279-0.51,0.439-0.84,0.439l0,0
			C225.188,160.123,225,160.064,224.831,159.953z M227.281,156.805c-0.36-0.43-0.312-1.061,0.117-1.41l0,0
			c0.42-0.354,1.053-0.311,1.41,0.109l0,0c0.353,0.422,0.3,1.051-0.12,1.41l0,0c-0.188,0.16-0.42,0.24-0.647,0.24l0,0
			C227.761,157.154,227.479,157.035,227.281,156.805z M230.5,154.434c-0.23-0.5,0-1.104,0.5-1.319l0,0
			c0.5-0.229,1.1-0.011,1.317,0.489l0,0c0.23,0.511,0.013,1.101-0.5,1.33l0,0c-0.13,0.062-0.27,0.09-0.407,0.09l0,0
			C231.031,155.025,230.67,154.805,230.5,154.434z M234.25,153.045c-0.08-0.551,0.29-1.051,0.84-1.141l0,0
			c0.55-0.07,1.06,0.301,1.14,0.85l0,0c0.08,0.551-0.3,1.051-0.85,1.131l0,0l0,0l0,0c-0.05,0.01-0.103,0.01-0.14,0.01l0,0
			C234.75,153.895,234.317,153.545,234.25,153.045z M262.229,152.744c0-0.549,0.45-1,1-1l0,0c0.55,0,1,0.451,1,1l0,0
			c0,0.551-0.45,1-1,1l0,0C262.681,153.744,262.229,153.295,262.229,152.744z M258.229,152.744c0-0.549,0.45-1,1-1l0,0
			c0.55,0,1,0.451,1,1l0,0c0,0.551-0.45,1-1,1l0,0C258.681,153.744,258.229,153.295,258.229,152.744z M254.229,152.744
			c0-0.549,0.45-1,1-1l0,0c0.55,0,1,0.451,1,1l0,0c0,0.551-0.45,1-1,1l0,0C254.681,153.744,254.229,153.295,254.229,152.744z
			 M250.229,152.744c0-0.549,0.45-1,1-1l0,0c0.551,0,1,0.451,1,1l0,0c0,0.551-0.449,1-1,1l0,0
			C250.681,153.744,250.229,153.295,250.229,152.744z M246.229,152.744c0-0.549,0.45-1,1-1l0,0c0.551,0,1,0.451,1,1l0,0
			c0,0.551-0.449,1-1,1l0,0C246.681,153.744,246.229,153.295,246.229,152.744z M242.229,152.744c0-0.549,0.45-1,1-1l0,0
			c0.551,0,1,0.451,1,1l0,0c0,0.551-0.449,1-1,1l0,0C242.681,153.744,242.229,153.295,242.229,152.744z M238.229,152.744
			c0-0.549,0.45-1,1-1l0,0c0.551,0,1,0.451,1,1l0,0c0,0.551-0.449,1-1,1l0,0C238.681,153.744,238.229,153.295,238.229,152.744z"/>
		<g>
			<g>
				<path fill="#FFFFFF" d="M70.173,196.523v-13.803H38.904v60.713h0.003h46.067v-45.91H71.173
					C70.622,197.523,70.173,197.076,70.173,196.523z"/>
				<polygon fill="#FFFFFF" points="83.562,195.523 72.173,184.133 72.173,195.523 				"/>
				<path fill="#242A33" d="M86.896,196.137c-0.051-0.121-0.125-0.229-0.216-0.322l-14.799-14.799
					c-0.092-0.092-0.203-0.168-0.327-0.219c-0.001,0-0.003,0-0.005,0c-0.117-0.049-0.244-0.076-0.377-0.076
					c-0.002,0-0.003,0-0.005,0h-33.26c-0.268,0-0.521,0.105-0.707,0.293c-0.188,0.187-0.293,0.439-0.293,0.707v62.713
					c0,0.553,0.445,1,1,1h48.067c0.552,0,1-0.447,0.999-1v-47.91C86.977,196.389,86.946,196.258,86.896,196.137z M72.173,184.135
					l11.389,11.389H72.173V184.135z M38.908,243.434v-60.713h31.266v13.803c0,0.554,0.448,1,1,1h13.803v45.91H38.908z"/>
				<path fill="#242A33" d="M51,222.857c0-0.308,0.082-0.539,0.246-0.691c0.164-0.156,0.4-0.236,0.718-0.236
					c0.304,0,0.537,0.082,0.704,0.242c0.167,0.162,0.249,0.395,0.249,0.688c0,0.289-0.084,0.521-0.252,0.687
					s-0.402,0.248-0.701,0.248c-0.31,0-0.544-0.08-0.712-0.242C51.084,223.383,51,223.152,51,222.857z"/>
				<path fill="#242A33" d="M56.809,220.514l-1.972-2.996h1.896l1.188,1.949l1.2-1.949h1.894l-1.994,2.996l2.087,3.127H59.21
					l-1.287-2.098l-1.293,2.098h-1.896L56.809,220.514z"/>
				<path fill="#242A33" d="M64.832,223.641h-1.67v-8.521h1.67V223.641z"/>
				<path fill="#242A33" d="M71.978,221.822c0,0.627-0.218,1.104-0.653,1.436c-0.437,0.328-1.09,0.492-1.958,0.492
					c-0.444,0-0.823-0.029-1.141-0.09c-0.312-0.062-0.605-0.148-0.882-0.266v-1.386c0.311,0.146,0.66,0.271,1.049,0.367
					c0.39,0.097,0.731,0.146,1.027,0.146c0.604,0,0.909-0.176,0.909-0.521c0-0.135-0.04-0.237-0.12-0.319s-0.222-0.177-0.416-0.277
					c-0.197-0.104-0.46-0.228-0.788-0.361c-0.471-0.197-0.817-0.383-1.038-0.551s-0.381-0.359-0.481-0.576
					c-0.1-0.219-0.148-0.484-0.148-0.805c0-0.543,0.211-0.963,0.632-1.264c0.422-0.298,1.02-0.443,1.794-0.443
					c0.737,0,1.455,0.16,2.152,0.479l-0.504,1.205c-0.31-0.131-0.596-0.239-0.86-0.323c-0.268-0.084-0.538-0.127-0.816-0.127
					c-0.492,0-0.736,0.137-0.736,0.399c0,0.147,0.079,0.276,0.236,0.39c0.158,0.11,0.507,0.271,1.043,0.487
					c0.479,0.19,0.829,0.373,1.055,0.543c0.223,0.168,0.387,0.356,0.49,0.58C71.924,221.26,71.978,221.52,71.978,221.822z"/>
			</g>
			<path fill="#FFFFFF" d="M110.735,233.508v-13.805H79.472v60.713h0.001h46.069v-45.908h-13.806
				C111.187,234.508,110.735,234.059,110.735,233.508z"/>
			<polygon fill="#FFFFFF" points="124.127,232.508 112.735,221.115 112.735,232.508 			"/>
			<path fill="#242A33" d="M87.762,259.84c0-0.307,0.082-0.537,0.246-0.695c0.164-0.151,0.403-0.231,0.718-0.231
				c0.303,0,0.537,0.082,0.703,0.241c0.166,0.158,0.25,0.392,0.25,0.689c0,0.287-0.084,0.516-0.252,0.682s-0.402,0.248-0.701,0.248
				c-0.306,0-0.544-0.075-0.712-0.239C87.846,260.371,87.762,260.137,87.762,259.84z"/>
			<path fill="#242A33" d="M93.567,257.496l-1.972-2.996h1.896l1.188,1.949l1.199-1.949h1.895l-1.99,2.996l2.087,3.127h-1.9
				l-1.287-2.098l-1.292,2.098h-1.895L93.567,257.496z"/>
			<path fill="#242A33" d="M101.592,260.623h-1.671v-8.52h1.671V260.623z"/>
			<path fill="#242A33" d="M108.74,258.805c0,0.629-0.222,1.105-0.655,1.438c-0.438,0.329-1.089,0.489-1.958,0.489
				c-0.445,0-0.825-0.026-1.141-0.09c-0.312-0.061-0.606-0.146-0.882-0.266v-1.381c0.312,0.146,0.66,0.27,1.049,0.367
				c0.392,0.098,0.731,0.146,1.027,0.146c0.606,0,0.909-0.178,0.909-0.522c0-0.133-0.04-0.238-0.12-0.32s-0.219-0.176-0.416-0.277
				c-0.197-0.104-0.461-0.227-0.789-0.365c-0.471-0.192-0.813-0.379-1.038-0.547c-0.221-0.168-0.381-0.358-0.479-0.578
				c-0.104-0.217-0.15-0.481-0.15-0.803c0-0.543,0.211-0.963,0.633-1.264c0.422-0.297,1.021-0.445,1.794-0.445
				c0.737,0,1.455,0.16,2.152,0.48l-0.504,1.205c-0.306-0.131-0.594-0.238-0.86-0.322c-0.266-0.084-0.538-0.127-0.812-0.127
				c-0.493,0-0.739,0.137-0.739,0.4c0,0.147,0.079,0.278,0.238,0.389c0.156,0.109,0.507,0.271,1.043,0.486
				c0.479,0.194,0.829,0.375,1.052,0.543c0.222,0.17,0.387,0.362,0.493,0.582C108.687,258.242,108.74,258.502,108.74,258.805z"/>
			<path fill="#242A33" d="M112.418,257.496l-1.975-2.996h1.896l1.188,1.949l1.199-1.949h1.896l-1.993,2.996l2.087,3.127h-1.901
				l-1.287-2.098l-1.292,2.098h-1.895L112.418,257.496z"/>
			<path fill="#242A33" d="M127.463,233.121c-0.051-0.121-0.124-0.23-0.216-0.322L112.449,218c-0.183-0.184-0.434-0.299-0.713-0.299
				c-0.002,0-0.003,0.002-0.005,0.002l-33.262-0.002c-0.265,0-0.519,0.107-0.707,0.293c-0.188,0.188-0.293,0.441-0.293,0.707v62.715
				c0,0.553,0.448,1,1,1h48.07c0.552,0,1-0.447,1-1v-47.91C127.542,233.371,127.515,233.242,127.463,233.121z M112.735,221.115
				l11.392,11.391h-11.392V221.115z M79.472,280.416v-60.715l31.267,0.002v13.803c0,0.553,0.448,1,1,1h13.806v45.91H79.472z"/>
			<path fill="#FFFFFF" d="M45.443,240.143V226.34H14.18v60.713h0.001H60.25v-45.91H46.443
				C45.895,241.143,45.443,240.695,45.443,240.143z"/>
			<polygon fill="#FFFFFF" points="58.835,239.143 47.443,227.752 47.443,239.143 			"/>
			<path fill="#242A33" d="M25.148,266.477c0-0.307,0.082-0.539,0.246-0.694c0.164-0.156,0.403-0.236,0.719-0.236
				c0.304,0,0.536,0.082,0.702,0.242c0.167,0.162,0.249,0.396,0.249,0.688c0,0.289-0.084,0.517-0.252,0.683
				c-0.167,0.166-0.399,0.25-0.699,0.25c-0.308,0-0.546-0.082-0.714-0.244C25.232,267.002,25.148,266.771,25.148,266.477z"/>
			<path fill="#242A33" d="M32.189,267.369c-1.903,0-2.856-1.045-2.856-3.139c0-1.041,0.259-1.836,0.774-2.386
				c0.521-0.549,1.265-0.823,2.229-0.823c0.709,0,1.344,0.139,1.907,0.416l-0.493,1.293c-0.266-0.105-0.508-0.191-0.735-0.261
				c-0.226-0.067-0.453-0.102-0.68-0.102c-0.868,0-1.303,0.612-1.303,1.852c0,1.197,0.434,1.796,1.303,1.796
				c0.322,0,0.619-0.043,0.893-0.13c0.274-0.086,0.548-0.219,0.821-0.401v1.43c-0.271,0.172-0.543,0.291-0.818,0.357
				C32.96,267.338,32.609,267.369,32.189,267.369z"/>
			<path fill="#242A33" d="M40.867,265.441c0,0.627-0.221,1.104-0.654,1.436c-0.438,0.328-1.089,0.492-1.958,0.492
				c-0.445,0-0.825-0.029-1.139-0.092c-0.314-0.06-0.608-0.148-0.885-0.264v-1.382c0.312,0.146,0.66,0.269,1.052,0.367
				c0.388,0.099,0.729,0.146,1.024,0.146c0.606,0,0.909-0.175,0.909-0.523c0-0.131-0.04-0.238-0.121-0.316
				c-0.08-0.082-0.219-0.18-0.416-0.279c-0.198-0.104-0.46-0.229-0.789-0.36c-0.471-0.197-0.814-0.383-1.038-0.552
				c-0.221-0.168-0.381-0.356-0.479-0.573c-0.104-0.222-0.15-0.483-0.15-0.808c0-0.543,0.21-0.963,0.631-1.262
				c0.423-0.301,1.021-0.447,1.794-0.447c0.738,0,1.455,0.162,2.153,0.48l-0.504,1.205c-0.307-0.131-0.593-0.236-0.859-0.322
				c-0.267-0.084-0.539-0.127-0.814-0.127c-0.493,0-0.739,0.135-0.739,0.398c0,0.148,0.08,0.279,0.239,0.389
				c0.155,0.109,0.507,0.271,1.043,0.488c0.478,0.191,0.828,0.373,1.052,0.543c0.222,0.168,0.387,0.359,0.493,0.58
				C40.812,264.879,40.867,265.139,40.867,265.441z"/>
			<path fill="#242A33" d="M44.749,267.26l-2.333-6.123h1.747l1.183,3.488c0.132,0.438,0.213,0.855,0.246,1.254h0.033
				c0.018-0.354,0.101-0.771,0.247-1.254l1.177-3.488h1.747l-2.333,6.123H44.749z"/>
			<path fill="#242A33" d="M62.17,239.756c-0.032-0.078-0.087-0.139-0.137-0.205c-0.028-0.037-0.043-0.082-0.077-0.115
				l-14.805-14.803c-0.091-0.092-0.199-0.164-0.32-0.215s-0.252-0.078-0.388-0.078H13.18c-0.265,0-0.519,0.104-0.707,0.293
				c-0.188,0.186-0.293,0.441-0.293,0.707v62.713c0,0.553,0.448,1,1,1h48.069c0.552,0,1-0.449,1.001-1v-47.91
				C62.25,240.008,62.222,239.877,62.17,239.756z M47.442,227.752l11.392,11.391H47.442V227.752z M14.18,287.053L14.18,287.053
				l-0.001-60.713h31.267v13.803c0,0.553,0.448,1,1,1H60.25v45.91H14.18z"/>
		</g>
		<path fill="#242A33" d="M81.75,143.615c-0.03-0.551,0.397-1.02,0.95-1.051l0,0c0.55-0.02,1.02,0.4,1.05,0.951l0,0
			c0.02,0.56-0.4,1.02-0.95,1.049l0,0c-0.021,0-0.04,0-0.05,0l0,0C82.221,144.563,81.771,144.144,81.75,143.615z M78.63,144.394
			c-0.55-0.08-0.93-0.58-0.86-1.121l0,0c0.07-0.549,0.57-0.939,1.12-0.869l0,0c0.55,0.07,0.93,0.58,0.86,1.119l0,0
			c-0.07,0.511-0.5,0.871-0.99,0.871l0,0C78.721,144.394,78.67,144.394,78.63,144.394z M85.729,143.254
			c-0.12-0.54,0.21-1.079,0.75-1.2l0,0c0.54-0.129,1.08,0.211,1.2,0.75l0,0c0.12,0.541-0.21,1.07-0.75,1.2l0,0
			c-0.08,0.021-0.15,0.021-0.22,0.021l0,0C86.25,144.024,85.84,143.714,85.729,143.254z M74.561,143.485
			c-0.529-0.171-0.817-0.74-0.647-1.261l0,0c0.17-0.529,0.729-0.819,1.26-0.649l0,0c0.52,0.17,0.81,0.729,0.64,1.26l0,0
			c-0.13,0.42-0.52,0.69-0.95,0.69l0,0C74.761,143.524,74.661,143.516,74.561,143.485z M89.581,142.183
			c-0.21-0.51,0.02-1.09,0.527-1.31l0,0c0.513-0.22,1.093,0.011,1.312,0.521l0,0c0.22,0.51-0.021,1.1-0.521,1.319l0,0
			c-0.13,0.05-0.26,0.08-0.397,0.08l0,0C90.121,142.794,89.75,142.563,89.581,142.183z M70.71,141.853
			c-0.49-0.26-0.67-0.859-0.41-1.35l0,0c0.26-0.49,0.86-0.67,1.35-0.41l0,0c0.49,0.259,0.67,0.86,0.42,1.35l0,0
			c-0.18,0.34-0.527,0.53-0.89,0.53l0,0C71.021,141.974,70.857,141.933,70.71,141.853z M93.181,140.445
			c-0.3-0.46-0.17-1.08,0.29-1.38l0,0c0.46-0.31,1.08-0.18,1.38,0.28l0,0c0.312,0.46,0.18,1.081-0.28,1.39l0,0l0,0l0,0
			c-0.17,0.11-0.357,0.159-0.55,0.159l0,0C93.701,140.894,93.38,140.735,93.181,140.445z M67.221,139.575
			c-0.438-0.34-0.51-0.97-0.17-1.4l0,0c0.35-0.44,0.97-0.51,1.41-0.17l0,0c0.43,0.34,0.5,0.97,0.16,1.41l0,0
			c-0.19,0.25-0.49,0.38-0.78,0.38l0,0C67.621,139.794,67.397,139.724,67.221,139.575z M96.42,138.104
			c-0.38-0.4-0.37-1.04,0.03-1.42l0,0c0.397-0.38,1.04-0.37,1.42,0.03l0,0c0.38,0.4,0.357,1.04-0.04,1.42l0,0
			c-0.19,0.18-0.44,0.28-0.69,0.28l0,0C96.88,138.414,96.621,138.305,96.42,138.104z M64.188,136.714
			c-0.37-0.42-0.34-1.05,0.08-1.41l0,0c0.41-0.37,1.05-0.33,1.41,0.08l0,0c0.37,0.41,0.33,1.05-0.08,1.41l0,0
			c-0.188,0.17-0.43,0.25-0.67,0.25l0,0C64.661,137.044,64.38,136.934,64.188,136.714z M99.188,135.214
			c-0.447-0.32-0.54-0.95-0.22-1.4l0,0c0.33-0.44,0.95-0.54,1.4-0.21l0,0c0.438,0.32,0.54,0.95,0.22,1.4l0,0
			c-0.2,0.26-0.5,0.4-0.812,0.4l0,0C99.567,135.405,99.371,135.345,99.188,135.214z M61.71,133.354c0,0,0,0-0.01,0l0,0
			c-0.28-0.47-0.133-1.08,0.34-1.37l0,0c0.47-0.29,1.08-0.14,1.37,0.33v0.01c0.29,0.46,0.14,1.08-0.33,1.37l0,0
			c-0.16,0.1-0.34,0.14-0.521,0.14l0,0C62.221,133.834,61.891,133.664,61.71,133.354z M101.411,131.885
			c-0.5-0.24-0.71-0.84-0.473-1.33l0,0c0.25-0.5,0.84-0.71,1.34-0.46l0,0c0.5,0.24,0.7,0.84,0.463,1.33l0,0
			c-0.173,0.36-0.53,0.56-0.9,0.56l0,0C101.701,131.985,101.55,131.954,101.411,131.885z M59.857,129.615
			c-0.197-0.51,0.062-1.09,0.57-1.29l0,0c0.521-0.2,1.102,0.06,1.29,0.57h0.01c0.19,0.52-0.06,1.1-0.58,1.3l0,0
			c-0.118,0.04-0.237,0.06-0.357,0.06l0,0C60.391,130.254,60.011,130.015,59.857,129.615z M102.991,128.214
			c-0.53-0.15-0.843-0.7-0.69-1.229l0,0c0.15-0.53,0.7-0.84,1.229-0.69l0,0c0.54,0.15,0.853,0.7,0.7,1.23l0,0l0,0l0,0
			c-0.13,0.44-0.527,0.729-0.97,0.729l0,0C103.17,128.254,103.081,128.245,102.991,128.214z M58.71,125.604
			c-0.103-0.54,0.25-1.06,0.79-1.17l0,0c0.55-0.1,1.067,0.25,1.18,0.8l0,0c0.103,0.54-0.26,1.06-0.8,1.17l0,0
			c-0.062,0.01-0.13,0.02-0.19,0.02l0,0C59.221,126.425,58.8,126.084,58.71,125.604z M103.897,124.325
			c-0.55-0.05-0.947-0.54-0.897-1.09l0,0c0.05-0.55,0.54-0.95,1.09-0.9l0,0c0.55,0.05,0.95,0.54,0.9,1.09l0,0
			c-0.053,0.52-0.49,0.9-1,0.9l0,0C103.96,124.325,103.931,124.325,103.897,124.325z M58.3,121.454c-0.01-0.55,0.43-1,0.99-1.01l0,0
			c0.55,0,1,0.44,1.01,0.99l0,0c0,0.55-0.44,1.01-0.99,1.01l0,0H59.3l0,0C58.75,122.445,58.3,122.004,58.3,121.454z M103.09,119.334
			c0-0.55,0.45-1,1-1l0,0c0.56,0,1,0.45,1,1l0,0c0,0.55-0.44,1-1,1l0,0C103.541,120.334,103.09,119.885,103.09,119.334z
			 M58.291,117.445c0-0.55,0.45-1,1.01-1l0,0c0.55,0,0.99,0.45,0.99,1l0,0c0,0.55-0.44,1-0.99,1l0,0
			C58.741,118.445,58.291,117.995,58.291,117.445z M103.09,115.334c0-0.55,0.45-1,1-1l0,0c0.56,0,1,0.45,1,1l0,0c0,0.55-0.44,1-1,1
			l0,0C103.541,116.334,103.09,115.885,103.09,115.334z M58.291,113.445c0-0.55,0.45-1,1.01-1l0,0c0.55,0,0.99,0.45,0.99,1l0,0
			c0,0.55-0.44,1-0.99,1l0,0C58.741,114.445,58.291,113.995,58.291,113.445z M103.09,111.334c0-0.55,0.45-1,1-1l0,0
			c0.56,0,1,0.45,1,1l0,0c0,0.55-0.44,1-1,1l0,0C103.541,112.334,103.09,111.885,103.09,111.334z M58.291,109.445
			c0-0.55,0.45-1,1.01-1l0,0c0.55,0,0.99,0.45,0.99,1l0,0c0,0.55-0.44,1-0.99,1l0,0C58.741,110.445,58.291,109.995,58.291,109.445z
			 M104.147,108.334c-0.55-0.07-0.938-0.57-0.87-1.12l0,0c0.07-0.54,0.57-0.93,1.12-0.87l0,0c0.553,0.07,0.94,0.58,0.87,1.12l0,0
			c-0.067,0.51-0.5,0.88-1,0.88l0,0C104.229,108.345,104.188,108.345,104.147,108.334z M58.291,105.445c0-0.55,0.45-1,1.01-1l0,0
			c0.55,0,0.99,0.45,0.99,1l0,0c0,0.55-0.44,1-0.99,1l0,0C58.741,106.445,58.291,105.995,58.291,105.445z M104.817,104.394
			c-0.52-0.16-0.817-0.72-0.657-1.25l0,0c0.17-0.53,0.729-0.83,1.26-0.66l0,0c0.52,0.16,0.82,0.72,0.647,1.25l0,0
			c-0.13,0.43-0.527,0.71-0.947,0.71l0,0C105.021,104.434,104.92,104.425,104.817,104.394z M58.291,101.445c0-0.55,0.45-1,1.01-1
			l0,0c0.55,0,0.99,0.45,0.99,1l0,0c0,0.55-0.44,1-0.99,1l0,0C58.741,102.445,58.291,101.995,58.291,101.445z M106.17,100.635
			c-0.49-0.26-0.68-0.86-0.43-1.35h0.01c0.25-0.49,0.85-0.68,1.34-0.43l0,0c0.49,0.25,0.68,0.86,0.43,1.35l0,0
			c-0.18,0.34-0.527,0.54-0.89,0.54l0,0C106.479,100.745,106.317,100.704,106.17,100.635z M58.291,97.445c0-0.55,0.45-1,1.01-1l0,0
			c0.55,0,0.99,0.45,0.99,1l0,0c0,0.55-0.44,1-0.99,1l0,0C58.741,98.445,58.291,97.995,58.291,97.445z M108.161,97.164
			c-0.44-0.34-0.521-0.96-0.19-1.4l0,0c0.34-0.44,0.96-0.53,1.4-0.19l0,0c0.438,0.33,0.527,0.96,0.188,1.4l0,0
			c-0.188,0.26-0.49,0.39-0.79,0.39l0,0C108.55,97.365,108.34,97.305,108.161,97.164z M58.291,93.445c0-0.55,0.45-1,1.01-1l0,0
			c0.55,0,0.99,0.45,0.99,1l0,0c0,0.55-0.44,1-0.99,1l0,0C58.741,94.445,58.291,93.995,58.291,93.445z M110.721,94.095
			c-0.37-0.41-0.35-1.04,0.06-1.42l0,0c0.4-0.37,1.03-0.34,1.41,0.06l0,0c0.37,0.41,0.353,1.04-0.06,1.41l0,0l0,0l0,0
			c-0.19,0.18-0.43,0.27-0.68,0.27l0,0C111.188,94.414,110.92,94.305,110.721,94.095z M113.771,91.515c-0.3-0.47-0.16-1.09,0.3-1.39
			l0,0c0.473-0.3,1.093-0.16,1.383,0.3l0,0c0.3,0.47,0.17,1.09-0.303,1.39l0,0c0,0,0,0,0.013,0l0,0c-0.17,0.1-0.36,0.15-0.553,0.15
			l0,0C114.291,91.965,113.96,91.805,113.771,91.515z M58.291,89.445c0-0.55,0.45-1,1.01-1l0,0c0.55,0,0.99,0.45,0.99,1l0,0
			c0,0.55-0.44,1-0.99,1l0,0C58.741,90.445,58.291,89.995,58.291,89.445z M117.229,89.495c-0.22-0.51,0.021-1.1,0.53-1.31l0,0
			c0.51-0.21,1.1,0.03,1.31,0.54l0,0c0.21,0.51-0.027,1.09-0.54,1.31l0,0c-0.117,0.05-0.25,0.07-0.38,0.07l0,0
			C117.761,90.104,117.391,89.874,117.229,89.495z M120.979,88.115c-0.12-0.54,0.223-1.08,0.763-1.2v0.01
			c0.527-0.13,1.067,0.21,1.188,0.75l0,0c0.12,0.54-0.22,1.08-0.76,1.2l0,0c-0.07,0.01-0.142,0.02-0.22,0.02l0,0
			C121.5,88.894,121.081,88.575,120.979,88.115z M124.911,87.414c-0.021-0.55,0.397-1.02,0.96-1.05l0,0
			c0.55-0.021,1.02,0.4,1.04,0.96l0,0c0.027,0.54-0.4,1.01-0.95,1.04l0,0l0,0l0,0c-0.021,0-0.03,0-0.05,0l0,0
			C125.38,88.365,124.938,87.945,124.911,87.414z M128.911,87.334c0-0.55,0.447-1,1-1l0,0c0.55,0,1,0.45,1,1l0,0c0,0.55-0.44,1-1,1
			l0,0C129.357,88.334,128.911,87.894,128.911,87.334z M132.911,87.334c0-0.55,0.447-1,1-1l0,0c0.55,0,1,0.44,1,1l0,0
			c0,0.55-0.44,1-1,1l0,0C133.357,88.334,132.911,87.885,132.911,87.334z M136.911,87.334c0-0.56,0.447-1.01,1-1.01l0,0
			c0.55,0,1,0.45,1,1l0,0c0,0.56-0.44,1-1,1l0,0C137.357,88.325,136.911,87.885,136.911,87.334z M140.911,87.325c0-0.55,0.447-1,1-1
			l0,0c0.55,0,1,0.45,1,1l0,0c0,0.55-0.44,1-1,1l0,0C141.357,88.325,140.911,87.874,140.911,87.325z M144.911,87.325
			c0-0.56,0.447-1,1-1l0,0c0.55-0.01,1,0.44,1,0.99l0,0c0,0.56-0.44,1-1,1l0,0C145.357,88.325,144.911,87.874,144.911,87.325z
			 M148.911,87.314c0-0.55,0.447-1,1-1l0,0c0.55,0,1,0.45,1,1l0,0c0,0.55-0.44,1-1,1l0,0
			C149.357,88.314,148.911,87.865,148.911,87.314z M152.911,87.314c0-0.55,0.447-1,1-1l0,0c0.55,0,1,0.44,1,1l0,0c0,0.55-0.44,1-1,1
			l0,0C153.357,88.314,152.911,87.865,152.911,87.314z M156.911,87.305c0-0.55,0.447-1,1-1l0,0c0.55,0,1,0.45,1,1l0,0
			c0,0.55-0.44,1-1,1l0,0C157.357,88.305,156.911,87.865,156.911,87.305z M160.911,87.305c0-0.55,0.447-1,1-1l0,0c0.55,0,1,0.45,1,1
			l0,0c0,0.55-0.44,1-1,1l0,0C161.357,88.305,160.911,87.854,160.911,87.305z M164.911,87.294c0-0.55,0.447-1,1-1l0,0
			c0.55,0,1,0.45,1,1l0,0c0,0.55-0.44,1-1,1l0,0C165.357,88.294,164.911,87.854,164.911,87.294z M168.911,87.294c0-0.55,0.447-1,1-1
			l0,0c0.55,0,1,0.45,1,1l0,0c0,0.55-0.44,1-1,1l0,0C169.357,88.294,168.911,87.845,168.911,87.294z M172.911,87.294
			c0-0.56,0.447-1,1-1l0,0c0.55,0,1,0.44,1,0.99l0,0c0,0.56-0.44,1.01-1,1.01l0,0C173.357,88.294,172.911,87.845,172.911,87.294z
			 M176.911,87.285c0-0.55,0.447-1,1-1l0,0c0.55,0,1,0.45,1,1l0,0c0,0.55-0.44,1-1,1l0,0
			C177.357,88.285,176.911,87.834,176.911,87.285z M180.911,87.285c0-0.55,0.447-1,1-1l0,0c0.55,0,1,0.44,1,1l0,0c0,0.55-0.45,1-1,1
			l0,0C181.357,88.285,180.911,87.834,180.911,87.285z M184.911,87.274c0-0.55,0.447-1,1-1l0,0c0.55,0,1,0.45,1,1l0,0
			c0,0.55-0.44,1-1,1l0,0C185.357,88.274,184.911,87.834,184.911,87.274z M188.911,87.274c0-0.55,0.447-1,1-1l0,0c0.55,0,1,0.44,1,1
			l0,0c0,0.55-0.44,1-1,1l0,0C189.357,88.274,188.911,87.825,188.911,87.274z M192.911,87.274c0-0.56,0.447-1,1-1l0,0
			c0.55-0.01,1,0.44,1,0.99l0,0c0,0.56-0.44,1-1,1l0,0C193.357,88.274,192.911,87.825,192.911,87.274z M196.911,87.265
			c0-0.55,0.447-1,1-1l0,0c0.55,0,1,0.45,1,1l0,0c0,0.55-0.44,1-1,1l0,0C197.357,88.265,196.911,87.814,196.911,87.265z
			 M200.911,87.265c0-0.56,0.447-1,1-1.01l0,0c0.55,0,1,0.45,1,1l0,0c0,0.56-0.44,1-1,1l0,0
			C201.357,88.265,200.911,87.814,200.911,87.265z M204.911,87.254c0-0.55,0.447-1,1-1l0,0c0.55,0,1,0.45,1,1l0,0c0,0.55-0.44,1-1,1
			l0,0C205.357,88.254,204.911,87.814,204.911,87.254z M208.911,87.254c0-0.55,0.447-1,1-1l0,0c0.55,0,1,0.44,1,1l0,0
			c0,0.55-0.44,1-1,1l0,0C209.357,88.254,208.911,87.805,208.911,87.254z M212.911,87.245c0-0.55,0.447-1,1-1l0,0c0.55,0,1,0.45,1,1
			l0,0c0,0.55-0.44,1-1,1l0,0C213.357,88.245,212.911,87.805,212.911,87.245z M216.911,87.245c0-0.55,0.447-1,1-1l0,0
			c0.55,0,1,0.45,1,1l0,0c0,0.55-0.44,1-1,1l0,0C217.357,88.245,216.911,87.794,216.911,87.245z M220.911,87.245
			c0-0.56,0.447-1.01,1-1.01l0,0c0.55,0,1,0.45,1,1l0,0c0,0.56-0.44,1-1,1l0,0C221.357,88.235,220.911,87.794,220.911,87.245z
			 M224.911,87.235c0-0.55,0.447-1,1-1l0,0c0.55,0,1,0.45,1,1l0,0c0,0.55-0.44,1-1,1l0,0
			C225.357,88.235,224.911,87.785,224.911,87.235z M228.911,87.235c0-0.55,0.447-1,1-1l0,0c0.55-0.01,1,0.44,1,1l0,0
			c0,0.55-0.44,0.99-1,1l0,0C229.357,88.235,228.911,87.785,228.911,87.235z M232.911,87.224c0-0.55,0.447-1,1-1l0,0
			c0.55,0,1,0.45,1,1l0,0c0,0.55-0.44,1-1,1l0,0C233.357,88.224,232.911,87.774,232.911,87.224z M236.911,87.224c0-0.55,0.447-1,1-1
			l0,0c0.55,0,1,0.44,1,0.99l0,0c0,0.56-0.44,1.01-1,1.01l0,0C237.357,88.224,236.911,87.774,236.911,87.224z M240.911,87.215
			c0-0.55,0.447-1,1-1l0,0c0.55,0,1,0.45,1,1l0,0c0,0.55-0.44,1-1,1l0,0C241.357,88.215,240.911,87.774,240.911,87.215z
			 M244.911,87.215c0-0.55,0.447-1,1-1l0,0c0.55,0,1,0.44,1,1l0,0c0,0.55-0.44,1-1,1l0,0
			C245.357,88.215,244.911,87.765,244.911,87.215z M248.911,87.204c0-0.55,0.447-0.99,1-1l0,0c0.55,0,1,0.45,1,1l0,0
			c0,0.55-0.44,1-1,1l0,0C249.357,88.215,248.911,87.765,248.911,87.204z M252.911,87.204c0-0.55,0.447-1,1-1l0,0c0.55,0,1,0.45,1,1
			l0,0c0,0.55-0.44,1-1,1l0,0C253.357,88.204,252.911,87.754,252.911,87.204z M256.911,87.204c0-0.56,0.447-1,1-1l0,0
			c0.55,0,1,0.44,1,0.99l0,0c0,0.56-0.44,1.01-1,1.01l0,0C257.357,88.204,256.911,87.754,256.911,87.204z M260.911,87.195
			c0-0.55,0.447-1,1-1l0,0c0.55,0,1,0.45,1,1l0,0c0,0.55-0.44,1-1,1l0,0C261.357,88.195,260.911,87.745,260.911,87.195z
			 M264.911,87.195c0-0.55,0.447-1,1-1l0,0c0.55,0,1,0.44,1,1l0,0c0,0.55-0.44,1-1,1l0,0
			C265.357,88.195,264.911,87.745,264.911,87.195z M58.291,85.445c0-0.55,0.45-1,1.01-1l0,0c0.55,0,0.99,0.45,0.99,1l0,0
			c0,0.55-0.44,1-0.99,1l0,0C58.741,86.445,58.291,85.995,58.291,85.445z M58.291,81.445c0-0.55,0.45-1,1.01-1l0,0
			c0.55,0,0.99,0.45,0.99,1l0,0c0,0.55-0.44,1-0.99,1l0,0C58.741,82.445,58.291,81.995,58.291,81.445z"/>
		<g>
			<rect x="411.494" y="40.87" fill="#FFFFFF" width="164.162" height="218.255"/>
			<rect x="424.551" y="55.143" fill="#FFFFFF" width="138.062" height="77.429"/>
			<rect x="424.551" y="148.267" fill="#FFFFFF" width="138.062" height="77.431"/>
			<rect x="424.551" y="241.395" fill="#FFFFFF" width="138.062" height="17.729"/>
			<path fill="#242A33" d="M572.92,289.078H414.234c-8.22,0-14.896-6.697-14.896-14.93V25.851c0-8.231,6.688-14.928,14.896-14.928
				H572.92c8.215,0,14.9,6.697,14.9,14.928v248.297C587.82,282.379,581.135,289.078,572.92,289.078z M414.234,12.924
				c-7.111,0-12.896,5.799-12.896,12.928v248.296c0,7.129,5.785,12.931,12.896,12.931H572.92c7.113,0,12.9-5.802,12.9-12.931V25.851
				c0-7.128-5.787-12.928-12.9-12.928L414.234,12.924L414.234,12.924z M493.582,282.404c-4.143,0-7.514-3.377-7.514-7.527
				c0-4.141,3.371-7.51,7.514-7.51c4.135,0,7.498,3.369,7.498,7.51C501.08,279.027,497.717,282.404,493.582,282.404z
				 M493.582,269.367c-3.041,0-5.514,2.471-5.514,5.51c0,3.049,2.473,5.527,5.514,5.527c3.031,0,5.498-2.479,5.498-5.527
				C499.08,271.838,496.613,269.367,493.582,269.367z M577.656,261.125H409.494V38.87h168.162V261.125z M411.494,259.125h164.162
				V40.87H411.494V259.125z M493.582,29.842c-1.855,0-3.365-1.556-3.365-3.469c0-1.916,1.512-3.474,3.365-3.474
				c1.85,0,3.355,1.558,3.355,3.474C496.938,28.286,495.432,29.842,493.582,29.842z M493.582,24.898
				c-0.752,0-1.365,0.661-1.365,1.474c0,0.81,0.613,1.469,1.365,1.469c0.746,0,1.355-0.659,1.355-1.469
				C494.938,25.56,494.328,24.898,493.582,24.898z"/>
			<polygon fill="#242A33" points="543.336,122.079 532.971,117.124 524.043,95.53 514.883,112.532 504.766,104.37 494.846,107.352 
				485.434,86.642 476.938,93.402 466.85,106.197 457.361,99.958 448.113,115.198 438.166,118.347 437.562,116.439 446.793,113.518 
				456.727,97.148 466.414,103.518 475.6,91.909 486.193,83.481 495.943,104.934 505.201,102.152 514.264,109.463 524.281,90.87 
				534.525,115.649 543.305,119.847 552.473,115.14 553.387,116.918 			"/>
			<path fill="#242A33" d="M564.607,134.572H422.551V53.143h142.062L564.607,134.572L564.607,134.572z M424.551,132.572h138.062
				V55.143H424.551V132.572L424.551,132.572z"/>
			<path fill="#242A33" d="M564.607,227.658H422.551v-81.353h142.062L564.607,227.658L564.607,227.658z M424.551,225.658h138.062
				v-77.353H424.551V225.658L424.551,225.658z"/>
			<path fill="#242A33" d="M573.635,54.143"/>
			<path fill="#242A33" d="M413.521,54.143"/>
			<rect x="436.865" y="66.877" fill="#242A33" width="35.438" height="2"/>
			<path fill="#242A33" d="M526.41,214.105c-14.955,0-27.121-12.168-27.121-27.123s12.166-27.121,27.121-27.121
				s27.123,12.166,27.123,27.121S541.365,214.105,526.41,214.105z M526.41,161.861c-13.854,0-25.121,11.27-25.121,25.121
				c0,13.851,11.27,25.123,25.121,25.123c13.851,0,25.123-11.271,25.123-25.123C551.533,173.129,540.264,161.861,526.41,161.861z"/>
			<path fill="#242A33" d="M526.41,199.855c-7.099,0-12.873-5.773-12.873-12.873c0-7.099,5.775-12.873,12.873-12.873
				c7.1,0,12.873,5.774,12.873,12.873C539.283,194.082,533.51,199.855,526.41,199.855z M526.41,176.109
				c-5.996,0-10.873,4.877-10.873,10.873s4.877,10.873,10.873,10.873s10.873-4.877,10.873-10.873S532.406,176.109,526.41,176.109z"
				/>
			<rect x="526.123" y="160.896" fill="#242A33" width="2" height="14.213"/>
			
				<rect x="518.989" y="197.721" transform="matrix(0.9276 0.3735 -0.3735 0.9276 114.0855 -179.399)" fill="#242A33" width="2" height="13.963"/>
			
				<rect x="534.781" y="197.121" transform="matrix(0.8038 0.5949 -0.5949 0.8038 224.2167 -283.6553)" fill="#242A33" width="14.791" height="2.002"/>
			<path fill="#242A33" d="M564.607,261.125H422.551v-21.732h142.062L564.607,261.125L564.607,261.125z M424.551,259.125h138.062
				v-17.732H424.551V259.125L424.551,259.125z"/>
			<rect x="436.865" y="160.039" fill="#242A33" width="51.086" height="2"/>
			<rect x="436.865" y="166.922" fill="#242A33" width="34.301" height="2"/>
			<path fill="#242A33" d="M480.607,214.105h-43.742v-33.64h43.742V214.105z M438.865,212.105h39.742v-29.64h-39.742V212.105z"/>
		</g>
		<g>
			<ellipse fill="#FFFFFF" cx="171.085" cy="119.771" rx="27.188" ry="8.542"/>
			<ellipse fill="#FFFFFF" cx="171.085" cy="169.121" rx="27.188" ry="8.541"/>
			<rect x="143.896" y="123.67" fill="#FFFFFF" width="54.375" height="45.451"/>
			<circle fill="#FFC829" cx="192.004" cy="134.53" r="2.289"/>
			<circle fill="#FFC829" cx="192.003" cy="150.742" r="2.289"/>
			<circle fill="#FFC829" cx="192.003" cy="167.143" r="2.289"/>
			<path fill="none" d="M143.896,156.57v12.551c0,4.037,11.166,8.537,27.188,8.537c16.021,0,27.187-4.5,27.187-8.537V156.57
				c-3.829,3.639-13.093,6.641-27.187,6.641C156.992,163.211,147.729,160.209,143.896,156.57z"/>
			<path fill="none" d="M143.896,140.119v12.551c0,4.041,11.166,8.541,27.188,8.541c16.021,0,27.187-4.5,27.187-8.541v-12.551
				c-3.829,3.641-13.093,6.643-27.187,6.643C156.992,146.762,147.729,143.76,143.896,140.119z"/>
			<path fill="none" d="M143.896,123.67v12.549c0,4.04,11.166,8.542,27.188,8.542c16.021,0,27.187-4.502,27.187-8.542V123.67
				c-3.829,3.64-13.093,6.642-27.187,6.642C156.992,130.312,147.729,127.311,143.896,123.67z"/>
			<path fill="#242A33" d="M171.086,109.23c-18.958,0-29.188,5.431-29.188,10.541v49.35c0,5.109,10.229,10.539,29.188,10.539
				c18.957,0,29.186-5.43,29.187-10.539v-49.35C200.271,114.662,190.044,109.23,171.086,109.23z M171.086,128.312
				c-16.021,0-27.188-4.501-27.188-8.541s11.166-8.541,27.188-8.541c16.021,0,27.186,4.502,27.187,8.541
				C198.271,123.812,187.104,128.312,171.086,128.312z M198.271,169.121c0,4.037-11.166,8.537-27.187,8.537
				c-16.021,0-27.188-4.5-27.188-8.537V156.57c3.829,3.639,13.096,6.641,27.188,6.641s23.355-3.002,27.187-6.641V169.121z
				 M198.271,152.67c0,4.041-11.166,8.541-27.187,8.541c-16.021,0-27.188-4.5-27.188-8.541v-12.551
				c3.829,3.641,13.096,6.643,27.188,6.643s23.355-3.004,27.187-6.644V152.67z M198.271,136.22c0,4.04-11.166,8.542-27.187,8.542
				c-16.021,0-27.188-4.502-27.188-8.542v-12.55c3.829,3.64,13.096,6.642,27.188,6.642s23.355-3.002,27.187-6.642V136.22z"/>
		</g>
		<g>
			<circle fill="#242A33" cx="301.479" cy="121.077" r="46.669"/>
			<g>
				<path fill="#FFC828" d="M311.47,123.12c0.353-0.335,0.707-0.677,1.068-1.03c0.811-0.795,1.549-1.47,2.199-2.062
					c2.893-2.643,4.801-4.389,4.801-9.553c0-4.551-4.025-8.396-8.791-8.396c-4.629,0-8.395,3.768-8.395,8.396h4.436
					c0-2.185,1.776-3.961,3.961-3.961c2.279,0,4.354,1.888,4.354,3.961c0,3.209-0.645,3.799-3.356,6.277
					c-0.678,0.618-1.443,1.319-2.312,2.169c-0.35,0.342-0.694,0.675-1.033,1.001c-2.467,2.366-4.998,4.8-5.762,8.349h-4.3v-13.624
					h-4.438v13.624h-6.522l3.896-12.987l-4.248-1.274l-5.607,18.696h12.483v9.373h4.438v-9.373h4.066h0.524h16.291v-4.435h-11.967
					C307.921,126.597,309.372,125.135,311.47,123.12z"/>
			</g>
		</g>
	</g>
</g>
<g id="Layer_2">
</g>
<g id="Layer_3">
</g>
</svg>
