<?xml version="1.0" encoding="utf-8"?>
<!-- Generator: Adobe Illustrator 16.0.1, SVG Export Plug-In . SVG Version: 6.00 Build 0)  -->
<!DOCTYPE svg PUBLIC "-//W3C//DTD SVG 1.1//EN" "http://www.w3.org/Graphics/SVG/1.1/DTD/svg11.dtd">
<svg version="1.1" id="Layer_1" xmlns="http://www.w3.org/2000/svg" xmlns:xlink="http://www.w3.org/1999/xlink" x="0px" y="0px"
	 width="600px" height="300px" viewBox="0 0 600 300" enable-background="new 0 0 600 300" xml:space="preserve">
<g>
	<rect x="14.18" y="7.592" fill="#FFFFFF" width="90.232" height="63.72"/>
	<circle fill="#FFC829" cx="21.028" cy="14.441" r="2.289"/>
	<circle fill="#939EA2" cx="30.506" cy="14.441" r="2.289"/>
	<ellipse fill="#939EA2" cx="39.979" cy="14.441" rx="2.289" ry="2.341"/>
	<path fill="#242A33" d="M105.412,5.592H13.18c-0.552,0-1,0.448-1,1v65.72c0,0.552,0.448,1,1,1h92.232c0.552,0,1-0.448,1-1V6.592
		C106.412,6.04,105.964,5.592,105.412,5.592z M104.412,7.592v13.7H14.18v-13.7H104.412z M14.18,71.312v-48.02h90.232v48.02H14.18z"
		/>
</g>
<path fill="#242A33" d="M270.851,120.453c0-0.55,0.45-1,1-1l0,0c0.55,0,1,0.45,1,1l0,0c0,0.56-0.45,1-1,1l0,0
	C271.301,121.453,270.851,121.013,270.851,120.453z M266.851,120.453c0-0.55,0.45-1,1-1l0,0c0.55,0,1,0.45,1,1l0,0
	c0,0.56-0.45,1-1,1l0,0C267.301,121.453,266.851,121.013,266.851,120.453z M262.851,120.453c0-0.55,0.45-1,1-1l0,0
	c0.55,0,1,0.45,1,1l0,0c0,0.56-0.45,1-1,1l0,0C263.301,121.453,262.851,121.013,262.851,120.453z M258.851,120.453
	c0-0.55,0.45-1,1-1l0,0c0.55,0,1,0.45,1,1l0,0c0,0.56-0.45,1-1,1l0,0C259.301,121.453,258.851,121.013,258.851,120.453z
	 M254.851,120.453c0-0.55,0.45-1,1-1l0,0c0.55,0,1,0.45,1,1l0,0c0,0.56-0.45,1-1,1l0,0
	C255.301,121.453,254.851,121.013,254.851,120.453z M250.851,120.453c0-0.55,0.45-1,1-1l0,0c0.55,0,1,0.45,1,1l0,0
	c0,0.56-0.45,1-1,1l0,0C251.301,121.453,250.851,121.013,250.851,120.453z M246.851,120.453c0-0.55,0.45-1,1-1l0,0
	c0.55,0,1,0.45,1,1l0,0c0,0.56-0.45,1-1,1l0,0C247.301,121.453,246.851,121.013,246.851,120.453z M242.851,120.453
	c0-0.55,0.45-1,1-1l0,0c0.55,0,1,0.45,1,1l0,0c0,0.56-0.45,1-1,1l0,0C243.301,121.453,242.851,121.013,242.851,120.453z
	 M238.851,120.453c0-0.55,0.45-1,1-1l0,0c0.55,0,1,0.45,1,1l0,0c0,0.56-0.45,1-1,1l0,0
	C239.301,121.453,238.851,121.013,238.851,120.453z M234.851,120.453c0-0.55,0.45-1,1-1l0,0c0.55,0,1,0.45,1,1l0,0
	c0,0.56-0.45,1-1,1l0,0C235.301,121.453,234.851,121.013,234.851,120.453z M230.851,120.453c0-0.55,0.45-1,1-1l0,0
	c0.55,0,1,0.45,1,1l0,0c0,0.56-0.45,1-1,1l0,0C231.301,121.453,230.851,121.013,230.851,120.453z M226.851,120.453
	c0-0.55,0.45-1,1-1l0,0c0.55,0,1,0.45,1,1l0,0c0,0.56-0.45,1-1,1l0,0C227.301,121.453,226.851,121.013,226.851,120.453z
	 M222.851,120.453c0-0.55,0.45-1,1-1l0,0c0.55,0,1,0.45,1,1l0,0c0,0.56-0.45,1-1,1l0,0
	C223.301,121.453,222.851,121.013,222.851,120.453z M218.851,120.453c0-0.55,0.45-1,1-1l0,0c0.55,0,1,0.45,1,1l0,0
	c0,0.56-0.45,1-1,1l0,0C219.301,121.453,218.851,121.013,218.851,120.453z M214.851,120.453c0-0.55,0.45-1,1-1l0,0
	c0.55,0,1,0.45,1,1l0,0c0,0.56-0.45,1-1,1l0,0C215.301,121.453,214.851,121.013,214.851,120.453z M210.851,120.453
	c0-0.55,0.45-1,1-1l0,0c0.55,0,1,0.45,1,1l0,0c0,0.56-0.45,1-1,1l0,0C211.301,121.453,210.851,121.013,210.851,120.453z
	 M206.851,120.453c0-0.55,0.45-1,1-1l0,0c0.55,0,1,0.45,1,1l0,0c0,0.56-0.45,1-1,1l0,0
	C207.301,121.453,206.851,121.013,206.851,120.453z M202.851,120.453c0-0.55,0.45-1,1-1l0,0c0.55,0,1,0.45,1,1l0,0
	c0,0.56-0.45,1-1,1l0,0C203.301,121.453,202.851,121.013,202.851,120.453z"/>
<path fill="#242A33" d="M397.811,120.453c0-0.55,0.44-1,1-1l0,0c0.555,0,1,0.45,1,1l0,0c0,0.56-0.445,1-1,1l0,0
	C398.251,121.453,397.811,121.013,397.811,120.453z M393.811,120.453c0-0.55,0.44-1,1-1l0,0c0.555,0,1,0.45,1,1l0,0
	c0,0.56-0.445,1-1,1l0,0C394.251,121.453,393.811,121.013,393.811,120.453z M389.801,120.453c0-0.55,0.45-1,1-1l0,0
	c0.562,0,1,0.45,1,1l0,0c0,0.56-0.438,1-1,1l0,0C390.251,121.453,389.801,121.013,389.801,120.453z M385.801,120.453
	c0-0.55,0.45-1,1-1l0,0c0.562,0,1,0.45,1,1l0,0c0,0.56-0.438,1-1,1l0,0C386.251,121.453,385.801,121.013,385.801,120.453z
	 M381.801,120.453c0-0.55,0.45-1,1-1l0,0c0.562,0,1,0.45,1,1l0,0c0,0.56-0.438,1-1,1l0,0
	C382.251,121.453,381.801,121.013,381.801,120.453z M377.811,120.453c0-0.55,0.44-1,1-1l0,0c0.555,0,0.99,0.45,0.99,1l0,0
	c0,0.56-0.438,1-0.99,1l0,0C378.251,121.453,377.811,121.013,377.811,120.453z M373.811,120.453c0-0.55,0.44-1,1-1l0,0
	c0.555,0,1,0.45,1,1l0,0c0,0.56-0.445,1-1,1l0,0C374.251,121.453,373.811,121.013,373.811,120.453z M369.811,120.453
	c0-0.55,0.44-1,1-1l0,0c0.555,0,1,0.45,1,1l0,0c0,0.56-0.445,1-1,1l0,0C370.251,121.453,369.811,121.013,369.811,120.453z
	 M365.811,120.453c0-0.55,0.44-1,1-1l0,0c0.555,0,1,0.45,1,1l0,0c0,0.56-0.445,1-1,1l0,0
	C366.251,121.453,365.811,121.013,365.811,120.453z M361.801,120.453c0-0.55,0.45-1,1-1l0,0c0.562,0,1,0.45,1,1l0,0
	c0,0.56-0.438,1-1,1l0,0C362.251,121.453,361.801,121.013,361.801,120.453z M357.801,120.453c0-0.55,0.45-1,1-1l0,0
	c0.562,0,1,0.45,1,1l0,0c0,0.56-0.438,1-1,1l0,0C358.251,121.453,357.801,121.013,357.801,120.453z M353.801,120.453
	c0-0.55,0.45-1,1-1l0,0c0.562,0,1,0.45,1,1l0,0c0,0.56-0.438,1-1,1l0,0C354.251,121.453,353.801,121.013,353.801,120.453z
	 M349.811,120.453c0-0.55,0.44-1,1-1l0,0c0.555,0,0.99,0.45,0.99,1l0,0c0,0.56-0.438,1-0.99,1l0,0
	C350.251,121.453,349.811,121.013,349.811,120.453z M345.811,120.453c0-0.55,0.44-1,1-1l0,0c0.555,0,1,0.45,1,1l0,0
	c0,0.56-0.445,1-1,1l0,0C346.251,121.453,345.811,121.013,345.811,120.453z M341.811,120.453c0-0.55,0.44-1,1-1l0,0
	c0.555,0,1,0.45,1,1l0,0c0,0.56-0.445,1-1,1l0,0C342.251,121.453,341.811,121.013,341.811,120.453z"/>
<circle fill="#242A33" cx="300.312" cy="121.416" r="46.669"/>
<path fill="#242A33" d="M246.411,258.012c0-0.56,0.438-1,1-1l0,0c0.55,0,1,0.44,1,1l0,0c0,0.551-0.45,1-1,1l0,0
	C246.851,259.012,246.411,258.562,246.411,258.012z M242.411,258.012c0-0.56,0.448-1,1-1l0,0c0.55,0,1,0.44,1,1l0,0
	c0,0.551-0.45,1-1,1l0,0C242.859,259.012,242.411,258.562,242.411,258.012z M238.411,258.012c0-0.56,0.438-1,1-1l0,0
	c0.55,0,1,0.44,1,1l0,0c0,0.551-0.45,1-1,1l0,0C238.851,259.012,238.411,258.562,238.411,258.012z M234.411,258.012
	c0-0.56,0.438-1,1-1l0,0c0.55,0,1,0.44,1,1l0,0c0,0.551-0.45,1-1,1l0,0C234.851,259.012,234.411,258.562,234.411,258.012z
	 M230.411,258.012c0-0.56,0.448-1,1-1l0,0c0.55,0,1,0.44,1,1l0,0c0,0.551-0.45,1-1,1l0,0
	C230.859,259.012,230.411,258.562,230.411,258.012z M226.411,258.012c0-0.56,0.438-1,1-1l0,0c0.55,0,1,0.44,1,1l0,0
	c0,0.551-0.45,1-1,1l0,0C226.851,259.012,226.411,258.562,226.411,258.012z M222.411,258.012c0-0.56,0.438-1,1-1l0,0
	c0.55,0,1,0.44,1,1l0,0c0,0.551-0.45,1-1,1l0,0C222.851,259.012,222.411,258.562,222.411,258.012z M218.411,258.012
	c0-0.56,0.438-1,1-1l0,0c0.55,0,1,0.44,1,1l0,0c0,0.551-0.45,1-1,1l0,0C218.851,259.012,218.411,258.562,218.411,258.012z
	 M214.411,258.012c0-0.56,0.438-1,1-1l0,0c0.55,0,1,0.44,1,1l0,0c0,0.551-0.45,1-1,1l0,0
	C214.851,259.012,214.411,258.562,214.411,258.012z M210.411,258.012c0-0.56,0.448-1,1-1l0,0c0.55,0,1,0.44,1,1l0,0
	c0,0.551-0.45,1-1,1l0,0C210.859,259.012,210.411,258.562,210.411,258.012z M206.411,258.012c0-0.56,0.438-1,1-1l0,0
	c0.55,0,1,0.44,1,1l0,0c0,0.551-0.45,1-1,1l0,0C206.851,259.012,206.411,258.562,206.411,258.012z M202.411,258.012
	c0-0.56,0.438-1,1-1l0,0c0.55,0,1,0.44,1,1l0,0c0,0.551-0.45,1-1,1l0,0C202.851,259.012,202.411,258.562,202.411,258.012z
	 M198.411,258.012c0-0.56,0.448-1,1-1l0,0c0.55,0,1,0.44,1,1l0,0c0,0.551-0.45,1-1,1l0,0
	C198.859,259.012,198.411,258.562,198.411,258.012z M194.411,258.012c0-0.56,0.438-1,1-1l0,0c0.55,0,1,0.44,1,1l0,0
	c0,0.551-0.45,1-1,1l0,0C194.851,259.012,194.411,258.562,194.411,258.012z M190.411,258.012c0-0.56,0.438-1,1-1l0,0
	c0.55,0,1,0.44,1,1l0,0c0,0.551-0.45,1-1,1l0,0C190.851,259.012,190.411,258.562,190.411,258.012z M186.411,258.012
	c0-0.56,0.438-1,1-1l0,0c0.55,0,1,0.44,1,1l0,0c0,0.551-0.45,1-1,1l0,0C186.851,259.012,186.411,258.562,186.411,258.012z
	 M182.411,258.012c0-0.56,0.438-1,1-1l0,0c0.55,0,1,0.44,1,1l0,0c0,0.551-0.45,1-1,1l0,0
	C182.851,259.012,182.411,258.562,182.411,258.012z M178.411,258.012c0-0.56,0.448-1,1-1l0,0c0.55,0,1,0.44,1,1l0,0
	c0,0.551-0.45,1-1,1l0,0C178.859,259.012,178.411,258.562,178.411,258.012z M174.411,258.012c0-0.56,0.438-1,1-1l0,0
	c0.55,0,1,0.44,1,1l0,0c0,0.551-0.45,1-1,1l0,0C174.851,259.012,174.411,258.562,174.411,258.012z M170.411,258.012
	c0-0.56,0.438-1,1-1l0,0c0.55,0,1,0.44,1,1l0,0c0,0.551-0.45,1-1,1l0,0C170.851,259.012,170.411,258.562,170.411,258.012z
	 M166.411,258.012c0-0.56,0.448-1,1-1l0,0c0.55,0,1,0.44,1,1l0,0c0,0.551-0.45,1-1,1l0,0
	C166.859,259.012,166.411,258.562,166.411,258.012z M162.411,258.012c0-0.56,0.438-1,1-1l0,0c0.55,0,1,0.44,1,1l0,0
	c0,0.551-0.45,1-1,1l0,0C162.851,259.012,162.411,258.562,162.411,258.012z M158.411,258.012c0-0.56,0.448-1,1-1l0,0
	c0.55,0,1,0.44,1,1l0,0c0,0.551-0.45,1-1,1l0,0C158.859,259.012,158.411,258.562,158.411,258.012z M154.411,258.012
	c0-0.56,0.438-1,1-1l0,0c0.55,0,1,0.44,1,1l0,0c0,0.551-0.45,1-1,1l0,0C154.851,259.012,154.411,258.562,154.411,258.012z
	 M150.411,258.012c0-0.56,0.438-1,1-1l0,0c0.55,0,1,0.44,1,1l0,0c0,0.551-0.45,1-1,1l0,0
	C150.851,259.012,150.411,258.562,150.411,258.012z M146.411,258.012c0-0.56,0.448-1,1-1l0,0c0.55,0,1,0.44,1,1l0,0
	c0,0.551-0.45,1-1,1l0,0C146.859,259.012,146.411,258.562,146.411,258.012z M142.411,258.012c0-0.56,0.438-1,1-1l0,0
	c0.55,0,1,0.44,1,1l0,0c0,0.551-0.45,1-1,1l0,0C142.851,259.012,142.411,258.562,142.411,258.012z M138.411,258.012
	c0-0.56,0.438-1,1-1l0,0c0.55,0,1,0.44,1,1l0,0c0,0.551-0.45,1-1,1l0,0C138.851,259.012,138.411,258.562,138.411,258.012z
	 M134.411,258.012c0-0.56,0.438-1,1-1l0,0c0.55,0,1,0.44,1,1l0,0c0,0.551-0.45,1-1,1l0,0
	C134.851,259.012,134.411,258.562,134.411,258.012z M130.411,258.012c0-0.56,0.438-1,1-1l0,0c0.55,0,1,0.44,1,1l0,0
	c0,0.551-0.45,1-1,1l0,0C130.851,259.012,130.411,258.562,130.411,258.012z M250.411,257.993c-0.092-0.55,0.278-1.062,0.83-1.15l0,0
	c0.538-0.079,1.06,0.29,1.14,0.83l0,0c0.09,0.55-0.28,1.062-0.82,1.15l0,0c-0.06,0.01-0.108,0.01-0.16,0.01l0,0
	C250.921,258.833,250.491,258.482,250.411,257.993z M254.301,257.073c-0.25-0.5-0.04-1.101,0.46-1.341l0,0
	c0.49-0.239,1.09-0.029,1.33,0.461l0,0c0.25,0.5,0.04,1.1-0.45,1.34l0,0l0,0l0,0c-0.148,0.07-0.3,0.1-0.438,0.1l0,0
	C254.831,257.632,254.471,257.422,254.301,257.073z M257.751,255.062c-0.37-0.41-0.352-1.039,0.06-1.42v0.01
	c0.4-0.379,1.03-0.354,1.41,0.051l0,0c0.37,0.41,0.35,1.04-0.06,1.42l0,0c-0.19,0.17-0.432,0.26-0.682,0.26l0,0
	C258.221,255.382,257.951,255.273,257.751,255.062z M260.479,252.143c-0.47-0.276-0.63-0.891-0.35-1.369l0,0
	c0.28-0.471,0.898-0.631,1.37-0.352l0,0c0.479,0.28,0.63,0.9,0.35,1.37l0,0c-0.18,0.319-0.52,0.49-0.858,0.49l0,0
	C260.819,252.283,260.641,252.243,260.479,252.143z M262.261,248.562c-0.53-0.131-0.86-0.67-0.73-1.199v-0.01
	c0.132-0.531,0.672-0.86,1.212-0.73l0,0c0.538,0.141,0.858,0.68,0.729,1.21l0,0c-0.11,0.46-0.52,0.76-0.97,0.76l0,0
	C262.421,248.592,262.341,248.583,262.261,248.562z M261.881,243.682v-0.01c-0.03-0.55,0.4-1.01,0.95-1.04l0,0
	c0.55-0.028,1.02,0.4,1.05,0.95l0,0c0.02,0.55-0.4,1.021-0.95,1.05l0,0c-0.02,0-0.04,0-0.05,0l0,0
	C262.351,244.632,261.911,244.212,261.881,243.682z M261.161,240.052c-0.182-0.52,0.09-1.09,0.608-1.27l0,0
	c0.521-0.19,1.09,0.079,1.28,0.6l0,0l0,0l0,0c0.18,0.521-0.09,1.091-0.61,1.28l0,0c-0.108,0.04-0.229,0.061-0.34,0.061l0,0
	C261.689,240.723,261.311,240.462,261.161,240.052z M259.431,236.802c-0.33-0.448-0.24-1.079,0.21-1.399l0,0
	c0.44-0.326,1.07-0.236,1.4,0.213l0,0c0.318,0.438,0.229,1.066-0.21,1.396l0,0c-0.182,0.131-0.392,0.19-0.602,0.19l0,0
	C259.931,237.203,259.621,237.062,259.431,236.802z M256.831,234.172c-0.44-0.33-0.53-0.96-0.2-1.398l0,0
	c0.33-0.438,0.96-0.527,1.398-0.197l0,0l0,0l0,0c0.44,0.326,0.53,0.96,0.2,1.396l0,0c-0.2,0.26-0.5,0.399-0.8,0.399l0,0
	C257.221,234.373,257.011,234.302,256.831,234.172z M253.581,232.402c-0.512-0.189-0.78-0.76-0.59-1.279l0,0
	c0.188-0.52,0.77-0.79,1.278-0.6l0,0c0.521,0.188,0.79,0.77,0.602,1.289l0,0c-0.15,0.396-0.53,0.646-0.94,0.646l0,0
	C253.811,232.462,253.701,232.443,253.581,232.402z M249.971,231.652c-0.55-0.039-0.97-0.51-0.94-1.062l0,0
	c0.03-0.55,0.512-0.97,1.062-0.938l0,0l0,0l0,0c0.55,0.029,0.97,0.511,0.938,1.061l0,0c-0.038,0.53-0.479,0.939-1,0.939l0,0
	C250.011,231.652,249.991,231.652,249.971,231.652z M246.031,231.623c-0.552,0-1-0.45-1-1l0,0c0-0.55,0.448-1,1-1l0,0
	c0.55,0,1,0.45,1,1l0,0C247.031,231.172,246.581,231.623,246.031,231.623L246.031,231.623L246.031,231.623z M241.031,230.623
	c0-0.55,0.448-1,1-1l0,0c0.55,0,1,0.45,1,1l0,0c0,0.55-0.45,1-1,1l0,0C241.479,231.623,241.031,231.172,241.031,230.623z
	 M238.031,231.623c-0.562,0-1-0.45-1-1l0,0c0-0.561,0.448-1,1-1l0,0c0.55,0,1,0.45,1,1l0,0
	C239.031,231.172,238.581,231.623,238.031,231.623L238.031,231.623L238.031,231.623z M234.031,231.613c-0.552,0-1-0.44-1-1l0,0
	c0-0.551,0.448-1,1-0.99l0,0c0.55,0,1,0.439,1,1l0,0C235.031,231.172,234.581,231.613,234.031,231.613L234.031,231.613
	L234.031,231.613z M229.031,230.613c0-0.551,0.448-1,1-1l0,0c0.55,0,1,0.449,1,1l0,0c0,0.56-0.45,1-1,1l0,0
	C229.479,231.613,229.031,231.163,229.031,230.613z M225.031,230.613c0-0.551,0.448-1,1-1l0,0c0.55,0,1,0.449,1,1l0,0
	c0,0.55-0.45,1-1,1l0,0C225.479,231.613,225.031,231.163,225.031,230.613z M222.031,231.613c-0.552,0-1-0.45-1-1l0,0
	c0-0.562,0.448-1,1-1l0,0c0.55,0,1,0.449,1,1l0,0C223.031,231.163,222.581,231.613,222.031,231.613L222.031,231.613L222.031,231.613
	z M218.031,231.604c-0.552,0-1-0.438-1-0.988l0,0c0-0.562,0.448-0.999,1-0.999l0,0c0.55,0,1,0.438,1,0.999l0,0
	C219.031,231.163,218.581,231.604,218.031,231.604L218.031,231.604L218.031,231.604z M214.031,231.604c-0.552,0-1-0.438-1-1l0,0
	c0-0.552,0.448-1,1-1l0,0c0.55,0,1,0.448,1,1l0,0C215.031,231.163,214.581,231.604,214.031,231.604L214.031,231.604L214.031,231.604
	z M210.031,231.604c-0.552,0-1-0.451-1-1l0,0c0-0.552,0.448-1,1-1l0,0c0.55,0,1,0.448,1,1l0,0
	C211.031,231.152,210.581,231.604,210.031,231.604L210.031,231.604L210.031,231.604z M206.031,231.604c-0.562,0-1-0.451-1-1l0,0
	c0-0.552,0.448-1,1-1l0,0c0.55,0,1,0.448,1,1l0,0C207.031,231.152,206.581,231.604,206.031,231.604L206.031,231.604L206.031,231.604
	z M202.031,231.604c-0.552,0-1-0.451-1-1l0,0c0-0.562,0.448-1,1-1l0,0c0.55,0,1,0.448,1,1l0,0
	C203.031,231.152,202.581,231.604,202.031,231.604L202.031,231.604L202.031,231.604z M197.031,230.592c0-0.55,0.448-1,1-1l0,0
	c0.55,0,1,0.45,1,1l0,0c0,0.561-0.45,1-1,1l0,0C197.479,231.592,197.031,231.143,197.031,230.592z M193.031,230.592
	c0-0.55,0.448-1,1-1l0,0c0.55,0,1,0.45,1,1l0,0c0,0.551-0.45,1-1,1l0,0C193.479,231.592,193.031,231.143,193.031,230.592z
	 M189.031,230.592c0-0.55,0.448-1,1-1l0,0c0.55,0,1,0.45,1,1l0,0c0,0.551-0.45,1-1,1l0,0
	C189.479,231.592,189.031,231.143,189.031,230.592z M185.031,230.592c0-0.56,0.448-1,1-1l0,0c0.55,0,1,0.45,1,1l0,0
	c0,0.551-0.45,1-1,1l0,0C185.479,231.592,185.031,231.143,185.031,230.592z M181.031,230.592c0-0.56,0.448-1,1-1l0,0
	c0.55,0,1,0.44,1,1l0,0c0,0.551-0.45,1-1,1l0,0C181.479,231.592,181.031,231.143,181.031,230.592z M177.031,230.583
	c0-0.55,0.448-1,1-1l0,0c0.55,0,1,0.45,1,1l0,0c0,0.562-0.45,1-1,1l0,0C177.479,231.583,177.031,231.132,177.031,230.583z
	 M174.031,231.583c-0.552,0-1-0.45-1-1l0,0c0-0.55,0.448-1,1-1l0,0c0.55,0,1,0.45,1,1l0,0
	C175.031,231.132,174.581,231.583,174.031,231.583L174.031,231.583L174.031,231.583z M170.031,231.583c-0.552,0-1-0.45-1-1l0,0
	c0-0.55,0.448-1,1-1l0,0c0.55,0,1,0.45,1,1l0,0C171.031,231.132,170.581,231.583,170.031,231.583L170.031,231.583L170.031,231.583z
	 M166.021,231.583c-0.55-0.01-0.99-0.46-0.99-1.01l0,0c0-0.55,0.45-1,1.012-0.99l0,0c0.55,0,0.988,0.45,0.988,1l0,0
	c0,0.55-0.448,1-1,1l0,0C166.031,231.583,166.031,231.583,166.021,231.583z M161.819,231.012L161.819,231.012
	c-0.538-0.14-0.85-0.688-0.71-1.22l0,0c0.142-0.54,0.69-0.851,1.23-0.71l0,0l0,0l0,0c0.53,0.141,0.85,0.689,0.7,1.22l0,0
	c-0.12,0.45-0.521,0.75-0.96,0.75l0,0C161.991,231.052,161.899,231.033,161.819,231.012z M157.891,229.393
	c-0.479-0.271-0.64-0.881-0.37-1.356l0,0c0.28-0.479,0.892-0.649,1.37-0.37l0,0c0.48,0.271,0.642,0.88,0.37,1.357l0,0
	c-0.19,0.318-0.52,0.513-0.87,0.513l0,0C158.221,229.533,158.051,229.482,157.891,229.393z M154.511,226.842L154.511,226.842
	c-0.39-0.39-0.4-1.029-0.01-1.42l0,0c0.38-0.39,1.01-0.398,1.41-0.01l0,0c0.39,0.38,0.398,1.02,0.01,1.41l0,0
	c-0.19,0.199-0.45,0.3-0.71,0.3l0,0C154.961,227.123,154.701,227.033,154.511,226.842z M151.881,223.512L151.881,223.512
	c-0.28-0.479-0.13-1.09,0.34-1.369l0,0c0.47-0.289,1.09-0.141,1.37,0.34l0,0c0.29,0.474,0.13,1.08-0.34,1.371l0,0
	c-0.16,0.103-0.34,0.143-0.51,0.143l0,0C152.399,223.993,152.069,223.823,151.881,223.512z M150.181,219.623L150.181,219.623
	c-0.16-0.54,0.15-1.09,0.68-1.24l0,0c0.53-0.16,1.08,0.15,1.24,0.682l0,0l0,0l0,0c0.15,0.528-0.148,1.08-0.68,1.238l0,0
	c-0.09,0.021-0.19,0.04-0.28,0.04l0,0C150.701,220.342,150.301,220.052,150.181,219.623z M149.521,215.422L149.521,215.422
	c-0.01-0.55,0.42-1.01,0.972-1.02l0,0c0.56-0.021,1.02,0.42,1.028,0.97l0,0c0.021,0.55-0.42,1.01-0.97,1.03l0,0
	c-0.01,0-0.021,0-0.03,0l0,0C149.979,216.402,149.541,215.973,149.521,215.422z M150.689,212.402c-0.54-0.119-0.87-0.659-0.75-1.199
	l0,0c0.13-0.53,0.66-0.87,1.2-0.75l0,0c0.54,0.13,0.88,0.67,0.75,1.199l0,0c-0.11,0.471-0.52,0.779-0.97,0.779l0,0
	C150.841,212.432,150.771,212.422,150.689,212.402z M151.841,208.583c-0.49-0.26-0.67-0.87-0.42-1.351l0,0
	c0.26-0.489,0.87-0.684,1.35-0.42l0,0c0.49,0.25,0.682,0.856,0.42,1.351l0,0c-0.18,0.34-0.52,0.53-0.88,0.53l0,0
	C152.149,208.693,151.991,208.652,151.841,208.583z M153.931,205.172c-0.41-0.37-0.438-1.01-0.06-1.41l0,0
	c0.37-0.408,1-0.438,1.41-0.068l0,0c0.408,0.383,0.43,1.013,0.06,1.41l0,0l0,0l0,0c-0.2,0.223-0.47,0.328-0.74,0.328l0,0
	C154.359,205.432,154.121,205.342,153.931,205.172z M156.811,202.402c-0.3-0.471-0.17-1.09,0.29-1.394l0,0
	c0.47-0.3,1.09-0.17,1.38,0.304l0,0c0.312,0.461,0.17,1.08-0.29,1.381l0,0l0,0l0,0c-0.17,0.105-0.358,0.16-0.54,0.16l0,0
	C157.319,202.854,157.001,202.693,156.811,202.402z M160.291,200.443c-0.17-0.521,0.12-1.09,0.64-1.262l0,0
	c0.521-0.173,1.09,0.107,1.26,0.631l0,0c0.182,0.526-0.108,1.09-0.63,1.271l0,0c-0.108,0.03-0.21,0.05-0.318,0.05l0,0
	C160.819,201.132,160.431,200.863,160.291,200.443z M164.161,199.443c-0.03-0.551,0.39-1.03,0.938-1.062l0,0
	c0.55-0.027,1.021,0.393,1.062,0.939l0,0c0.028,0.551-0.392,1.021-0.94,1.061l0,0c-0.02,0-0.04,0-0.06,0l0,0
	C164.641,200.382,164.189,199.973,164.161,199.443z M204.161,199.354c0-0.552,0.448-1,1-1l0,0c0.55,0,1,0.448,1,1l0,0
	c0,0.549-0.45,1-1,1l0,0C204.609,200.354,204.161,199.902,204.161,199.354z M200.161,199.354c0-0.552,0.448-1,1-1l0,0
	c0.55,0,1,0.448,1,1l0,0c0,0.549-0.45,1-1,1l0,0C200.609,200.354,200.161,199.902,200.161,199.354z M196.161,199.354
	c0-0.552,0.448-1,1-1l0,0c0.55,0,1,0.448,1,1l0,0c0,0.549-0.45,1-1,1l0,0C196.609,200.354,196.161,199.902,196.161,199.354z
	 M192.161,199.354c0-0.552,0.448-1,1-1l0,0c0.55,0,1,0.448,1,1l0,0c0,0.549-0.45,1-1,1l0,0
	C192.609,200.354,192.161,199.902,192.161,199.354z M188.161,199.354c0-0.552,0.448-1,1-1l0,0c0.55,0,1,0.448,1,1l0,0
	c0,0.549-0.45,1-1,1l0,0C188.609,200.354,188.161,199.902,188.161,199.354z M184.161,199.354c0-0.552,0.448-1,1-1l0,0
	c0.55,0,1,0.448,1,1l0,0c0,0.549-0.45,1-1,1l0,0C184.609,200.354,184.161,199.902,184.161,199.354z M180.161,199.354
	c0-0.552,0.448-1,1-1l0,0c0.55,0,1,0.448,1,1l0,0c0,0.549-0.45,1-1,1l0,0C180.609,200.354,180.161,199.902,180.161,199.354z
	 M176.161,199.354c0-0.552,0.448-1,1-1l0,0c0.55,0,1,0.448,1,1l0,0c0,0.549-0.45,1-1,1l0,0
	C176.609,200.354,176.161,199.902,176.161,199.354z M172.161,199.354c0-0.552,0.448-1,1-1l0,0c0.55,0,1,0.448,1,1l0,0
	c0,0.549-0.45,1-1,1l0,0C172.609,200.354,172.161,199.902,172.161,199.354z M168.161,199.354c0-0.552,0.448-1,1-1l0,0
	c0.55,0,1,0.448,1,1l0,0c0,0.549-0.45,1-1,1l0,0C168.609,200.354,168.161,199.902,168.161,199.354z M208.161,199.382
	c-0.021-0.55,0.408-1.021,0.96-1.04l0,0c0.55-0.029,1.02,0.4,1.04,0.96l0,0c0.02,0.552-0.41,1.011-0.96,1.04l0,0
	c-0.012,0-0.03,0-0.04,0l0,0C208.631,200.342,208.181,199.922,208.161,199.382z M212.131,198.943c-0.17-0.53,0.11-1.09,0.64-1.271
	l0,0c0.521-0.17,1.09,0.11,1.26,0.641l0,0c0.172,0.521-0.108,1.09-0.64,1.264l0,0c-0.1,0.04-0.2,0.05-0.31,0.05l0,0
	C212.661,199.623,212.271,199.363,212.131,198.943z M215.831,197.422c-0.312-0.46-0.2-1.08,0.26-1.39l0,0
	c0.46-0.312,1.08-0.19,1.39,0.26l0,0c0.312,0.46,0.19,1.08-0.26,1.39l0,0l0,0l0,0c-0.18,0.12-0.37,0.185-0.57,0.185l0,0
	C216.331,197.863,216.021,197.703,215.831,197.422z M218.971,194.953c-0.43-0.36-0.479-0.99-0.13-1.41l0,0
	c0.35-0.43,0.979-0.479,1.41-0.13l0,0c0.42,0.351,0.479,0.989,0.12,1.41l0,0c-0.19,0.239-0.48,0.358-0.762,0.358l0,0
	C219.381,195.182,219.149,195.104,218.971,194.953z M221.311,191.712c-0.51-0.22-0.729-0.819-0.51-1.319l0,0
	c0.23-0.5,0.82-0.729,1.32-0.511l0,0c0.51,0.229,0.729,0.82,0.51,1.32l0,0c-0.17,0.37-0.53,0.6-0.92,0.6l0,0
	C221.581,191.802,221.439,191.773,221.311,191.712z M222.671,187.953c-0.55-0.07-0.93-0.58-0.852-1.13l0,0
	c0.08-0.54,0.58-0.921,1.132-0.851l0,0c0.55,0.076,0.93,0.576,0.85,1.131l0,0c-0.07,0.5-0.5,0.855-0.99,0.855l0,0
	C222.771,187.962,222.721,187.962,222.671,187.953z M221.951,182.973c0-0.551,0.448-1,1-1l0,0c0.55,0,1,0.449,1,1l0,0
	c0,0.551-0.45,1-1,1l0,0C222.399,183.973,221.951,183.523,221.951,182.973z M221.951,178.973c0-0.551,0.448-1,1-1l0,0
	c0.55,0,1,0.449,1,1l0,0c0,0.551-0.45,1-1,1l0,0C222.399,179.973,221.951,179.523,221.951,178.973z M221.951,174.973
	c0-0.551,0.448-1,1-1l0,0c0.55,0,1,0.449,1,1l0,0c0,0.551-0.45,1-1,1l0,0C222.399,175.973,221.951,175.523,221.951,174.973z
	 M221.951,170.973c0-0.551,0.448-1,1-1l0,0c0.55,0,1,0.449,1,1l0,0c0,0.551-0.45,1-1,1l0,0
	C222.399,171.973,221.951,171.523,221.951,170.973z M222.921,167.973c-0.55-0.021-0.98-0.479-0.96-1.029v-0.012
	c0.02-0.55,0.479-0.979,1.03-0.959l0,0c0.56,0.021,0.988,0.479,0.97,1.039l0,0c-0.021,0.54-0.47,0.961-1.01,0.961l0,0
	C222.939,167.973,222.931,167.973,222.921,167.973z M223.341,164.002c-0.53-0.17-0.82-0.74-0.65-1.26l0,0
	c0.17-0.53,0.74-0.82,1.262-0.65l0,0c0.528,0.17,0.818,0.74,0.648,1.26l0,0l0,0l0,0c-0.14,0.434-0.53,0.7-0.95,0.7l0,0
	C223.541,164.053,223.439,164.033,223.341,164.002z M224.831,160.292c-0.46-0.31-0.58-0.931-0.271-1.39l0,0
	c0.3-0.461,0.932-0.58,1.38-0.271l0,0c0.46,0.311,0.58,0.932,0.28,1.391l0,0c-0.2,0.279-0.51,0.439-0.84,0.439l0,0
	C225.189,160.462,225.001,160.402,224.831,160.292z M227.281,157.143c-0.36-0.43-0.312-1.06,0.118-1.41l0,0
	c0.42-0.356,1.052-0.31,1.41,0.11l0,0c0.352,0.421,0.3,1.05-0.12,1.41l0,0c-0.188,0.16-0.42,0.24-0.648,0.24l0,0
	C227.761,157.493,227.479,157.373,227.281,157.143z M230.501,154.771c-0.23-0.5,0-1.103,0.5-1.319l0,0
	c0.5-0.229,1.1-0.011,1.318,0.489l0,0c0.23,0.511,0.012,1.101-0.5,1.33l0,0c-0.13,0.061-0.27,0.09-0.408,0.09l0,0
	C231.031,155.363,230.671,155.143,230.501,154.771z M234.251,153.383c-0.08-0.55,0.29-1.05,0.84-1.14l0,0
	c0.55-0.07,1.06,0.3,1.14,0.85l0,0c0.08,0.55-0.3,1.05-0.85,1.13l0,0l0,0l0,0c-0.05,0.01-0.102,0.01-0.14,0.01l0,0
	C234.751,154.232,234.319,153.883,234.251,153.383z M270.229,153.083c0-0.55,0.45-1,1-1l0,0c0.55,0,1,0.45,1,1l0,0
	c0,0.55-0.45,1-1,1l0,0C270.681,154.083,270.229,153.633,270.229,153.083z M266.229,153.083c0-0.55,0.45-1,1-1l0,0
	c0.55,0,1,0.45,1,1l0,0c0,0.55-0.45,1-1,1l0,0C266.681,154.083,266.229,153.633,266.229,153.083z M262.229,153.083
	c0-0.55,0.45-1,1-1l0,0c0.55,0,1,0.45,1,1l0,0c0,0.55-0.45,1-1,1l0,0C262.681,154.083,262.229,153.633,262.229,153.083z
	 M258.229,153.083c0-0.55,0.45-1,1-1l0,0c0.55,0,1,0.45,1,1l0,0c0,0.55-0.45,1-1,1l0,0
	C258.681,154.083,258.229,153.633,258.229,153.083z M254.229,153.083c0-0.55,0.45-1,1-1l0,0c0.55,0,1,0.45,1,1l0,0
	c0,0.55-0.45,1-1,1l0,0C254.681,154.083,254.229,153.633,254.229,153.083z M250.229,153.083c0-0.55,0.45-1,1-1l0,0
	c0.551,0,1,0.45,1,1l0,0c0,0.55-0.449,1-1,1l0,0C250.681,154.083,250.229,153.633,250.229,153.083z M246.229,153.083
	c0-0.55,0.45-1,1-1l0,0c0.551,0,1,0.45,1,1l0,0c0,0.55-0.449,1-1,1l0,0C246.681,154.083,246.229,153.633,246.229,153.083z
	 M242.229,153.083c0-0.55,0.45-1,1-1l0,0c0.551,0,1,0.45,1,1l0,0c0,0.55-0.449,1-1,1l0,0
	C242.681,154.083,242.229,153.633,242.229,153.083z M238.229,153.083c0-0.55,0.45-1,1-1l0,0c0.551,0,1,0.45,1,1l0,0
	c0,0.55-0.449,1-1,1l0,0C238.681,154.083,238.229,153.633,238.229,153.083z"/>
<g>
	<path fill="#FFFFFF" d="M68.172,192.059v-13.804H36.904v60.713h0.002h46.068v-45.909H69.172
		C68.62,193.059,68.172,192.611,68.172,192.059z"/>
	<polygon fill="#FFFFFF" points="81.562,191.059 70.172,179.668 70.172,191.059 	"/>
	<path fill="#242A33" d="M84.896,191.672c-0.051-0.121-0.125-0.23-0.216-0.322l-14.799-14.799c-0.092-0.093-0.203-0.168-0.327-0.219
		c-0.001-0.001-0.003,0-0.005-0.001c-0.117-0.048-0.244-0.076-0.377-0.076c-0.002,0-0.003,0.001-0.005,0.001l-33.261-0.001
		c-0.267,0-0.521,0.106-0.707,0.293c-0.188,0.187-0.293,0.44-0.293,0.707v62.713c0,0.554,0.446,1,1,1h48.068
		c0.552,0,1-0.446,0.999-1v-47.909C84.975,191.924,84.946,191.793,84.896,191.672z M70.172,179.67l11.389,11.389H70.172V179.67z
		 M36.906,238.968v-60.713l31.266,0.001v13.803c0,0.553,0.448,1,1,1h13.803v45.909H36.906z"/>
	<path fill="#242A33" d="M48.998,218.393c0-0.307,0.082-0.539,0.246-0.692c0.164-0.156,0.401-0.236,0.718-0.236
		c0.304,0,0.537,0.081,0.704,0.242s0.249,0.394,0.249,0.688c0,0.289-0.084,0.518-0.252,0.684s-0.402,0.249-0.701,0.249
		c-0.309,0-0.544-0.081-0.712-0.243C49.083,218.918,48.998,218.688,48.998,218.393z"/>
	<path fill="#242A33" d="M54.807,216.049l-1.972-2.996h1.896l1.188,1.949l1.2-1.949h1.894l-1.994,2.996l2.087,3.127h-1.898
		l-1.287-2.098l-1.293,2.098h-1.896L54.807,216.049z"/>
	<path fill="#242A33" d="M62.83,219.176h-1.67v-8.521h1.67V219.176z"/>
	<path fill="#242A33" d="M69.976,217.357c0,0.627-0.218,1.104-0.654,1.435c-0.436,0.329-1.089,0.493-1.958,0.493
		c-0.444,0-0.823-0.03-1.14-0.09c-0.312-0.062-0.606-0.149-0.882-0.266v-1.384c0.311,0.146,0.66,0.271,1.049,0.367
		c0.389,0.096,0.731,0.146,1.027,0.146c0.604,0,0.909-0.175,0.909-0.522c0-0.134-0.04-0.238-0.12-0.32s-0.221-0.175-0.416-0.276
		c-0.197-0.104-0.46-0.228-0.788-0.363c-0.471-0.197-0.817-0.381-1.038-0.549c-0.221-0.168-0.381-0.36-0.481-0.577
		c-0.1-0.218-0.149-0.485-0.149-0.804c0-0.543,0.211-0.963,0.632-1.264c0.422-0.298,1.02-0.443,1.794-0.443
		c0.737,0,1.455,0.16,2.152,0.479l-0.504,1.205c-0.309-0.131-0.595-0.239-0.86-0.324c-0.268-0.084-0.538-0.126-0.816-0.126
		c-0.493,0-0.737,0.137-0.737,0.4c0,0.148,0.079,0.277,0.237,0.389c0.158,0.111,0.506,0.271,1.043,0.487
		c0.479,0.192,0.829,0.374,1.054,0.543c0.223,0.168,0.387,0.358,0.491,0.581C69.923,216.794,69.976,217.055,69.976,217.357z"/>
	<path fill="#FFFFFF" d="M110.737,233.846v-13.805H79.472v60.713h0.001h46.069v-45.908h-13.805
		C111.187,234.846,110.737,234.396,110.737,233.846z"/>
	<polygon fill="#FFFFFF" points="124.128,232.846 112.737,221.454 112.737,232.846 	"/>
	<path fill="#242A33" d="M87.762,260.178c0-0.306,0.082-0.537,0.246-0.695c0.164-0.152,0.403-0.232,0.718-0.232
		c0.303,0,0.537,0.081,0.703,0.242c0.166,0.158,0.25,0.391,0.25,0.688c0,0.288-0.084,0.516-0.252,0.682
		c-0.168,0.166-0.402,0.248-0.701,0.248c-0.306,0-0.544-0.076-0.712-0.239S87.762,260.475,87.762,260.178z"/>
	<path fill="#242A33" d="M93.569,257.835l-1.972-2.996h1.896l1.188,1.949l1.199-1.949h1.895l-1.991,2.996l2.087,3.127h-1.9
		l-1.287-2.098l-1.292,2.098h-1.895L93.569,257.835z"/>
	<path fill="#242A33" d="M101.593,260.962h-1.671v-8.521h1.671V260.962z"/>
	<path fill="#242A33" d="M108.74,259.143c0,0.629-0.221,1.106-0.655,1.438c-0.438,0.329-1.089,0.489-1.958,0.489
		c-0.445,0-0.825-0.026-1.14-0.09c-0.313-0.06-0.607-0.146-0.882-0.265v-1.381c0.312,0.146,0.66,0.269,1.049,0.367
		c0.391,0.098,0.731,0.147,1.027,0.147c0.606,0,0.909-0.177,0.909-0.524c0-0.132-0.04-0.238-0.12-0.32
		c-0.08-0.082-0.219-0.175-0.416-0.278c-0.197-0.103-0.461-0.226-0.789-0.365c-0.471-0.193-0.814-0.379-1.038-0.547
		c-0.221-0.168-0.381-0.358-0.48-0.578c-0.103-0.217-0.15-0.481-0.15-0.803c0-0.543,0.211-0.963,0.633-1.262
		c0.422-0.298,1.021-0.447,1.794-0.447c0.737,0,1.455,0.162,2.152,0.482l-0.504,1.205c-0.306-0.131-0.594-0.239-0.86-0.323
		s-0.538-0.126-0.813-0.126c-0.493,0-0.739,0.135-0.739,0.4c0,0.149,0.079,0.279,0.238,0.389c0.157,0.109,0.507,0.271,1.043,0.486
		c0.479,0.195,0.829,0.375,1.052,0.543c0.222,0.169,0.387,0.363,0.493,0.582C108.687,258.58,108.74,258.84,108.74,259.143z"/>
	<path fill="#242A33" d="M112.419,257.835l-1.974-2.996h1.896l1.188,1.949l1.199-1.949h1.896l-1.993,2.996l2.087,3.127h-1.901
		l-1.287-2.098l-1.292,2.098h-1.895L112.419,257.835z"/>
	<path fill="#242A33" d="M127.464,233.459c-0.051-0.121-0.124-0.23-0.216-0.322l-14.799-14.799
		c-0.182-0.184-0.433-0.298-0.712-0.298c-0.002,0-0.003,0.001-0.005,0.001L78.47,218.04c-0.265,0-0.519,0.106-0.707,0.293
		s-0.293,0.44-0.293,0.707v62.714c0,0.553,0.448,1,1,1h48.07c0.552,0,1-0.447,1-1v-47.91
		C127.542,233.71,127.515,233.58,127.464,233.459z M112.737,221.454l11.391,11.39h-11.391V221.454z M79.472,280.754V220.04
		l31.267,0.001v13.803c0,0.553,0.448,1,1,1h13.805v45.91H79.472z"/>
	<path fill="#FFFFFF" d="M45.445,245.499v-13.804H14.18v60.713h0.001H60.25v-45.909H46.445
		C45.895,246.499,45.445,246.052,45.445,245.499z"/>
	<polygon fill="#FFFFFF" points="58.836,244.499 47.445,233.107 47.445,244.499 	"/>
	<path fill="#242A33" d="M25.15,271.832c0-0.307,0.082-0.538,0.246-0.695c0.164-0.156,0.403-0.236,0.719-0.236
		c0.303,0,0.536,0.082,0.702,0.242c0.167,0.162,0.249,0.395,0.249,0.689c0,0.289-0.084,0.516-0.252,0.682
		c-0.167,0.166-0.4,0.25-0.699,0.25c-0.308,0-0.546-0.082-0.714-0.244C25.234,272.357,25.15,272.128,25.15,271.832z"/>
	<path fill="#242A33" d="M32.191,272.725c-1.904,0-2.857-1.045-2.857-3.139c0-1.041,0.259-1.835,0.775-2.385
		c0.521-0.549,1.264-0.824,2.229-0.824c0.709,0,1.344,0.139,1.907,0.416l-0.493,1.293c-0.265-0.105-0.508-0.191-0.735-0.26
		c-0.226-0.068-0.453-0.102-0.68-0.102c-0.868,0-1.303,0.614-1.303,1.852c0,1.197,0.434,1.796,1.303,1.796
		c0.322,0,0.619-0.043,0.893-0.129c0.274-0.087,0.548-0.22,0.821-0.402v1.429c-0.27,0.172-0.543,0.291-0.818,0.357
		C32.961,272.693,32.611,272.725,32.191,272.725z"/>
	<path fill="#242A33" d="M40.867,270.797c0,0.628-0.22,1.105-0.654,1.436c-0.438,0.328-1.089,0.492-1.958,0.492
		c-0.445,0-0.825-0.029-1.139-0.091c-0.314-0.06-0.608-0.149-0.884-0.265v-1.381c0.312,0.146,0.66,0.269,1.051,0.367
		c0.388,0.098,0.729,0.146,1.025,0.146c0.606,0,0.909-0.174,0.909-0.524c0-0.131-0.04-0.238-0.121-0.317
		c-0.08-0.082-0.219-0.179-0.416-0.279c-0.198-0.104-0.46-0.228-0.789-0.362c-0.471-0.197-0.815-0.382-1.038-0.55
		c-0.221-0.168-0.381-0.358-0.479-0.575c-0.103-0.22-0.15-0.484-0.15-0.805c0-0.544,0.21-0.964,0.631-1.262
		c0.423-0.301,1.021-0.447,1.794-0.447c0.738,0,1.455,0.161,2.153,0.48l-0.504,1.205c-0.307-0.131-0.593-0.237-0.859-0.322
		c-0.267-0.085-0.539-0.128-0.815-0.128c-0.493,0-0.739,0.136-0.739,0.399c0,0.149,0.08,0.279,0.239,0.389
		c0.156,0.109,0.507,0.271,1.043,0.488c0.478,0.192,0.828,0.373,1.052,0.543c0.222,0.168,0.387,0.36,0.493,0.58
		C40.812,270.234,40.867,270.494,40.867,270.797z"/>
	<path fill="#242A33" d="M44.749,272.615l-2.333-6.123h1.747l1.183,3.488c0.132,0.438,0.213,0.856,0.246,1.254h0.033
		c0.018-0.353,0.101-0.771,0.247-1.254l1.177-3.488h1.747l-2.333,6.123H44.749z"/>
	<path fill="#242A33" d="M62.171,245.111c-0.032-0.077-0.087-0.139-0.137-0.205c-0.028-0.037-0.043-0.081-0.077-0.114
		l-14.804-14.803c-0.091-0.093-0.2-0.165-0.321-0.216s-0.252-0.078-0.387-0.078H13.18c-0.265,0-0.519,0.104-0.707,0.293
		c-0.188,0.187-0.293,0.441-0.293,0.707v62.713c0,0.553,0.448,1,1,1h48.069c0.552,0,1-0.448,1.001-1v-47.909
		C62.25,245.363,62.222,245.232,62.171,245.111z M47.444,233.107l11.391,11.392H47.444V233.107z M14.18,292.408L14.18,292.408
		l-0.001-60.713h31.267v13.804c0,0.553,0.448,1,1,1H60.25v45.909H14.18z"/>
</g>
<path fill="#242A33" d="M81.751,143.953c-0.03-0.551,0.398-1.02,0.95-1.051l0,0c0.55-0.02,1.02,0.4,1.05,0.951l0,0
	c0.02,0.56-0.4,1.02-0.95,1.049l0,0c-0.02,0-0.04,0-0.05,0l0,0C82.221,144.902,81.771,144.482,81.751,143.953z M78.631,144.732
	c-0.55-0.08-0.93-0.58-0.86-1.121l0,0c0.07-0.549,0.57-0.939,1.12-0.869l0,0c0.55,0.07,0.93,0.58,0.86,1.119l0,0
	c-0.07,0.511-0.5,0.871-0.99,0.871l0,0C78.721,144.732,78.671,144.732,78.631,144.732z M85.729,143.593
	c-0.12-0.54,0.21-1.079,0.75-1.2l0,0c0.54-0.129,1.08,0.211,1.2,0.75l0,0c0.12,0.541-0.21,1.07-0.75,1.2l0,0
	c-0.08,0.021-0.15,0.021-0.22,0.021l0,0C86.251,144.363,85.841,144.053,85.729,143.593z M74.561,143.823
	c-0.53-0.171-0.818-0.74-0.648-1.261l0,0c0.17-0.529,0.729-0.819,1.26-0.649l0,0c0.52,0.17,0.81,0.729,0.64,1.26l0,0
	c-0.13,0.42-0.52,0.69-0.95,0.69l0,0C74.761,143.863,74.661,143.854,74.561,143.823z M89.581,142.521
	c-0.21-0.51,0.02-1.09,0.528-1.31l0,0c0.512-0.22,1.092,0.011,1.312,0.521l0,0c0.22,0.51-0.021,1.1-0.521,1.319l0,0
	c-0.13,0.05-0.26,0.08-0.398,0.08l0,0C90.121,143.133,89.751,142.902,89.581,142.521z M70.711,142.191
	c-0.49-0.26-0.67-0.859-0.41-1.35l0,0c0.26-0.49,0.86-0.67,1.35-0.41l0,0c0.49,0.259,0.67,0.86,0.42,1.35l0,0
	c-0.18,0.34-0.528,0.53-0.89,0.53l0,0C71.021,142.312,70.859,142.271,70.711,142.191z M93.181,140.783
	c-0.3-0.46-0.17-1.08,0.29-1.38l0,0c0.46-0.31,1.08-0.18,1.38,0.28l0,0c0.312,0.46,0.18,1.081-0.28,1.39l0,0l0,0l0,0
	c-0.17,0.11-0.358,0.159-0.55,0.159l0,0C93.701,141.232,93.381,141.073,93.181,140.783z M67.221,139.913
	c-0.438-0.34-0.51-0.97-0.17-1.4l0,0c0.35-0.44,0.97-0.51,1.41-0.17l0,0c0.43,0.34,0.5,0.97,0.16,1.41l0,0
	c-0.19,0.25-0.49,0.38-0.78,0.38l0,0C67.621,140.133,67.399,140.062,67.221,139.913z M96.421,138.442c-0.38-0.4-0.37-1.04,0.03-1.42
	l0,0c0.398-0.38,1.04-0.37,1.42,0.03l0,0c0.38,0.4,0.358,1.04-0.04,1.42l0,0c-0.19,0.18-0.44,0.28-0.69,0.28l0,0
	C96.881,138.752,96.621,138.643,96.421,138.442z M64.189,137.053c-0.37-0.42-0.34-1.05,0.08-1.41l0,0c0.41-0.37,1.05-0.33,1.41,0.08
	l0,0c0.37,0.41,0.33,1.05-0.08,1.41l0,0c-0.188,0.17-0.43,0.25-0.67,0.25l0,0C64.661,137.383,64.381,137.272,64.189,137.053z
	 M99.189,135.553c-0.448-0.32-0.54-0.95-0.22-1.4l0,0c0.33-0.44,0.95-0.54,1.4-0.21l0,0c0.438,0.32,0.54,0.95,0.22,1.4l0,0
	c-0.2,0.26-0.5,0.4-0.811,0.4l0,0C99.569,135.743,99.371,135.683,99.189,135.553z M61.711,133.692c0,0,0,0-0.01,0l0,0
	c-0.28-0.47-0.132-1.08,0.34-1.37l0,0c0.47-0.29,1.08-0.14,1.37,0.33v0.01c0.29,0.46,0.14,1.08-0.33,1.37l0,0
	c-0.16,0.1-0.34,0.14-0.521,0.14l0,0C62.221,134.173,61.891,134.002,61.711,133.692z M101.411,132.223
	c-0.5-0.24-0.71-0.84-0.472-1.33l0,0c0.25-0.5,0.84-0.71,1.34-0.46l0,0c0.5,0.24,0.7,0.84,0.462,1.33l0,0
	c-0.172,0.36-0.53,0.56-0.9,0.56l0,0C101.701,132.323,101.551,132.292,101.411,132.223z M59.859,129.953
	c-0.198-0.51,0.062-1.09,0.57-1.29l0,0c0.521-0.2,1.102,0.06,1.29,0.57h0.01c0.19,0.52-0.06,1.1-0.58,1.3l0,0
	c-0.118,0.04-0.238,0.06-0.358,0.06l0,0C60.391,130.593,60.011,130.353,59.859,129.953z M102.991,128.553
	c-0.53-0.15-0.842-0.7-0.69-1.229l0,0c0.15-0.53,0.7-0.84,1.229-0.69l0,0c0.54,0.15,0.852,0.7,0.7,1.23l0,0l0,0l0,0
	c-0.13,0.44-0.528,0.729-0.97,0.729l0,0C103.171,128.593,103.081,128.583,102.991,128.553z M58.711,125.942
	c-0.102-0.54,0.25-1.06,0.79-1.17l0,0c0.55-0.1,1.068,0.25,1.18,0.8l0,0c0.102,0.54-0.26,1.06-0.8,1.17l0,0
	c-0.062,0.01-0.13,0.02-0.19,0.02l0,0C59.221,126.763,58.801,126.423,58.711,125.942z M103.899,124.663
	c-0.55-0.05-0.948-0.54-0.898-1.09l0,0c0.05-0.55,0.54-0.95,1.09-0.9l0,0c0.55,0.05,0.95,0.54,0.9,1.09l0,0
	c-0.052,0.52-0.49,0.9-1,0.9l0,0C103.961,124.663,103.931,124.663,103.899,124.663z M58.301,121.792c-0.01-0.55,0.43-1,0.99-1.01
	l0,0c0.55,0,1,0.44,1.01,0.99l0,0c0,0.55-0.44,1.01-0.99,1.01l0,0h-0.01l0,0C58.751,122.783,58.301,122.343,58.301,121.792z
	 M103.091,119.673c0-0.55,0.45-1,1-1l0,0c0.56,0,1,0.45,1,1l0,0c0,0.55-0.44,1-1,1l0,0
	C103.541,120.673,103.091,120.223,103.091,119.673z M58.291,117.783c0-0.55,0.45-1,1.01-1l0,0c0.55,0,0.99,0.45,0.99,1l0,0
	c0,0.55-0.44,1-0.99,1l0,0C58.741,118.783,58.291,118.333,58.291,117.783z M103.091,115.673c0-0.55,0.45-1,1-1l0,0
	c0.56,0,1,0.45,1,1l0,0c0,0.55-0.44,1-1,1l0,0C103.541,116.673,103.091,116.223,103.091,115.673z M58.291,113.783
	c0-0.55,0.45-1,1.01-1l0,0c0.55,0,0.99,0.45,0.99,1l0,0c0,0.55-0.44,1-0.99,1l0,0C58.741,114.783,58.291,114.333,58.291,113.783z
	 M103.091,111.673c0-0.55,0.45-1,1-1l0,0c0.56,0,1,0.45,1,1l0,0c0,0.55-0.44,1-1,1l0,0
	C103.541,112.673,103.091,112.223,103.091,111.673z M58.291,109.783c0-0.55,0.45-1,1.01-1l0,0c0.55,0,0.99,0.45,0.99,1l0,0
	c0,0.55-0.44,1-0.99,1l0,0C58.741,110.783,58.291,110.333,58.291,109.783z M104.149,108.673c-0.55-0.07-0.938-0.57-0.87-1.12l0,0
	c0.07-0.54,0.57-0.93,1.12-0.87l0,0c0.552,0.07,0.94,0.58,0.87,1.12l0,0c-0.068,0.51-0.5,0.88-1,0.88l0,0
	C104.229,108.683,104.189,108.683,104.149,108.673z M58.291,105.783c0-0.55,0.45-1,1.01-1l0,0c0.55,0,0.99,0.45,0.99,1l0,0
	c0,0.55-0.44,1-0.99,1l0,0C58.741,106.783,58.291,106.333,58.291,105.783z M104.819,104.732c-0.52-0.16-0.818-0.72-0.658-1.25l0,0
	c0.17-0.53,0.729-0.83,1.26-0.66l0,0c0.52,0.16,0.82,0.72,0.648,1.25l0,0c-0.13,0.43-0.528,0.71-0.948,0.71l0,0
	C105.021,104.772,104.921,104.763,104.819,104.732z M58.291,101.783c0-0.55,0.45-1,1.01-1l0,0c0.55,0,0.99,0.45,0.99,1l0,0
	c0,0.55-0.44,1-0.99,1l0,0C58.741,102.783,58.291,102.333,58.291,101.783z M106.171,100.973c-0.49-0.26-0.68-0.86-0.43-1.35h0.01
	c0.25-0.49,0.85-0.68,1.34-0.43l0,0c0.49,0.25,0.68,0.86,0.43,1.35l0,0c-0.18,0.34-0.528,0.54-0.89,0.54l0,0
	C106.479,101.083,106.319,101.042,106.171,100.973z M58.291,97.783c0-0.55,0.45-1,1.01-1l0,0c0.55,0,0.99,0.45,0.99,1l0,0
	c0,0.55-0.44,1-0.99,1l0,0C58.741,98.783,58.291,98.333,58.291,97.783z M108.161,97.502c-0.44-0.34-0.521-0.96-0.19-1.4l0,0
	c0.34-0.44,0.96-0.53,1.4-0.19l0,0c0.438,0.33,0.528,0.96,0.188,1.4l0,0c-0.188,0.26-0.49,0.39-0.79,0.39l0,0
	C108.551,97.703,108.341,97.643,108.161,97.502z M58.291,93.783c0-0.55,0.45-1,1.01-1l0,0c0.55,0,0.99,0.45,0.99,1l0,0
	c0,0.55-0.44,1-0.99,1l0,0C58.741,94.783,58.291,94.333,58.291,93.783z M110.721,94.433c-0.37-0.41-0.35-1.04,0.06-1.42l0,0
	c0.4-0.37,1.03-0.34,1.41,0.06l0,0c0.37,0.41,0.352,1.04-0.06,1.41l0,0l0,0l0,0c-0.19,0.18-0.43,0.27-0.68,0.27l0,0
	C111.189,94.752,110.921,94.643,110.721,94.433z M113.771,91.853c-0.3-0.47-0.16-1.09,0.3-1.39l0,0c0.472-0.3,1.092-0.16,1.382,0.3
	l0,0c0.3,0.47,0.17,1.09-0.302,1.39l0,0c0,0,0,0,0.012,0l0,0c-0.17,0.1-0.36,0.15-0.552,0.15l0,0
	C114.291,92.303,113.961,92.143,113.771,91.853z M58.291,89.783c0-0.55,0.45-1,1.01-1l0,0c0.55,0,0.99,0.45,0.99,1l0,0
	c0,0.55-0.44,1-0.99,1l0,0C58.741,90.783,58.291,90.333,58.291,89.783z M117.229,89.833c-0.22-0.51,0.021-1.1,0.53-1.31l0,0
	c0.51-0.21,1.1,0.03,1.31,0.54l0,0c0.21,0.51-0.028,1.09-0.54,1.31l0,0c-0.118,0.05-0.25,0.07-0.38,0.07l0,0
	C117.761,90.442,117.391,90.212,117.229,89.833z M120.979,88.453c-0.12-0.54,0.222-1.08,0.762-1.2v0.01
	c0.528-0.13,1.068,0.21,1.188,0.75l0,0c0.12,0.54-0.22,1.08-0.76,1.2l0,0c-0.07,0.01-0.141,0.02-0.22,0.02l0,0
	C121.501,89.232,121.081,88.913,120.979,88.453z M124.911,87.752c-0.021-0.55,0.398-1.02,0.96-1.05l0,0
	c0.55-0.02,1.02,0.4,1.04,0.96l0,0c0.028,0.54-0.4,1.01-0.95,1.04l0,0l0,0l0,0c-0.021,0-0.03,0-0.05,0l0,0
	C125.381,88.703,124.939,88.283,124.911,87.752z M128.911,87.673c0-0.55,0.448-1,1-1l0,0c0.55,0,1,0.45,1,1l0,0c0,0.55-0.44,1-1,1
	l0,0C129.359,88.673,128.911,88.232,128.911,87.673z M132.911,87.673c0-0.55,0.448-1,1-1l0,0c0.55,0,1,0.44,1,1l0,0
	c0,0.55-0.44,1-1,1l0,0C133.359,88.673,132.911,88.223,132.911,87.673z M136.911,87.673c0-0.56,0.448-1.01,1-1.01l0,0
	c0.55,0,1,0.45,1,1l0,0c0,0.56-0.44,1-1,1l0,0C137.359,88.663,136.911,88.223,136.911,87.673z M140.911,87.663c0-0.55,0.448-1,1-1
	l0,0c0.55,0,1,0.45,1,1l0,0c0,0.55-0.44,1-1,1l0,0C141.359,88.663,140.911,88.212,140.911,87.663z M144.911,87.663
	c0-0.56,0.448-1,1-1l0,0c0.55-0.01,1,0.44,1,0.99l0,0c0,0.56-0.44,1-1,1l0,0C145.359,88.663,144.911,88.212,144.911,87.663z
	 M148.911,87.653c0-0.55,0.448-1,1-1l0,0c0.55,0,1,0.45,1,1l0,0c0,0.55-0.44,1-1,1l0,0
	C149.359,88.653,148.911,88.203,148.911,87.653z M152.911,87.653c0-0.55,0.448-1,1-1l0,0c0.55,0,1,0.44,1,1l0,0c0,0.55-0.44,1-1,1
	l0,0C153.359,88.653,152.911,88.203,152.911,87.653z M156.911,87.643c0-0.55,0.448-1,1-1l0,0c0.55,0,1,0.45,1,1l0,0
	c0,0.55-0.44,1-1,1l0,0C157.359,88.643,156.911,88.203,156.911,87.643z M160.911,87.643c0-0.55,0.448-1,1-1l0,0c0.55,0,1,0.45,1,1
	l0,0c0,0.55-0.44,1-1,1l0,0C161.359,88.643,160.911,88.192,160.911,87.643z M164.911,87.633c0-0.55,0.448-1,1-1l0,0
	c0.55,0,1,0.45,1,1l0,0c0,0.55-0.44,1-1,1l0,0C165.359,88.633,164.911,88.192,164.911,87.633z M168.911,87.633c0-0.55,0.448-1,1-1
	l0,0c0.55,0,1,0.45,1,1l0,0c0,0.55-0.44,1-1,1l0,0C169.359,88.633,168.911,88.183,168.911,87.633z M172.911,87.633
	c0-0.56,0.448-1,1-1l0,0c0.55,0,1,0.44,1,0.99l0,0c0,0.56-0.44,1.01-1,1.01l0,0C173.359,88.633,172.911,88.183,172.911,87.633z
	 M176.911,87.623c0-0.55,0.448-1,1-1l0,0c0.55,0,1,0.45,1,1l0,0c0,0.55-0.44,1-1,1l0,0
	C177.359,88.623,176.911,88.173,176.911,87.623z M180.911,87.623c0-0.55,0.448-1,1-1l0,0c0.55,0,1,0.44,1,1l0,0c0,0.55-0.45,1-1,1
	l0,0C181.359,88.623,180.911,88.173,180.911,87.623z M184.911,87.613c0-0.55,0.448-1,1-1l0,0c0.55,0,1,0.45,1,1l0,0
	c0,0.55-0.44,1-1,1l0,0C185.359,88.613,184.911,88.173,184.911,87.613z M188.911,87.613c0-0.55,0.448-1,1-1l0,0c0.55,0,1,0.44,1,1
	l0,0c0,0.55-0.44,1-1,1l0,0C189.359,88.613,188.911,88.163,188.911,87.613z M192.911,87.613c0-0.56,0.448-1,1-1l0,0
	c0.55-0.01,1,0.44,1,0.99l0,0c0,0.56-0.44,1-1,1l0,0C193.359,88.613,192.911,88.163,192.911,87.613z M196.911,87.603
	c0-0.55,0.448-1,1-1l0,0c0.55,0,1,0.45,1,1l0,0c0,0.55-0.44,1-1,1l0,0C197.359,88.603,196.911,88.153,196.911,87.603z
	 M200.911,87.603c0-0.56,0.448-1,1-1.01l0,0c0.55,0,1,0.45,1,1l0,0c0,0.56-0.44,1-1,1l0,0
	C201.359,88.603,200.911,88.153,200.911,87.603z M204.911,87.593c0-0.55,0.448-1,1-1l0,0c0.55,0,1,0.45,1,1l0,0c0,0.55-0.44,1-1,1
	l0,0C205.359,88.593,204.911,88.153,204.911,87.593z M208.911,87.593c0-0.55,0.448-1,1-1l0,0c0.55,0,1,0.44,1,1l0,0
	c0,0.55-0.44,1-1,1l0,0C209.359,88.593,208.911,88.143,208.911,87.593z M212.911,87.583c0-0.55,0.448-1,1-1l0,0c0.55,0,1,0.45,1,1
	l0,0c0,0.55-0.44,1-1,1l0,0C213.359,88.583,212.911,88.143,212.911,87.583z M216.911,87.583c0-0.55,0.448-1,1-1l0,0
	c0.55,0,1,0.45,1,1l0,0c0,0.55-0.44,1-1,1l0,0C217.359,88.583,216.911,88.133,216.911,87.583z M220.911,87.583
	c0-0.56,0.448-1.01,1-1.01l0,0c0.55,0,1,0.45,1,1l0,0c0,0.56-0.44,1-1,1l0,0C221.359,88.573,220.911,88.133,220.911,87.583z
	 M224.911,87.573c0-0.55,0.448-1,1-1l0,0c0.55,0,1,0.45,1,1l0,0c0,0.55-0.44,1-1,1l0,0
	C225.359,88.573,224.911,88.123,224.911,87.573z M228.911,87.573c0-0.55,0.448-1,1-1l0,0c0.55-0.01,1,0.44,1,1l0,0
	c0,0.55-0.44,0.99-1,1l0,0C229.359,88.573,228.911,88.123,228.911,87.573z M232.911,87.562c0-0.55,0.448-1,1-1l0,0
	c0.55,0,1,0.45,1,1l0,0c0,0.55-0.44,1-1,1l0,0C233.359,88.562,232.911,88.113,232.911,87.562z M236.911,87.562c0-0.55,0.448-1,1-1
	l0,0c0.55,0,1,0.44,1,0.99l0,0c0,0.56-0.44,1.01-1,1.01l0,0C237.359,88.562,236.911,88.113,236.911,87.562z M240.911,87.553
	c0-0.55,0.448-1,1-1l0,0c0.55,0,1,0.45,1,1l0,0c0,0.55-0.44,1-1,1l0,0C241.359,88.553,240.911,88.113,240.911,87.553z
	 M244.911,87.553c0-0.55,0.448-1,1-1l0,0c0.55,0,1,0.44,1,1l0,0c0,0.55-0.44,1-1,1l0,0
	C245.359,88.553,244.911,88.103,244.911,87.553z M248.911,87.542c0-0.55,0.448-0.99,1-1l0,0c0.55,0,1,0.45,1,1l0,0
	c0,0.55-0.44,1-1,1l0,0C249.359,88.553,248.911,88.103,248.911,87.542z M252.911,87.542c0-0.55,0.448-1,1-1l0,0c0.55,0,1,0.45,1,1
	l0,0c0,0.55-0.44,1-1,1l0,0C253.359,88.542,252.911,88.093,252.911,87.542z M256.911,87.542c0-0.56,0.448-1,1-1l0,0
	c0.55,0,1,0.44,1,0.99l0,0c0,0.56-0.44,1.01-1,1.01l0,0C257.359,88.542,256.911,88.093,256.911,87.542z M260.911,87.533
	c0-0.55,0.448-1,1-1l0,0c0.55,0,1,0.45,1,1l0,0c0,0.55-0.44,1-1,1l0,0C261.359,88.533,260.911,88.083,260.911,87.533z
	 M264.911,87.533c0-0.55,0.448-1,1-1l0,0c0.55,0,1,0.44,1,1l0,0c0,0.55-0.44,1-1,1l0,0
	C265.359,88.533,264.911,88.083,264.911,87.533z M268.911,87.522c0-0.55,0.448-1,1-1l0,0c0.55,0,1,0.45,1,1l0,0c0,0.55-0.44,1-1,1
	l0,0C269.359,88.522,268.911,88.083,268.911,87.522z M272.911,87.522c0-0.55,0.448-1,1-1l0,0c0.55,0,1,0.45,1,1l0,0
	c0,0.55-0.44,1-1,1l0,0C273.359,88.522,272.911,88.073,272.911,87.522z M58.291,85.783c0-0.55,0.45-1,1.01-1l0,0
	c0.55,0,0.99,0.45,0.99,1l0,0c0,0.55-0.44,1-0.99,1l0,0C58.741,86.783,58.291,86.333,58.291,85.783z M58.291,81.783
	c0-0.55,0.45-1,1.01-1l0,0c0.55,0,0.99,0.45,0.99,1l0,0c0,0.55-0.44,1-0.99,1l0,0C58.741,82.783,58.291,82.333,58.291,81.783z
	 M58.291,77.783c0-0.55,0.45-1,1.01-1l0,0c0.55,0,0.99,0.45,0.99,1l0,0c0,0.55-0.44,1-0.99,1l0,0
	C58.741,78.783,58.291,78.333,58.291,77.783z M58.291,73.783c0-0.55,0.45-1,1.01-1l0,0c0.55,0,0.99,0.45,0.99,1l0,0
	c0,0.55-0.44,1-0.99,1l0,0C58.741,74.783,58.291,74.333,58.291,73.783z"/>
<g>
	<rect x="411.494" y="41.208" fill="#FFFFFF" width="164.162" height="218.256"/>
	<rect x="424.551" y="55.481" fill="#FFFFFF" width="138.061" height="77.429"/>
	<rect x="424.551" y="148.605" fill="#FFFFFF" width="138.061" height="77.43"/>
	<rect x="424.551" y="241.732" fill="#FFFFFF" width="138.061" height="17.729"/>
	<path fill="#242A33" d="M572.92,289.416H414.234c-8.218,0-14.896-6.697-14.896-14.93V26.189c0-8.231,6.687-14.928,14.896-14.928
		H572.92c8.216,0,14.9,6.697,14.9,14.928v248.297C587.82,282.718,581.136,289.416,572.92,289.416z M414.234,13.262
		c-7.111,0-12.896,5.799-12.896,12.928v248.296c0,7.13,5.785,12.93,12.896,12.93H572.92c7.113,0,12.9-5.8,12.9-12.93V26.189
		c0-7.128-5.787-12.928-12.9-12.928H414.234V13.262z M493.583,282.743c-4.144,0-7.515-3.377-7.515-7.527
		c0-4.142,3.371-7.511,7.515-7.511c4.135,0,7.498,3.369,7.498,7.511C501.081,279.366,497.718,282.743,493.583,282.743z
		 M493.583,269.705c-3.041,0-5.515,2.472-5.515,5.511c0,3.048,2.474,5.527,5.515,5.527c3.031,0,5.498-2.479,5.498-5.527
		C499.081,272.176,496.614,269.705,493.583,269.705z M577.656,261.464H409.494V39.208h168.162V261.464z M411.494,259.464h164.162
		V41.208H411.494V259.464z M493.583,30.18c-1.855,0-3.365-1.556-3.365-3.469c0-1.916,1.511-3.474,3.365-3.474
		c1.85,0,3.354,1.558,3.354,3.474C496.938,28.624,495.433,30.18,493.583,30.18z M493.583,25.237c-0.753,0-1.365,0.661-1.365,1.474
		c0,0.81,0.612,1.469,1.365,1.469c0.746,0,1.354-0.659,1.354-1.469C494.938,25.898,494.329,25.237,493.583,25.237z"/>
	<polygon fill="#242A33" points="543.337,122.417 532.972,117.462 524.044,95.868 514.884,112.87 504.767,104.708 494.847,107.69 
		485.435,86.98 476.938,93.74 466.851,106.535 457.361,100.297 448.114,115.536 438.167,118.685 437.562,116.778 446.794,113.856 
		456.727,97.487 466.415,103.856 475.601,92.247 486.194,83.82 495.944,105.272 505.202,102.49 514.265,109.802 524.282,91.208 
		534.526,115.988 543.306,120.185 552.473,115.478 553.387,117.257 	"/>
	<path fill="#242A33" d="M564.607,134.91H422.551V53.481h142.061L564.607,134.91L564.607,134.91z M424.551,132.91h138.061V55.481
		H424.551V132.91L424.551,132.91z"/>
	<path fill="#242A33" d="M564.607,227.997H422.551v-81.353h142.061L564.607,227.997L564.607,227.997z M424.551,225.997h138.061
		v-77.353H424.551V225.997L424.551,225.997z"/>
	<path fill="#242A33" d="M573.636,54.481"/>
	<path fill="#242A33" d="M413.522,54.481"/>
	<rect x="436.865" y="67.216" fill="#242A33" width="35.441" height="2"/>
	<path fill="#242A33" d="M526.411,214.443c-14.955,0-27.122-12.168-27.122-27.123c0-14.954,12.167-27.121,27.122-27.121
		s27.122,12.167,27.122,27.121C553.533,202.275,541.366,214.443,526.411,214.443z M526.411,162.199
		c-13.854,0-25.122,11.27-25.122,25.121c0,13.853,11.27,25.123,25.122,25.123c13.852,0,25.122-11.271,25.122-25.123
		C551.533,173.468,540.264,162.199,526.411,162.199z"/>
	<path fill="#242A33" d="M526.411,200.193c-7.099,0-12.874-5.773-12.874-12.873c0-7.098,5.775-12.873,12.874-12.873
		s12.873,5.775,12.873,12.873C539.284,194.42,533.51,200.193,526.411,200.193z M526.411,176.447
		c-5.996,0-10.874,4.878-10.874,10.873c0,5.996,4.878,10.873,10.874,10.873c5.995,0,10.873-4.877,10.873-10.873
		C537.284,181.325,532.406,176.447,526.411,176.447z"/>
	<rect x="526.123" y="161.234" fill="#242A33" width="2" height="14.213"/>
	
		<rect x="518.989" y="198.06" transform="matrix(0.9278 0.3731 -0.3731 0.9278 114.0382 -179.1907)" fill="#242A33" width="2" height="13.963"/>
	
		<rect x="534.775" y="197.422" transform="matrix(0.8038 0.5949 -0.5949 0.8038 224.4012 -283.5974)" fill="#242A33" width="14.793" height="2.001"/>
	<path fill="#242A33" d="M564.607,261.464H422.551V239.73h142.061L564.607,261.464L564.607,261.464z M424.551,259.464h138.061
		V241.73H424.551V259.464L424.551,259.464z"/>
	<rect x="436.865" y="160.378" fill="#242A33" width="51.087" height="2"/>
	<rect x="436.865" y="167.261" fill="#242A33" width="34.301" height="2"/>
	<path fill="#242A33" d="M480.608,214.443h-43.743v-33.639h43.743V214.443z M438.865,212.443h39.743v-29.639h-39.743V212.443z"/>
</g>
<g>
	<ellipse fill="#FFFFFF" cx="171.086" cy="120.109" rx="27.188" ry="8.542"/>
	<ellipse fill="#FFFFFF" cx="171.086" cy="169.459" rx="27.188" ry="8.541"/>
	<rect x="143.898" y="124.009" fill="#FFFFFF" width="54.375" height="45.45"/>
	<circle fill="#FFC829" cx="192.005" cy="134.868" r="2.289"/>
	<circle fill="#FFC829" cx="192.004" cy="151.08" r="2.289"/>
	<circle fill="#FFC829" cx="192.004" cy="167.48" r="2.289"/>
	<path fill="none" d="M143.898,156.908v12.551c0,4.038,11.166,8.538,27.188,8.538c16.021,0,27.187-4.5,27.187-8.538v-12.551
		c-3.829,3.64-13.093,6.642-27.187,6.642C156.992,163.55,147.729,160.548,143.898,156.908z"/>
	<path fill="none" d="M143.898,140.457v12.552c0,4.04,11.166,8.541,27.188,8.541c16.021,0,27.187-4.501,27.187-8.541v-12.552
		c-3.829,3.641-13.093,6.643-27.187,6.643C156.992,147.1,147.729,144.098,143.898,140.457z"/>
	<path fill="none" d="M143.898,124.009v12.549c0,4.04,11.166,8.542,27.188,8.542c16.021,0,27.187-4.502,27.187-8.542v-12.549
		c-3.829,3.64-13.093,6.642-27.187,6.642C156.992,130.651,147.729,127.649,143.898,124.009z"/>
	<path fill="#242A33" d="M171.087,109.569c-18.958,0-29.188,5.431-29.188,10.541v49.35c0,5.108,10.229,10.538,29.188,10.538
		c18.957,0,29.186-5.43,29.187-10.539V120.11C200.272,115,190.045,109.569,171.087,109.569z M171.087,128.651
		c-16.021,0-27.188-4.501-27.188-8.541s11.166-8.541,27.188-8.541c16.021,0,27.186,4.502,27.187,8.541
		C198.272,124.15,187.106,128.651,171.087,128.651z M198.272,169.459c0,4.038-11.166,8.538-27.187,8.538s-27.188-4.5-27.188-8.538
		v-12.551c3.829,3.64,13.095,6.642,27.188,6.642c14.093,0,23.356-3.002,27.187-6.642V169.459z M198.272,153.009
		c0,4.04-11.166,8.541-27.187,8.541s-27.188-4.501-27.188-8.541v-12.552c3.829,3.641,13.095,6.643,27.188,6.643
		c14.093,0,23.356-3.004,27.187-6.644V153.009z M198.272,136.558c0,4.04-11.166,8.542-27.187,8.542s-27.188-4.502-27.188-8.542
		v-12.549c3.829,3.64,13.095,6.642,27.188,6.642c14.093,0,23.356-3.002,27.187-6.642V136.558z"/>
</g>
<g>
	<path fill="#FFC828" d="M310.304,123.458c0.351-0.335,0.707-0.677,1.067-1.03c0.812-0.795,1.55-1.47,2.199-2.062
		c2.893-2.643,4.802-4.389,4.802-9.553c0-4.551-4.026-8.396-8.791-8.396c-4.629,0-8.396,3.768-8.396,8.396h4.437
		c0-2.185,1.776-3.961,3.96-3.961c2.28,0,4.356,1.888,4.356,3.961c0,3.209-0.645,3.799-3.358,6.277
		c-0.678,0.618-1.443,1.319-2.312,2.169c-0.35,0.342-0.696,0.675-1.034,1.001c-2.466,2.366-4.998,4.8-5.762,8.349h-4.299v-13.624
		h-4.437v13.624h-6.523l3.896-12.987l-4.248-1.274l-5.608,18.696h12.484v9.373h4.437v-9.373h4.067h0.525h16.291v-4.435h-11.967
		C306.755,126.935,308.206,125.473,310.304,123.458z"/>
</g>
</svg>
