<?xml version="1.0" encoding="utf-8"?>
<!-- Generator: Adobe Illustrator 16.0.1, SVG Export Plug-In . SVG Version: 6.00 Build 0)  -->
<!DOCTYPE svg PUBLIC "-//W3C//DTD SVG 1.1//EN" "http://www.w3.org/Graphics/SVG/1.1/DTD/svg11.dtd">
<svg version="1.1" id="Layer_1" xmlns="http://www.w3.org/2000/svg" xmlns:xlink="http://www.w3.org/1999/xlink" x="0px" y="0px"
	 width="1014.338px" height="164.046px" viewBox="0 0 1014.338 164.046" enable-background="new 0 0 1014.338 164.046"
	 xml:space="preserve">
<rect y="0.001" fill="none" width="1014.341" height="164.045"/>
<path opacity="0.1" fill="#73838E" enable-background="new    " d="M1007.17,78.518c-3.953,0-7.17,3.215-7.17,7.167
	c0,0.42,0.044,0.83,0.113,1.23l-55.635,15.481c-1.164-2.39-3.611-4.045-6.443-4.045c-2.066,0-3.926,0.885-5.236,2.289l-85.991-63.43
	c0.552-1.015,0.864-2.176,0.864-3.409c0-3.954-3.217-7.17-7.17-7.17c-3.952,0-7.168,3.216-7.168,7.17
	c0,1.562,0.507,3.002,1.356,4.181l-73.093,69.996c-1.221-0.965-2.757-1.545-4.429-1.545c-2.423,0-4.565,1.213-5.864,3.06
	l-70.684-36.032c0.245-0.722,0.384-1.492,0.384-2.296c0-3.954-3.217-7.17-7.17-7.17c-1.941,0-3.701,0.778-4.994,2.036
	l-72.104-55.336c0.592-1.042,0.934-2.244,0.934-3.525c0-3.954-3.217-7.17-7.17-7.17c-3.952,0-7.168,3.216-7.168,7.17
	c0,1.659,0.572,3.185,1.521,4.401l-73.45,75.958c-1.188-0.875-2.65-1.398-4.234-1.398c-2.238,0-4.239,1.033-5.555,2.645
	L430.4,45.214c0.387-0.88,0.604-1.851,0.604-2.873c0-3.954-3.217-7.17-7.17-7.17s-7.17,3.216-7.17,7.17
	c0,0.116,0.012,0.229,0.018,0.344l-69.398,12.918c-0.963-2.824-3.635-4.863-6.78-4.863c-2.49,0-4.687,1.278-5.972,3.21
	l-70.518-33.367c0.211-0.675,0.325-1.393,0.325-2.136c0-3.954-3.217-7.17-7.17-7.17s-7.17,3.216-7.17,7.17
	c0,1.203,0.301,2.336,0.827,3.333L179.01,73.42c-1.307-1.364-3.141-2.219-5.174-2.219c-2.586,0-4.85,1.381-6.11,3.441L97.411,44.266
	c0.167-0.605,0.263-1.238,0.263-1.895c0-3.954-3.217-7.17-7.17-7.17s-7.17,3.216-7.17,7.17c0,0.979,0.198,1.913,0.556,2.764
	l-71.132,42.24c-1.315-1.638-3.33-2.689-5.588-2.689c-3.953,0-7.17,3.217-7.17,7.17s3.217,7.17,7.17,7.17s7.17-3.217,7.17-7.17
	c0-0.979-0.198-1.912-0.556-2.764l71.132-42.239c1.315,1.637,3.33,2.689,5.588,2.689c2.586,0,4.851-1.381,6.112-3.44l70.313,30.376
	c-0.166,0.604-0.262,1.238-0.262,1.894c0,3.954,3.215,7.169,7.168,7.169s7.17-3.215,7.17-7.169c0-1.202-0.301-2.334-0.826-3.331
	L252,23.401c1.306,1.361,3.139,2.214,5.17,2.214c2.497,0,4.698-1.285,5.982-3.227l70.515,33.366
	c-0.216,0.681-0.333,1.405-0.333,2.156c0,3.953,3.217,7.168,7.17,7.168s7.168-3.215,7.168-7.168c0-0.115-0.012-0.227-0.018-0.341
	l69.4-12.918c0.964,2.823,3.638,4.861,6.781,4.861c2.215,0,4.199-1.011,5.516-2.595l71.228,43.568
	C500.207,91.351,500,92.302,500,93.3c0,3.953,3.217,7.168,7.17,7.168s7.17-3.215,7.17-7.168c0-1.648-0.563-3.164-1.504-4.375
	l73.457-75.964c1.184,0.863,2.636,1.379,4.209,1.379c1.953,0,3.725-0.787,5.019-2.058l72.098,55.331
	c-0.603,1.049-0.951,2.26-0.951,3.553c0,3.953,3.217,7.168,7.17,7.168c2.437,0,4.59-1.224,5.887-3.086l70.675,36.026
	c-0.253,0.731-0.396,1.515-0.396,2.33c0,3.953,3.217,7.17,7.17,7.17c3.952,0,7.168-3.217,7.168-7.17
	c0-1.562-0.507-3.002-1.355-4.181l73.091-69.996c1.221,0.964,2.758,1.544,4.43,1.544c2.002,0,3.812-0.827,5.115-2.155l86.033,63.46
	c-0.498,0.975-0.785,2.076-0.785,3.244c0,3.953,3.217,7.168,7.17,7.168s7.17-3.215,7.17-7.168c0-0.416-0.043-0.822-0.111-1.221
	l55.638-15.482c1.166,2.385,3.61,4.035,6.438,4.035c3.952,0,7.168-3.217,7.168-7.17C1014.338,81.733,1011.122,78.518,1007.17,78.518
	z M12.34,91.854c0,2.853-2.319,5.17-5.17,5.17S2,94.707,2,91.854c0-2.851,2.319-5.17,5.17-5.17c1.525,0,2.885,0.678,3.832,1.731
	c0.446,0.496,0.793,1.076,1.021,1.719C12.216,90.677,12.34,91.25,12.34,91.854z M90.504,47.541c-1.525,0-2.885-0.677-3.832-1.731
	c-0.446-0.498-0.793-1.078-1.021-1.72c-0.192-0.541-0.316-1.113-0.316-1.719c0-2.851,2.319-5.17,5.17-5.17s5.17,2.319,5.17,5.17
	c0,0.375-0.045,0.739-0.121,1.092c-0.145,0.669-0.418,1.29-0.795,1.835C93.824,46.65,92.268,47.541,90.504,47.541z M179.006,78.371
	c0,2.851-2.319,5.169-5.17,5.169c-2.85,0-5.168-2.318-5.168-5.169c0-0.375,0.045-0.739,0.121-1.091
	c0.145-0.669,0.418-1.29,0.794-1.836c0.934-1.352,2.489-2.243,4.253-2.243c1.363,0,2.597,0.541,3.521,1.407
	c0.489,0.458,0.888,1.005,1.17,1.621C178.828,76.884,179.006,77.605,179.006,78.371z M257.17,23.615
	c-1.361,0-2.594-0.54-3.518-1.403c-0.49-0.458-0.889-1.005-1.172-1.621c-0.302-0.655-0.48-1.377-0.48-2.144
	c0-2.851,2.319-5.17,5.17-5.17s5.17,2.319,5.17,5.17c0,0.438-0.071,0.854-0.174,1.262c-0.168,0.664-0.462,1.272-0.859,1.806
	C260.363,22.782,258.867,23.615,257.17,23.615z M340.504,63.078c-2.851,0-5.17-2.318-5.17-5.168c0-0.445,0.074-0.87,0.181-1.282
	c0.171-0.663,0.466-1.27,0.865-1.803c0.944-1.258,2.434-2.085,4.124-2.085c2.165,0,4.017,1.341,4.785,3.234
	c0.242,0.599,0.383,1.25,0.383,1.936c0,0.01-0.003,0.019-0.003,0.029C345.653,60.775,343.344,63.078,340.504,63.078z
	 M423.836,47.512c-2.165,0-4.017-1.341-4.785-3.233c-0.244-0.599-0.385-1.251-0.385-1.937c0-0.009,0.002-0.017,0.003-0.026
	c0.015-2.838,2.325-5.144,5.167-5.144c2.852,0,5.17,2.319,5.17,5.17c0,0.639-0.132,1.244-0.344,1.809
	c-0.24,0.637-0.598,1.211-1.053,1.7C426.664,46.866,425.328,47.512,423.836,47.512z M512.34,93.3c0,2.85-2.318,5.168-5.17,5.168
	c-2.851,0-5.17-2.319-5.17-5.168c0-0.615,0.127-1.197,0.324-1.746c0.231-0.641,0.582-1.219,1.032-1.713
	c0.945-1.043,2.298-1.711,3.812-1.711c1.045,0,2.014,0.315,2.828,0.852c0.562,0.369,1.05,0.844,1.432,1.398
	C512.002,91.212,512.34,92.216,512.34,93.3z M590.502,12.34c-1.033,0-1.991-0.312-2.8-0.836c-0.564-0.366-1.054-0.837-1.438-1.389
	c-0.583-0.837-0.93-1.849-0.93-2.944c0-2.851,2.318-5.17,5.168-5.17c2.852,0,5.17,2.319,5.17,5.17c0,0.823-0.211,1.59-0.555,2.282
	c-0.301,0.607-0.715,1.142-1.219,1.585C592.987,11.838,591.807,12.34,590.502,12.34z M673.836,76.334
	c-2.851,0-5.17-2.318-5.17-5.168c0-0.834,0.217-1.612,0.57-2.311c0.305-0.605,0.723-1.137,1.229-1.578
	c0.907-0.788,2.077-1.282,3.37-1.282c2.851,0,5.17,2.319,5.17,5.17c0,0.476-0.086,0.928-0.207,1.367
	c-0.182,0.659-0.487,1.261-0.896,1.787C676.955,75.536,675.493,76.334,673.836,76.334z M762.338,113.604
	c0,2.853-2.318,5.17-5.168,5.17c-2.851,0-5.17-2.317-5.17-5.17c0-0.487,0.09-0.953,0.218-1.401c0.188-0.658,0.497-1.259,0.909-1.781
	c0.948-1.199,2.398-1.986,4.043-1.986c1.104,0,2.123,0.355,2.963,0.947c0.551,0.389,1.02,0.879,1.383,1.447
	C762.03,111.632,762.338,112.582,762.338,113.604z M840.502,38.973c-1.104,0-2.123-0.355-2.964-0.947
	c-0.55-0.387-1.019-0.879-1.382-1.446c-0.516-0.804-0.822-1.753-0.822-2.776c0-2.851,2.318-5.17,5.168-5.17
	c2.852,0,5.17,2.319,5.17,5.17c0,0.788-0.19,1.527-0.508,2.196c-0.29,0.613-0.694,1.155-1.189,1.607
	C843.055,38.447,841.843,38.973,840.502,38.973z M943.205,105.522c0,2.851-2.319,5.168-5.17,5.168c-2.852,0-5.17-2.317-5.17-5.168
	c0-0.724,0.152-1.412,0.422-2.037c0.268-0.623,0.656-1.18,1.133-1.647c0.934-0.916,2.208-1.484,3.615-1.484
	c1.91,0,3.562,1.053,4.458,2.598c0.332,0.574,0.553,1.213,0.644,1.896C943.166,105.071,943.205,105.292,943.205,105.522z
	 M1007.17,90.854c-1.906,0-3.557-1.049-4.453-2.588c-0.334-0.574-0.556-1.214-0.646-1.896c-0.03-0.228-0.069-0.451-0.069-0.687
	c0-2.851,2.319-5.167,5.17-5.167s5.168,2.316,5.168,5.167C1012.338,88.537,1010.02,90.854,1007.17,90.854z"/>
</svg>
