<?xml version="1.0" encoding="utf-8"?>
<!-- Generator: Adobe Illustrator 16.0.1, SVG Export Plug-In . SVG Version: 6.00 Build 0)  -->
<!DOCTYPE svg PUBLIC "-//W3C//DTD SVG 1.1//EN" "http://www.w3.org/Graphics/SVG/1.1/DTD/svg11.dtd">
<svg version="1.1" id="Layer_1" xmlns="http://www.w3.org/2000/svg" xmlns:xlink="http://www.w3.org/1999/xlink" x="0px" y="0px"
	 width="47.652px" height="50px" viewBox="0 0 47.652 50" enable-background="new 0 0 47.652 50" xml:space="preserve">
<g>
	<path fill="#232323" d="M37.566,26.303c0.438-0.419,0.883-0.847,1.334-1.288c1.015-0.994,1.938-1.837,2.749-2.579
		c3.616-3.303,6.003-5.484,6.003-11.939C47.652,4.807,42.619,0,36.663,0c-5.786,0-10.494,4.709-10.494,10.496h5.544
		c0-2.73,2.221-4.951,4.95-4.951c2.851,0,5.445,2.359,5.445,4.951c0,4.011-0.806,4.748-4.198,7.847
		c-0.847,0.772-1.804,1.648-2.89,2.711c-0.437,0.428-0.871,0.844-1.293,1.252c-3.082,2.957-6.248,5.999-7.202,10.435h-5.374V15.711
		h-5.544V32.74H7.451l4.87-16.234L7.01,14.914L0,38.284h15.607V50h5.544V38.284h5.083h0.658h20.363V32.74H32.298
		C33.131,30.648,34.944,28.821,37.566,26.303z"/>
</g>
</svg>
