<?xml version="1.0" encoding="utf-8"?>
<!-- Generator: Adobe Illustrator 16.0.1, SVG Export Plug-In . SVG Version: 6.00 Build 0)  -->
<!DOCTYPE svg PUBLIC "-//W3C//DTD SVG 1.1//EN" "http://www.w3.org/Graphics/SVG/1.1/DTD/svg11.dtd">
<svg version="1.1" id="Layer_1" xmlns="http://www.w3.org/2000/svg" xmlns:xlink="http://www.w3.org/1999/xlink" x="0px" y="0px"
	 width="38.122px" height="40px" viewBox="4.765 5 38.122 40" enable-background="new 4.765 5 38.122 40" xml:space="preserve">
<g>
	<path fill="#FFFFFF" d="M34.818,26.042c0.35-0.335,0.706-0.677,1.067-1.03c0.812-0.795,1.55-1.47,2.199-2.063
		c2.893-2.643,4.802-4.387,4.802-9.551C42.886,8.846,38.86,5,34.095,5C29.467,5,25.7,8.767,25.7,13.397h4.436
		c0-2.184,1.777-3.961,3.96-3.961c2.281,0,4.356,1.887,4.356,3.961c0,3.208-0.646,3.798-3.358,6.277
		c-0.678,0.618-1.443,1.319-2.312,2.169c-0.35,0.342-0.696,0.675-1.034,1.001c-2.466,2.366-4.998,4.799-5.762,8.349h-4.299V17.569
		h-4.436v13.624h-6.525l3.896-12.988l-4.249-1.273L4.765,35.627h12.486V45h4.436v-9.373h4.066h0.526h16.29v-4.435H30.603
		C31.269,29.519,32.72,28.057,34.818,26.042z"/>
</g>
</svg>
