<?xml version="1.0" encoding="utf-8"?>
<!-- Generator: Adobe Illustrator 16.0.1, SVG Export Plug-In . SVG Version: 6.00 Build 0)  -->
<!DOCTYPE svg PUBLIC "-//W3C//DTD SVG 1.1//EN" "http://www.w3.org/Graphics/SVG/1.1/DTD/svg11.dtd">
<svg version="1.1" id="Layer_1" xmlns="http://www.w3.org/2000/svg" xmlns:xlink="http://www.w3.org/1999/xlink" x="0px" y="0px"
	 width="120px" height="120px" viewBox="0 0 120 120" enable-background="new 0 0 120 120" xml:space="preserve">
<g>
	<g>
		<path fill="#FFFFFF" d="M38.5,55.097h2.717v7.424h4.749v2.381H38.5V55.097z"/>
		<path fill="#FFFFFF" d="M52.333,61.232l-3.728-6.135h3.097l2.018,3.573l2.031-3.573h3.039l-3.729,6.092v3.713h-2.728V61.232z"/>
		<path fill="#FFFFFF" d="M65.22,57.479h-2.938v-2.382h8.603v2.382h-2.941v7.423h-2.719v-7.423H65.22z"/>
		<path fill="#FFFFFF" d="M76.319,55.097h2.73v9.805h-2.73V55.097z"/>
		<path fill="#FFFFFF" d="M85.042,55.097h2.719v3.978l3.375-3.978h3.224l-3.712,4.216l3.839,5.589H91.22l-2.465-3.645l-0.994,1.106
			V64.9h-2.719V55.097z"/>
	</g>
	<path fill="#FFFFFF" d="M27,73.5H0v-27h27V73.5z M2,71.5h23v-23H2V71.5z"/>
	<g>
		<path fill="#FFFFFF" d="M5.167,69.333c-0.552,0-1-0.447-1-1v-3.125c0-0.554,0.448-1,1-1c0.552,0,1,0.446,1,1v3.125
			C6.167,68.886,5.719,69.333,5.167,69.333z"/>
		<path fill="#FFFFFF" d="M9.333,69.333c-0.552,0-1-0.447-1-1v-6.25c0-0.554,0.448-1,1-1c0.552,0,1,0.446,1,1v6.25
			C10.333,68.886,9.886,69.333,9.333,69.333z"/>
		<path fill="#FFFFFF" d="M13.5,69.333c-0.552,0-1-0.447-1-1v-9.374c0-0.552,0.448-1,1-1c0.552,0,1,0.448,1,1v9.374
			C14.5,68.886,14.052,69.333,13.5,69.333z"/>
		<path fill="#FFFFFF" d="M17.667,69.333c-0.552,0-1-0.447-1-1v-4.688c0-0.553,0.448-1,1-1c0.552,0,1,0.447,1,1v4.688
			C18.667,68.886,18.219,69.333,17.667,69.333z"/>
		<path fill="#FFFFFF" d="M21.833,69.333c-0.552,0-1-0.447-1-1v-9.374c0-0.552,0.448-1,1-1c0.552,0,1,0.448,1,1v9.374
			C22.833,68.886,22.386,69.333,21.833,69.333z"/>
	</g>
</g>
</svg>
