<?xml version="1.0" encoding="utf-8"?>
<!-- Generator: Adobe Illustrator 16.0.1, SVG Export Plug-In . SVG Version: 6.00 Build 0)  -->
<!DOCTYPE svg PUBLIC "-//W3C//DTD SVG 1.1//EN" "http://www.w3.org/Graphics/SVG/1.1/DTD/svg11.dtd">
<svg version="1.1" id="Layer_1" xmlns="http://www.w3.org/2000/svg" xmlns:xlink="http://www.w3.org/1999/xlink" x="0px" y="0px"
	 width="94.488px" height="27px" viewBox="0 0 94.488 27" enable-background="new 0 0 94.488 27" xml:space="preserve">
<g>
	<g>
		<path fill="#242A33" d="M38.5,8.598h2.717v7.424h4.749v2.381H38.5V8.598z"/>
		<path fill="#242A33" d="M52.333,14.732l-3.729-6.135h3.098l2.018,3.572l2.031-3.572h3.039l-3.729,6.092v3.713h-2.729V14.732z"/>
		<path fill="#242A33" d="M65.22,10.979h-2.938V8.598h8.602v2.381h-2.939v7.424h-2.719v-7.424H65.22z"/>
		<path fill="#242A33" d="M76.32,8.598h2.729v9.805H76.32V8.598z"/>
		<path fill="#242A33" d="M85.042,8.598h2.719v3.978l3.375-3.978h3.225l-3.713,4.215l3.84,5.59H91.22l-2.465-3.646l-0.994,1.106
			V18.4h-2.719V8.598z"/>
	</g>
	<path fill="#242A33" d="M27,27H0V0h27V27z M2,25h23V2H2V25z"/>
	<g>
		<path fill="#242A33" d="M5.167,22.833c-0.552,0-1-0.447-1-1v-3.125c0-0.554,0.448-1,1-1c0.552,0,1,0.446,1,1v3.125
			C6.167,22.386,5.719,22.833,5.167,22.833z"/>
		<path fill="#242A33" d="M9.333,22.833c-0.552,0-1-0.447-1-1v-6.25c0-0.554,0.448-1,1-1c0.552,0,1,0.446,1,1v6.25
			C10.333,22.386,9.886,22.833,9.333,22.833z"/>
		<path fill="#242A33" d="M13.5,22.833c-0.552,0-1-0.447-1-1v-9.374c0-0.552,0.448-1,1-1s1,0.448,1,1v9.374
			C14.5,22.386,14.052,22.833,13.5,22.833z"/>
		<path fill="#242A33" d="M17.667,22.833c-0.552,0-1-0.447-1-1v-4.688c0-0.553,0.448-1,1-1c0.552,0,1,0.447,1,1v4.688
			C18.667,22.386,18.219,22.833,17.667,22.833z"/>
		<path fill="#242A33" d="M21.833,22.833c-0.552,0-1-0.447-1-1v-9.374c0-0.552,0.448-1,1-1c0.552,0,1,0.448,1,1v9.374
			C22.833,22.386,22.386,22.833,21.833,22.833z"/>
	</g>
</g>
</svg>
