<?xml version="1.0" encoding="utf-8"?>
<!-- Generator: Adobe Illustrator 16.0.1, SVG Export Plug-In . SVG Version: 6.00 Build 0)  -->
<!DOCTYPE svg PUBLIC "-//W3C//DTD SVG 1.1//EN" "http://www.w3.org/Graphics/SVG/1.1/DTD/svg11.dtd">
<svg version="1.1" id="Layer_1" xmlns="http://www.w3.org/2000/svg" xmlns:xlink="http://www.w3.org/1999/xlink" x="0px" y="0px"
	 width="436.46px" height="95.846px" viewBox="0 0 436.46 95.846" enable-background="new 0 0 436.46 95.846" xml:space="preserve">
<path fill="#95A0A5" d="M2.118,60.193c-0.318,0-0.63-0.151-0.824-0.433c-0.313-0.454-0.199-1.077,0.256-1.391
	c0.117-0.081,11.86-8.128,27.005-14.352c20.185-8.293,37.26-9.6,49.375-3.78c13.377,5.647,14.693,5.332,34.837-8.646
	c1.333-1.262,21.327-19.496,45.329-4.192c10.273,6.55,15.743,3.316,20.569,0.462c4.585-2.711,8.916-5.272,15.264,2.441
	c13.536,16.448,18.975,19.406,29.084,15.826c11.297-3.998,19.809-4.967,29.89,1.923c10.49,7.167,19.518,8.377,28.416,3.804
	c8.723-4.482,12.828-4.403,19.642-4.284c1.226,0.022,2.548,0.047,4.01,0.047c5.005,0,31.025-1.499,51.881-31.093
	c5.811-8.246,11.975-12.231,18.354-11.837c10.565,0.648,18.339,13.112,21.19,18.44c3.428,6.403,5.547,7.522,6.506,7.62
	c0.687,0.067,1.294-0.298,2.103-1.269l0.073-0.088c0.745-0.897,1.579-1.925,2.961-1.858c1.625,0.064,3.402,1.672,6.135,5.55
	c1.039,1.475,2.125,3.106,3.275,4.834c4.239,6.369,9.516,14.295,16.637,20.522c0.416,0.363,0.458,0.995,0.095,1.411
	c-0.365,0.417-0.997,0.457-1.411,0.095c-7.322-6.401-12.681-14.452-16.985-20.92c-1.143-1.716-2.222-3.337-3.245-4.791
	c-2.853-4.048-4.094-4.685-4.58-4.704c-0.336,0.006-0.746,0.42-1.343,1.139l-0.074,0.089c-0.498,0.598-1.821,2.182-3.842,1.979
	c-2.474-0.251-5.037-3.005-8.067-8.666c-2.693-5.033-9.989-16.802-19.549-17.388c-5.627-0.348-11.212,3.353-16.597,10.994
	c-8.463,12.008-18.676,20.862-30.355,26.315c-10.873,5.077-19.818,5.625-23.16,5.625c-1.476,0-2.81-0.024-4.046-0.047
	c-6.716-0.125-10.416-0.19-18.691,4.063c-9.62,4.945-19.3,3.695-30.459-3.933c-9.425-6.442-17.146-5.563-28.093-1.688
	c-11.77,4.165-18.138-0.449-31.296-16.44c-5.259-6.391-8.221-4.64-12.702-1.99c-5.059,2.99-11.353,6.713-22.663-0.497
	c-23.39-14.913-42.723,3.802-42.915,3.993l-0.134,0.111c-20.038,13.906-22.309,15.016-36.864,8.87
	C48.929,28.525,3.143,59.7,2.684,60.017C2.511,60.136,2.313,60.193,2.118,60.193z"/>
<path fill="#FFCA2A" d="M432.432,60.226c-3.709,0-16.06-1.026-25.237-13.874c-3.811-5.333-8.643-8.363-13.974-8.762
	c-5.352-0.405-11.052,1.923-15.217,6.219l-1.288,1.333c-6.755,6.999-10.475,10.855-16.359,7.454
	c-7.802-4.511-11.667-2.468-17.518,0.62c-1.875,0.989-4,2.111-6.467,3.114c-10.002,4.064-15.94,4.323-29.361-2.345
	c-12.744-6.331-18.113-7.048-29.119,0.387c-4.786,3.235-9.918,5.983-15.015,4.189c-6.617-2.326-12.166-11.752-17.993-30.564
	c-5.151-16.634-11.353-25.866-17.46-25.995c-6.232-0.123-12.947,9.116-18.98,26.035c-5.825,16.333-13.129,25.263-21.712,26.543
	c-7.058,1.053-14.605-3.289-21.241-12.227c-4.484-6.039-9.416-9.17-14.659-9.308c-7.201-0.183-12.317,5.265-13.705,6.941
	c-5.621,6.792-15.538,11.123-20.408,8.917c-10.405-4.721-13.472-4.38-27.345,3.043c-14.808,7.923-27.611,4.666-36.051-9.172
	c-5.236-8.585-10.182-16.693-15.676-16.891c-3.424-0.121-7.237,2.783-11.591,8.886C13.022,53.042,3.086,59.75,2.67,60.026
	c-0.458,0.306-1.08,0.18-1.386-0.279c-0.306-0.46-0.181-1.08,0.279-1.387c0.099-0.065,10.073-6.819,22.865-24.752
	c4.773-6.692,9.095-9.871,13.292-9.724c6.568,0.236,11.547,8.398,17.311,17.849c10.004,16.4,23.685,13.646,33.4,8.449
	c14.337-7.67,18.146-8.075,29.115-3.102c3.639,1.653,12.677-1.889,18.041-8.37c1.533-1.852,7.172-7.886,15.298-7.665
	c5.889,0.155,11.343,3.558,16.211,10.115c3.576,4.816,10.836,12.713,19.341,11.44c7.686-1.146,14.644-9.873,20.123-25.237
	C213.036,9.205,220.007,0,227.285,0c0.061,0,0.121,0,0.183,0.002c7.241,0.153,13.743,9.373,19.327,27.403
	c5.546,17.902,10.866,27.203,16.746,29.269c4.024,1.416,8.201-0.56,13.232-3.959c11.665-7.881,18.004-7.041,31.129-0.521
	c12.829,6.375,18.175,6.162,27.717,2.282c2.375-0.965,4.364-2.015,6.288-3.029c5.975-3.154,10.695-5.644,19.45-0.584
	c4.323,2.502,6.786,0.28,13.921-7.11l1.291-1.335c4.572-4.718,10.848-7.271,16.802-6.822c5.942,0.445,11.285,3.763,15.451,9.595
	c10.007,14.007,24.377,13.02,24.522,13.007c0.54-0.045,1.032,0.365,1.078,0.915c0.045,0.55-0.363,1.032-0.913,1.078
	C433.42,60.197,433.043,60.226,432.432,60.226z"/>
<path fill="#5D6569" d="M2.116,60.193c-0.513,0-0.949-0.392-0.995-0.912c-0.049-0.55,0.358-1.035,0.907-1.084
	c0.058-0.005,5.847-0.558,13.015-4.15c6.594-3.307,15.749-9.946,21.913-22.803c5.839-12.181,10.989-17.771,16.115-17.615
	C58.476,13.8,63.454,20.24,69.212,34.51c8.213,20.351,21.544,19.249,34.436,18.183c2.876-0.237,5.593-0.462,8.274-0.462
	c3.521,0,7.59-0.198,11.898-0.408c14.295-0.696,32.088-1.564,51.207,3.188c24.452,6.08,41.225-8.921,52.322-18.847
	c12.084-10.811,18.43-11.492,30.878-3.308c3.768,2.478,6.656,5.747,9.204,8.63c3.12,3.531,5.575,6.305,8.198,6.1
	c2.295-0.193,4.946-2.76,8.106-7.848c7.429-11.958,11.845-16.516,16.293-16.815c4.109-0.276,7.852,3.188,12.543,8.869
	c2.604,3.154,5.365,4.807,8.205,4.914c3.423,0.127,7.199-1.941,11.249-6.153c2.09-2.173,4.438-3.215,6.769-3.025
	c2.873,0.238,5.643,2.276,8.232,6.058c1.558,2.275,3.145,3.332,4.831,3.262c3.355-0.158,7.61-4.839,12.648-13.916
	c3.659-6.595,7.49-9.771,11.439-9.422c5.055,0.44,9.75,6.828,13.953,18.984c3.39,9.804,8.08,9.438,12.607,9.083
	c0.812-0.063,1.578-0.123,2.331-0.123c5.391,0,12.492,2.425,16.256,9.23c2.795,5.054,6.828,7.51,12.333,7.51c0.553,0,1,0.447,1,1
	s-0.447,1-1,1c-6.298,0-10.904-2.794-14.083-8.541c-3.343-6.045-9.686-8.199-14.506-8.199c-0.676,0-1.404,0.057-2.176,0.117
	c-4.54,0.353-10.759,0.84-14.653-10.423c-4.885-14.128-9.351-17.394-12.236-17.646c-3.821-0.329-7.288,4.385-9.518,8.401
	c-5.548,9.997-10.093,14.746-14.303,14.943c-2.417,0.119-4.622-1.276-6.575-4.13c-2.233-3.261-4.503-5.008-6.748-5.194
	c-1.734-0.145-3.479,0.668-5.161,2.418c-4.462,4.64-8.773,6.921-12.766,6.766c-3.435-0.129-6.688-2.027-9.673-5.639
	c-4.169-5.049-7.629-8.371-10.866-8.147c-3.654,0.246-7.784,4.697-14.728,15.875c-3.614,5.818-6.587,8.528-9.639,8.785
	c-3.594,0.297-6.511-2.974-9.864-6.769c-2.465-2.79-5.26-5.952-8.805-8.283c-11.692-7.689-17.011-7.104-28.444,3.127
	c-11.412,10.208-28.656,25.63-54.139,19.298c-18.833-4.681-36.461-3.823-50.627-3.132c-4.333,0.211-8.425,0.41-11.995,0.41
	c-2.599,0-5.276,0.221-8.109,0.455c-12.981,1.073-27.691,2.288-36.455-19.428c-5.348-13.251-9.908-19.489-14.35-19.63
	c-4.235-0.127-8.868,5.257-14.248,16.48c-6.428,13.406-16.002,20.324-22.903,23.768c-7.494,3.739-13.405,4.292-13.653,4.313
	C2.174,60.192,2.145,60.193,2.116,60.193z"/>
<g>
	<g>
		<path fill="#95A0A5" d="M0.723,95.846c-0.306,0-0.547-0.044-0.723-0.132v-0.708c0.231,0.065,0.472,0.098,0.723,0.098
			c0.322,0,0.567-0.098,0.735-0.293s0.251-0.477,0.251-0.845v-7.139h0.83v7.07c0,0.618-0.156,1.098-0.469,1.438
			C1.758,95.676,1.309,95.846,0.723,95.846z"/>
	</g>
	<g>
		<path fill="#95A0A5" d="M40.06,93.966h-0.83v-7.139h3.979v0.737H40.06v2.612h2.959v0.737H40.06V93.966z"/>
	</g>
	<g>
		<path fill="#95A0A5" d="M79.715,93.966l-2.422-6.328h-0.039c0.046,0.501,0.068,1.097,0.068,1.787v4.541h-0.767v-7.139h1.25
			l2.261,5.89h0.039l2.28-5.89h1.24v7.139h-0.83v-4.601c0-0.526,0.022-1.1,0.068-1.718h-0.039l-2.441,6.318H79.715z"/>
	</g>
	<g>
		<path fill="#95A0A5" d="M121.653,93.966l-0.889-2.271h-2.861l-0.879,2.271h-0.84l2.822-7.168h0.698l2.808,7.168H121.653z
			 M120.506,90.949l-0.83-2.213c-0.107-0.28-0.218-0.623-0.332-1.03c-0.072,0.312-0.174,0.656-0.308,1.03l-0.84,2.213H120.506z"/>
	</g>
	<g>
		<path fill="#95A0A5" d="M158.235,93.966l-2.422-6.328h-0.039c0.046,0.501,0.068,1.097,0.068,1.787v4.541h-0.767v-7.139h1.25
			l2.261,5.89h0.039l2.28-5.89h1.24v7.139h-0.83v-4.601c0-0.526,0.022-1.1,0.068-1.718h-0.039l-2.441,6.318H158.235z"/>
	</g>
	<g>
		<path fill="#95A0A5" d="M197.021,95.846c-0.306,0-0.547-0.044-0.723-0.132v-0.708c0.231,0.065,0.472,0.098,0.723,0.098
			c0.322,0,0.567-0.098,0.735-0.293s0.251-0.477,0.251-0.845v-7.139h0.83v7.07c0,0.618-0.156,1.098-0.469,1.438
			C198.057,95.676,197.607,95.846,197.021,95.846z"/>
	</g>
	<g>
		<path fill="#95A0A5" d="M236.281,95.846c-0.306,0-0.547-0.044-0.723-0.132v-0.708c0.231,0.065,0.472,0.098,0.723,0.098
			c0.322,0,0.566-0.098,0.734-0.293s0.252-0.477,0.252-0.845v-7.139h0.83v7.07c0,0.618-0.156,1.098-0.469,1.438
			C237.316,95.676,236.867,95.846,236.281,95.846z"/>
	</g>
	<g>
		<path fill="#95A0A5" d="M278.692,93.966l-0.889-2.271h-2.861l-0.879,2.271h-0.84l2.822-7.168h0.698l2.808,7.168H278.692z
			 M277.544,90.949l-0.83-2.213c-0.107-0.28-0.218-0.623-0.332-1.03c-0.071,0.312-0.174,0.656-0.308,1.03l-0.84,2.213H277.544z"/>
	</g>
	<g>
		<path fill="#95A0A5" d="M317.913,92.066c0,0.628-0.228,1.119-0.684,1.47c-0.456,0.352-1.074,0.527-1.855,0.527
			c-0.847,0-1.497-0.109-1.953-0.327v-0.8c0.293,0.124,0.612,0.222,0.957,0.292c0.345,0.072,0.687,0.107,1.025,0.107
			c0.554,0,0.97-0.104,1.25-0.314s0.42-0.503,0.42-0.877c0-0.247-0.05-0.45-0.149-0.607c-0.099-0.158-0.265-0.303-0.498-0.438
			c-0.232-0.134-0.586-0.285-1.062-0.454c-0.664-0.237-1.139-0.519-1.423-0.845c-0.285-0.324-0.428-0.75-0.428-1.274
			c0-0.55,0.207-0.988,0.62-1.313s0.96-0.488,1.641-0.488c0.71,0,1.362,0.13,1.958,0.391l-0.259,0.723
			c-0.589-0.246-1.162-0.371-1.719-0.371c-0.439,0-0.783,0.095-1.03,0.283s-0.371,0.451-0.371,0.786c0,0.247,0.046,0.45,0.137,0.608
			c0.091,0.157,0.245,0.303,0.461,0.434c0.217,0.133,0.548,0.279,0.994,0.438c0.749,0.268,1.264,0.555,1.545,0.859
			C317.772,91.181,317.913,91.578,317.913,92.066z"/>
	</g>
	<g>
		<path fill="#95A0A5" d="M358.191,90.387c0,1.143-0.289,2.041-0.867,2.695s-1.381,0.981-2.41,0.981
			c-1.051,0-1.862-0.321-2.434-0.964c-0.571-0.644-0.857-1.551-0.857-2.723c0-1.162,0.287-2.062,0.859-2.703
			c0.573-0.639,1.387-0.959,2.441-0.959c1.025,0,1.826,0.326,2.402,0.977C357.902,88.344,358.191,89.242,358.191,90.387z
			 M352.501,90.387c0,0.967,0.206,1.7,0.618,2.2s1.01,0.749,1.794,0.749c0.791,0,1.389-0.249,1.793-0.747
			c0.403-0.497,0.605-1.231,0.605-2.202c0-0.959-0.201-1.688-0.604-2.186c-0.402-0.496-0.997-0.744-1.785-0.744
			c-0.791,0-1.392,0.25-1.804,0.75C352.708,88.706,352.501,89.434,352.501,90.387z"/>
	</g>
	<g>
		<path fill="#95A0A5" d="M396.955,93.966h-0.947l-3.901-5.991h-0.039c0.052,0.703,0.078,1.348,0.078,1.934v4.058h-0.767v-7.139
			h0.938l3.892,5.968h0.039c-0.007-0.089-0.021-0.371-0.044-0.848c-0.022-0.478-0.031-0.818-0.024-1.023v-4.097h0.776V93.966z"/>
	</g>
	<g>
		<path fill="#95A0A5" d="M436.46,90.328c0,1.18-0.319,2.08-0.959,2.703s-1.561,0.935-2.762,0.935h-1.977v-7.139h2.188
			c1.109,0,1.973,0.308,2.588,0.923S436.46,89.225,436.46,90.328z M435.582,90.357c0-0.93-0.233-1.633-0.7-2.104
			s-1.161-0.708-2.083-0.708h-1.205v5.703h1.01c0.99,0,1.734-0.243,2.232-0.73C435.333,92.031,435.582,91.312,435.582,90.357z"/>
	</g>
</g>
</svg>
