<?xml version="1.0" encoding="utf-8"?>
<!-- Generator: Adobe Illustrator 16.0.1, SVG Export Plug-In . SVG Version: 6.00 Build 0)  -->
<!DOCTYPE svg PUBLIC "-//W3C//DTD SVG 1.1//EN" "http://www.w3.org/Graphics/SVG/1.1/DTD/svg11.dtd">
<svg version="1.1" id="Layer_1" xmlns="http://www.w3.org/2000/svg" xmlns:xlink="http://www.w3.org/1999/xlink" x="0px" y="0px"
	 width="200px" height="200px" viewBox="0 0 200 200" enable-background="new 0 0 200 200" xml:space="preserve">
<g>
	<polygon fill="#CCCCCC" points="43.689,107.328 35.089,113.945 35.089,86.866 43.694,94.346 	"/>
	<polygon fill="#CCCCCC" points="53.525,114.822 60.199,119.953 60.199,80.083 53.525,85.876 	"/>
	<polygon fill="#CCCCCC" points="33.947,114.822 27.272,119.953 27.272,80.083 33.947,85.877 	"/>
	<polygon fill="#CCCCCC" points="52.759,85.115 59.992,78.841 27.461,78.846 34.711,85.111 	"/>
	<g>
		<g>
			<path fill="#CCCCCC" d="M78.401,107.154c-2.672,0-4.977-1.152-6.522-2.959l1.965-1.91c1.231,1.334,3.038,2.172,4.767,2.172
				c2.567,0,3.798-0.891,3.798-2.67c0-1.417-1.074-2.123-4.138-3.04c-3.877-1.152-5.737-2.121-5.737-5.396
				c0-3.169,2.672-5.107,6.05-5.107c2.488,0,4.374,0.918,5.998,2.488l-1.938,1.965c-1.153-1.179-2.462-1.755-4.27-1.755
				c-2.147,0-3.064,1.047-3.064,2.279c0,1.282,0.838,1.912,4.007,2.854c3.615,1.1,5.867,2.254,5.867,5.528
				C85.184,104.902,83.088,107.154,78.401,107.154z"/>
			<path fill="#CCCCCC" d="M100.663,106.867l-1.546-4.348h-7.333l-1.519,4.348H87.41l6.601-18.334h2.908l6.678,18.334H100.663z
				 M96.813,95.84c-0.445-1.31-1.179-3.431-1.388-4.216c-0.21,0.785-0.864,2.88-1.335,4.242l-1.467,4.19h5.657L96.813,95.84z"/>
			<path fill="#CCCCCC" d="M113.052,107.154c-4.532,0-6.89-2.934-6.89-7.987V88.533h2.751v10.556c0,3.458,1.44,5.316,4.19,5.316
				c2.882,0,4.243-1.779,4.243-5.133V88.533h2.75v10.687C120.097,104.354,117.608,107.154,113.052,107.154z"/>
			<path fill="#CCCCCC" d="M129.211,106.867h-5.003V88.533h5.003c4.924,0,8.932,2.697,8.932,9.167
				C138.143,104.17,134.004,106.867,129.211,106.867z M129.211,91.205h-2.252v12.991h2.252c4.348,0,6.129-2.643,6.129-6.496
				C135.34,93.849,133.559,91.205,129.211,91.205z"/>
			<path fill="#CCCCCC" d="M141.992,106.867V88.533h11.812v2.672h-9.062v4.531h5.265v2.672h-5.265v5.788h9.455v2.672H141.992z"/>
			<path fill="#CCCCCC" d="M168,99.376l3.746,7.491h-3.17l-3.641-7.256h-4.138v7.256H158.1V88.533h8.042
				c3.193,0,5.892,1.703,5.892,5.475C172.033,96.94,170.488,98.748,168,99.376z M166.142,91.126h-5.344v5.893h5.344
				c1.832,0,3.116-0.943,3.116-2.933C169.258,92.173,168,91.126,166.142,91.126z"/>
		</g>
		<g>
			<path fill="#CCCCCC" d="M74.933,119.68c-1.205,0-2.244-0.518-2.94-1.334l0.886-0.861c0.555,0.604,1.37,0.98,2.149,0.98
				c1.157,0,1.713-0.402,1.713-1.205c0-0.637-0.484-0.957-1.867-1.369c-1.748-0.521-2.586-0.957-2.586-2.434
				c0-1.43,1.205-2.303,2.729-2.303c1.122,0,1.972,0.414,2.705,1.121l-0.875,0.887c-0.519-0.531-1.11-0.791-1.925-0.791
				c-0.969,0-1.382,0.471-1.382,1.027c0,0.578,0.378,0.861,1.808,1.287c1.629,0.496,2.646,1.016,2.646,2.49
				C77.993,118.666,77.048,119.68,74.933,119.68z"/>
			<path fill="#CCCCCC" d="M83.413,115.135c-0.507-0.521-0.956-0.756-1.512-0.756c-0.885,0-1.452,0.791-1.452,2.055
				c0,1.217,0.519,2.09,1.488,2.09c0.579,0,0.921-0.26,1.406-0.768l0.779,0.768c-0.484,0.615-1.098,1.156-2.221,1.156
				c-1.511,0-2.681-1.273-2.681-3.211c0-2.057,1.205-3.248,2.717-3.248c0.91,0,1.618,0.365,2.197,1.051L83.413,115.135z"/>
			<path fill="#CCCCCC" d="M89.295,119.551v-3.508c0-1.25-0.473-1.701-1.275-1.701c-0.815,0-1.275,0.58-1.275,1.584v3.625h-1.217
				v-7.971l1.217-0.639v3c0.307-0.449,0.921-0.721,1.559-0.721c1.44,0,2.208,0.945,2.208,2.775v3.555H89.295z"/>
			<path fill="#CCCCCC" d="M94.681,119.68c-1.559,0-2.728-1.285-2.728-3.223c0-2.031,1.205-3.236,2.763-3.236
				c1.583,0,2.764,1.264,2.764,3.201C97.479,118.477,96.275,119.68,94.681,119.68z M94.668,114.379
				c-0.921,0-1.487,0.814-1.487,2.043c0,1.357,0.625,2.102,1.547,2.102s1.524-0.934,1.524-2.066
				C96.252,115.193,95.649,114.379,94.668,114.379z"/>
			<path fill="#CCCCCC" d="M101.495,119.68c-1.559,0-2.728-1.285-2.728-3.223c0-2.031,1.204-3.236,2.764-3.236
				c1.582,0,2.763,1.264,2.763,3.201C104.294,118.477,103.09,119.68,101.495,119.68z M101.483,114.379
				c-0.921,0-1.488,0.814-1.488,2.043c0,1.357,0.626,2.102,1.547,2.102s1.523-0.934,1.523-2.066
				C103.066,115.193,102.464,114.379,101.483,114.379z"/>
			<path fill="#CCCCCC" d="M105.7,119.551v-7.971l1.216-0.639v8.609H105.7z"/>
			<path fill="#CCCCCC" d="M114.558,119.68c-1.558,0-2.729-1.285-2.729-3.223c0-2.031,1.205-3.236,2.765-3.236
				c1.583,0,2.764,1.264,2.764,3.201C117.357,118.477,116.151,119.68,114.558,119.68z M114.547,114.379
				c-0.923,0-1.489,0.814-1.489,2.043c0,1.357,0.627,2.102,1.548,2.102s1.522-0.934,1.522-2.066
				C116.128,115.193,115.526,114.379,114.547,114.379z"/>
			<path fill="#CCCCCC" d="M120.899,112.039c-0.4,0-0.565,0.154-0.565,0.604v0.707h1.145v1.135h-1.145v5.066h-1.218v-5.066h-0.803
				v-1.135h0.803v-0.814c0-1.133,0.697-1.559,1.571-1.559c0.319,0,0.661,0.047,0.921,0.117v1.064
				C121.326,112.074,121.112,112.039,120.899,112.039z"/>
			<path fill="#CCCCCC" d="M129.794,119.551h-3.283v-8.268h3.401c1.44,0,2.373,0.756,2.373,2.15c0,0.838-0.448,1.359-1.05,1.654
				c0.647,0.176,1.393,0.777,1.393,1.924C132.628,118.688,131.601,119.551,129.794,119.551z M129.9,112.418h-2.222v2.137h2.222
				c0.814,0,1.145-0.506,1.145-1.051C131.045,112.891,130.728,112.418,129.9,112.418z M129.924,115.678h-2.245v2.74h2.209
				c1.099,0,1.5-0.557,1.5-1.371C131.388,116.195,130.856,115.678,129.924,115.678z"/>
			<path fill="#CCCCCC" d="M137.576,119.551v-0.59c-0.307,0.449-0.921,0.719-1.56,0.719c-1.439,0-2.207-0.943-2.207-2.773v-3.557
				h1.216v3.508c0,1.252,0.473,1.701,1.276,1.701c0.814,0,1.274-0.578,1.274-1.582v-3.627h1.217v6.201H137.576z"/>
			<path fill="#CCCCCC" d="M142.442,119.68c-0.839,0-1.748-0.33-2.374-0.789l0.555-0.922c0.579,0.402,1.229,0.613,1.808,0.613
				c0.768,0,1.135-0.246,1.135-0.686c0-0.471-0.544-0.697-1.441-1.039c-1.335-0.52-1.818-0.967-1.818-1.947
				c0-1.111,0.874-1.689,2.113-1.689c0.779,0,1.548,0.283,2.103,0.686l-0.531,0.934c-0.508-0.355-1.016-0.533-1.606-0.533
				s-0.851,0.236-0.851,0.568c0,0.307,0.212,0.531,1.145,0.896c1.384,0.531,2.092,0.91,2.092,2.078
				C144.77,119.221,143.659,119.68,142.442,119.68z"/>
			<path fill="#CCCCCC" d="M146.967,112.547c-0.438,0-0.792-0.354-0.792-0.779c0-0.438,0.354-0.791,0.792-0.791
				c0.425,0,0.779,0.354,0.779,0.791C147.746,112.193,147.392,112.547,146.967,112.547z M146.352,119.551v-6.201h1.217v6.201
				H146.352z"/>
			<path fill="#CCCCCC" d="M153.096,119.551v-3.508c0-1.25-0.473-1.701-1.275-1.701c-0.814,0-1.274,0.58-1.274,1.584v3.625h-1.218
				v-6.201h1.218v0.592c0.306-0.449,0.92-0.721,1.558-0.721c1.442,0,2.209,0.945,2.209,2.775v3.555H153.096z"/>
			<path fill="#CCCCCC" d="M161.068,116.883h-4.098c0.129,1.193,0.803,1.699,1.559,1.699c0.52,0,0.933-0.188,1.346-0.494
				l0.721,0.779c-0.544,0.52-1.192,0.812-2.137,0.812c-1.454,0-2.683-1.168-2.683-3.223c0-2.104,1.11-3.236,2.717-3.236
				c1.761,0,2.61,1.428,2.61,3.105C161.104,116.553,161.08,116.752,161.068,116.883z M158.41,114.318
				c-0.815,0-1.311,0.568-1.416,1.561h2.881C159.816,115.027,159.415,114.318,158.41,114.318z"/>
			<path fill="#CCCCCC" d="M164.529,119.68c-0.839,0-1.748-0.33-2.375-0.789l0.556-0.922c0.578,0.402,1.228,0.613,1.807,0.613
				c0.769,0,1.134-0.246,1.134-0.686c0-0.471-0.542-0.697-1.441-1.039c-1.334-0.52-1.818-0.967-1.818-1.947
				c0-1.111,0.874-1.689,2.114-1.689c0.78,0,1.548,0.283,2.103,0.686l-0.532,0.934c-0.508-0.355-1.016-0.533-1.604-0.533
				c-0.592,0-0.851,0.236-0.851,0.568c0,0.307,0.211,0.531,1.145,0.896c1.382,0.531,2.092,0.91,2.092,2.078
				C166.856,119.221,165.744,119.68,164.529,119.68z"/>
			<path fill="#CCCCCC" d="M170.363,119.68c-0.839,0-1.748-0.33-2.374-0.789l0.556-0.922c0.578,0.402,1.228,0.613,1.807,0.613
				c0.768,0,1.133-0.246,1.133-0.686c0-0.471-0.542-0.697-1.44-1.039c-1.335-0.52-1.818-0.967-1.818-1.947
				c0-1.111,0.874-1.689,2.113-1.689c0.78,0,1.547,0.283,2.103,0.686l-0.531,0.934c-0.508-0.355-1.016-0.533-1.605-0.533
				c-0.591,0-0.851,0.236-0.851,0.568c0,0.307,0.212,0.531,1.146,0.896c1.382,0.531,2.091,0.91,2.091,2.078
				C172.69,119.221,171.578,119.68,170.363,119.68z"/>
		</g>
	</g>
	<g>
		<path fill="#CCCCCC" d="M73.302,131.514c-0.819,0-1.308-0.492-1.308-1.312v-1.951h0.621v1.926c0,0.514,0.246,0.797,0.692,0.797
			c0.457,0,0.698-0.27,0.698-0.785v-1.938h0.627v1.926C74.633,131.014,74.135,131.514,73.302,131.514L73.302,131.514z"/>
	</g>
	<g>
		<path fill="#CCCCCC" d="M78.954,131.453h-0.538l-1.523-2.244v2.244h-0.571v-3.203h0.606l1.455,2.148v-2.148h0.571V131.453
			L78.954,131.453z"/>
	</g>
	<g>
		<path fill="#CCCCCC" d="M81.361,131.453h-0.626v-3.203h0.626V131.453L81.361,131.453z"/>
	</g>
	<g>
		<path fill="#CCCCCC" d="M84.395,131.502h-0.563l-1.234-3.176l0.627-0.137l0.914,2.5l0.894-2.439h0.632L84.395,131.502
			L84.395,131.502z"/>
	</g>
	<g>
		<path fill="#CCCCCC" d="M88.902,131.453h-2.058v-3.203h2.014v0.553h-1.393v0.709h1.108l0.092,0.553h-1.201v0.834h1.436V131.453
			L88.902,131.453z"/>
	</g>
	<g>
		<path fill="#CCCCCC" d="M92.302,131.492l-0.913-1.254h-0.294v1.215h-0.621v-3.203h1.005c0.761,0,1.215,0.373,1.215,0.998
			c0,0.436-0.22,0.748-0.637,0.906l0.889,1.193L92.302,131.492L92.302,131.492z M91.096,129.742h0.378
			c0.387,0,0.599-0.174,0.599-0.488c0-0.379-0.326-0.457-0.599-0.457h-0.378V129.742L91.096,129.742z"/>
	</g>
	<g>
		<path fill="#CCCCCC" d="M95.228,131.496c-0.34,0-0.727-0.086-1.089-0.24l-0.023-0.008l0.092-0.57l0.039,0.021
			c0.322,0.166,0.716,0.273,1.007,0.273c0.353,0,0.581-0.154,0.581-0.395c0-0.238-0.149-0.33-0.598-0.482
			c-0.671-0.234-1.012-0.447-1.012-0.953c0-0.551,0.446-0.936,1.085-0.936c0.323,0,0.65,0.066,0.922,0.188l0.022,0.01l-0.09,0.582
			l-0.041-0.02c-0.298-0.156-0.572-0.232-0.833-0.232c-0.279,0-0.489,0.146-0.489,0.34c0,0.213,0.145,0.295,0.641,0.465
			c0.629,0.221,0.97,0.439,0.97,0.971C96.411,131.1,95.935,131.496,95.228,131.496L95.228,131.496z"/>
	</g>
	<g>
		<path fill="#CCCCCC" d="M98.588,131.453h-0.628v-3.203h0.628V131.453L98.588,131.453z"/>
	</g>
	<g>
		<path fill="#CCCCCC" d="M101.408,131.453h-0.628v-2.645h-0.983v-0.559h2.56l0.084,0.559h-1.032V131.453L101.408,131.453z"/>
	</g>
	<g>
		<path fill="#CCCCCC" d="M104.632,131.453h-0.627v-1.238l-1.146-1.887l0.636-0.137l0.833,1.457l0.805-1.398h0.688l-1.188,1.959
			V131.453L104.632,131.453z"/>
	</g>
	<g>
		<path fill="#CCCCCC" d="M109.825,131.514c-0.766,0-1.542-0.57-1.542-1.66c0-1.094,0.776-1.666,1.542-1.666
			c0.765,0,1.536,0.57,1.536,1.66C111.361,130.941,110.59,131.514,109.825,131.514L109.825,131.514z M109.825,128.729
			c-0.543,0-0.909,0.449-0.909,1.119c0,0.656,0.383,1.131,0.909,1.131c0.541,0,0.903-0.451,0.903-1.125
			C110.729,129.203,110.349,128.729,109.825,128.729L109.825,128.729z"/>
	</g>
	<g>
		<path fill="#CCCCCC" d="M113.422,131.453h-0.62v-3.203h1.963v0.553h-1.343v0.758h1.053l0.093,0.555h-1.146V131.453
			L113.422,131.453z"/>
	</g>
	<g>
		<path fill="#CCCCCC" d="M119.207,131.453h-1.053v-3.203h1.047c0.675,0,1.078,0.311,1.078,0.83c0,0.307-0.135,0.533-0.398,0.676
			c0.358,0.131,0.542,0.379,0.542,0.742C120.423,131.113,119.99,131.453,119.207,131.453L119.207,131.453z M118.752,130.93h0.462
			c0.417,0,0.619-0.141,0.619-0.432c0-0.307-0.206-0.465-0.612-0.465h-0.469V130.93L118.752,130.93z M118.752,129.525h0.406
			c0.357,0,0.538-0.133,0.538-0.395c0-0.15-0.054-0.354-0.52-0.354h-0.425V129.525L118.752,129.525z"/>
	</g>
	<g>
		<path fill="#CCCCCC" d="M123.763,131.492l-0.911-1.254h-0.294v1.215h-0.621v-3.203h1.005c0.76,0,1.213,0.373,1.213,0.998
			c0,0.436-0.22,0.748-0.638,0.906l0.89,1.193L123.763,131.492L123.763,131.492z M122.558,129.742h0.378
			c0.386,0,0.598-0.174,0.598-0.488c0-0.379-0.325-0.457-0.598-0.457h-0.378V129.742L122.558,129.742z"/>
	</g>
	<g>
		<path fill="#CCCCCC" d="M126.405,131.453h-0.628v-3.203h0.628V131.453L126.405,131.453z"/>
	</g>
	<g>
		<path fill="#CCCCCC" d="M129.229,131.453h-0.626v-2.645h-0.984v-0.559h2.56l0.085,0.559h-1.034V131.453L129.229,131.453z"/>
	</g>
	<g>
		<path fill="#CCCCCC" d="M132.035,131.453h-0.627v-3.203h0.627V131.453L132.035,131.453z"/>
	</g>
	<g>
		<path fill="#CCCCCC" d="M134.621,131.496c-0.341,0-0.727-0.086-1.09-0.24l-0.023-0.008l0.093-0.57l0.039,0.021
			c0.321,0.166,0.716,0.273,1.007,0.273c0.352,0,0.58-0.154,0.58-0.395c0-0.238-0.149-0.33-0.598-0.482
			c-0.67-0.234-1.011-0.447-1.011-0.953c0-0.551,0.445-0.936,1.084-0.936c0.322,0,0.65,0.066,0.922,0.188l0.022,0.01l-0.092,0.582
			l-0.038-0.02c-0.3-0.156-0.571-0.232-0.834-0.232c-0.278,0-0.488,0.146-0.488,0.34c0,0.213,0.145,0.295,0.642,0.465
			c0.627,0.221,0.968,0.439,0.968,0.971C135.804,131.1,135.328,131.496,134.621,131.496L134.621,131.496z"/>
	</g>
	<g>
		<path fill="#CCCCCC" d="M139.794,131.453h-0.628v-1.381h-1.378v1.381h-0.619v-3.203h0.619v1.25h1.378v-1.25h0.628V131.453
			L139.794,131.453z"/>
	</g>
	<g>
		<path fill="#CCCCCC" d="M144.603,131.514c-0.923,0-1.542-0.664-1.542-1.652c0-1.002,0.619-1.674,1.542-1.674
			c0.366,0,0.659,0.08,0.921,0.248l0.018,0.01l-0.099,0.586L145.4,129c-0.254-0.189-0.5-0.279-0.779-0.279
			c-0.577,0-0.921,0.426-0.921,1.133c0,0.699,0.357,1.133,0.934,1.133c0.276,0,0.563-0.1,0.83-0.285l0.041-0.029l0.086,0.547
			l-0.017,0.01C145.296,131.412,144.95,131.514,144.603,131.514L144.603,131.514z"/>
	</g>
	<g>
		<path fill="#CCCCCC" d="M148.282,131.514c-0.767,0-1.542-0.57-1.542-1.66c0-1.094,0.775-1.666,1.542-1.666
			c0.764,0,1.535,0.57,1.535,1.66C149.817,130.941,149.046,131.514,148.282,131.514L148.282,131.514z M148.282,128.729
			c-0.543,0-0.909,0.449-0.909,1.119c0,0.656,0.383,1.131,0.909,1.131c0.541,0,0.902-0.451,0.902-1.125
			C149.185,129.203,148.806,128.729,148.282,128.729L148.282,128.729z"/>
	</g>
	<g>
		<path fill="#CCCCCC" d="M153.085,131.453h-1.896v-3.203h0.621v2.656h1.185L153.085,131.453L153.085,131.453z"/>
	</g>
	<g>
		<path fill="#CCCCCC" d="M155.495,131.514c-0.819,0-1.308-0.492-1.308-1.312v-1.951h0.622v1.926c0,0.514,0.244,0.797,0.692,0.797
			c0.455,0,0.697-0.27,0.697-0.785v-1.938h0.628v1.926C156.827,131.014,156.328,131.514,155.495,131.514L155.495,131.514z"/>
	</g>
	<g>
		<path fill="#CCCCCC" d="M160.543,131.463h-0.603l-0.854-2.426l-0.177,2.416h-0.572l0.254-3.203h0.844l0.838,2.453l0.85-2.453
			h0.826l0.252,3.203h-0.621l-0.182-2.416L160.543,131.463L160.543,131.463z"/>
	</g>
	<g>
		<path fill="#CCCCCC" d="M164.931,131.453h-1.053v-3.203h1.047c0.676,0,1.079,0.311,1.079,0.83c0,0.307-0.136,0.533-0.399,0.676
			c0.358,0.131,0.541,0.379,0.541,0.742C166.146,131.113,165.714,131.453,164.931,131.453L164.931,131.453z M164.476,130.93h0.462
			c0.417,0,0.618-0.141,0.618-0.432c0-0.307-0.206-0.465-0.612-0.465h-0.468V130.93L164.476,130.93z M164.476,129.525h0.407
			c0.356,0,0.537-0.133,0.537-0.395c0-0.15-0.054-0.354-0.519-0.354h-0.426V129.525L164.476,129.525z"/>
	</g>
	<g>
		<path fill="#CCCCCC" d="M168.344,131.453h-0.627v-3.203h0.627V131.453L168.344,131.453z"/>
	</g>
	<g>
		<path fill="#CCCCCC" d="M172.114,131.514l-0.312-0.848h-1.342l-0.29,0.787h-0.614l1.263-3.24h0.663l1.246,3.162L172.114,131.514
			L172.114,131.514z M170.663,130.113h0.931c-0.058-0.164-0.291-0.791-0.462-1.254L170.663,130.113L170.663,130.113z"/>
	</g>
</g>
</svg>
