<?xml version="1.0" encoding="utf-8"?>
<!-- Generator: Adobe Illustrator 17.0.2, SVG Export Plug-In . SVG Version: 6.00 Build 0)  -->
<!DOCTYPE svg PUBLIC "-//W3C//DTD SVG 1.1//EN" "http://www.w3.org/Graphics/SVG/1.1/DTD/svg11.dtd">
<svg version="1.1" id="Layer_1" xmlns="http://www.w3.org/2000/svg" xmlns:xlink="http://www.w3.org/1999/xlink" x="0px" y="0px"
	 width="200px" height="100px" viewBox="0 -10 200 100" enable-background="new 0 -10 200 100" xml:space="preserve">
<g>
	<polygon fill="#CCCCCC" points="43.689,42.15 35.089,48.767 35.089,21.688 43.694,29.168 	"/>
	<polygon fill="#CCCCCC" points="53.525,49.644 60.199,54.775 60.199,14.905 53.525,20.698 	"/>
	<polygon fill="#CCCCCC" points="33.947,49.644 27.272,54.775 27.272,14.905 33.947,20.699 	"/>
	<polygon fill="#CCCCCC" points="52.759,19.937 59.992,13.663 27.461,13.668 34.711,19.933 	"/>
	<g>
		<g>
			<path fill="#CCCCCC" d="M78.401,41.976c-2.672,0-4.977-1.152-6.522-2.959l1.965-1.91c1.231,1.334,3.038,2.172,4.767,2.172
				c2.567,0,3.798-0.891,3.798-2.67c0-1.417-1.074-2.123-4.138-3.04c-3.877-1.152-5.737-2.121-5.737-5.396
				c0-3.169,2.672-5.107,6.05-5.107c2.488,0,4.374,0.918,5.998,2.488l-1.938,1.965c-1.153-1.179-2.462-1.755-4.27-1.755
				c-2.147,0-3.064,1.047-3.064,2.279c0,1.282,0.838,1.912,4.007,2.854c3.615,1.1,5.867,2.254,5.867,5.528
				C85.184,39.724,83.088,41.976,78.401,41.976z"/>
			<path fill="#CCCCCC" d="M100.663,41.689l-1.546-4.348h-7.333l-1.519,4.348H87.41l6.601-18.334h2.908l6.678,18.334H100.663z
				 M96.813,30.662c-0.445-1.31-1.179-3.431-1.388-4.216c-0.21,0.785-0.864,2.88-1.335,4.242l-1.467,4.19h5.657L96.813,30.662z"/>
			<path fill="#CCCCCC" d="M113.052,41.976c-4.532,0-6.89-2.934-6.89-7.987V23.355h2.751v10.556c0,3.458,1.44,5.316,4.19,5.316
				c2.882,0,4.243-1.779,4.243-5.133V23.355h2.75v10.687C120.097,39.176,117.608,41.976,113.052,41.976z"/>
			<path fill="#CCCCCC" d="M129.211,41.689h-5.003V23.355h5.003c4.924,0,8.932,2.697,8.932,9.167S134.004,41.689,129.211,41.689z
				 M129.211,26.027h-2.252v12.991h2.252c4.348,0,6.129-2.643,6.129-6.496C135.34,28.671,133.559,26.027,129.211,26.027z"/>
			<path fill="#CCCCCC" d="M141.992,41.689V23.355h11.812v2.672h-9.062v4.531h5.265v2.672h-5.265v5.788h9.455v2.672L141.992,41.689
				L141.992,41.689z"/>
			<path fill="#CCCCCC" d="M168,34.198l3.746,7.491h-3.17l-3.641-7.256h-4.138v7.256H158.1V23.355h8.042
				c3.193,0,5.892,1.703,5.892,5.475C172.033,31.762,170.488,33.57,168,34.198z M166.142,25.948h-5.344v5.893h5.344
				c1.832,0,3.116-0.943,3.116-2.933C169.258,26.995,168,25.948,166.142,25.948z"/>
		</g>
		<g>
			<path fill="#CCCCCC" d="M74.933,54.502c-1.205,0-2.244-0.518-2.94-1.334l0.886-0.861c0.555,0.604,1.37,0.98,2.149,0.98
				c1.157,0,1.713-0.402,1.713-1.205c0-0.637-0.484-0.957-1.867-1.369c-1.748-0.521-2.586-0.957-2.586-2.434
				c0-1.43,1.205-2.303,2.729-2.303c1.122,0,1.972,0.414,2.705,1.121l-0.875,0.887c-0.519-0.531-1.11-0.791-1.925-0.791
				c-0.969,0-1.382,0.471-1.382,1.027c0,0.578,0.378,0.861,1.808,1.287c1.629,0.496,2.646,1.016,2.646,2.49
				C77.993,53.488,77.048,54.502,74.933,54.502z"/>
			<path fill="#CCCCCC" d="M83.413,49.957c-0.507-0.521-0.956-0.756-1.512-0.756c-0.885,0-1.452,0.791-1.452,2.055
				c0,1.217,0.519,2.09,1.488,2.09c0.579,0,0.921-0.26,1.406-0.768l0.779,0.768c-0.484,0.615-1.098,1.156-2.221,1.156
				c-1.511,0-2.681-1.273-2.681-3.211c0-2.057,1.205-3.248,2.717-3.248c0.91,0,1.618,0.365,2.197,1.051L83.413,49.957z"/>
			<path fill="#CCCCCC" d="M89.295,54.373v-3.508c0-1.25-0.473-1.701-1.275-1.701c-0.815,0-1.275,0.58-1.275,1.584v3.625h-1.217
				v-7.971l1.217-0.639v3c0.307-0.449,0.921-0.721,1.559-0.721c1.44,0,2.208,0.945,2.208,2.775v3.555L89.295,54.373L89.295,54.373z"
				/>
			<path fill="#CCCCCC" d="M94.681,54.502c-1.559,0-2.728-1.285-2.728-3.223c0-2.031,1.205-3.236,2.763-3.236
				c1.583,0,2.764,1.264,2.764,3.201C97.479,53.299,96.275,54.502,94.681,54.502z M94.668,49.201c-0.921,0-1.487,0.814-1.487,2.043
				c0,1.357,0.625,2.102,1.547,2.102s1.524-0.934,1.524-2.066C96.252,50.015,95.649,49.201,94.668,49.201z"/>
			<path fill="#CCCCCC" d="M101.495,54.502c-1.559,0-2.728-1.285-2.728-3.223c0-2.031,1.204-3.236,2.764-3.236
				c1.582,0,2.763,1.264,2.763,3.201C104.294,53.299,103.09,54.502,101.495,54.502z M101.483,49.201
				c-0.921,0-1.488,0.814-1.488,2.043c0,1.357,0.626,2.102,1.547,2.102s1.523-0.934,1.523-2.066
				C103.066,50.015,102.464,49.201,101.483,49.201z"/>
			<path fill="#CCCCCC" d="M105.7,54.373v-7.971l1.216-0.639v8.609L105.7,54.373L105.7,54.373z"/>
			<path fill="#CCCCCC" d="M114.558,54.502c-1.558,0-2.729-1.285-2.729-3.223c0-2.031,1.205-3.236,2.765-3.236
				c1.583,0,2.764,1.264,2.764,3.201C117.357,53.299,116.151,54.502,114.558,54.502z M114.547,49.201
				c-0.923,0-1.489,0.814-1.489,2.043c0,1.357,0.627,2.102,1.548,2.102s1.522-0.934,1.522-2.066
				C116.128,50.015,115.526,49.201,114.547,49.201z"/>
			<path fill="#CCCCCC" d="M120.899,46.861c-0.4,0-0.565,0.154-0.565,0.604v0.707h1.145v1.135h-1.145v5.066h-1.218v-5.066h-0.803
				v-1.135h0.803v-0.814c0-1.133,0.697-1.559,1.571-1.559c0.319,0,0.661,0.047,0.921,0.117v1.064
				C121.326,46.896,121.112,46.861,120.899,46.861z"/>
			<path fill="#CCCCCC" d="M129.794,54.373h-3.283v-8.268h3.401c1.44,0,2.373,0.756,2.373,2.15c0,0.838-0.448,1.359-1.05,1.654
				c0.647,0.176,1.393,0.777,1.393,1.924C132.628,53.51,131.601,54.373,129.794,54.373z M129.9,47.24h-2.222v2.137h2.222
				c0.814,0,1.145-0.506,1.145-1.051C131.045,47.713,130.728,47.24,129.9,47.24z M129.924,50.5h-2.245v2.74h2.209
				c1.099,0,1.5-0.557,1.5-1.371C131.388,51.017,130.856,50.5,129.924,50.5z"/>
			<path fill="#CCCCCC" d="M137.576,54.373v-0.59c-0.307,0.449-0.921,0.719-1.56,0.719c-1.439,0-2.207-0.943-2.207-2.773v-3.557
				h1.216v3.508c0,1.252,0.473,1.701,1.276,1.701c0.814,0,1.274-0.578,1.274-1.582v-3.627h1.217v6.201
				C138.792,54.373,137.576,54.373,137.576,54.373z"/>
			<path fill="#CCCCCC" d="M142.442,54.502c-0.839,0-1.748-0.33-2.374-0.789l0.555-0.922c0.579,0.402,1.229,0.613,1.808,0.613
				c0.768,0,1.135-0.246,1.135-0.686c0-0.471-0.544-0.697-1.441-1.039c-1.335-0.52-1.818-0.967-1.818-1.947
				c0-1.111,0.874-1.689,2.113-1.689c0.779,0,1.548,0.283,2.103,0.686l-0.531,0.934c-0.508-0.355-1.016-0.533-1.606-0.533
				s-0.851,0.236-0.851,0.568c0,0.307,0.212,0.531,1.145,0.896c1.384,0.531,2.092,0.91,2.092,2.078
				C144.77,54.043,143.659,54.502,142.442,54.502z"/>
			<path fill="#CCCCCC" d="M146.967,47.369c-0.438,0-0.792-0.354-0.792-0.779c0-0.438,0.354-0.791,0.792-0.791
				c0.425,0,0.779,0.354,0.779,0.791C147.746,47.015,147.392,47.369,146.967,47.369z M146.352,54.373v-6.201h1.217v6.201
				C147.569,54.373,146.352,54.373,146.352,54.373z"/>
			<path fill="#CCCCCC" d="M153.096,54.373v-3.508c0-1.25-0.473-1.701-1.275-1.701c-0.814,0-1.274,0.58-1.274,1.584v3.625h-1.218
				v-6.201h1.218v0.592c0.306-0.449,0.92-0.721,1.558-0.721c1.442,0,2.209,0.945,2.209,2.775v3.555
				C154.314,54.373,153.096,54.373,153.096,54.373z"/>
			<path fill="#CCCCCC" d="M161.068,51.705h-4.098c0.129,1.193,0.803,1.699,1.559,1.699c0.52,0,0.933-0.188,1.346-0.494l0.721,0.779
				c-0.544,0.52-1.192,0.812-2.137,0.812c-1.454,0-2.683-1.168-2.683-3.223c0-2.104,1.11-3.236,2.717-3.236
				c1.761,0,2.61,1.428,2.61,3.105C161.104,51.375,161.08,51.574,161.068,51.705z M158.41,49.14c-0.815,0-1.311,0.568-1.416,1.561
				h2.881C159.816,49.849,159.415,49.14,158.41,49.14z"/>
			<path fill="#CCCCCC" d="M164.529,54.502c-0.839,0-1.748-0.33-2.375-0.789l0.556-0.922c0.578,0.402,1.228,0.613,1.807,0.613
				c0.769,0,1.134-0.246,1.134-0.686c0-0.471-0.542-0.697-1.441-1.039c-1.334-0.52-1.818-0.967-1.818-1.947
				c0-1.111,0.874-1.689,2.114-1.689c0.78,0,1.548,0.283,2.103,0.686l-0.532,0.934c-0.508-0.355-1.016-0.533-1.604-0.533
				c-0.592,0-0.851,0.236-0.851,0.568c0,0.307,0.211,0.531,1.145,0.896c1.382,0.531,2.092,0.91,2.092,2.078
				C166.856,54.043,165.744,54.502,164.529,54.502z"/>
			<path fill="#CCCCCC" d="M170.363,54.502c-0.839,0-1.748-0.33-2.374-0.789l0.556-0.922c0.578,0.402,1.228,0.613,1.807,0.613
				c0.768,0,1.133-0.246,1.133-0.686c0-0.471-0.542-0.697-1.44-1.039c-1.335-0.52-1.818-0.967-1.818-1.947
				c0-1.111,0.874-1.689,2.113-1.689c0.78,0,1.547,0.283,2.103,0.686l-0.531,0.934c-0.508-0.355-1.016-0.533-1.605-0.533
				c-0.591,0-0.851,0.236-0.851,0.568c0,0.307,0.212,0.531,1.146,0.896c1.382,0.531,2.091,0.91,2.091,2.078
				C172.69,54.043,171.578,54.502,170.363,54.502z"/>
		</g>
	</g>
	<g>
		<path fill="#CCCCCC" d="M73.302,66.337c-0.819,0-1.308-0.492-1.308-1.312v-1.951h0.621v1.926c0,0.514,0.246,0.797,0.692,0.797
			c0.457,0,0.698-0.27,0.698-0.785v-1.938h0.627v1.926C74.633,65.837,74.135,66.337,73.302,66.337L73.302,66.337z"/>
	</g>
	<g>
		<path fill="#CCCCCC" d="M78.954,66.275h-0.538l-1.523-2.244v2.244h-0.571v-3.203h0.606l1.455,2.148v-2.148h0.571V66.275
			L78.954,66.275z"/>
	</g>
	<g>
		<path fill="#CCCCCC" d="M81.361,66.275h-0.626v-3.203h0.626V66.275L81.361,66.275z"/>
	</g>
	<g>
		<path fill="#CCCCCC" d="M84.395,66.324h-0.563l-1.234-3.176l0.627-0.137l0.914,2.5l0.894-2.439h0.632L84.395,66.324L84.395,66.324
			z"/>
	</g>
	<g>
		<path fill="#CCCCCC" d="M88.902,66.275h-2.058v-3.203h2.014v0.553h-1.393v0.709h1.108l0.092,0.553h-1.201v0.834H88.9v0.554
			L88.902,66.275L88.902,66.275z"/>
	</g>
	<g>
		<path fill="#CCCCCC" d="M92.302,66.314l-0.913-1.254h-0.294v1.215h-0.621v-3.203h1.005c0.761,0,1.215,0.373,1.215,0.998
			c0,0.436-0.22,0.748-0.637,0.906l0.889,1.193L92.302,66.314L92.302,66.314z M91.096,64.564h0.378c0.387,0,0.599-0.174,0.599-0.488
			c0-0.379-0.326-0.457-0.599-0.457h-0.378V64.564L91.096,64.564z"/>
	</g>
	<g>
		<path fill="#CCCCCC" d="M95.228,66.318c-0.34,0-0.727-0.086-1.089-0.24l-0.023-0.008l0.092-0.57l0.039,0.021
			c0.322,0.166,0.716,0.273,1.007,0.273c0.353,0,0.581-0.154,0.581-0.395c0-0.238-0.149-0.33-0.598-0.482
			c-0.671-0.234-1.012-0.447-1.012-0.953c0-0.551,0.446-0.936,1.085-0.936c0.323,0,0.65,0.066,0.922,0.188l0.022,0.01l-0.09,0.582
			l-0.041-0.02c-0.298-0.156-0.572-0.232-0.833-0.232c-0.279,0-0.489,0.146-0.489,0.34c0,0.213,0.145,0.295,0.641,0.465
			c0.629,0.221,0.97,0.439,0.97,0.971C96.411,65.923,95.935,66.318,95.228,66.318L95.228,66.318z"/>
	</g>
	<g>
		<path fill="#CCCCCC" d="M98.588,66.275H97.96v-3.203h0.628V66.275L98.588,66.275z"/>
	</g>
	<g>
		<path fill="#CCCCCC" d="M101.408,66.275h-0.628V63.63h-0.983v-0.559h2.56l0.084,0.559h-1.032L101.408,66.275L101.408,66.275z"/>
	</g>
	<g>
		<path fill="#CCCCCC" d="M104.632,66.275h-0.627v-1.238l-1.146-1.887l0.636-0.137l0.833,1.457l0.805-1.398h0.688l-1.188,1.959
			L104.632,66.275L104.632,66.275z"/>
	</g>
	<g>
		<path fill="#CCCCCC" d="M109.825,66.337c-0.766,0-1.542-0.57-1.542-1.66c0-1.094,0.776-1.666,1.542-1.666
			c0.765,0,1.536,0.57,1.536,1.66C111.361,65.763,110.59,66.337,109.825,66.337L109.825,66.337z M109.825,63.551
			c-0.543,0-0.909,0.449-0.909,1.119c0,0.656,0.383,1.131,0.909,1.131c0.541,0,0.903-0.451,0.903-1.125
			C110.729,64.025,110.349,63.551,109.825,63.551L109.825,63.551z"/>
	</g>
	<g>
		<path fill="#CCCCCC" d="M113.422,66.275h-0.62v-3.203h1.963v0.553h-1.343v0.758h1.053l0.093,0.555h-1.146L113.422,66.275
			L113.422,66.275z"/>
	</g>
	<g>
		<path fill="#CCCCCC" d="M119.207,66.275h-1.053v-3.203h1.047c0.675,0,1.078,0.311,1.078,0.83c0,0.307-0.135,0.533-0.398,0.676
			c0.358,0.131,0.542,0.379,0.542,0.742C120.423,65.936,119.99,66.275,119.207,66.275L119.207,66.275z M118.752,65.752h0.462
			c0.417,0,0.619-0.141,0.619-0.432c0-0.307-0.206-0.465-0.612-0.465h-0.469V65.752L118.752,65.752z M118.752,64.347h0.406
			c0.357,0,0.538-0.133,0.538-0.395c0-0.15-0.054-0.354-0.52-0.354h-0.425L118.752,64.347L118.752,64.347z"/>
	</g>
	<g>
		<path fill="#CCCCCC" d="M123.763,66.314l-0.911-1.254h-0.294v1.215h-0.621v-3.203h1.005c0.76,0,1.213,0.373,1.213,0.998
			c0,0.436-0.22,0.748-0.638,0.906l0.89,1.193L123.763,66.314L123.763,66.314z M122.558,64.564h0.378
			c0.386,0,0.598-0.174,0.598-0.488c0-0.379-0.325-0.457-0.598-0.457h-0.378V64.564L122.558,64.564z"/>
	</g>
	<g>
		<path fill="#CCCCCC" d="M126.405,66.275h-0.628v-3.203h0.628V66.275L126.405,66.275z"/>
	</g>
	<g>
		<path fill="#CCCCCC" d="M129.229,66.275h-0.626V63.63h-0.984v-0.559h2.56l0.085,0.559h-1.034v2.645H129.229z"/>
	</g>
	<g>
		<path fill="#CCCCCC" d="M132.035,66.275h-0.627v-3.203h0.627V66.275L132.035,66.275z"/>
	</g>
	<g>
		<path fill="#CCCCCC" d="M134.621,66.318c-0.341,0-0.727-0.086-1.09-0.24l-0.023-0.008l0.093-0.57l0.039,0.021
			c0.321,0.166,0.716,0.273,1.007,0.273c0.352,0,0.58-0.154,0.58-0.395c0-0.238-0.149-0.33-0.598-0.482
			c-0.67-0.234-1.011-0.447-1.011-0.953c0-0.551,0.445-0.936,1.084-0.936c0.322,0,0.65,0.066,0.922,0.188l0.022,0.01l-0.092,0.582
			l-0.038-0.02c-0.3-0.156-0.571-0.232-0.834-0.232c-0.278,0-0.488,0.146-0.488,0.34c0,0.213,0.145,0.295,0.642,0.465
			c0.627,0.221,0.968,0.439,0.968,0.971C135.804,65.923,135.328,66.318,134.621,66.318L134.621,66.318z"/>
	</g>
	<g>
		<path fill="#CCCCCC" d="M139.794,66.275h-0.628v-1.381h-1.378v1.381h-0.619v-3.203h0.619v1.25h1.378v-1.25h0.628V66.275
			L139.794,66.275z"/>
	</g>
	<g>
		<path fill="#CCCCCC" d="M144.603,66.337c-0.923,0-1.542-0.664-1.542-1.652c0-1.002,0.619-1.674,1.542-1.674
			c0.366,0,0.659,0.08,0.921,0.248l0.018,0.01l-0.099,0.586l-0.043-0.032c-0.254-0.189-0.5-0.279-0.779-0.279
			c-0.577,0-0.921,0.426-0.921,1.133c0,0.699,0.357,1.133,0.934,1.133c0.276,0,0.563-0.1,0.83-0.285l0.041-0.029l0.086,0.547
			l-0.017,0.01C145.296,66.234,144.95,66.337,144.603,66.337L144.603,66.337z"/>
	</g>
	<g>
		<path fill="#CCCCCC" d="M148.282,66.337c-0.767,0-1.542-0.57-1.542-1.66c0-1.094,0.775-1.666,1.542-1.666
			c0.764,0,1.535,0.57,1.535,1.66C149.817,65.763,149.046,66.337,148.282,66.337L148.282,66.337z M148.282,63.551
			c-0.543,0-0.909,0.449-0.909,1.119c0,0.656,0.383,1.131,0.909,1.131c0.541,0,0.902-0.451,0.902-1.125
			C149.185,64.025,148.806,63.551,148.282,63.551L148.282,63.551z"/>
	</g>
	<g>
		<path fill="#CCCCCC" d="M153.085,66.275h-1.896v-3.203h0.621v2.656h1.185L153.085,66.275L153.085,66.275z"/>
	</g>
	<g>
		<path fill="#CCCCCC" d="M155.495,66.337c-0.819,0-1.308-0.492-1.308-1.312v-1.951h0.622v1.926c0,0.514,0.244,0.797,0.692,0.797
			c0.455,0,0.697-0.27,0.697-0.785v-1.938h0.628v1.926C156.827,65.837,156.328,66.337,155.495,66.337L155.495,66.337z"/>
	</g>
	<g>
		<path fill="#CCCCCC" d="M160.543,66.285h-0.603l-0.854-2.426l-0.177,2.416h-0.572l0.254-3.203h0.844l0.838,2.453l0.85-2.453h0.826
			l0.252,3.203h-0.621l-0.182-2.416L160.543,66.285L160.543,66.285z"/>
	</g>
	<g>
		<path fill="#CCCCCC" d="M164.931,66.275h-1.053v-3.203h1.047c0.676,0,1.079,0.311,1.079,0.83c0,0.307-0.136,0.533-0.399,0.676
			c0.358,0.131,0.541,0.379,0.541,0.742C166.146,65.936,165.714,66.275,164.931,66.275L164.931,66.275z M164.476,65.752h0.462
			c0.417,0,0.618-0.141,0.618-0.432c0-0.307-0.206-0.465-0.612-0.465h-0.468V65.752L164.476,65.752z M164.476,64.347h0.407
			c0.356,0,0.537-0.133,0.537-0.395c0-0.15-0.054-0.354-0.519-0.354h-0.426L164.476,64.347L164.476,64.347z"/>
	</g>
	<g>
		<path fill="#CCCCCC" d="M168.344,66.275h-0.627v-3.203h0.627V66.275L168.344,66.275z"/>
	</g>
	<g>
		<path fill="#CCCCCC" d="M172.114,66.337l-0.312-0.848h-1.342l-0.29,0.787h-0.614l1.263-3.24h0.663l1.246,3.162L172.114,66.337
			L172.114,66.337z M170.663,64.936h0.931c-0.058-0.164-0.291-0.791-0.462-1.254L170.663,64.936L170.663,64.936z"/>
	</g>
</g>
</svg>
