<?xml version="1.0" encoding="utf-8"?>
<!-- Generator: Adobe Illustrator 16.0.1, SVG Export Plug-In . SVG Version: 6.00 Build 0)  -->
<!DOCTYPE svg PUBLIC "-//W3C//DTD SVG 1.1//EN" "http://www.w3.org/Graphics/SVG/1.1/DTD/svg11.dtd">
<svg version="1.1" id="Layer_1" xmlns="http://www.w3.org/2000/svg" xmlns:xlink="http://www.w3.org/1999/xlink" x="0px" y="0px"
	 width="150px" height="100px" viewBox="0 0 150 100" enable-background="new 0 0 150 100" xml:space="preserve">
<g>
	<g>
		<g>
			<polygon fill="#999999" points="51.067,47.228 54.448,47.228 54.448,57.053 56.994,57.053 56.994,47.228 60.335,47.228 
				60.335,44.608 51.067,44.608 			"/>
			<path fill="#999999" d="M68.327,48.403c-0.65-0.445-1.364-0.672-2.12-0.672c-0.745,0-1.465,0.201-2.144,0.597
				c-0.682,0.397-1.217,0.976-1.586,1.716c-0.371,0.737-0.558,1.558-0.558,2.431c0,1.379,0.413,2.525,1.229,3.407
				c0.818,0.888,1.883,1.336,3.168,1.336c1.275,0,2.345-0.547,3.172-1.624l0.053-0.066l-1.691-1.33l-0.062-0.047l-0.054,0.054
				c-0.414,0.413-0.873,0.614-1.401,0.614h-0.058c-0.438,0-0.825-0.135-1.147-0.399c-0.312-0.258-0.526-0.61-0.64-1.058h5.82v-0.084
				c0-1.32-0.168-2.361-0.502-3.094C69.475,49.446,68.975,48.849,68.327,48.403z M65.05,50.465c0.347-0.243,0.734-0.377,1.157-0.39
				c0.421,0.013,0.805,0.146,1.145,0.39c0.31,0.223,0.508,0.514,0.619,0.895h-3.549C64.526,50.984,64.737,50.686,65.05,50.465z"/>
			<path fill="#999999" d="M77.566,53.932l-0.051,0.053c-0.436,0.459-0.959,0.692-1.564,0.705c-0.558,0-1.052-0.217-1.47-0.642
				c-0.42-0.426-0.635-0.962-0.635-1.593c0-0.619,0.213-1.152,0.635-1.584c0.418-0.433,0.914-0.648,1.47-0.648
				c0.76,0,1.35,0.241,1.742,0.715l0.055,0.065l1.812-1.396l-0.051-0.07c-0.879-1.197-2.076-1.806-3.561-1.806
				c-1.296,0-2.411,0.457-3.306,1.358c-0.904,0.898-1.367,2.037-1.379,3.385c0.012,1.346,0.475,2.482,1.379,3.385
				c0.896,0.9,2.012,1.358,3.306,1.358c1.486,0,2.682-0.616,3.561-1.825l0.051-0.072l-1.934-1.346L77.566,53.932z"/>
			<path fill="#999999" d="M85.461,47.731c-0.84,0-1.561,0.227-2.145,0.672v-4.013l-2.57,1.285l-0.047,0.023v11.354h2.617v-5.484
				c0.035-0.377,0.195-0.705,0.479-0.967c0.279-0.266,0.646-0.404,1.076-0.416c0.404,0.023,0.752,0.169,1.031,0.436
				c0.285,0.268,0.436,0.588,0.457,0.977v5.457h2.582v-5.457c0-1.101-0.34-2.028-1.008-2.762
				C87.264,48.104,86.432,47.731,85.461,47.731z"/>
			<path fill="#999999" d="M99.172,53.27c-0.541,0.92-1.34,1.385-2.375,1.385c-0.844,0-1.523-0.342-2.021-1.018
				c-0.504-0.682-0.76-1.625-0.76-2.807c0-1.157,0.256-2.088,0.76-2.769c0.498-0.676,1.182-1.019,2.021-1.019
				c1.059,0,1.857,0.454,2.375,1.346l0.043,0.071l2.301-1.248l-0.039-0.073c-0.432-0.84-1.061-1.505-1.879-1.979
				c-0.811-0.476-1.721-0.716-2.707-0.716c-1.629,0-2.965,0.594-3.975,1.766c-1.008,1.168-1.52,2.721-1.52,4.621
				c0,1.812,0.475,3.354,1.404,4.583c0.939,1.231,2.283,1.86,3.996,1.86c0.98,0,1.873-0.207,2.645-0.612
				c0.771-0.411,1.455-1.128,2.033-2.136l0.043-0.075l-2.305-1.25L99.172,53.27z"/>
			<path fill="#999999" d="M107.117,47.731c-0.641,0-1.158,0.222-1.539,0.657V47.95h-2.617v9.103h2.617v-5.018
				c0-0.45,0.145-0.834,0.434-1.146c0.283-0.31,0.646-0.472,1.072-0.482h0.045c0.488,0,0.906,0.175,1.242,0.52l0.098,0.104
				l0.83-2.531l-0.045-0.037C108.658,47.979,107.938,47.731,107.117,47.731z"/>
			<path fill="#999999" d="M115.938,53.434c-0.033,0.383-0.188,0.7-0.477,0.969c-0.281,0.266-0.646,0.404-1.078,0.416
				c-0.402-0.021-0.75-0.17-1.033-0.434c-0.283-0.269-0.434-0.59-0.455-0.98V47.95h-2.582v5.454c0,1.102,0.338,2.031,1.006,2.762
				c0.674,0.732,1.504,1.107,2.477,1.107c0.836,0,1.557-0.229,2.141-0.674v0.452h2.617V47.95h-2.617v5.481h0.002V53.434z"/>
			<path fill="#999999" d="M125.15,47.731c-0.84,0-1.559,0.227-2.143,0.672V47.95h-2.619v9.103h2.619v-5.484
				c0.035-0.383,0.189-0.699,0.477-0.967c0.279-0.266,0.645-0.404,1.076-0.416c0.402,0.023,0.75,0.169,1.033,0.436
				c0.281,0.265,0.434,0.595,0.457,0.977v5.457h2.582v-5.457c0-1.101-0.34-2.029-1.008-2.762
				C126.953,48.104,126.121,47.731,125.15,47.731z"/>
			<path fill="#999999" d="M135.695,53.932l-0.051,0.053c-0.434,0.459-0.959,0.692-1.562,0.705c-0.561,0-1.057-0.217-1.475-0.642
				c-0.42-0.424-0.631-0.96-0.631-1.593c0-0.619,0.211-1.152,0.631-1.584c0.42-0.433,0.914-0.648,1.475-0.648
				c0.77,0,1.342,0.233,1.744,0.717l0.051,0.063l1.812-1.396l-0.051-0.07c-0.879-1.197-2.074-1.806-3.559-1.806
				c-1.297,0-2.41,0.457-3.312,1.358c-0.898,0.898-1.363,2.037-1.377,3.385c0.014,1.346,0.479,2.484,1.377,3.385
				c0.902,0.902,2.016,1.358,3.312,1.358c1.482,0,2.682-0.616,3.559-1.825l0.053-0.072l-1.934-1.346L135.695,53.932z"/>
			<path fill="#999999" d="M146.492,48.835c-0.674-0.731-1.504-1.104-2.477-1.104c-0.838,0-1.559,0.227-2.141,0.672v-4.013
				l-2.572,1.285l-0.047,0.023v11.354h2.619v-5.484c0.033-0.383,0.188-0.699,0.477-0.967c0.281-0.266,0.646-0.404,1.078-0.416
				c0.4,0.023,0.752,0.169,1.031,0.436c0.285,0.268,0.436,0.588,0.457,0.977v5.457h2.582v-5.457
				C147.498,50.497,147.162,49.567,146.492,48.835z"/>
		</g>
		<g>
			<polygon fill="#999999" points="16.202,39.727 9.353,39.727 2.5,39.727 2.5,46.575 9.353,46.575 9.353,53.423 9.353,60.273 
				16.202,60.273 16.202,53.423 16.202,46.575 23.047,46.575 23.047,39.727 			"/>
			<polygon fill="#999999" points="43.599,46.575 43.599,39.727 36.749,39.727 29.897,39.727 29.897,46.575 36.749,46.575 			"/>
			<polygon fill="#999999" points="23.047,46.575 23.047,53.423 23.047,60.273 29.897,60.273 36.749,60.273 43.599,60.273 
				43.599,53.423 36.749,53.423 29.897,53.423 29.897,46.575 			"/>
		</g>
	</g>
</g>
</svg>
