<?xml version="1.0" encoding="utf-8"?>
<!-- Generator: Adobe Illustrator 16.0.1, SVG Export Plug-In . SVG Version: 6.00 Build 0)  -->
<!DOCTYPE svg PUBLIC "-//W3C//DTD SVG 1.1//EN" "http://www.w3.org/Graphics/SVG/1.1/DTD/svg11.dtd">
<svg version="1.1" id="Layer_1" xmlns="http://www.w3.org/2000/svg" xmlns:xlink="http://www.w3.org/1999/xlink" x="0px" y="0px"
	 width="200px" height="200px" viewBox="0 0 200 200" enable-background="new 0 0 200 200" xml:space="preserve">
<g>
	<g>
		<g>
			<polygon fill="#CDCCCC" points="75.993,97.218 79.384,97.218 79.384,107.075 81.937,107.075 81.937,97.218 85.29,97.218 
				85.29,94.591 75.993,94.591 			"/>
			<path fill="#CDCCCC" d="M93.305,98.398c-0.652-0.447-1.368-0.675-2.127-0.675c-0.747,0-1.469,0.202-2.149,0.599
				c-0.685,0.399-1.221,0.979-1.593,1.722c-0.371,0.74-0.558,1.562-0.558,2.438c0,1.383,0.414,2.533,1.232,3.419
				c0.821,0.889,1.889,1.339,3.179,1.339c1.279,0,2.351-0.548,3.182-1.628l0.052-0.068l-1.697-1.335l-0.061-0.046l-0.053,0.054
				c-0.416,0.414-0.876,0.616-1.407,0.616h-0.057c-0.439,0-0.827-0.135-1.151-0.402c-0.312-0.258-0.528-0.613-0.642-1.059h5.839
				v-0.085c0-1.325-0.168-2.369-0.504-3.104C94.457,99.444,93.957,98.845,93.305,98.398z M90.019,100.467
				c0.348-0.245,0.737-0.378,1.16-0.392c0.423,0.014,0.808,0.146,1.148,0.392c0.31,0.222,0.511,0.516,0.622,0.897h-3.561
				C89.494,100.988,89.706,100.688,90.019,100.467z"/>
			<path fill="#CDCCCC" d="M102.576,103.944l-0.051,0.053c-0.436,0.459-0.963,0.695-1.571,0.707c-0.559,0-1.056-0.217-1.475-0.643
				c-0.422-0.427-0.635-0.965-0.635-1.598c0-0.621,0.213-1.156,0.635-1.589c0.419-0.434,0.917-0.652,1.475-0.652
				c0.764,0,1.354,0.243,1.749,0.718l0.055,0.066l1.818-1.401l-0.051-0.07c-0.881-1.201-2.082-1.812-3.571-1.812
				c-1.3,0-2.418,0.458-3.318,1.364c-0.906,0.901-1.371,2.044-1.383,3.395c0.012,1.35,0.477,2.491,1.383,3.396
				c0.9,0.903,2.019,1.362,3.318,1.362c1.491,0,2.69-0.618,3.571-1.831l0.051-0.072l-1.939-1.35L102.576,103.944z"/>
			<path fill="#CDCCCC" d="M110.494,97.724c-0.842,0-1.564,0.228-2.15,0.675v-4.026l-2.58,1.29l-0.047,0.023v11.39h2.627v-5.502
				c0.035-0.379,0.195-0.707,0.479-0.97c0.281-0.266,0.648-0.406,1.08-0.418c0.406,0.024,0.754,0.17,1.035,0.437
				c0.287,0.268,0.436,0.59,0.459,0.979v5.474h2.59v-5.474c0-1.104-0.34-2.035-1.01-2.77
				C112.303,98.097,111.469,97.724,110.494,97.724z"/>
			<path fill="#CDCCCC" d="M124.248,103.28c-0.543,0.921-1.344,1.388-2.383,1.388c-0.846,0-1.527-0.343-2.027-1.019
				c-0.506-0.684-0.762-1.631-0.762-2.816c0-1.161,0.256-2.095,0.762-2.778c0.5-0.677,1.184-1.021,2.027-1.021
				c1.062,0,1.865,0.455,2.383,1.35l0.043,0.072l2.309-1.252l-0.039-0.074c-0.434-0.842-1.066-1.509-1.885-1.986
				c-0.814-0.477-1.727-0.718-2.717-0.718c-1.633,0-2.973,0.596-3.986,1.771c-1.012,1.172-1.523,2.729-1.523,4.636
				c0,1.818,0.475,3.363,1.408,4.596c0.943,1.237,2.291,1.867,4.008,1.867c0.986,0,1.879-0.207,2.654-0.615
				c0.773-0.411,1.459-1.13,2.039-2.141l0.043-0.076l-2.311-1.254L124.248,103.28z"/>
			<path fill="#CDCCCC" d="M132.219,97.724c-0.643,0-1.162,0.223-1.545,0.66v-0.439h-2.625v9.131h2.625v-5.033
				c0-0.452,0.146-0.837,0.436-1.15c0.285-0.311,0.648-0.474,1.076-0.485h0.045c0.49,0,0.908,0.176,1.246,0.522l0.098,0.104
				l0.832-2.54l-0.045-0.037C133.764,97.971,133.041,97.724,132.219,97.724z"/>
			<path fill="#CDCCCC" d="M141.066,103.444c-0.033,0.383-0.189,0.703-0.477,0.971c-0.283,0.266-0.648,0.405-1.082,0.418
				c-0.404-0.021-0.752-0.17-1.037-0.435c-0.285-0.269-0.434-0.591-0.457-0.983v-5.471h-2.59v5.471c0,1.105,0.34,2.037,1.01,2.771
				c0.674,0.735,1.508,1.11,2.484,1.11c0.838,0,1.561-0.228,2.148-0.676v0.455h2.625v-9.131h-2.625V103.444z"/>
			<path fill="#CDCCCC" d="M150.309,97.724c-0.842,0-1.564,0.228-2.15,0.675v-0.454h-2.627v9.131h2.627v-5.502
				c0.037-0.385,0.193-0.702,0.479-0.97c0.281-0.266,0.646-0.406,1.08-0.418c0.404,0.024,0.752,0.17,1.037,0.437
				c0.281,0.265,0.434,0.597,0.457,0.979v5.474h2.59v-5.474c0-1.104-0.34-2.036-1.01-2.77
				C152.117,98.097,151.281,97.724,150.309,97.724z"/>
			<path fill="#CDCCCC" d="M160.887,103.944l-0.051,0.053c-0.434,0.459-0.961,0.695-1.568,0.707c-0.561,0-1.059-0.217-1.479-0.643
				c-0.42-0.425-0.633-0.963-0.633-1.598c0-0.621,0.213-1.156,0.633-1.589c0.422-0.434,0.918-0.652,1.479-0.652
				c0.773,0,1.346,0.235,1.75,0.719l0.051,0.065l1.818-1.401l-0.051-0.07c-0.881-1.201-2.08-1.812-3.568-1.812
				c-1.301,0-2.418,0.458-3.322,1.364c-0.904,0.901-1.369,2.044-1.381,3.395c0.012,1.35,0.477,2.492,1.381,3.396
				s2.021,1.362,3.322,1.362c1.488,0,2.689-0.618,3.568-1.831l0.053-0.072l-1.939-1.35L160.887,103.944z"/>
			<path fill="#CDCCCC" d="M171.717,98.832c-0.674-0.735-1.508-1.108-2.482-1.108c-0.842,0-1.564,0.228-2.148,0.675v-4.026
				l-2.58,1.29l-0.047,0.023v11.39h2.627v-5.502c0.033-0.385,0.189-0.702,0.477-0.97c0.281-0.266,0.648-0.406,1.082-0.418
				c0.402,0.024,0.754,0.17,1.033,0.437c0.287,0.268,0.438,0.59,0.459,0.979v5.474h2.59v-5.474
				C172.727,100.498,172.389,99.566,171.717,98.832z"/>
		</g>
		<g>
			<polygon fill="#CDCCCC" points="41.017,89.694 34.146,89.694 27.273,89.694 27.273,96.564 34.146,96.564 34.146,103.434 
				34.146,110.306 41.017,110.306 41.017,103.434 41.017,96.564 47.885,96.564 47.885,89.694 			"/>
			<polygon fill="#CDCCCC" points="68.5,96.564 68.5,89.694 61.629,89.694 54.757,89.694 54.757,96.564 61.629,96.564 			"/>
			<polygon fill="#CDCCCC" points="47.885,96.564 47.885,103.434 47.885,110.306 54.757,110.306 61.629,110.306 68.5,110.306 
				68.5,103.434 61.629,103.434 54.757,103.434 54.757,96.564 			"/>
		</g>
	</g>
</g>
</svg>
