<?xml version="1.0" encoding="utf-8"?>
<!-- Generator: Adobe Illustrator 16.0.1, SVG Export Plug-In . SVG Version: 6.00 Build 0)  -->
<!DOCTYPE svg PUBLIC "-//W3C//DTD SVG 1.1//EN" "http://www.w3.org/Graphics/SVG/1.1/DTD/svg11.dtd">
<svg version="1.1" id="Layer_1" xmlns="http://www.w3.org/2000/svg" xmlns:xlink="http://www.w3.org/1999/xlink" x="0px" y="0px"
	 width="150px" height="100px" viewBox="25 0 150 100" enable-background="new 25 0 150 100" xml:space="preserve">
<g>
	<g>
		<g>
			<polygon fill="#CDCCCC" points="76.067,47.227 79.447,47.227 79.447,57.053 81.993,57.053 81.993,47.227 85.335,47.227 
				85.335,44.608 76.067,44.608 			"/>
			<path fill="#CDCCCC" d="M93.326,48.403c-0.65-0.445-1.364-0.672-2.12-0.672c-0.745,0-1.465,0.201-2.143,0.597
				c-0.682,0.397-1.217,0.975-1.587,1.716c-0.37,0.737-0.557,1.557-0.557,2.431c0,1.379,0.413,2.525,1.229,3.407
				c0.819,0.887,1.883,1.336,3.169,1.336c1.275,0,2.344-0.547,3.172-1.624l0.052-0.067l-1.692-1.33l-0.061-0.046l-0.053,0.053
				c-0.415,0.413-0.874,0.615-1.402,0.615h-0.058c-0.437,0-0.825-0.135-1.147-0.4c-0.312-0.258-0.526-0.611-0.64-1.057h5.82v-0.085
				c0-1.32-0.167-2.361-0.502-3.094C94.474,49.446,93.975,48.848,93.326,48.403z M90.05,50.465c0.347-0.244,0.734-0.377,1.157-0.39
				c0.421,0.013,0.805,0.146,1.144,0.39c0.31,0.222,0.509,0.514,0.62,0.895h-3.549C89.526,50.985,89.737,50.686,90.05,50.465z"/>
			<path fill="#CDCCCC" d="M102.567,53.931l-0.051,0.054c-0.436,0.458-0.96,0.692-1.566,0.705c-0.557,0-1.052-0.217-1.47-0.642
				c-0.42-0.426-0.634-0.962-0.634-1.593c0-0.619,0.213-1.152,0.634-1.584c0.418-0.433,0.914-0.649,1.47-0.649
				c0.761,0,1.351,0.242,1.743,0.715l0.055,0.066l1.812-1.396l-0.05-0.07c-0.879-1.197-2.076-1.806-3.561-1.806
				c-1.296,0-2.411,0.457-3.307,1.359c-0.903,0.898-1.367,2.037-1.379,3.385c0.013,1.346,0.476,2.482,1.379,3.385
				c0.896,0.9,2.012,1.358,3.307,1.358c1.486,0,2.682-0.616,3.561-1.825l0.05-0.072l-1.933-1.347L102.567,53.931z"/>
			<path fill="#CDCCCC" d="M110.46,47.731c-0.839,0-1.56,0.227-2.144,0.672v-4.013l-2.571,1.286l-0.047,0.023v11.354h2.618v-5.484
				c0.035-0.378,0.195-0.705,0.479-0.968c0.279-0.265,0.646-0.404,1.075-0.416c0.405,0.024,0.753,0.169,1.032,0.436
				c0.286,0.267,0.436,0.588,0.457,0.976v5.457h2.582v-5.457c0-1.1-0.339-2.028-1.007-2.761
				C112.264,48.103,111.432,47.731,110.46,47.731z"/>
			<path fill="#CDCCCC" d="M124.171,53.27c-0.541,0.919-1.339,1.384-2.375,1.384c-0.843,0-1.522-0.342-2.021-1.017
				c-0.504-0.682-0.759-1.625-0.759-2.807c0-1.157,0.255-2.088,0.759-2.769c0.499-0.675,1.181-1.018,2.021-1.018
				c1.059,0,1.859,0.454,2.375,1.345l0.043,0.072l2.302-1.248l-0.039-0.074c-0.433-0.839-1.062-1.504-1.879-1.979
				c-0.812-0.476-1.722-0.716-2.708-0.716c-1.628,0-2.964,0.594-3.975,1.766c-1.008,1.168-1.518,2.72-1.518,4.621
				c0,1.812,0.474,3.353,1.403,4.583c0.94,1.232,2.283,1.86,3.996,1.86c0.982,0,1.873-0.207,2.645-0.612
				c0.771-0.411,1.455-1.128,2.033-2.136l0.043-0.075l-2.304-1.25L124.171,53.27z"/>
			<path fill="#CDCCCC" d="M132.117,47.731c-0.641,0-1.158,0.222-1.54,0.657v-0.438h-2.617v9.103h2.617v-5.018
				c0-0.45,0.146-0.834,0.434-1.146c0.284-0.31,0.646-0.472,1.073-0.483h0.045c0.488,0,0.905,0.175,1.242,0.52l0.098,0.104
				l0.83-2.532l-0.046-0.037C133.657,47.978,132.937,47.731,132.117,47.731z"/>
			<path fill="#CDCCCC" d="M140.937,53.433c-0.032,0.383-0.188,0.701-0.476,0.969c-0.281,0.266-0.646,0.404-1.079,0.417
				c-0.401-0.021-0.749-0.17-1.032-0.434c-0.284-0.269-0.434-0.59-0.456-0.98V47.95h-2.582v5.454c0,1.102,0.339,2.031,1.007,2.762
				c0.672,0.733,1.503,1.107,2.476,1.107c0.836,0,1.557-0.228,2.141-0.674v0.453h2.617V47.95h-2.617v5.482H140.937z"/>
			<path fill="#CDCCCC" d="M150.15,47.731c-0.839,0-1.559,0.227-2.143,0.672v-0.453h-2.619v9.103h2.619v-5.484
				c0.036-0.384,0.191-0.7,0.478-0.968c0.279-0.265,0.644-0.404,1.076-0.416c0.402,0.024,0.75,0.169,1.033,0.436
				c0.28,0.265,0.434,0.595,0.456,0.976v5.457h2.583v-5.457c0-1.1-0.34-2.029-1.008-2.761
				C151.953,48.103,151.12,47.731,150.15,47.731z"/>
			<path fill="#CDCCCC" d="M160.695,53.931l-0.051,0.054c-0.433,0.458-0.958,0.692-1.563,0.705c-0.559,0-1.055-0.217-1.474-0.642
				c-0.419-0.424-0.631-0.96-0.631-1.593c0-0.619,0.212-1.152,0.631-1.584c0.421-0.433,0.915-0.649,1.474-0.649
				c0.771,0,1.342,0.234,1.745,0.717l0.05,0.064l1.813-1.396l-0.051-0.07c-0.878-1.197-2.074-1.806-3.558-1.806
				c-1.297,0-2.41,0.457-3.312,1.359c-0.9,0.898-1.364,2.037-1.377,3.385c0.013,1.346,0.477,2.484,1.377,3.385
				c0.901,0.901,2.015,1.358,3.312,1.358c1.483,0,2.682-0.616,3.558-1.825l0.053-0.072l-1.933-1.347L160.695,53.931z"/>
			<path fill="#CDCCCC" d="M171.491,48.835c-0.672-0.732-1.503-1.104-2.475-1.104c-0.839,0-1.559,0.227-2.141,0.672v-4.013
				l-2.572,1.286l-0.047,0.023v11.354h2.619v-5.484c0.033-0.384,0.188-0.7,0.477-0.968c0.28-0.265,0.645-0.404,1.078-0.416
				c0.4,0.024,0.752,0.169,1.03,0.436c0.285,0.267,0.436,0.588,0.457,0.976v5.457h2.582v-5.457
				C172.498,50.497,172.161,49.567,171.491,48.835z"/>
		</g>
		<g>
			<polygon fill="#CDCCCC" points="41.201,39.726 34.352,39.726 27.5,39.726 27.5,46.575 34.352,46.575 34.352,53.423 
				34.352,60.274 41.201,60.274 41.201,53.423 41.201,46.575 48.047,46.575 48.047,39.726 			"/>
			<polygon fill="#CDCCCC" points="68.598,46.575 68.598,39.726 61.748,39.726 54.897,39.726 54.897,46.575 61.748,46.575 			"/>
			<polygon fill="#CDCCCC" points="48.047,46.575 48.047,53.423 48.047,60.274 54.897,60.274 61.748,60.274 68.598,60.274 
				68.598,53.423 61.748,53.423 54.897,53.423 54.897,46.575 			"/>
		</g>
	</g>
</g>
</svg>
